%TF.GenerationSoftware,KiCad,Pcbnew,10.0.4*%
%TF.CreationDate,2026-06-30T18:59:33+09:00*%
%TF.ProjectId,NanoSoul,4e616e6f-536f-4756-9c2e-6b696361645f,rev?*%
%TF.SameCoordinates,Original*%
%TF.FileFunction,Soldermask,Bot*%
%TF.FilePolarity,Negative*%
%FSLAX46Y46*%
G04 Gerber Fmt 4.6, Leading zero omitted, Abs format (unit mm)*
G04 Created by KiCad (PCBNEW 10.0.4) date 2026-06-30 18:59:33*
%MOMM*%
%LPD*%
G01*
G04 APERTURE LIST*
G04 Aperture macros list*
%AMRoundRect*
0 Rectangle with rounded corners*
0 $1 Rounding radius*
0 $2 $3 $4 $5 $6 $7 $8 $9 X,Y pos of 4 corners*
0 Add a 4 corners polygon primitive as box body*
4,1,4,$2,$3,$4,$5,$6,$7,$8,$9,$2,$3,0*
0 Add four circle primitives for the rounded corners*
1,1,$1+$1,$2,$3*
1,1,$1+$1,$4,$5*
1,1,$1+$1,$6,$7*
1,1,$1+$1,$8,$9*
0 Add four rect primitives between the rounded corners*
20,1,$1+$1,$2,$3,$4,$5,0*
20,1,$1+$1,$4,$5,$6,$7,0*
20,1,$1+$1,$6,$7,$8,$9,0*
20,1,$1+$1,$8,$9,$2,$3,0*%
G04 Aperture macros list end*
%ADD10R,1.700000X1.700000*%
%ADD11C,1.700000*%
%ADD12C,3.200000*%
%ADD13C,0.750000*%
%ADD14O,1.200000X2.000000*%
%ADD15O,1.200000X1.800000*%
%ADD16RoundRect,0.250000X-0.350000X-0.625000X0.350000X-0.625000X0.350000X0.625000X-0.350000X0.625000X0*%
%ADD17O,1.200000X1.750000*%
G04 APERTURE END LIST*
D10*
%TO.C,J4*%
X158900000Y-74600000D03*
D11*
X158900000Y-77140000D03*
X158900000Y-79680000D03*
X158900000Y-82220000D03*
X158900000Y-84760000D03*
X158900000Y-87300000D03*
X158900000Y-89840000D03*
X158900000Y-92380000D03*
X158900000Y-94920000D03*
X158900000Y-97460000D03*
X158900000Y-100000000D03*
X158900000Y-102540000D03*
X158900000Y-105080000D03*
X158900000Y-107620000D03*
X158900000Y-110160000D03*
X158900000Y-112700000D03*
X158900000Y-115240000D03*
X158900000Y-117780000D03*
X158900000Y-120320000D03*
X158900000Y-122860000D03*
%TD*%
D10*
%TO.C,J5*%
X104220000Y-104185000D03*
D11*
X104220000Y-106725000D03*
X104220000Y-109265000D03*
X104220000Y-111805000D03*
X104220000Y-114345000D03*
X104220000Y-116885000D03*
%TD*%
D10*
%TO.C,J3*%
X141100000Y-74600000D03*
D11*
X141100000Y-77140000D03*
X141100000Y-79680000D03*
X141100000Y-82220000D03*
X141100000Y-84760000D03*
X141100000Y-87300000D03*
X141100000Y-89840000D03*
X141100000Y-92380000D03*
X141100000Y-94920000D03*
X141100000Y-97460000D03*
X141100000Y-100000000D03*
X141100000Y-102540000D03*
X141100000Y-105080000D03*
X141100000Y-107620000D03*
X141100000Y-110160000D03*
X141100000Y-112700000D03*
X141100000Y-115240000D03*
X141100000Y-117780000D03*
X141100000Y-120320000D03*
X141100000Y-122860000D03*
%TD*%
D12*
%TO.C,H2*%
X181000000Y-57000000D03*
%TD*%
D10*
%TO.C,J6*%
X109650000Y-104185000D03*
D11*
X109650000Y-106725000D03*
X109650000Y-109265000D03*
X109650000Y-111805000D03*
X109650000Y-114345000D03*
X109650000Y-116885000D03*
%TD*%
D12*
%TO.C,H4*%
X187000000Y-138000000D03*
%TD*%
D13*
%TO.C,J2*%
X128900000Y-55835000D03*
X123100000Y-55835000D03*
D14*
X121670000Y-56335000D03*
D15*
X121670000Y-52155000D03*
X130330000Y-52155000D03*
D14*
X130330000Y-56335000D03*
%TD*%
D12*
%TO.C,H3*%
X112000000Y-137000000D03*
%TD*%
D10*
%TO.C,J7*%
X163210000Y-85593000D03*
D11*
X163210000Y-88133000D03*
X163210000Y-90673000D03*
X163210000Y-93213000D03*
X163210000Y-95753000D03*
X163210000Y-98293000D03*
%TD*%
D12*
%TO.C,H1*%
X112000000Y-63000000D03*
%TD*%
D16*
%TO.C,J1*%
X190600000Y-64699000D03*
D17*
X192600000Y-64699000D03*
%TD*%
M02*
