M48
; DRILL file KiCad 10.0.4 date 2026-06-30T18:59:33
; FORMAT={-:-/ absolute / metric / decimal}
; #@! TF.CreationDate,2026-06-30T18:59:33+09:00
; #@! TF.GenerationSoftware,Kicad,Pcbnew,10.0.4
; #@! TF.FileFunction,MixedPlating,1,2
FMAT,2
METRIC
; #@! TA.AperFunction,Plated,PTH,ViaDrill
T1C0.300
; #@! TA.AperFunction,Plated,PTH,ViaDrill
T2C0.350
; #@! TA.AperFunction,Plated,PTH,ComponentDrill
T3C0.750
; #@! TA.AperFunction,Plated,PTH,ComponentDrill
T4C0.800
; #@! TA.AperFunction,Plated,PTH,ComponentDrill
T5C1.000
; #@! TA.AperFunction,NonPlated,NPTH,ComponentDrill
T6C0.750
; #@! TA.AperFunction,NonPlated,NPTH,ComponentDrill
T7C3.200
%
G90
G05
T1
X106.935Y-99.247
X108.034Y-111.304
X108.932Y-120.071
X113.829Y-101.868
X117.79Y-104.21
X118.013Y-98.279
X120.141Y-107.074
X121.425Y-72.446
X125.522Y-70.494
X126.895Y-130.283
X127.171Y-100.01
X127.252Y-131.078
X128.516Y-118.224
X129.455Y-106.555
X129.582Y-103.118
X132.977Y-58.822
X132.977Y-68.495
X134.012Y-99.25
X134.607Y-87.923
X135.122Y-66.56
X136.24Y-99.983
X136.25Y-102.844
X136.251Y-109.405
X137.032Y-113.476
X137.278Y-101.939
X137.299Y-98.478
X138.09Y-99.25
X138.369Y-103.123
X138.945Y-92.261
X139.0Y-111.718
X139.923Y-101.04
X140.758Y-128.405
X159.552Y-125.721
X160.188Y-86.38
X160.677Y-89.532
X160.846Y-103.438
X161.143Y-83.712
X161.517Y-122.342
X161.785Y-105.08
X163.04Y-99.67
X164.486Y-103.754
X164.49Y-112.147
X165.283Y-108.525
X166.668Y-107.849
X168.197Y-70.985
T2
X111.808Y-87.132
X123.377Y-58.358
X123.691Y-85.455
X126.549Y-69.472
X127.565Y-105.939
X127.676Y-69.209
X128.247Y-58.473
X132.146Y-73.338
X134.542Y-111.206
X161.058Y-68.861
X163.988Y-110.907
X166.016Y-85.363
X166.016Y-100.393
X187.842Y-75.241
X194.815Y-71.939
T3
X190.6Y-64.699
X192.6Y-64.699
T5
X104.22Y-104.185
X104.22Y-106.725
X104.22Y-109.265
X104.22Y-111.805
X104.22Y-114.345
X104.22Y-116.885
X109.65Y-104.185
X109.65Y-106.725
X109.65Y-109.265
X109.65Y-111.805
X109.65Y-114.345
X109.65Y-116.885
X141.1Y-74.6
X141.1Y-77.14
X141.1Y-79.68
X141.1Y-82.22
X141.1Y-84.76
X141.1Y-87.3
X141.1Y-89.84
X141.1Y-92.38
X141.1Y-94.92
X141.1Y-97.46
X141.1Y-100.0
X141.1Y-102.54
X141.1Y-105.08
X141.1Y-107.62
X141.1Y-110.16
X141.1Y-112.7
X141.1Y-115.24
X141.1Y-117.78
X141.1Y-120.32
X141.1Y-122.86
X158.9Y-74.6
X158.9Y-77.14
X158.9Y-79.68
X158.9Y-82.22
X158.9Y-84.76
X158.9Y-87.3
X158.9Y-89.84
X158.9Y-92.38
X158.9Y-94.92
X158.9Y-97.46
X158.9Y-100.0
X158.9Y-102.54
X158.9Y-105.08
X158.9Y-107.62
X158.9Y-110.16
X158.9Y-112.7
X158.9Y-115.24
X158.9Y-117.78
X158.9Y-120.32
X158.9Y-122.86
X163.21Y-85.593
X163.21Y-88.133
X163.21Y-90.673
X163.21Y-93.213
X163.21Y-95.753
X163.21Y-98.293
T6
X123.1Y-55.835
X128.9Y-55.835
T7
X112.0Y-63.0
X112.0Y-137.0
X181.0Y-57.0
X187.0Y-138.0
T4
X121.67Y-52.455G85X121.67Y-51.855
G05
X121.67Y-56.735G85X121.67Y-55.935
G05
X130.33Y-52.455G85X130.33Y-51.855
G05
X130.33Y-56.735G85X130.33Y-55.935
G05
M30
