%TF.GenerationSoftware,KiCad,Pcbnew,10.0.4*%
%TF.CreationDate,2026-06-22T15:15:04+09:00*%
%TF.ProjectId,NanoSoul,4e616e6f-536f-4756-9c2e-6b696361645f,rev?*%
%TF.SameCoordinates,Original*%
%TF.FileFunction,Copper,L1,Top*%
%TF.FilePolarity,Positive*%
%FSLAX46Y46*%
G04 Gerber Fmt 4.6, Leading zero omitted, Abs format (unit mm)*
G04 Created by KiCad (PCBNEW 10.0.4) date 2026-06-22 15:15:04*
%MOMM*%
%LPD*%
G01*
G04 APERTURE LIST*
G04 Aperture macros list*
%AMRoundRect*
0 Rectangle with rounded corners*
0 $1 Rounding radius*
0 $2 $3 $4 $5 $6 $7 $8 $9 X,Y pos of 4 corners*
0 Add a 4 corners polygon primitive as box body*
4,1,4,$2,$3,$4,$5,$6,$7,$8,$9,$2,$3,0*
0 Add four circle primitives for the rounded corners*
1,1,$1+$1,$2,$3*
1,1,$1+$1,$4,$5*
1,1,$1+$1,$6,$7*
1,1,$1+$1,$8,$9*
0 Add four rect primitives between the rounded corners*
20,1,$1+$1,$2,$3,$4,$5,0*
20,1,$1+$1,$4,$5,$6,$7,0*
20,1,$1+$1,$6,$7,$8,$9,0*
20,1,$1+$1,$8,$9,$2,$3,0*%
G04 Aperture macros list end*
%TA.AperFunction,SMDPad,CuDef*%
%ADD10RoundRect,0.225000X-0.225000X-0.250000X0.225000X-0.250000X0.225000X0.250000X-0.225000X0.250000X0*%
%TD*%
%TA.AperFunction,SMDPad,CuDef*%
%ADD11RoundRect,0.250000X-1.950000X-1.000000X1.950000X-1.000000X1.950000X1.000000X-1.950000X1.000000X0*%
%TD*%
%TA.AperFunction,SMDPad,CuDef*%
%ADD12RoundRect,0.200000X-0.200000X-0.275000X0.200000X-0.275000X0.200000X0.275000X-0.200000X0.275000X0*%
%TD*%
%TA.AperFunction,ComponentPad*%
%ADD13R,1.700000X1.700000*%
%TD*%
%TA.AperFunction,ComponentPad*%
%ADD14C,1.700000*%
%TD*%
%TA.AperFunction,SMDPad,CuDef*%
%ADD15R,1.100000X0.600000*%
%TD*%
%TA.AperFunction,SMDPad,CuDef*%
%ADD16RoundRect,0.250000X-0.250000X-0.475000X0.250000X-0.475000X0.250000X0.475000X-0.250000X0.475000X0*%
%TD*%
%TA.AperFunction,SMDPad,CuDef*%
%ADD17R,0.600000X1.200000*%
%TD*%
%TA.AperFunction,SMDPad,CuDef*%
%ADD18R,2.000000X2.000000*%
%TD*%
%TA.AperFunction,SMDPad,CuDef*%
%ADD19R,0.532000X1.072000*%
%TD*%
%TA.AperFunction,SMDPad,CuDef*%
%ADD20RoundRect,0.250000X-0.262500X-0.450000X0.262500X-0.450000X0.262500X0.450000X-0.262500X0.450000X0*%
%TD*%
%TA.AperFunction,SMDPad,CuDef*%
%ADD21R,0.505000X0.280000*%
%TD*%
%TA.AperFunction,SMDPad,CuDef*%
%ADD22R,1.500000X1.200000*%
%TD*%
%TA.AperFunction,SMDPad,CuDef*%
%ADD23R,0.675000X0.280000*%
%TD*%
%TA.AperFunction,SMDPad,CuDef*%
%ADD24R,0.280000X0.675000*%
%TD*%
%TA.AperFunction,SMDPad,CuDef*%
%ADD25R,1.500000X2.400000*%
%TD*%
%TA.AperFunction,SMDPad,CuDef*%
%ADD26R,2.100000X1.800000*%
%TD*%
%TA.AperFunction,SMDPad,CuDef*%
%ADD27O,0.308000X1.324000*%
%TD*%
%TA.AperFunction,SMDPad,CuDef*%
%ADD28RoundRect,0.243750X-0.243750X-0.456250X0.243750X-0.456250X0.243750X0.456250X-0.243750X0.456250X0*%
%TD*%
%TA.AperFunction,SMDPad,CuDef*%
%ADD29RoundRect,0.150000X-0.150000X-0.625000X0.150000X-0.625000X0.150000X0.625000X-0.150000X0.625000X0*%
%TD*%
%TA.AperFunction,SMDPad,CuDef*%
%ADD30RoundRect,0.250000X-0.350000X-0.650000X0.350000X-0.650000X0.350000X0.650000X-0.350000X0.650000X0*%
%TD*%
%TA.AperFunction,SMDPad,CuDef*%
%ADD31R,1.230000X1.860000*%
%TD*%
%TA.AperFunction,ComponentPad*%
%ADD32RoundRect,0.250000X-0.350000X-0.625000X0.350000X-0.625000X0.350000X0.625000X-0.350000X0.625000X0*%
%TD*%
%TA.AperFunction,ComponentPad*%
%ADD33O,1.200000X1.750000*%
%TD*%
%TA.AperFunction,ViaPad*%
%ADD34C,0.600000*%
%TD*%
%TA.AperFunction,ViaPad*%
%ADD35C,0.550000*%
%TD*%
%TA.AperFunction,Conductor*%
%ADD36C,0.200000*%
%TD*%
%TA.AperFunction,Conductor*%
%ADD37C,0.500000*%
%TD*%
G04 APERTURE END LIST*
D10*
%TO.P,C9,1*%
%TO.N,MOT_ISENSE*%
X184415000Y-101810000D03*
%TO.P,C9,2*%
%TO.N,GND*%
X185965000Y-101810000D03*
%TD*%
D11*
%TO.P,C8,1*%
%TO.N,VMOT_F*%
X169420000Y-98433000D03*
%TO.P,C8,2*%
%TO.N,GND*%
X176820000Y-98433000D03*
%TD*%
D12*
%TO.P,R1,1*%
%TO.N,VBAT*%
X124705000Y-119711000D03*
%TO.P,R1,2*%
%TO.N,DW_VCC*%
X126355000Y-119711000D03*
%TD*%
%TO.P,R15,1*%
%TO.N,V3V3*%
X189807500Y-71765000D03*
%TO.P,R15,2*%
%TO.N,I2C1_SDA*%
X191457500Y-71765000D03*
%TD*%
D10*
%TO.P,C14,1*%
%TO.N,V3V3*%
X171945000Y-123037000D03*
%TO.P,C14,2*%
%TO.N,GND*%
X173495000Y-123037000D03*
%TD*%
D12*
%TO.P,R13,1*%
%TO.N,V3V3*%
X162195000Y-123037000D03*
%TO.P,R13,2*%
%TO.N,M2_ENC_A*%
X163845000Y-123037000D03*
%TD*%
%TO.P,R4,1*%
%TO.N,V5*%
X171900000Y-89920000D03*
%TO.P,R4,2*%
%TO.N,LED_A3*%
X173550000Y-89920000D03*
%TD*%
D13*
%TO.P,J4,1*%
%TO.N,P4_VBUS*%
X158900000Y-74600000D03*
D14*
%TO.P,J4,2*%
%TO.N,VSYS*%
X158900000Y-77140000D03*
%TO.P,J4,3*%
%TO.N,GND*%
X158900000Y-79680000D03*
%TO.P,J4,4*%
%TO.N,P4_EN*%
X158900000Y-82220000D03*
%TO.P,J4,5*%
%TO.N,V3V3*%
X158900000Y-84760000D03*
%TO.P,J4,6*%
%TO.N,I2C1_SDA*%
X158900000Y-87300000D03*
%TO.P,J4,7*%
%TO.N,I2C1_SCL*%
X158900000Y-89840000D03*
%TO.P,J4,8*%
%TO.N,GND*%
X158900000Y-92380000D03*
%TO.P,J4,9*%
%TO.N,IMU_CS*%
X158900000Y-94920000D03*
%TO.P,J4,10*%
%TO.N,IMU_INT*%
X158900000Y-97460000D03*
%TO.P,J4,11*%
%TO.N,P4_RUN*%
X158900000Y-100000000D03*
%TO.P,J4,12*%
%TO.N,M2_PWM*%
X158900000Y-102540000D03*
%TO.P,J4,13*%
%TO.N,GND*%
X158900000Y-105080000D03*
%TO.P,J4,14*%
%TO.N,M2_IN1*%
X158900000Y-107620000D03*
%TO.P,J4,15*%
%TO.N,M2_IN2*%
X158900000Y-110160000D03*
%TO.P,J4,16*%
%TO.N,MOT_ISENSE*%
X158900000Y-112700000D03*
%TO.P,J4,17*%
%TO.N,M2_ENC_A*%
X158900000Y-115240000D03*
%TO.P,J4,18*%
%TO.N,GND*%
X158900000Y-117780000D03*
%TO.P,J4,19*%
%TO.N,M2_ENC_B*%
X158900000Y-120320000D03*
%TO.P,J4,20*%
%TO.N,P4_GPIO23*%
X158900000Y-122860000D03*
%TD*%
D15*
%TO.P,Q1,1*%
%TO.N,CELL_MINUS*%
X132065000Y-116209000D03*
%TO.P,Q1,2*%
%TO.N,DRAIN_COM*%
X132065000Y-115259000D03*
%TO.P,Q1,3*%
%TO.N,GND*%
X132065000Y-114309000D03*
%TO.P,Q1,4*%
%TO.N,DW_OC*%
X129365000Y-114309000D03*
%TO.P,Q1,5*%
%TO.N,DRAIN_COM*%
X129365000Y-115259000D03*
%TO.P,Q1,6*%
%TO.N,DW_OD*%
X129365000Y-116209000D03*
%TD*%
D10*
%TO.P,C15,1*%
%TO.N,V3V3*%
X189542500Y-75255000D03*
%TO.P,C15,2*%
%TO.N,GND*%
X191092500Y-75255000D03*
%TD*%
D16*
%TO.P,C7,1*%
%TO.N,VMOT*%
X117895000Y-116085000D03*
%TO.P,C7,2*%
%TO.N,GND*%
X119795000Y-116085000D03*
%TD*%
%TO.P,C2,1*%
%TO.N,VBAT*%
X176285000Y-81730000D03*
%TO.P,C2,2*%
%TO.N,GND*%
X178185000Y-81730000D03*
%TD*%
D17*
%TO.P,U2,1*%
%TO.N,CHG_IN*%
X162085000Y-70325000D03*
%TO.P,U2,2*%
%TO.N,IP_LED1*%
X163365000Y-70325000D03*
%TO.P,U2,3*%
%TO.N,IP_LED2*%
X164635000Y-70325000D03*
%TO.P,U2,4*%
%TO.N,IP_LED3*%
X165905000Y-70325000D03*
%TO.P,U2,5*%
%TO.N,KEY_BTN*%
X165905000Y-64505000D03*
%TO.P,U2,6*%
%TO.N,VBAT*%
X164635000Y-64505000D03*
%TO.P,U2,7*%
%TO.N,IP5306_SW*%
X163365000Y-64505000D03*
%TO.P,U2,8*%
%TO.N,V5*%
X162085000Y-64505000D03*
D18*
%TO.P,U2,9*%
%TO.N,GND*%
X163995000Y-67415000D03*
%TD*%
D19*
%TO.P,U1,1*%
%TO.N,DW_OD*%
X124560000Y-116600000D03*
%TO.P,U1,2*%
%TO.N,GND*%
X125510000Y-116600000D03*
%TO.P,U1,3*%
%TO.N,DW_OC*%
X126460000Y-116600000D03*
%TO.P,U1,4*%
%TO.N,N/C*%
X126460000Y-114300000D03*
%TO.P,U1,5*%
%TO.N,DW_VCC*%
X125510000Y-114300000D03*
%TO.P,U1,6*%
%TO.N,CELL_MINUS*%
X124560000Y-114300000D03*
%TD*%
D20*
%TO.P,R7,1*%
%TO.N,MOT_RTN*%
X184477500Y-94890000D03*
%TO.P,R7,2*%
%TO.N,GND*%
X186302500Y-94890000D03*
%TD*%
D10*
%TO.P,C4,1*%
%TO.N,V5*%
X176800000Y-89920000D03*
%TO.P,C4,2*%
%TO.N,GND*%
X178350000Y-89920000D03*
%TD*%
%TO.P,C10,1*%
%TO.N,V3V3*%
X123702500Y-99052000D03*
%TO.P,C10,2*%
%TO.N,GND*%
X125252500Y-99052000D03*
%TD*%
D16*
%TO.P,C13,1*%
%TO.N,VMOT_F*%
X177770000Y-113043000D03*
%TO.P,C13,2*%
%TO.N,GND*%
X179670000Y-113043000D03*
%TD*%
D13*
%TO.P,J3,1*%
%TO.N,MOTOR_STBY*%
X141100000Y-74600000D03*
D14*
%TO.P,J3,2*%
%TO.N,IMU_SCLK*%
X141100000Y-77140000D03*
%TO.P,J3,3*%
%TO.N,GND*%
X141100000Y-79680000D03*
%TO.P,J3,4*%
%TO.N,M0_ENC_B*%
X141100000Y-82220000D03*
%TO.P,J3,5*%
%TO.N,M0_ENC_A*%
X141100000Y-84760000D03*
%TO.P,J3,6*%
%TO.N,M1_ENC_B*%
X141100000Y-87300000D03*
%TO.P,J3,7*%
%TO.N,M1_ENC_A*%
X141100000Y-89840000D03*
%TO.P,J3,8*%
%TO.N,GND*%
X141100000Y-92380000D03*
%TO.P,J3,9*%
%TO.N,IMU_MOSI*%
X141100000Y-94920000D03*
%TO.P,J3,10*%
%TO.N,IMU_MISO*%
X141100000Y-97460000D03*
%TO.P,J3,11*%
%TO.N,M1_PWM*%
X141100000Y-100000000D03*
%TO.P,J3,12*%
%TO.N,M0_IN2*%
X141100000Y-102540000D03*
%TO.P,J3,13*%
%TO.N,GND*%
X141100000Y-105080000D03*
%TO.P,J3,14*%
%TO.N,M0_IN1*%
X141100000Y-107620000D03*
%TO.P,J3,15*%
%TO.N,M0_PWM*%
X141100000Y-110160000D03*
%TO.P,J3,16*%
%TO.N,P4_SCL0*%
X141100000Y-112700000D03*
%TO.P,J3,17*%
%TO.N,P4_SDA0*%
X141100000Y-115240000D03*
%TO.P,J3,18*%
%TO.N,GND*%
X141100000Y-117780000D03*
%TO.P,J3,19*%
%TO.N,M1_IN1*%
X141100000Y-120320000D03*
%TO.P,J3,20*%
%TO.N,M1_IN2*%
X141100000Y-122860000D03*
%TD*%
D13*
%TO.P,J5,1*%
%TO.N,M0_OUT_A*%
X110217500Y-71718000D03*
D14*
%TO.P,J5,2*%
%TO.N,M0_OUT_B*%
X110217500Y-74258000D03*
%TO.P,J5,3*%
%TO.N,V3V3*%
X110217500Y-76798000D03*
%TO.P,J5,4*%
%TO.N,GND*%
X110217500Y-79338000D03*
%TO.P,J5,5*%
%TO.N,M0_ENC_A*%
X110217500Y-81878000D03*
%TO.P,J5,6*%
%TO.N,M0_ENC_B*%
X110217500Y-84418000D03*
%TD*%
D10*
%TO.P,C12,1*%
%TO.N,V3V3*%
X109152500Y-102402000D03*
%TO.P,C12,2*%
%TO.N,GND*%
X110702500Y-102402000D03*
%TD*%
D21*
%TO.P,U7,1*%
%TO.N,V3V3*%
X184195000Y-71335000D03*
%TO.P,U7,2*%
%TO.N,GND*%
X184195000Y-71835000D03*
%TO.P,U7,3*%
X184195000Y-72335000D03*
%TO.P,U7,4*%
%TO.N,I2C1_SDA*%
X187055000Y-72335000D03*
%TO.P,U7,5*%
%TO.N,V3V3*%
X187055000Y-71835000D03*
%TO.P,U7,6*%
%TO.N,I2C1_SCL*%
X187055000Y-71335000D03*
D22*
%TO.P,U7,7*%
%TO.N,GND*%
X185625000Y-71835000D03*
%TD*%
D13*
%TO.P,J2,1*%
%TO.N,CHG_IN*%
X163315000Y-74545000D03*
D14*
%TO.P,J2,2*%
%TO.N,GND*%
X163315000Y-77085000D03*
%TD*%
D12*
%TO.P,R10,1*%
%TO.N,V3V3*%
X109102500Y-99052000D03*
%TO.P,R10,2*%
%TO.N,M0_ENC_B*%
X110752500Y-99052000D03*
%TD*%
D23*
%TO.P,U6,1*%
%TO.N,IMU_MISO*%
X118930000Y-88630500D03*
%TO.P,U6,2*%
%TO.N,N/C*%
X118930000Y-89130500D03*
%TO.P,U6,3*%
X118930000Y-89630500D03*
%TO.P,U6,4*%
%TO.N,IMU_INT*%
X118930000Y-90130500D03*
D24*
%TO.P,U6,5*%
%TO.N,V3V3*%
X119690000Y-90390500D03*
%TO.P,U6,6*%
%TO.N,GND*%
X120190000Y-90390500D03*
%TO.P,U6,7*%
%TO.N,N/C*%
X120690000Y-90390500D03*
D23*
%TO.P,U6,8*%
%TO.N,V3V3*%
X121450000Y-90130500D03*
%TO.P,U6,9*%
%TO.N,N/C*%
X121450000Y-89630500D03*
%TO.P,U6,10*%
X121450000Y-89130500D03*
%TO.P,U6,11*%
X121450000Y-88630500D03*
D24*
%TO.P,U6,12*%
%TO.N,IMU_CS*%
X120690000Y-88370500D03*
%TO.P,U6,13*%
%TO.N,IMU_SCLK*%
X120190000Y-88370500D03*
%TO.P,U6,14*%
%TO.N,IMU_MOSI*%
X119690000Y-88370500D03*
%TD*%
D12*
%TO.P,R12,1*%
%TO.N,V3V3*%
X118802500Y-99052000D03*
%TO.P,R12,2*%
%TO.N,M1_ENC_B*%
X120452500Y-99052000D03*
%TD*%
D19*
%TO.P,U3,1*%
%TO.N,MT_SW*%
X118345000Y-109206000D03*
%TO.P,U3,2*%
%TO.N,GND*%
X119295000Y-109206000D03*
%TO.P,U3,3*%
%TO.N,MT_FB*%
X120245000Y-109206000D03*
%TO.P,U3,4*%
%TO.N,VBAT*%
X120245000Y-106906000D03*
%TO.P,U3,5*%
X119295000Y-106906000D03*
%TO.P,U3,6*%
%TO.N,N/C*%
X118345000Y-106906000D03*
%TD*%
D25*
%TO.P,L1,1*%
%TO.N,VBAT*%
X169335000Y-67350000D03*
%TO.P,L1,2*%
%TO.N,IP5306_SW*%
X174835000Y-67350000D03*
%TD*%
D12*
%TO.P,R3,1*%
%TO.N,V5*%
X167050000Y-89920000D03*
%TO.P,R3,2*%
%TO.N,LED_A2*%
X168700000Y-89920000D03*
%TD*%
D26*
%TO.P,D5,1*%
%TO.N,VSYS*%
X162550000Y-82100000D03*
%TO.P,D5,2*%
%TO.N,V5*%
X167350000Y-82100000D03*
%TD*%
D16*
%TO.P,C3,1*%
%TO.N,V5*%
X162295000Y-86320000D03*
%TO.P,C3,2*%
%TO.N,GND*%
X164195000Y-86320000D03*
%TD*%
D27*
%TO.P,U5,1*%
%TO.N,M2_OUT_A*%
X162110000Y-119800000D03*
%TO.P,U5,2*%
X162760000Y-119800000D03*
%TO.P,U5,3*%
%TO.N,MOT_RTN*%
X163410000Y-119800000D03*
%TO.P,U5,4*%
X164060000Y-119800000D03*
%TO.P,U5,5*%
%TO.N,M2_OUT_B*%
X164710000Y-119800000D03*
%TO.P,U5,6*%
X165370000Y-119800000D03*
%TO.P,U5,7*%
%TO.N,N/C*%
X166020000Y-119800000D03*
%TO.P,U5,8*%
X166670000Y-119800000D03*
%TO.P,U5,9*%
%TO.N,MOT_RTN*%
X167320000Y-119800000D03*
%TO.P,U5,10*%
X167970000Y-119800000D03*
%TO.P,U5,11*%
%TO.N,N/C*%
X168620000Y-119800000D03*
%TO.P,U5,12*%
X169270000Y-119800000D03*
%TO.P,U5,13*%
%TO.N,VMOT_F*%
X169270000Y-112680000D03*
%TO.P,U5,14*%
X168620000Y-112680000D03*
%TO.P,U5,15*%
%TO.N,GND*%
X167970000Y-112680000D03*
%TO.P,U5,16*%
X167320000Y-112680000D03*
%TO.P,U5,17*%
X166670000Y-112680000D03*
%TO.P,U5,18*%
X166020000Y-112680000D03*
%TO.P,U5,19*%
%TO.N,MOTOR_STBY*%
X165370000Y-112680000D03*
%TO.P,U5,20*%
%TO.N,V3V3*%
X164710000Y-112680000D03*
%TO.P,U5,21*%
%TO.N,M2_IN1*%
X164060000Y-112680000D03*
%TO.P,U5,22*%
%TO.N,M2_IN2*%
X163410000Y-112680000D03*
%TO.P,U5,23*%
%TO.N,M2_PWM*%
X162760000Y-112680000D03*
%TO.P,U5,24*%
%TO.N,VMOT_F*%
X162110000Y-112680000D03*
%TD*%
D12*
%TO.P,R14,1*%
%TO.N,V3V3*%
X167045000Y-123037000D03*
%TO.P,R14,2*%
%TO.N,M2_ENC_B*%
X168695000Y-123037000D03*
%TD*%
D28*
%TO.P,D2,1*%
%TO.N,IP_LED2*%
X172827500Y-86290000D03*
%TO.P,D2,2*%
%TO.N,LED_A2*%
X174702500Y-86290000D03*
%TD*%
D13*
%TO.P,J7,1*%
%TO.N,M2_OUT_A*%
X163310000Y-95703000D03*
D14*
%TO.P,J7,2*%
%TO.N,M2_OUT_B*%
X163310000Y-98243000D03*
%TO.P,J7,3*%
%TO.N,V3V3*%
X163310000Y-100783000D03*
%TO.P,J7,4*%
%TO.N,GND*%
X163310000Y-103323000D03*
%TO.P,J7,5*%
%TO.N,M2_ENC_A*%
X163310000Y-105863000D03*
%TO.P,J7,6*%
%TO.N,M2_ENC_B*%
X163310000Y-108403000D03*
%TD*%
D28*
%TO.P,D1,1*%
%TO.N,IP_LED1*%
X167577500Y-86290000D03*
%TO.P,D1,2*%
%TO.N,LED_A1*%
X169452500Y-86290000D03*
%TD*%
D16*
%TO.P,C6,1*%
%TO.N,VBAT*%
X109195000Y-120675000D03*
%TO.P,C6,2*%
%TO.N,GND*%
X111095000Y-120675000D03*
%TD*%
D12*
%TO.P,R5,1*%
%TO.N,VMOT*%
X109100000Y-124275000D03*
%TO.P,R5,2*%
%TO.N,MT_FB*%
X110750000Y-124275000D03*
%TD*%
D26*
%TO.P,D4,1*%
%TO.N,VMOT*%
X109450000Y-116455000D03*
%TO.P,D4,2*%
%TO.N,MT_SW*%
X114250000Y-116455000D03*
%TD*%
D12*
%TO.P,R2,1*%
%TO.N,V5*%
X162200000Y-89920000D03*
%TO.P,R2,2*%
%TO.N,LED_A1*%
X163850000Y-89920000D03*
%TD*%
D25*
%TO.P,L2,1*%
%TO.N,VBAT*%
X109445000Y-109815000D03*
%TO.P,L2,2*%
%TO.N,MT_SW*%
X114945000Y-109815000D03*
%TD*%
D29*
%TO.P,J8,1*%
%TO.N,V3V3*%
X181387500Y-67870000D03*
%TO.P,J8,2*%
%TO.N,GND*%
X182387500Y-67870000D03*
%TO.P,J8,3*%
%TO.N,I2C1_SDA*%
X183387500Y-67870000D03*
%TO.P,J8,4*%
%TO.N,I2C1_SCL*%
X184387500Y-67870000D03*
D30*
%TO.P,J8,MP*%
%TO.N,N/C*%
X180087500Y-65345000D03*
X185687500Y-65345000D03*
%TD*%
D10*
%TO.P,C1,1*%
%TO.N,DW_VCC*%
X129605000Y-119711000D03*
%TO.P,C1,2*%
%TO.N,CELL_MINUS*%
X131155000Y-119711000D03*
%TD*%
D16*
%TO.P,C11,1*%
%TO.N,VMOT_F*%
X172480000Y-113043000D03*
%TO.P,C11,2*%
%TO.N,GND*%
X174380000Y-113043000D03*
%TD*%
D13*
%TO.P,J6,1*%
%TO.N,M1_OUT_A*%
X115647500Y-71718000D03*
D14*
%TO.P,J6,2*%
%TO.N,M1_OUT_B*%
X115647500Y-74258000D03*
%TO.P,J6,3*%
%TO.N,V3V3*%
X115647500Y-76798000D03*
%TO.P,J6,4*%
%TO.N,GND*%
X115647500Y-79338000D03*
%TO.P,J6,5*%
%TO.N,M1_ENC_A*%
X115647500Y-81878000D03*
%TO.P,J6,6*%
%TO.N,M1_ENC_B*%
X115647500Y-84418000D03*
%TD*%
D31*
%TO.P,SW1,1*%
%TO.N,KEY_BTN*%
X170495000Y-73820000D03*
%TO.P,SW1,2*%
%TO.N,GND*%
X174855000Y-73820000D03*
%TD*%
D12*
%TO.P,R9,1*%
%TO.N,V3V3*%
X124287500Y-88808000D03*
%TO.P,R9,2*%
%TO.N,M0_ENC_A*%
X125937500Y-88808000D03*
%TD*%
%TO.P,R11,1*%
%TO.N,V3V3*%
X113952500Y-99052000D03*
%TO.P,R11,2*%
%TO.N,M1_ENC_A*%
X115602500Y-99052000D03*
%TD*%
D16*
%TO.P,C5,1*%
%TO.N,CHG_IN*%
X170995000Y-81730000D03*
%TO.P,C5,2*%
%TO.N,GND*%
X172895000Y-81730000D03*
%TD*%
D12*
%TO.P,R8,1*%
%TO.N,MOT_RTN*%
X184365000Y-98460000D03*
%TO.P,R8,2*%
%TO.N,MOT_ISENSE*%
X186015000Y-98460000D03*
%TD*%
D28*
%TO.P,F1,1*%
%TO.N,VMOT*%
X114477500Y-120645000D03*
%TO.P,F1,2*%
%TO.N,VMOT_F*%
X116352500Y-120645000D03*
%TD*%
D12*
%TO.P,R16,1*%
%TO.N,V3V3*%
X184642500Y-75255000D03*
%TO.P,R16,2*%
%TO.N,I2C1_SCL*%
X186292500Y-75255000D03*
%TD*%
D10*
%TO.P,C16,1*%
%TO.N,V3V3*%
X184692500Y-78605000D03*
%TO.P,C16,2*%
%TO.N,GND*%
X186242500Y-78605000D03*
%TD*%
D32*
%TO.P,J1,1*%
%TO.N,VBAT*%
X126500000Y-109169000D03*
D33*
%TO.P,J1,2*%
%TO.N,CELL_MINUS*%
X128500000Y-109169000D03*
%TD*%
D28*
%TO.P,D3,1*%
%TO.N,IP_LED3*%
X178077500Y-86290000D03*
%TO.P,D3,2*%
%TO.N,LED_A3*%
X179952500Y-86290000D03*
%TD*%
D27*
%TO.P,U4,1*%
%TO.N,M0_OUT_A*%
X109017500Y-95815000D03*
%TO.P,U4,2*%
X109667500Y-95815000D03*
%TO.P,U4,3*%
%TO.N,MOT_RTN*%
X110317500Y-95815000D03*
%TO.P,U4,4*%
X110967500Y-95815000D03*
%TO.P,U4,5*%
%TO.N,M0_OUT_B*%
X111617500Y-95815000D03*
%TO.P,U4,6*%
X112277500Y-95815000D03*
%TO.P,U4,7*%
%TO.N,M1_OUT_B*%
X112927500Y-95815000D03*
%TO.P,U4,8*%
X113577500Y-95815000D03*
%TO.P,U4,9*%
%TO.N,MOT_RTN*%
X114227500Y-95815000D03*
%TO.P,U4,10*%
X114877500Y-95815000D03*
%TO.P,U4,11*%
%TO.N,M1_OUT_A*%
X115527500Y-95815000D03*
%TO.P,U4,12*%
X116177500Y-95815000D03*
%TO.P,U4,13*%
%TO.N,VMOT_F*%
X116177500Y-88695000D03*
%TO.P,U4,14*%
X115527500Y-88695000D03*
%TO.P,U4,15*%
%TO.N,M1_PWM*%
X114877500Y-88695000D03*
%TO.P,U4,16*%
%TO.N,M1_IN2*%
X114227500Y-88695000D03*
%TO.P,U4,17*%
%TO.N,M1_IN1*%
X113577500Y-88695000D03*
%TO.P,U4,18*%
%TO.N,GND*%
X112927500Y-88695000D03*
%TO.P,U4,19*%
%TO.N,MOTOR_STBY*%
X112277500Y-88695000D03*
%TO.P,U4,20*%
%TO.N,V3V3*%
X111617500Y-88695000D03*
%TO.P,U4,21*%
%TO.N,M0_IN1*%
X110967500Y-88695000D03*
%TO.P,U4,22*%
%TO.N,M0_IN2*%
X110317500Y-88695000D03*
%TO.P,U4,23*%
%TO.N,M0_PWM*%
X109667500Y-88695000D03*
%TO.P,U4,24*%
%TO.N,VMOT_F*%
X109017500Y-88695000D03*
%TD*%
D12*
%TO.P,R6,1*%
%TO.N,MT_FB*%
X113950000Y-124275000D03*
%TO.P,R6,2*%
%TO.N,GND*%
X115600000Y-124275000D03*
%TD*%
D34*
%TO.N,GND*%
X137750000Y-129500000D03*
X116677500Y-108445000D03*
X117416100Y-102402000D03*
X160250000Y-121000000D03*
%TO.N,VMOT_F*%
X116684100Y-89716200D03*
X115417600Y-121490200D03*
X116146600Y-92330200D03*
X166717700Y-113903700D03*
X117801900Y-130252100D03*
X166717700Y-130252100D03*
%TO.N,VBAT*%
X138855500Y-63603300D03*
%TO.N,V3V3*%
X121094800Y-92902300D03*
X118524100Y-95275700D03*
X161347300Y-79354600D03*
X109088200Y-87081300D03*
X163710200Y-121248300D03*
X120791800Y-91245300D03*
X124208600Y-87794500D03*
X176167500Y-73090500D03*
%TO.N,I2C1_SDA*%
X182275900Y-66454700D03*
X185861600Y-73404100D03*
X160411400Y-84157400D03*
%TO.N,I2C1_SCL*%
X184289100Y-69563000D03*
X160701500Y-85692600D03*
%TO.N,IMU_CS*%
X118034900Y-86225400D03*
X165237900Y-94775100D03*
X165237900Y-86742100D03*
X118034900Y-69743900D03*
%TO.N,IMU_INT*%
X165875800Y-86226300D03*
X118636600Y-68940500D03*
X165874200Y-93710200D03*
X119067800Y-91198600D03*
%TO.N,M2_PWM*%
X160588200Y-111716300D03*
%TO.N,M2_ENC_B*%
X165427300Y-124028200D03*
%TO.N,CELL_MINUS*%
X133123900Y-116416200D03*
%TO.N,CHG_IN*%
X167669400Y-77768400D03*
%TO.N,KEY_BTN*%
X170000000Y-73750000D03*
X166000000Y-64500000D03*
D35*
%TO.N,MOT_RTN*%
X114227500Y-96750000D03*
X167320000Y-119750000D03*
D34*
%TO.N,MOTOR_STBY*%
X170194800Y-84087600D03*
X167758800Y-79206800D03*
X167430000Y-111009400D03*
%TO.N,IMU_SCLK*%
X119937700Y-81339800D03*
X119937700Y-87508200D03*
%TO.N,M0_ENC_B*%
X110889500Y-97947600D03*
X118647000Y-97774900D03*
X127172100Y-82220000D03*
%TO.N,M0_ENC_A*%
X112725700Y-79995400D03*
%TO.N,M1_ENC_B*%
X115143200Y-97026400D03*
%TO.N,M1_ENC_A*%
X116535500Y-99052000D03*
%TO.N,IMU_MOSI*%
X124448000Y-91299500D03*
X119111400Y-87755100D03*
%TO.N,M0_IN2*%
X131729900Y-97026200D03*
X130353400Y-97579100D03*
%TO.N,M1_IN1*%
X133452600Y-94928600D03*
%TO.N,M1_IN2*%
X117907800Y-87270700D03*
%TO.N,M2_OUT_A*%
X164891900Y-117698600D03*
%TO.N,M2_OUT_B*%
X165695300Y-120936800D03*
%TO.N,M1_OUT_A*%
X117241100Y-94643900D03*
%TD*%
%TO.N,MOT_ISENSE*%
D36*
X184415000Y-101810000D02*
X184415000Y-110442900D01*
X184415000Y-110442900D02*
X180325400Y-114532500D01*
X184415000Y-101810000D02*
X184415000Y-100060000D01*
X160732500Y-114532500D02*
X158900000Y-112700000D01*
X180325400Y-114532500D02*
X160732500Y-114532500D01*
X184415000Y-100060000D02*
X186015000Y-98460000D01*
%TO.N,GND*%
X119536100Y-85623700D02*
X114704500Y-85623700D01*
X166748200Y-75561900D02*
X167868000Y-76681700D01*
X122440100Y-90681800D02*
X121226300Y-91895600D01*
X126914600Y-115307700D02*
X127517100Y-114705200D01*
X114057300Y-80928200D02*
X114057300Y-84976500D01*
X119795000Y-120080000D02*
X115600000Y-124275000D01*
X173931500Y-82766500D02*
X172895000Y-81730000D01*
X119295000Y-108368300D02*
X116677500Y-108368300D01*
X141100000Y-92380000D02*
X139401800Y-90681800D01*
X171901200Y-124630800D02*
X162596400Y-124630800D01*
X168031700Y-111654600D02*
X168031700Y-103851000D01*
X184511100Y-72335000D02*
X184556100Y-72335000D01*
X175775000Y-74820000D02*
X176826700Y-74820000D01*
X167320000Y-112680000D02*
X167320000Y-111716300D01*
X174750000Y-73750000D02*
X175750000Y-73750000D01*
X125252500Y-99052000D02*
X123284700Y-101019800D01*
X175565800Y-73559100D02*
X175775000Y-73768300D01*
X184749200Y-70897000D02*
X184749200Y-71835000D01*
X182387500Y-67424600D02*
X181752000Y-66789100D01*
X163995000Y-67415000D02*
X165296700Y-67415000D01*
X119295000Y-109206000D02*
X119295000Y-115585000D01*
X182923100Y-94887300D02*
X182923200Y-94887200D01*
X115647500Y-79338000D02*
X114057300Y-80928200D01*
X180667000Y-94586000D02*
X178350000Y-92269100D01*
X160657000Y-103323000D02*
X158900000Y-105080000D01*
X182387500Y-67870000D02*
X182387500Y-67424600D01*
X177920100Y-82766500D02*
X173931500Y-82766500D01*
X163310000Y-103323000D02*
X160657000Y-103323000D01*
X184556100Y-72335000D02*
X184749200Y-72335000D01*
X186937400Y-93451500D02*
X184358900Y-93451500D01*
X129435800Y-108553100D02*
X129435800Y-113707200D01*
X114057300Y-84976500D02*
X114704500Y-85623700D01*
X184749200Y-72335000D02*
X184749200Y-71835000D01*
X163777000Y-99596300D02*
X162853200Y-99596300D01*
X161303200Y-92269100D02*
X159010900Y-92269100D01*
X166748200Y-68866500D02*
X166748200Y-75561900D01*
X163163600Y-85288600D02*
X161303200Y-85288600D01*
X180667000Y-94586000D02*
X176820000Y-98433000D01*
X120581300Y-91895600D02*
X120190000Y-91504300D01*
X132065000Y-114309000D02*
X131213300Y-114309000D01*
X186242500Y-78605000D02*
X187742500Y-78605000D01*
X180667000Y-94586000D02*
X181575200Y-94586000D01*
X164195000Y-86320000D02*
X163163600Y-85288600D01*
X187524300Y-94038400D02*
X186937400Y-93451500D01*
X181752000Y-66789100D02*
X180996900Y-66789100D01*
X176826700Y-75115800D02*
X176826700Y-74820000D01*
X161303200Y-92269100D02*
X161303200Y-85288600D01*
X139401800Y-90681800D02*
X122440100Y-90681800D01*
X181575200Y-94586000D02*
X181876500Y-94887300D01*
X173495000Y-123037000D02*
X171901200Y-124630800D01*
X160289800Y-122324200D02*
X160289800Y-119169800D01*
X165296700Y-67415000D02*
X166748200Y-68866500D01*
X127949200Y-113707200D02*
X129435800Y-113707200D01*
X166020000Y-111716300D02*
X166670000Y-111716300D01*
X119295000Y-115585000D02*
X119795000Y-116085000D01*
X123284700Y-101019800D02*
X123284700Y-102402000D01*
X182387500Y-68535300D02*
X184749200Y-70897000D01*
X182387500Y-67870000D02*
X182387500Y-68535300D01*
X112927500Y-88695000D02*
X112927500Y-87731300D01*
X117416100Y-102402000D02*
X123284700Y-102402000D01*
X185437100Y-79410400D02*
X181121300Y-79410400D01*
X179670000Y-113043000D02*
X178642300Y-112015300D01*
D37*
X160250000Y-121000000D02*
X160250000Y-119250000D01*
D36*
X161013100Y-84998500D02*
X161013100Y-81793100D01*
X184358900Y-93451500D02*
X182923200Y-94887200D01*
X116622500Y-108313300D02*
X114070000Y-108313300D01*
D37*
X137750000Y-114250000D02*
X137750000Y-129500000D01*
D36*
X119795000Y-116085000D02*
X119795000Y-120080000D01*
X184195000Y-72335000D02*
X184511100Y-72335000D01*
X161013100Y-81793100D02*
X158900000Y-79680000D01*
X127417000Y-114522500D02*
X127417000Y-114239400D01*
X175565800Y-72220200D02*
X175565800Y-73559100D01*
X162596400Y-124630800D02*
X160289800Y-122324200D01*
X137629000Y-114309000D02*
X141100000Y-117780000D01*
X125510000Y-115762300D02*
X125964600Y-115307700D01*
X127417000Y-114239400D02*
X127949200Y-113707200D01*
X178350000Y-92269100D02*
X178350000Y-89920000D01*
X180782500Y-85628900D02*
X177920100Y-82766500D01*
X183941300Y-95905400D02*
X185287100Y-95905400D01*
X172895000Y-81462700D02*
X172895000Y-81730000D01*
X182923200Y-94887200D02*
X183941300Y-95905400D01*
X186242500Y-78605000D02*
X185437100Y-79410400D01*
X175775000Y-74820000D02*
X175775000Y-73768300D01*
X166670000Y-111716300D02*
X167320000Y-111716300D01*
X112927500Y-87400700D02*
X112927500Y-87731300D01*
X168031700Y-103851000D02*
X163777000Y-99596300D01*
X167868000Y-76681700D02*
X168114000Y-76681700D01*
X167970000Y-111716300D02*
X173053300Y-111716300D01*
X173053300Y-111716300D02*
X174380000Y-113043000D01*
X177920100Y-82766500D02*
X177920100Y-81994900D01*
X168114000Y-76681700D02*
X172895000Y-81462700D01*
X175407700Y-112015300D02*
X174380000Y-113043000D01*
X159010900Y-92269100D02*
X158900000Y-92380000D01*
X119295000Y-109206000D02*
X119295000Y-108368300D01*
X178642300Y-112015300D02*
X175407700Y-112015300D01*
X180996900Y-66789100D02*
X175565800Y-72220200D01*
X178350000Y-92269100D02*
X161303200Y-92269100D01*
X120190000Y-91504300D02*
X120190000Y-90390500D01*
X125964600Y-115307700D02*
X126914600Y-115307700D01*
X187742500Y-78605000D02*
X191092500Y-75255000D01*
X114704500Y-85623700D02*
X112927500Y-87400700D01*
X161303200Y-85288600D02*
X161013100Y-84998500D01*
X116677500Y-108368300D02*
X116677500Y-108445000D01*
X162153400Y-100296100D02*
X162153400Y-102166400D01*
X127517100Y-114705200D02*
X127517100Y-114622600D01*
X178350000Y-89920000D02*
X180782500Y-87487500D01*
X187524300Y-100250700D02*
X187524300Y-94038400D01*
X184749200Y-71835000D02*
X184195000Y-71835000D01*
X178185000Y-81730000D02*
X180813000Y-79102000D01*
X130611500Y-113707200D02*
X131213300Y-114309000D01*
X180813000Y-79102000D02*
X176826700Y-75115800D01*
X121226300Y-91895600D02*
X120581300Y-91895600D01*
X167320000Y-111716300D02*
X167970000Y-111716300D01*
X116677500Y-108368300D02*
X116622500Y-108313300D01*
X127517100Y-114622600D02*
X127417000Y-114522500D01*
X185965000Y-101810000D02*
X187524300Y-100250700D01*
X181876500Y-94887300D02*
X182923100Y-94887300D01*
X132065000Y-114309000D02*
X137629000Y-114309000D01*
X162153400Y-102166400D02*
X163310000Y-103323000D01*
X108098300Y-114285000D02*
X108098300Y-117678300D01*
X122440100Y-90681800D02*
X122440100Y-88527700D01*
X167970000Y-112680000D02*
X167970000Y-111716300D01*
X160289800Y-119169800D02*
X158900000Y-117780000D01*
X129435800Y-113707200D02*
X130611500Y-113707200D01*
X123284700Y-102402000D02*
X129435800Y-108553100D01*
X162853200Y-99596300D02*
X162153400Y-100296100D01*
X114070000Y-108313300D02*
X108098300Y-114285000D01*
X185287100Y-95905400D02*
X186302500Y-94890000D01*
X185625000Y-71835000D02*
X184749200Y-71835000D01*
X180782500Y-87487500D02*
X180782500Y-85628900D01*
X110702500Y-102402000D02*
X117416100Y-102402000D01*
X166020000Y-112680000D02*
X166020000Y-111716300D01*
X108098300Y-117678300D02*
X111095000Y-120675000D01*
X125510000Y-116600000D02*
X125510000Y-115762300D01*
X181121300Y-79410400D02*
X180813000Y-79102000D01*
X122440100Y-88527700D02*
X119536100Y-85623700D01*
X177920100Y-81994900D02*
X178185000Y-81730000D01*
X166670000Y-112680000D02*
X166670000Y-111716300D01*
X167970000Y-111716300D02*
X168031700Y-111654600D01*
%TO.N,VMOT_F*%
X162110000Y-112680000D02*
X162110000Y-113643700D01*
X116262800Y-120645000D02*
X115417600Y-121490200D01*
X116177500Y-89658700D02*
X116626600Y-89658700D01*
X168620000Y-112680000D02*
X169270000Y-112680000D01*
X171879300Y-113643700D02*
X172480000Y-113043000D01*
X115527500Y-88695000D02*
X116177500Y-88695000D01*
X176705600Y-114107400D02*
X177770000Y-113043000D01*
X169270000Y-113642200D02*
X169270000Y-113643700D01*
X178847400Y-114120400D02*
X177770000Y-113043000D01*
X109420700Y-89681000D02*
X109703000Y-89681000D01*
X169268500Y-113643700D02*
X169270000Y-113642200D01*
X109703000Y-89681000D02*
X112352200Y-92330200D01*
X180492900Y-113769900D02*
X180142400Y-114120400D01*
X173544400Y-114107400D02*
X176705600Y-114107400D01*
X116626600Y-89658700D02*
X116684100Y-89716200D01*
X109017500Y-89277800D02*
X109420700Y-89681000D01*
X180142400Y-114120400D02*
X178847400Y-114120400D01*
X116352500Y-120645000D02*
X116262800Y-120645000D01*
X162110000Y-113643700D02*
X166717700Y-113643700D01*
X169270000Y-113643700D02*
X171879300Y-113643700D01*
X180492900Y-109505900D02*
X180492900Y-113769900D01*
X117801900Y-130252100D02*
X166717700Y-130252100D01*
X169270000Y-113542800D02*
X169270000Y-113642200D01*
X109017500Y-88695000D02*
X109017500Y-89277800D01*
X172480000Y-113043000D02*
X173544400Y-114107400D01*
X116177500Y-88695000D02*
X116177500Y-89658700D01*
X169270000Y-112680000D02*
X169270000Y-113542800D01*
X112352200Y-92330200D02*
X116146600Y-92330200D01*
X166717700Y-113643700D02*
X166717700Y-113903700D01*
X166717700Y-113643700D02*
X169268500Y-113643700D01*
X169420000Y-98433000D02*
X180492900Y-109505900D01*
%TO.N,VBAT*%
X126500000Y-109169000D02*
X125074700Y-107743700D01*
X167090000Y-63603300D02*
X164635000Y-63603300D01*
X164635000Y-65406700D02*
X162896500Y-65406700D01*
X126500000Y-109169000D02*
X123486100Y-112182900D01*
X109195000Y-120675000D02*
X107696600Y-119176600D01*
X123486100Y-118492100D02*
X124705000Y-119711000D01*
X109445000Y-109815000D02*
X110496700Y-109815000D01*
X123486100Y-112182900D02*
X123486100Y-118492100D01*
X125074700Y-107743700D02*
X120245000Y-107743700D01*
X169335000Y-67349800D02*
X169335000Y-67350000D01*
X164635000Y-64505000D02*
X164635000Y-63603300D01*
X119295000Y-106906000D02*
X119295000Y-107743700D01*
X169335000Y-67349800D02*
X169335000Y-65848300D01*
X120245000Y-106906000D02*
X120245000Y-106068300D01*
X107696600Y-110511700D02*
X108393300Y-109815000D01*
X107696600Y-119176600D02*
X107696600Y-110511700D01*
X162542400Y-63603300D02*
X138855500Y-63603300D01*
X164635000Y-64505000D02*
X164635000Y-65406700D01*
X162694800Y-65205000D02*
X162694800Y-63755700D01*
X162896500Y-65406700D02*
X162694800Y-65205000D01*
X119295000Y-106906000D02*
X119295000Y-106068300D01*
X169335000Y-67350000D02*
X169335000Y-74780000D01*
X119295000Y-106068300D02*
X120245000Y-106068300D01*
X169335000Y-74780000D02*
X176285000Y-81730000D01*
X120245000Y-106906000D02*
X120245000Y-107743700D01*
X119295000Y-107743700D02*
X112568000Y-107743700D01*
X112568000Y-107743700D02*
X110496700Y-109815000D01*
X162694800Y-63755700D02*
X162542400Y-63603300D01*
X169335000Y-65848300D02*
X167090000Y-63603300D01*
X109445000Y-109815000D02*
X108393300Y-109815000D01*
%TO.N,DW_VCC*%
X124759200Y-115137700D02*
X125510000Y-115137700D01*
X126355000Y-119711000D02*
X126253900Y-119711000D01*
X123947900Y-117405000D02*
X123947900Y-115949000D01*
X126253900Y-119711000D02*
X123947900Y-117405000D01*
X125510000Y-114300000D02*
X125510000Y-115137700D01*
X123947900Y-115949000D02*
X124759200Y-115137700D01*
X126355000Y-119711000D02*
X129605000Y-119711000D01*
%TO.N,V3V3*%
X167045000Y-123037000D02*
X165567700Y-123037000D01*
X184642500Y-75001400D02*
X184642500Y-75255000D01*
X108996200Y-90484400D02*
X109167200Y-90484400D01*
X109904400Y-99853900D02*
X109102500Y-99052000D01*
X164710000Y-102183000D02*
X163310000Y-100783000D01*
X109904400Y-101650100D02*
X109152500Y-102402000D01*
X121094800Y-92902300D02*
X120965200Y-92902300D01*
X159012100Y-70484800D02*
X159012100Y-72153100D01*
X111617500Y-87731300D02*
X110967500Y-87081300D01*
X184642500Y-75001400D02*
X185237600Y-75001400D01*
X118802500Y-99052000D02*
X119603500Y-99853000D01*
X137165900Y-72928000D02*
X140350000Y-69743900D01*
X165567700Y-123037000D02*
X164777400Y-123827300D01*
X159012100Y-72153100D02*
X160308800Y-73449800D01*
X165211000Y-122749100D02*
X163710200Y-121248300D01*
X187609200Y-72629800D02*
X187609200Y-71836500D01*
X160308800Y-73449800D02*
X160308800Y-78316100D01*
X123702500Y-99052000D02*
X122559600Y-99052000D01*
X108130500Y-87800600D02*
X108130500Y-89618700D01*
X160308800Y-78316100D02*
X161347300Y-79354600D01*
X109904400Y-99853900D02*
X109904400Y-101650100D01*
X167045000Y-123037000D02*
X167045000Y-122749100D01*
X183640800Y-73090500D02*
X183640800Y-71335000D01*
X183640800Y-71335000D02*
X181387500Y-69081700D01*
X114741100Y-98263400D02*
X118013900Y-98263400D01*
X171945000Y-123037000D02*
X171136500Y-122228500D01*
X121450000Y-90130500D02*
X121450000Y-90587100D01*
X110967500Y-87081300D02*
X109088200Y-87081300D01*
X181387500Y-69081700D02*
X181387500Y-67870000D01*
X183741700Y-71335000D02*
X183640800Y-71335000D01*
X163049600Y-123427200D02*
X162585200Y-123427200D01*
X184195000Y-71335000D02*
X183741700Y-71335000D01*
X124287500Y-88808000D02*
X124287500Y-87873400D01*
X109088200Y-87081300D02*
X108849800Y-87081300D01*
X187609200Y-71836500D02*
X187607700Y-71835000D01*
X164710000Y-112680000D02*
X164710000Y-102183000D01*
X121450000Y-90587100D02*
X120791800Y-91245300D01*
X185237600Y-75001400D02*
X187609200Y-72629800D01*
X171136500Y-122228500D02*
X167565600Y-122228500D01*
X162585200Y-123427200D02*
X162195000Y-123037000D01*
X124287500Y-87873400D02*
X124208600Y-87794500D01*
X163049600Y-123427300D02*
X163049600Y-123427200D01*
X118653700Y-95146100D02*
X118524100Y-95275700D01*
X119603500Y-99853000D02*
X122901500Y-99853000D01*
X108130500Y-89618700D02*
X108996200Y-90484400D01*
X183640800Y-73999700D02*
X184642500Y-75001400D01*
X109167200Y-90484400D02*
X112016400Y-93333600D01*
X114087500Y-72928000D02*
X137165900Y-72928000D01*
X187679200Y-71765000D02*
X187609200Y-71835000D01*
X167565600Y-122228500D02*
X167045000Y-122749100D01*
X113952500Y-99052000D02*
X113150600Y-99853900D01*
X183640800Y-73090500D02*
X183640800Y-73999700D01*
X113150600Y-99853900D02*
X109904400Y-99853900D01*
X108849800Y-87081300D02*
X108130500Y-87800600D01*
X119690000Y-91627100D02*
X119690000Y-90390500D01*
X140350000Y-69743900D02*
X158271200Y-69743900D01*
X112016400Y-93333600D02*
X116841200Y-93333600D01*
X118013900Y-98263400D02*
X118802500Y-99052000D01*
X167045000Y-122749100D02*
X165211000Y-122749100D01*
X113952500Y-99052000D02*
X114741100Y-98263400D01*
X122901500Y-99853000D02*
X123702500Y-99052000D01*
X184692500Y-78605000D02*
X184692500Y-76458000D01*
X187055000Y-71835000D02*
X187607700Y-71835000D01*
X111617500Y-88695000D02*
X111617500Y-87731300D01*
X189807500Y-71765000D02*
X187679200Y-71765000D01*
X187607700Y-71835000D02*
X187609200Y-71835000D01*
X164777400Y-123827300D02*
X163449600Y-123827300D01*
X120965200Y-92902300D02*
X119690000Y-91627100D01*
X188339500Y-76458000D02*
X189542500Y-75255000D01*
X110217500Y-76798000D02*
X114087500Y-72928000D01*
X163449600Y-123827300D02*
X163049600Y-123427300D01*
X184642500Y-76408000D02*
X184692500Y-76458000D01*
X122559600Y-99052000D02*
X118653700Y-95146100D01*
X184692500Y-76458000D02*
X188339500Y-76458000D01*
X158271200Y-69743900D02*
X159012100Y-70484800D01*
X184642500Y-75255000D02*
X184642500Y-76408000D01*
X116841200Y-93333600D02*
X118653700Y-95146100D01*
X176167500Y-73090500D02*
X183640800Y-73090500D01*
%TO.N,I2C1_SDA*%
X158900000Y-87300000D02*
X160051700Y-86148300D01*
X160051700Y-84517100D02*
X160411400Y-84157400D01*
X183387500Y-67424600D02*
X182417600Y-66454700D01*
X182417600Y-66454700D02*
X182275900Y-66454700D01*
X186694600Y-66789100D02*
X184023000Y-66789100D01*
X191457500Y-71552000D02*
X186694600Y-66789100D01*
X187055000Y-72335000D02*
X185985900Y-73404100D01*
X183387500Y-67424600D02*
X183387500Y-67870000D01*
X185985900Y-73404100D02*
X185861600Y-73404100D01*
X191457500Y-71765000D02*
X191457500Y-71552000D01*
X184023000Y-66789100D02*
X183387500Y-67424600D01*
X160051700Y-86148300D02*
X160051700Y-84517100D01*
%TO.N,M2_ENC_A*%
X161234000Y-117574000D02*
X158900000Y-115240000D01*
X161234000Y-120426000D02*
X161234000Y-117574000D01*
X163845000Y-123037000D02*
X161234000Y-120426000D01*
%TO.N,V5*%
X166253000Y-90717000D02*
X167050000Y-89920000D01*
X167297600Y-89920000D02*
X167050000Y-89920000D01*
X162200000Y-89920000D02*
X162200000Y-86415000D01*
X170273800Y-86943800D02*
X167297600Y-89920000D01*
X167350000Y-82100000D02*
X167350000Y-80898300D01*
X163281700Y-68856000D02*
X162988300Y-68856000D01*
X162988300Y-68856000D02*
X162085000Y-67952700D01*
X165103100Y-78651400D02*
X165103100Y-72894900D01*
X171900000Y-90739300D02*
X175980700Y-90739300D01*
X167869300Y-90739300D02*
X171900000Y-90739300D01*
X162200000Y-89920000D02*
X162997000Y-90717000D01*
X164000000Y-69574300D02*
X163281700Y-68856000D01*
X162997000Y-90717000D02*
X166253000Y-90717000D01*
X165103100Y-72894900D02*
X164000000Y-71791800D01*
X170273800Y-85624700D02*
X170273800Y-86943800D01*
X167350000Y-80898300D02*
X165103100Y-78651400D01*
X167050000Y-89920000D02*
X167869300Y-90739300D01*
X167950800Y-83301700D02*
X170273800Y-85624700D01*
X162085000Y-67952700D02*
X162085000Y-64505000D01*
X175980700Y-90739300D02*
X176800000Y-89920000D01*
X162200000Y-86415000D02*
X162295000Y-86320000D01*
X167350000Y-82100000D02*
X167350000Y-83301700D01*
X164000000Y-71791800D02*
X164000000Y-69574300D01*
X171900000Y-90739300D02*
X171900000Y-89920000D01*
X167350000Y-83301700D02*
X167950800Y-83301700D01*
%TO.N,LED_A3*%
X175257800Y-88212200D02*
X173550000Y-89920000D01*
X178030300Y-88212200D02*
X175257800Y-88212200D01*
X179952500Y-86290000D02*
X178030300Y-88212200D01*
%TO.N,VSYS*%
X161981200Y-80898300D02*
X162550000Y-80898300D01*
X158900000Y-77817100D02*
X161981200Y-80898300D01*
X158900000Y-77140000D02*
X158900000Y-77817100D01*
X162550000Y-82100000D02*
X162550000Y-80898300D01*
%TO.N,I2C1_SCL*%
X187609200Y-70980700D02*
X187609200Y-71335000D01*
X185184800Y-68667300D02*
X185295800Y-68667300D01*
X158900000Y-89840000D02*
X160701500Y-88038500D01*
X187574900Y-75255000D02*
X186292500Y-75255000D01*
X160701500Y-88038500D02*
X160701500Y-85692600D01*
X190569900Y-71273900D02*
X190569900Y-72260000D01*
X185295800Y-68667300D02*
X187609200Y-70980700D01*
X184387500Y-67870000D02*
X185184800Y-68667300D01*
X190569900Y-72260000D02*
X187574900Y-75255000D01*
X190276700Y-70980700D02*
X190569900Y-71273900D01*
X184289100Y-69563000D02*
X185184800Y-68667300D01*
X187055000Y-71335000D02*
X187609200Y-71335000D01*
X187609200Y-70980700D02*
X190276700Y-70980700D01*
%TO.N,IMU_CS*%
X165237900Y-85771100D02*
X163901700Y-84434900D01*
X159219800Y-70124400D02*
X159219700Y-70124400D01*
X166476000Y-93460200D02*
X166476000Y-94016800D01*
X118034900Y-86225400D02*
X119545400Y-86225400D01*
X159455200Y-70927900D02*
X159455200Y-70359800D01*
X158900000Y-94920000D02*
X160738500Y-93081500D01*
X119545400Y-86225400D02*
X120690000Y-87370000D01*
X120690000Y-88370500D02*
X120690000Y-87731300D01*
X165237900Y-86742100D02*
X165237900Y-85771100D01*
X166476000Y-94016800D02*
X165717700Y-94775100D01*
X139983500Y-69342200D02*
X139581800Y-69743900D01*
X160710500Y-77493400D02*
X160710500Y-72183200D01*
X165717700Y-94775100D02*
X165237900Y-94775100D01*
X163901700Y-84434900D02*
X163901700Y-80684600D01*
X160738500Y-93081500D02*
X166097300Y-93081500D01*
X166097300Y-93081500D02*
X166476000Y-93460200D01*
X160710500Y-72183200D02*
X159455200Y-70927900D01*
X163901700Y-80684600D02*
X160710500Y-77493400D01*
X159219700Y-70124400D02*
X158437500Y-69342200D01*
X120690000Y-87370000D02*
X120690000Y-87731300D01*
X159455200Y-70359800D02*
X159219800Y-70124400D01*
X158437500Y-69342200D02*
X139983500Y-69342200D01*
X139581800Y-69743900D02*
X118034900Y-69743900D01*
%TO.N,IMU_INT*%
X165875800Y-86226300D02*
X165875800Y-85658200D01*
X162649800Y-93710200D02*
X165874200Y-93710200D01*
X118930000Y-90130500D02*
X118930000Y-91060800D01*
X158900000Y-97460000D02*
X162649800Y-93710200D01*
X164634600Y-84417000D02*
X164634600Y-80802200D01*
X161484800Y-71821400D02*
X158603900Y-68940500D01*
X165875800Y-85658200D02*
X164634600Y-84417000D01*
X118930000Y-91060800D02*
X119067800Y-91198600D01*
X161484800Y-77652400D02*
X161484800Y-71821400D01*
X158603900Y-68940500D02*
X118636600Y-68940500D01*
X164634600Y-80802200D02*
X161484800Y-77652400D01*
%TO.N,M2_PWM*%
X162760000Y-111716300D02*
X160588200Y-111716300D01*
X162760000Y-112680000D02*
X162760000Y-111716300D01*
%TO.N,M2_IN1*%
X159963700Y-107620000D02*
X164060000Y-111716300D01*
X158900000Y-107620000D02*
X159963700Y-107620000D01*
X164060000Y-112680000D02*
X164060000Y-111716300D01*
%TO.N,M2_IN2*%
X163410000Y-112680000D02*
X163410000Y-111716300D01*
X158900000Y-110160000D02*
X161853700Y-110160000D01*
X161853700Y-110160000D02*
X163410000Y-111716300D01*
%TO.N,M2_ENC_B*%
X167703800Y-124028200D02*
X168695000Y-123037000D01*
X165427300Y-124028200D02*
X167703800Y-124028200D01*
%TO.N,CELL_MINUS*%
X132065000Y-116209000D02*
X132916700Y-116209000D01*
X124560000Y-114300000D02*
X124560000Y-113462300D01*
X131213300Y-119652700D02*
X131155000Y-119711000D01*
X132065000Y-116209000D02*
X131213300Y-116209000D01*
X127598300Y-110424000D02*
X127598300Y-109169000D01*
X128500000Y-109169000D02*
X127598300Y-109169000D01*
X124560000Y-113462300D02*
X127598300Y-110424000D01*
X133123900Y-116416200D02*
X132916700Y-116209000D01*
X131213300Y-116209000D02*
X131213300Y-119652700D01*
%TO.N,DRAIN_COM*%
X129365000Y-115259000D02*
X132065000Y-115259000D01*
%TO.N,DW_OC*%
X127960100Y-114830200D02*
X127960100Y-114497600D01*
X127843500Y-114380900D02*
X127915400Y-114309000D01*
X127028000Y-115762300D02*
X127960100Y-114830200D01*
X127960100Y-114497600D02*
X127843500Y-114381000D01*
X127915400Y-114309000D02*
X128513300Y-114309000D01*
X126460000Y-115762300D02*
X127028000Y-115762300D01*
X126460000Y-116600000D02*
X126460000Y-115762300D01*
X127843500Y-114381000D02*
X127843500Y-114380900D01*
X129365000Y-114309000D02*
X128513300Y-114309000D01*
%TO.N,DW_OD*%
X129365000Y-116209000D02*
X128513300Y-116209000D01*
X127284600Y-117437700D02*
X128513300Y-116209000D01*
X124560000Y-117437700D02*
X127284600Y-117437700D01*
X124560000Y-116600000D02*
X124560000Y-117437700D01*
%TO.N,VMOT*%
X109450000Y-117656700D02*
X109595800Y-117656700D01*
X114477500Y-120645000D02*
X112730000Y-120645000D01*
X117895000Y-117227500D02*
X114477500Y-120645000D01*
X112730000Y-120645000D02*
X112657100Y-120717900D01*
X112657100Y-120717900D02*
X109100000Y-124275000D01*
X117895000Y-116085000D02*
X117895000Y-117227500D01*
X109450000Y-116455000D02*
X109450000Y-117656700D01*
X109595800Y-117656700D02*
X112657100Y-120717900D01*
%TO.N,CHG_IN*%
X163315000Y-74545000D02*
X163315000Y-73393300D01*
X163315000Y-73393300D02*
X162085000Y-72163300D01*
X167752200Y-77768400D02*
X167669400Y-77768400D01*
X162085000Y-72163300D02*
X162085000Y-70325000D01*
X170995000Y-81011200D02*
X167752200Y-77768400D01*
X170995000Y-81730000D02*
X170995000Y-81011200D01*
%TO.N,IP_LED1*%
X164701400Y-73544600D02*
X163365000Y-72208200D01*
X163365000Y-72208200D02*
X163365000Y-70325000D01*
X167577500Y-86290000D02*
X165036300Y-83748800D01*
X165036300Y-80635700D02*
X164701400Y-80300800D01*
X165036300Y-83748800D02*
X165036300Y-80635700D01*
X164701400Y-80300800D02*
X164701400Y-73544600D01*
%TO.N,IP_LED2*%
X169307000Y-79904100D02*
X168008000Y-78605100D01*
X165504900Y-72646100D02*
X164635000Y-71776200D01*
X172827500Y-86290000D02*
X172827500Y-85722100D01*
X169307000Y-82201600D02*
X169307000Y-79904100D01*
X165504900Y-76455100D02*
X165504900Y-72646100D01*
X168008000Y-78605100D02*
X167654900Y-78605100D01*
X167654900Y-78605100D02*
X165504900Y-76455100D01*
X164635000Y-71776200D02*
X164635000Y-70325000D01*
X172827500Y-85722100D02*
X169307000Y-82201600D01*
%TO.N,IP_LED3*%
X171945000Y-81108100D02*
X171945000Y-82331100D01*
X166305200Y-75686900D02*
X167701700Y-77083400D01*
X175252400Y-83464900D02*
X178077500Y-86290000D01*
X171945000Y-82331100D02*
X173078800Y-83464900D01*
X173078800Y-83464900D02*
X175252400Y-83464900D01*
X166305200Y-71626900D02*
X166305200Y-75686900D01*
X167701700Y-77083400D02*
X167920300Y-77083400D01*
X165905000Y-70325000D02*
X165905000Y-71226700D01*
X165905000Y-71226700D02*
X166305200Y-71626900D01*
X167920300Y-77083400D02*
X171945000Y-81108100D01*
%TO.N,KEY_BTN*%
X170500000Y-73750000D02*
X170000000Y-73750000D01*
%TO.N,IP5306_SW*%
X163365000Y-64505000D02*
X163365000Y-63603300D01*
X163766700Y-63201600D02*
X163365000Y-63603300D01*
X173783300Y-67350000D02*
X169634900Y-63201600D01*
X174835000Y-67350000D02*
X173783300Y-67350000D01*
X169634900Y-63201600D02*
X163766700Y-63201600D01*
%TO.N,MOT_RTN*%
X185190000Y-100561800D02*
X186732400Y-99019400D01*
X114877500Y-94851300D02*
X114227500Y-94851300D01*
X179268900Y-116157000D02*
X185190000Y-110235900D01*
X114227500Y-95815000D02*
X114227500Y-94851300D01*
X110317500Y-95815000D02*
X110317500Y-94851300D01*
X163410000Y-119800000D02*
X163410000Y-118836300D01*
X114227500Y-95815000D02*
X114227500Y-96778700D01*
X187121600Y-94213000D02*
X186762600Y-93854000D01*
X170650000Y-116157000D02*
X179268900Y-116157000D01*
X167970000Y-118937100D02*
X167970000Y-118837800D01*
X167320000Y-118836300D02*
X167970000Y-118836300D01*
X110967500Y-94851300D02*
X110317500Y-94851300D01*
X164060000Y-118836300D02*
X163410000Y-118836300D01*
X110967500Y-95815000D02*
X110967500Y-96778700D01*
X187121600Y-95703400D02*
X187121600Y-94213000D01*
X167970000Y-119800000D02*
X167970000Y-118937100D01*
X167320000Y-119800000D02*
X167320000Y-118836300D01*
X114227500Y-96778700D02*
X110967500Y-96778700D01*
X167970000Y-118837800D02*
X167970000Y-118837000D01*
X167970000Y-118837000D02*
X170650000Y-116157000D01*
X184365000Y-98460000D02*
X185820500Y-97004500D01*
X167320000Y-118836300D02*
X164060000Y-118836300D01*
X110967500Y-95815000D02*
X110967500Y-94851300D01*
X164060000Y-119800000D02*
X164060000Y-118836300D01*
X185820500Y-97004500D02*
X187121600Y-95703400D01*
X186762600Y-93854000D02*
X185513500Y-93854000D01*
X186732400Y-97916400D02*
X185820500Y-97004500D01*
X185190000Y-110235900D02*
X185190000Y-100561800D01*
X185513500Y-93854000D02*
X184477500Y-94890000D01*
X167970000Y-118837000D02*
X167970000Y-118836300D01*
X186732400Y-99019400D02*
X186732400Y-97916400D01*
X114877500Y-95815000D02*
X114877500Y-94851300D01*
%TO.N,MOTOR_STBY*%
X138908200Y-75640100D02*
X139948300Y-74600000D01*
X165370000Y-111716300D02*
X166076900Y-111009400D01*
X168905300Y-82798100D02*
X168905300Y-80353300D01*
X170194800Y-84087600D02*
X168905300Y-82798100D01*
X112277500Y-88695000D02*
X112277500Y-87731300D01*
X168905300Y-80353300D02*
X167758800Y-79206800D01*
X112121600Y-87575400D02*
X112121600Y-78657900D01*
X115139400Y-75640100D02*
X138908200Y-75640100D01*
X165370000Y-112680000D02*
X165370000Y-111716300D01*
X112277500Y-87731300D02*
X112121600Y-87575400D01*
X112121600Y-78657900D02*
X115139400Y-75640100D01*
X141100000Y-74600000D02*
X139948300Y-74600000D01*
X166076900Y-111009400D02*
X167430000Y-111009400D01*
%TO.N,IMU_SCLK*%
X120190000Y-88370500D02*
X120190000Y-87731300D01*
X120190000Y-87731300D02*
X120160800Y-87731300D01*
X120160800Y-87731300D02*
X119937700Y-87508200D01*
X136900200Y-81339800D02*
X141100000Y-77140000D01*
X119937700Y-81339800D02*
X136900200Y-81339800D01*
%TO.N,M0_ENC_B*%
X110752500Y-98084600D02*
X110889500Y-97947600D01*
X141100000Y-82220000D02*
X127172100Y-82220000D01*
X110752500Y-99052000D02*
X110752500Y-98084600D01*
X118647000Y-97774900D02*
X111062200Y-97774900D01*
X111062200Y-97774900D02*
X110889500Y-97947600D01*
%TO.N,M0_ENC_A*%
X114591700Y-78129400D02*
X116144400Y-78129400D01*
X119336000Y-81588900D02*
X126246300Y-88499200D01*
X119336000Y-81321000D02*
X119336000Y-81588900D01*
X126246300Y-88499200D02*
X125937500Y-88808000D01*
X112725700Y-79995400D02*
X114591700Y-78129400D01*
X141100000Y-84760000D02*
X129985500Y-84760000D01*
X116144400Y-78129400D02*
X119336000Y-81321000D01*
X129985500Y-84760000D02*
X126246300Y-88499200D01*
%TO.N,M1_ENC_B*%
X118749400Y-97026400D02*
X115143200Y-97026400D01*
X115157600Y-80707800D02*
X114459000Y-81406400D01*
X120452500Y-99052000D02*
X120452500Y-98729500D01*
X120452500Y-98729500D02*
X118749400Y-97026400D01*
X123463100Y-89196500D02*
X123463100Y-87941300D01*
X116229600Y-80707800D02*
X115157600Y-80707800D01*
X114459000Y-83229500D02*
X115647500Y-84418000D01*
X138560000Y-89840000D02*
X124106600Y-89840000D01*
X123463100Y-87941300D02*
X116229600Y-80707800D01*
X141100000Y-87300000D02*
X138560000Y-89840000D01*
X114459000Y-81406400D02*
X114459000Y-83229500D01*
X124106600Y-89840000D02*
X123463100Y-89196500D01*
%TO.N,M1_ENC_A*%
X123940300Y-90241700D02*
X123061400Y-89362800D01*
X116442600Y-81878000D02*
X115647500Y-81878000D01*
X141100000Y-89840000D02*
X140698300Y-90241700D01*
X140698300Y-90241700D02*
X123940300Y-90241700D01*
X123061400Y-88496800D02*
X116442600Y-81878000D01*
X115602500Y-99052000D02*
X116535500Y-99052000D01*
X123061400Y-89362800D02*
X123061400Y-88496800D01*
%TO.N,IMU_MOSI*%
X119690000Y-88370500D02*
X119111400Y-87791900D01*
X141100000Y-94920000D02*
X137479600Y-91299600D01*
X124448000Y-91299600D02*
X124448000Y-91299500D01*
X137479600Y-91299600D02*
X124448000Y-91299600D01*
X119111400Y-87791900D02*
X119111400Y-87755100D01*
%TO.N,IMU_MISO*%
X120793300Y-93510200D02*
X137150200Y-93510200D01*
X118930000Y-88630500D02*
X118290800Y-88630500D01*
X118290800Y-88630500D02*
X118290800Y-91007700D01*
X118466100Y-91183000D02*
X118466100Y-91447700D01*
X119083400Y-91800300D02*
X120793300Y-93510200D01*
X118818700Y-91800300D02*
X119083400Y-91800300D01*
X118466100Y-91447700D02*
X118818700Y-91800300D01*
X118290800Y-91007700D02*
X118466100Y-91183000D01*
X137150200Y-93510200D02*
X141100000Y-97460000D01*
%TO.N,M1_PWM*%
X117689300Y-89031300D02*
X117689300Y-91045200D01*
X135025100Y-93925100D02*
X141100000Y-100000000D01*
X114877500Y-88695000D02*
X114877500Y-87731300D01*
X120569200Y-93925100D02*
X135025100Y-93925100D01*
X118064400Y-91420300D02*
X118064400Y-91614000D01*
X118652400Y-92202000D02*
X118846100Y-92202000D01*
X114877500Y-87731300D02*
X116389300Y-87731300D01*
X117689300Y-91045200D02*
X118064400Y-91420300D01*
X118846100Y-92202000D02*
X120569200Y-93925100D01*
X116389300Y-87731300D02*
X117689300Y-89031300D01*
X118064400Y-91614000D02*
X118652400Y-92202000D01*
%TO.N,M0_IN2*%
X137243700Y-102540000D02*
X131729900Y-97026200D01*
X116239300Y-91571800D02*
X119797700Y-95130200D01*
X110317500Y-88695000D02*
X110317500Y-89658700D01*
X110317500Y-89658700D02*
X112230600Y-91571800D01*
X141100000Y-102540000D02*
X137243700Y-102540000D01*
X112230600Y-91571800D02*
X116239300Y-91571800D01*
X119797700Y-95130200D02*
X127904500Y-95130200D01*
X127904500Y-95130200D02*
X130353400Y-97579100D01*
%TO.N,M0_IN1*%
X128353700Y-94728500D02*
X141100000Y-107474800D01*
X141100000Y-107474800D02*
X141100000Y-107620000D01*
X116411600Y-91170100D02*
X119970000Y-94728500D01*
X110967500Y-89658700D02*
X112478900Y-91170100D01*
X112478900Y-91170100D02*
X116411600Y-91170100D01*
X119970000Y-94728500D02*
X128353700Y-94728500D01*
X110967500Y-88695000D02*
X110967500Y-89658700D01*
%TO.N,M0_PWM*%
X108839000Y-87682900D02*
X108816200Y-87682900D01*
X116551700Y-92776000D02*
X116875500Y-92776000D01*
X109248000Y-90082700D02*
X109536600Y-90082700D01*
X109667500Y-88695000D02*
X109667500Y-87731300D01*
X116395800Y-92931900D02*
X116551700Y-92776000D01*
X108816200Y-87682900D02*
X108532200Y-87966900D01*
X108532200Y-89366900D02*
X109248000Y-90082700D01*
X109536600Y-90082700D02*
X112385800Y-92931900D01*
X108532200Y-87966900D02*
X108532200Y-89366900D01*
X120033100Y-95933600D02*
X126873600Y-95933600D01*
X109667500Y-87731300D02*
X108887400Y-87731300D01*
X112385800Y-92931900D02*
X116395800Y-92931900D01*
X126873600Y-95933600D02*
X141100000Y-110160000D01*
X116875500Y-92776000D02*
X120033100Y-95933600D01*
X108887400Y-87731300D02*
X108839000Y-87682900D01*
%TO.N,M1_IN1*%
X132850800Y-94326800D02*
X133452600Y-94928600D01*
X120209200Y-94326800D02*
X132850800Y-94326800D01*
X115541100Y-89658700D02*
X120209200Y-94326800D01*
X113577500Y-89658700D02*
X115541100Y-89658700D01*
X113577500Y-88695000D02*
X113577500Y-89658700D01*
%TO.N,M1_IN2*%
X114227500Y-88695000D02*
X114227500Y-87731300D01*
X114227500Y-87731300D02*
X114688100Y-87270700D01*
X114688100Y-87270700D02*
X117907800Y-87270700D01*
%TO.N,M0_OUT_A*%
X109667500Y-95815000D02*
X109667500Y-94851300D01*
X106925400Y-75873900D02*
X106925400Y-92759200D01*
X109929600Y-72869700D02*
X106925400Y-75873900D01*
X110217500Y-71718000D02*
X110217500Y-72869700D01*
X106925400Y-92759200D02*
X109017500Y-94851300D01*
X109667500Y-94851300D02*
X109017500Y-94851300D01*
X109017500Y-95815000D02*
X109017500Y-94851300D01*
X110217500Y-72869700D02*
X109929600Y-72869700D01*
%TO.N,M0_OUT_B*%
X107327100Y-77148400D02*
X107327100Y-90560900D01*
X110217500Y-74258000D02*
X107327100Y-77148400D01*
X111617500Y-95815000D02*
X111617500Y-94851300D01*
X112277500Y-95815000D02*
X112277500Y-94851300D01*
X107327100Y-90560900D02*
X111617500Y-94851300D01*
X112277500Y-94851300D02*
X111617500Y-94851300D01*
%TO.N,MT_SW*%
X114945000Y-109815000D02*
X115996700Y-109815000D01*
X114250000Y-112011700D02*
X114945000Y-111316700D01*
X118345000Y-109206000D02*
X118345000Y-110043700D01*
X114945000Y-109815000D02*
X114945000Y-111316700D01*
X115996700Y-109815000D02*
X116225400Y-110043700D01*
X116225400Y-110043700D02*
X118345000Y-110043700D01*
X114250000Y-116455000D02*
X114250000Y-112011700D01*
%TO.N,MT_FB*%
X120597700Y-120534700D02*
X116079900Y-125052500D01*
X120245000Y-109206000D02*
X120245000Y-110043700D01*
X116079900Y-125052500D02*
X114727500Y-125052500D01*
X120597700Y-110396400D02*
X120597700Y-120534700D01*
X114727500Y-125052500D02*
X113950000Y-124275000D01*
X120245000Y-110043700D02*
X120597700Y-110396400D01*
X113950000Y-124275000D02*
X110750000Y-124275000D01*
%TO.N,LED_A2*%
X172846200Y-88146300D02*
X174702500Y-86290000D01*
X170473700Y-88146300D02*
X172846200Y-88146300D01*
X168700000Y-89920000D02*
X170473700Y-88146300D01*
%TO.N,M2_OUT_A*%
X162760000Y-118836300D02*
X163897700Y-117698600D01*
X162760000Y-118836300D02*
X162110000Y-118836300D01*
X162110000Y-119800000D02*
X162110000Y-118836300D01*
X163897700Y-117698600D02*
X164891900Y-117698600D01*
X162760000Y-119800000D02*
X162760000Y-118836300D01*
%TO.N,M2_OUT_B*%
X165522200Y-120763700D02*
X165695300Y-120936800D01*
X165370000Y-119800000D02*
X165370000Y-120763700D01*
X165370000Y-119800000D02*
X164710000Y-119800000D01*
X165370000Y-120763700D02*
X165522200Y-120763700D01*
%TO.N,LED_A1*%
X163850000Y-89920000D02*
X165822500Y-89920000D01*
X165822500Y-89920000D02*
X169452500Y-86290000D01*
%TO.N,M1_OUT_A*%
X116177500Y-94851300D02*
X116384900Y-94643900D01*
X115527500Y-95815000D02*
X115527500Y-94851300D01*
X116384900Y-94643900D02*
X117241100Y-94643900D01*
X116177500Y-95815000D02*
X116177500Y-94851300D01*
X116177500Y-94851300D02*
X115527500Y-94851300D01*
%TO.N,M1_OUT_B*%
X112927500Y-94851300D02*
X110094900Y-92018700D01*
X113577500Y-95815000D02*
X113577500Y-94851300D01*
X111719100Y-84567000D02*
X111719100Y-78186400D01*
X108839100Y-86479600D02*
X109806500Y-86479600D01*
X113577500Y-94851300D02*
X112927500Y-94851300D01*
X109960400Y-92018700D02*
X107728800Y-89787100D01*
X112927500Y-95815000D02*
X112927500Y-94851300D01*
X107728800Y-89787100D02*
X107728800Y-87589900D01*
X109806500Y-86479600D02*
X111719100Y-84567000D01*
X107728800Y-87589900D02*
X108839100Y-86479600D01*
X112927500Y-95815000D02*
X112927500Y-94851300D01*
X111719100Y-78186400D02*
X115647500Y-74258000D01*
X110094900Y-92018700D02*
X109960400Y-92018700D01*
%TD*%
M02*
