%TF.GenerationSoftware,KiCad,Pcbnew,10.0.4*%
%TF.CreationDate,2026-06-30T18:02:38+09:00*%
%TF.ProjectId,NanoSoul,4e616e6f-536f-4756-9c2e-6b696361645f,rev?*%
%TF.SameCoordinates,Original*%
%TF.FileFunction,Legend,Top*%
%TF.FilePolarity,Positive*%
%FSLAX46Y46*%
G04 Gerber Fmt 4.6, Leading zero omitted, Abs format (unit mm)*
G04 Created by KiCad (PCBNEW 10.0.4) date 2026-06-30 18:02:38*
%MOMM*%
%LPD*%
G01*
G04 APERTURE LIST*
%ADD10C,0.120000*%
%ADD11C,0.150000*%
%ADD12C,0.300000*%
%ADD13C,0.060000*%
%ADD14C,0.250000*%
%ADD15C,0.000000*%
G04 APERTURE END LIST*
%TO.C,R9*%
D10*
X107702936Y-70405000D02*
X108157064Y-70405000D01*
X107702936Y-71875000D02*
X108157064Y-71875000D01*
%TO.C,R16*%
X162682742Y-112404500D02*
X163157258Y-112404500D01*
X162682742Y-113449500D02*
X163157258Y-113449500D01*
%TO.C,C7*%
X182683748Y-70880000D02*
X183206252Y-70880000D01*
X182683748Y-72350000D02*
X183206252Y-72350000D01*
%TO.C,L1*%
X109545000Y-77380000D02*
X116145000Y-77380000D01*
X109545000Y-79080000D02*
X109545000Y-77380000D01*
X109545000Y-83780000D02*
X109545000Y-82080000D01*
X116145000Y-77380000D02*
X116145000Y-79080000D01*
X116145000Y-82080000D02*
X116145000Y-83780000D01*
X116145000Y-83780000D02*
X109545000Y-83780000D01*
%TO.C,J5*%
X102840000Y-102805000D02*
X104220000Y-102805000D01*
X102840000Y-104185000D02*
X102840000Y-102805000D01*
X102840000Y-105455000D02*
X102840000Y-118265000D01*
X102840000Y-105455000D02*
X105600000Y-105455000D01*
X102840000Y-118265000D02*
X105600000Y-118265000D01*
X105600000Y-105455000D02*
X105600000Y-118265000D01*
%TO.C,R12*%
X108582742Y-120752500D02*
X109057258Y-120752500D01*
X108582742Y-121797500D02*
X109057258Y-121797500D01*
%TO.C,C12*%
X113489420Y-125155000D02*
X113770580Y-125155000D01*
X113489420Y-126175000D02*
X113770580Y-126175000D01*
%TO.C,F1*%
X179256422Y-75465000D02*
X179773578Y-75465000D01*
X179256422Y-76885000D02*
X179773578Y-76885000D01*
%TO.C,C13*%
X178358748Y-102198000D02*
X178881252Y-102198000D01*
X178358748Y-103668000D02*
X178881252Y-103668000D01*
%TO.C,R13*%
X113432742Y-120752500D02*
X113907258Y-120752500D01*
X113432742Y-121797500D02*
X113907258Y-121797500D01*
%TO.C,R2*%
X110337742Y-94517500D02*
X110812258Y-94517500D01*
X110337742Y-95562500D02*
X110812258Y-95562500D01*
%TO.C,R10*%
X103682742Y-71947500D02*
X104157258Y-71947500D01*
X103682742Y-72992500D02*
X104157258Y-72992500D01*
%TO.C,U3*%
D11*
X181855000Y-64476000D02*
X181855000Y-62696000D01*
X184935000Y-64476000D02*
X184935000Y-62696000D01*
D12*
X181875000Y-64886000D02*
G75*
G02*
X181575000Y-64886000I-150000J0D01*
G01*
X181575000Y-64886000D02*
G75*
G02*
X181875000Y-64886000I150000J0D01*
G01*
D13*
X181965000Y-64986000D02*
G75*
G02*
X181905000Y-64986000I-30000J0D01*
G01*
X181905000Y-64986000D02*
G75*
G02*
X181965000Y-64986000I30000J0D01*
G01*
%TO.C,R3*%
D10*
X115187742Y-94517500D02*
X115662258Y-94517500D01*
X115187742Y-95562500D02*
X115662258Y-95562500D01*
%TO.C,C10*%
X108639420Y-125155000D02*
X108920580Y-125155000D01*
X108639420Y-126175000D02*
X108920580Y-126175000D01*
%TO.C,J8*%
X166290000Y-98460000D02*
X166290000Y-99610000D01*
X166290000Y-99610000D02*
X167340000Y-99610000D01*
X167340000Y-99610000D02*
X167340000Y-100600000D01*
X167460000Y-96490000D02*
X171340000Y-96490000D01*
X172510000Y-98460000D02*
X172510000Y-99610000D01*
X172510000Y-99610000D02*
X171460000Y-99610000D01*
%TO.C,R11*%
X171662742Y-105477500D02*
X172137258Y-105477500D01*
X171662742Y-106522500D02*
X172137258Y-106522500D01*
%TO.C,R8*%
X186157742Y-65063500D02*
X186632258Y-65063500D01*
X186157742Y-66108500D02*
X186632258Y-66108500D01*
%TO.C,R7*%
X186157742Y-67063500D02*
X186632258Y-67063500D01*
X186157742Y-68108500D02*
X186632258Y-68108500D01*
%TO.C,C8*%
X122900000Y-103990000D02*
X123900000Y-103990000D01*
X123400000Y-103490000D02*
X123400000Y-104490000D01*
X124140000Y-103204437D02*
X124140000Y-104990000D01*
X124140000Y-103204437D02*
X125204437Y-102140000D01*
X124140000Y-109795563D02*
X124140000Y-108010000D01*
X124140000Y-109795563D02*
X125204437Y-110860000D01*
X125204437Y-102140000D02*
X132860000Y-102140000D01*
X125204437Y-110860000D02*
X132860000Y-110860000D01*
X132860000Y-102140000D02*
X132860000Y-104990000D01*
X132860000Y-110860000D02*
X132860000Y-108010000D01*
%TO.C,R14*%
X118282742Y-120752500D02*
X118757258Y-120752500D01*
X118282742Y-121797500D02*
X118757258Y-121797500D01*
%TO.C,R15*%
X103692742Y-125142500D02*
X104167258Y-125142500D01*
X103692742Y-126187500D02*
X104167258Y-126187500D01*
%TO.C,R6*%
X124012742Y-59172500D02*
X124487258Y-59172500D01*
X124012742Y-60217500D02*
X124487258Y-60217500D01*
%TO.C,J6*%
X108270000Y-102805000D02*
X109650000Y-102805000D01*
X108270000Y-104185000D02*
X108270000Y-102805000D01*
X108270000Y-105455000D02*
X108270000Y-118265000D01*
X108270000Y-105455000D02*
X111030000Y-105455000D01*
X108270000Y-118265000D02*
X111030000Y-118265000D01*
X111030000Y-105455000D02*
X111030000Y-118265000D01*
%TO.C,C6*%
X173983748Y-75470000D02*
X174506252Y-75470000D01*
X173983748Y-76940000D02*
X174506252Y-76940000D01*
%TO.C,C2*%
X124523748Y-86115000D02*
X125046252Y-86115000D01*
X124523748Y-87585000D02*
X125046252Y-87585000D01*
%TO.C,C4*%
X115284420Y-97880000D02*
X115565580Y-97880000D01*
X115284420Y-98900000D02*
X115565580Y-98900000D01*
%TO.C,U6*%
D11*
X134410000Y-98670000D02*
X134410000Y-98920000D01*
X134410000Y-101330000D02*
X134410000Y-101080000D01*
X135160000Y-98670000D02*
X134410000Y-98670000D01*
X135160000Y-101330000D02*
X134410000Y-101330000D01*
X136820000Y-98670000D02*
X137570000Y-98670000D01*
X136820000Y-101330000D02*
X137570000Y-101330000D01*
X137570000Y-98670000D02*
X137570000Y-98920000D01*
X137570000Y-101330000D02*
X137570000Y-101080000D01*
D13*
X137520000Y-101250000D02*
G75*
G02*
X137460000Y-101250000I-30000J0D01*
G01*
X137460000Y-101250000D02*
G75*
G02*
X137520000Y-101250000I30000J0D01*
G01*
D11*
X137790000Y-100740000D02*
G75*
G02*
X137650000Y-100740000I-70000J0D01*
G01*
X137650000Y-100740000D02*
G75*
G02*
X137790000Y-100740000I70000J0D01*
G01*
%TO.C,R5*%
D10*
X127012742Y-59172500D02*
X127487258Y-59172500D01*
X127012742Y-60217500D02*
X127487258Y-60217500D01*
%TO.C,C3*%
X110533748Y-90705000D02*
X111056252Y-90705000D01*
X110533748Y-92175000D02*
X111056252Y-92175000D01*
%TO.C,C1*%
X194339420Y-74731000D02*
X194620580Y-74731000D01*
X194339420Y-75751000D02*
X194620580Y-75751000D01*
%TO.C,C15*%
X103789420Y-128505000D02*
X104070580Y-128505000D01*
X103789420Y-129525000D02*
X104070580Y-129525000D01*
%TO.C,D2*%
X119630000Y-90450000D02*
X119630000Y-92370000D01*
X119630000Y-92370000D02*
X122315000Y-92370000D01*
X122315000Y-90450000D02*
X119630000Y-90450000D01*
%TO.C,C11*%
X173068748Y-102198000D02*
X173591252Y-102198000D01*
X173068748Y-103668000D02*
X173591252Y-103668000D01*
%TO.C,U5*%
D14*
X161530000Y-103460000D02*
X161530000Y-108800000D01*
X161530000Y-108800000D02*
X169530000Y-108800000D01*
X169530000Y-103460000D02*
X161530000Y-103460000D01*
X169530000Y-108800000D02*
X169530000Y-103460000D01*
D12*
X161560000Y-109690000D02*
G75*
G02*
X161260000Y-109690000I-150000J0D01*
G01*
X161260000Y-109690000D02*
G75*
G02*
X161560000Y-109690000I150000J0D01*
G01*
D13*
X161720000Y-109930000D02*
G75*
G02*
X161660000Y-109930000I-30000J0D01*
G01*
X161660000Y-109930000D02*
G75*
G02*
X161720000Y-109930000I30000J0D01*
G01*
D12*
X162170000Y-107950000D02*
G75*
G02*
X161850000Y-107950000I-160000J0D01*
G01*
X161850000Y-107950000D02*
G75*
G02*
X162170000Y-107950000I160000J0D01*
G01*
%TO.C,U4*%
D14*
X113400000Y-103922000D02*
X113400000Y-109262000D01*
X113400000Y-109262000D02*
X121400000Y-109262000D01*
X121400000Y-103922000D02*
X113400000Y-103922000D01*
X121400000Y-109262000D02*
X121400000Y-103922000D01*
D12*
X113430000Y-110152000D02*
G75*
G02*
X113130000Y-110152000I-150000J0D01*
G01*
X113130000Y-110152000D02*
G75*
G02*
X113430000Y-110152000I150000J0D01*
G01*
D13*
X113590000Y-110392000D02*
G75*
G02*
X113530000Y-110392000I-30000J0D01*
G01*
X113530000Y-110392000D02*
G75*
G02*
X113590000Y-110392000I30000J0D01*
G01*
D12*
X114040000Y-108412000D02*
G75*
G02*
X113720000Y-108412000I-160000J0D01*
G01*
X113720000Y-108412000D02*
G75*
G02*
X114040000Y-108412000I160000J0D01*
G01*
%TO.C,R1*%
D10*
X189392742Y-74718500D02*
X189867258Y-74718500D01*
X189392742Y-75763500D02*
X189867258Y-75763500D01*
%TO.C,D3*%
X124880000Y-90450000D02*
X124880000Y-92370000D01*
X124880000Y-92370000D02*
X127565000Y-92370000D01*
X127565000Y-90450000D02*
X124880000Y-90450000D01*
%TO.C,C14*%
X118339420Y-125155000D02*
X118620580Y-125155000D01*
X118339420Y-126175000D02*
X118620580Y-126175000D01*
%TO.C,L2*%
X172995000Y-62145000D02*
X179595000Y-62145000D01*
X172995000Y-63845000D02*
X172995000Y-62145000D01*
X172995000Y-68545000D02*
X172995000Y-66845000D01*
X179595000Y-62145000D02*
X179595000Y-63845000D01*
X179595000Y-66845000D02*
X179595000Y-68545000D01*
X179595000Y-68545000D02*
X172995000Y-68545000D01*
%TO.C,SW1*%
X133940000Y-55650000D02*
X140060000Y-55650000D01*
X133940000Y-59350000D02*
X133940000Y-55650000D01*
X140060000Y-55650000D02*
X140060000Y-59350000D01*
X140060000Y-59350000D02*
X133940000Y-59350000D01*
%TO.C,U1*%
D11*
X188070000Y-71870000D02*
X188070000Y-70090000D01*
X191150000Y-71870000D02*
X191150000Y-70090000D01*
D12*
X188090000Y-72280000D02*
G75*
G02*
X187790000Y-72280000I-150000J0D01*
G01*
X187790000Y-72280000D02*
G75*
G02*
X188090000Y-72280000I150000J0D01*
G01*
D13*
X188180000Y-72380000D02*
G75*
G02*
X188120000Y-72380000I-30000J0D01*
G01*
X188120000Y-72380000D02*
G75*
G02*
X188180000Y-72380000I30000J0D01*
G01*
%TO.C,U2*%
D14*
X120655000Y-69355000D02*
X125755000Y-69355000D01*
X120655000Y-70605000D02*
X120655000Y-69355000D01*
X120655000Y-72205000D02*
X120655000Y-73455000D01*
X125755000Y-69355000D02*
X125755000Y-73455000D01*
X125755000Y-73455000D02*
X120655000Y-73455000D01*
X120697227Y-70601354D02*
G75*
G02*
X120705000Y-72205000I-372227J-803646D01*
G01*
X120345000Y-73905000D02*
G75*
G02*
X120005000Y-73905000I-170000J0D01*
G01*
X120005000Y-73905000D02*
G75*
G02*
X120345000Y-73905000I170000J0D01*
G01*
D13*
X120785000Y-74355000D02*
G75*
G02*
X120725000Y-74355000I-30000J0D01*
G01*
X120725000Y-74355000D02*
G75*
G02*
X120785000Y-74355000I30000J0D01*
G01*
%TO.C,J7*%
D10*
X161830000Y-84213000D02*
X163210000Y-84213000D01*
X161830000Y-85593000D02*
X161830000Y-84213000D01*
X161830000Y-86863000D02*
X161830000Y-99673000D01*
X161830000Y-86863000D02*
X164590000Y-86863000D01*
X161830000Y-99673000D02*
X164590000Y-99673000D01*
X164590000Y-86863000D02*
X164590000Y-99673000D01*
%TO.C,D1*%
X114380000Y-90450000D02*
X114380000Y-92370000D01*
X114380000Y-92370000D02*
X117065000Y-92370000D01*
X117065000Y-90450000D02*
X114380000Y-90450000D01*
%TO.C,D5*%
D11*
X109800000Y-85760000D02*
X115200000Y-85760000D01*
X109800000Y-88680000D02*
X115200000Y-88680000D01*
X111460000Y-85860000D02*
X111460000Y-88580000D01*
X115200000Y-85760000D02*
X115200000Y-86110000D01*
X115200000Y-88680000D02*
X115200000Y-88330000D01*
D13*
X109980000Y-85870000D02*
G75*
G02*
X109920000Y-85870000I-30000J0D01*
G01*
X109920000Y-85870000D02*
G75*
G02*
X109980000Y-85870000I30000J0D01*
G01*
D15*
G36*
X109875012Y-86157594D02*
G01*
X109417812Y-86157594D01*
X109417812Y-85680100D01*
X109875012Y-85680100D01*
X109875012Y-86157594D01*
G37*
G36*
X109875012Y-88759900D02*
G01*
X109417812Y-88759900D01*
X109417812Y-88282406D01*
X109875012Y-88282406D01*
X109875012Y-88759900D01*
G37*
%TO.C,Q1*%
D14*
X193915000Y-69239000D02*
X195715000Y-69239000D01*
X193915000Y-72339000D02*
X195715000Y-72339000D01*
D13*
X196245000Y-72239000D02*
G75*
G02*
X196185000Y-72239000I-30000J0D01*
G01*
X196185000Y-72239000D02*
G75*
G02*
X196245000Y-72239000I30000J0D01*
G01*
D14*
X196335000Y-72439000D02*
G75*
G02*
X196095000Y-72439000I-120000J0D01*
G01*
X196095000Y-72439000D02*
G75*
G02*
X196335000Y-72439000I120000J0D01*
G01*
%TO.C,C9*%
D10*
X103779420Y-75310000D02*
X104060580Y-75310000D01*
X103779420Y-76330000D02*
X104060580Y-76330000D01*
%TO.C,D4*%
D11*
X173250000Y-70525000D02*
X178650000Y-70525000D01*
X173250000Y-73445000D02*
X178650000Y-73445000D01*
X174910000Y-70625000D02*
X174910000Y-73345000D01*
X178650000Y-70525000D02*
X178650000Y-70875000D01*
X178650000Y-73445000D02*
X178650000Y-73095000D01*
D13*
X173430000Y-70635000D02*
G75*
G02*
X173370000Y-70635000I-30000J0D01*
G01*
X173370000Y-70635000D02*
G75*
G02*
X173430000Y-70635000I30000J0D01*
G01*
D15*
G36*
X173325012Y-70922594D02*
G01*
X172867812Y-70922594D01*
X172867812Y-70445100D01*
X173325012Y-70445100D01*
X173325012Y-70922594D01*
G37*
G36*
X173325012Y-73524900D02*
G01*
X172867812Y-73524900D01*
X172867812Y-73047406D01*
X173325012Y-73047406D01*
X173325012Y-73524900D01*
G37*
%TO.C,C5*%
D10*
X119233748Y-86115000D02*
X119756252Y-86115000D01*
X119233748Y-87585000D02*
X119756252Y-87585000D01*
%TO.C,R18*%
X162687742Y-69242500D02*
X163162258Y-69242500D01*
X162687742Y-70287500D02*
X163162258Y-70287500D01*
%TO.C,R19*%
X167537742Y-69242500D02*
X168012258Y-69242500D01*
X167537742Y-70287500D02*
X168012258Y-70287500D01*
%TO.C,R17*%
X167532742Y-112404500D02*
X168007258Y-112404500D01*
X167532742Y-113449500D02*
X168007258Y-113449500D01*
%TO.C,R4*%
X120037742Y-94517500D02*
X120512258Y-94517500D01*
X120037742Y-95562500D02*
X120512258Y-95562500D01*
%TD*%
M02*
