G04 #@! TF.GenerationSoftware,KiCad,Pcbnew,10.0.4*
G04 #@! TF.CreationDate,2026-07-01T19:25:38+09:00*
G04 #@! TF.ProjectId,NanoSoul,4e616e6f-536f-4756-9c2e-6b696361645f,rev?*
G04 #@! TF.SameCoordinates,Original*
G04 #@! TF.FileFunction,Paste,Top*
G04 #@! TF.FilePolarity,Positive*
%FSLAX46Y46*%
G04 Gerber Fmt 4.6, Leading zero omitted, Abs format (unit mm)*
G04 Created by KiCad (PCBNEW 10.0.4) date 2026-07-01 19:25:38*
%MOMM*%
%LPD*%
G01*
G04 APERTURE LIST*
G04 Aperture macros list*
%AMRoundRect*
0 Rectangle with rounded corners*
0 $1 Rounding radius*
0 $2 $3 $4 $5 $6 $7 $8 $9 X,Y pos of 4 corners*
0 Add a 4 corners polygon primitive as box body*
4,1,4,$2,$3,$4,$5,$6,$7,$8,$9,$2,$3,0*
0 Add four circle primitives for the rounded corners*
1,1,$1+$1,$2,$3*
1,1,$1+$1,$4,$5*
1,1,$1+$1,$6,$7*
1,1,$1+$1,$8,$9*
0 Add four rect primitives between the rounded corners*
20,1,$1+$1,$2,$3,$4,$5,0*
20,1,$1+$1,$4,$5,$6,$7,0*
20,1,$1+$1,$6,$7,$8,$9,0*
20,1,$1+$1,$8,$9,$2,$3,0*%
%AMFreePoly0*
4,1,17,0.335278,0.685443,0.349923,0.650088,0.349923,-0.649935,0.335278,-0.685290,0.299923,-0.699935,0.000318,-0.699935,-0.000051,-0.700088,-0.300050,-0.700088,-0.335405,-0.685443,-0.350050,-0.650088,-0.350050,0.649935,-0.335405,0.685290,-0.300050,0.699935,-0.000445,0.699935,-0.000076,0.700088,0.299923,0.700088,0.335278,0.685443,0.335278,0.685443,$1*%
%AMFreePoly1*
4,1,17,0.335431,0.685290,0.350076,0.649935,0.350076,-0.650037,0.335431,-0.685392,0.300076,-0.700037,0.000187,-0.700037,0.000127,-0.700062,-0.299898,-0.700062,-0.335253,-0.685417,-0.349898,-0.650062,-0.349898,0.649910,-0.335253,0.685265,-0.299898,0.699910,-0.000009,0.699910,0.000051,0.699935,0.300076,0.699935,0.335431,0.685290,0.335431,0.685290,$1*%
%AMFreePoly2*
4,1,13,0.335227,0.685443,0.349872,0.650088,0.349872,-0.649884,0.335227,-0.685239,0.299872,-0.699884,-0.300152,-0.699884,-0.335507,-0.685239,-0.350152,-0.649884,-0.350152,0.650088,-0.335507,0.685443,-0.300152,0.700088,0.299872,0.700088,0.335227,0.685443,0.335227,0.685443,$1*%
G04 Aperture macros list end*
%ADD10R,1.208000X1.701000*%
%ADD11RoundRect,0.200000X-0.200000X-0.275000X0.200000X-0.275000X0.200000X0.275000X-0.200000X0.275000X0*%
%ADD12RoundRect,0.250000X-0.250000X-0.475000X0.250000X-0.475000X0.250000X0.475000X-0.250000X0.475000X0*%
%ADD13R,2.474000X5.020000*%
%ADD14RoundRect,0.225000X-0.225000X-0.250000X0.225000X-0.250000X0.225000X0.250000X-0.225000X0.250000X0*%
%ADD15RoundRect,0.243750X-0.243750X-0.456250X0.243750X-0.456250X0.243750X0.456250X-0.243750X0.456250X0*%
%ADD16R,0.532000X1.072000*%
%ADD17RoundRect,0.150000X-0.150000X-0.625000X0.150000X-0.625000X0.150000X0.625000X-0.150000X0.625000X0*%
%ADD18RoundRect,0.250000X-0.350000X-0.650000X0.350000X-0.650000X0.350000X0.650000X-0.350000X0.650000X0*%
%ADD19RoundRect,0.250000X-1.950000X-1.000000X1.950000X-1.000000X1.950000X1.000000X-1.950000X1.000000X0*%
%ADD20R,0.600000X0.270000*%
%ADD21R,0.270000X0.600000*%
%ADD22FreePoly0,180.000000*%
%ADD23FreePoly1,180.000000*%
%ADD24R,0.300000X1.300000*%
%ADD25FreePoly2,180.000000*%
%ADD26O,0.308000X1.324000*%
%ADD27R,1.230000X1.860000*%
%ADD28R,0.600000X1.200000*%
%ADD29R,2.000000X2.000000*%
%ADD30R,2.100000X1.800000*%
%ADD31R,1.100000X0.600000*%
G04 APERTURE END LIST*
D10*
G04 #@! TO.C,R9*
X106450000Y-71140000D03*
X109410000Y-71140000D03*
G04 #@! TD*
D11*
G04 #@! TO.C,R16*
X162095000Y-112927000D03*
X163745000Y-112927000D03*
G04 #@! TD*
D12*
G04 #@! TO.C,C7*
X181995000Y-71615000D03*
X183895000Y-71615000D03*
G04 #@! TD*
D13*
G04 #@! TO.C,L1*
X110245000Y-80580000D03*
X115445000Y-80580000D03*
G04 #@! TD*
D11*
G04 #@! TO.C,R12*
X107995000Y-121275000D03*
X109645000Y-121275000D03*
G04 #@! TD*
D14*
G04 #@! TO.C,C12*
X112855000Y-125665000D03*
X114405000Y-125665000D03*
G04 #@! TD*
D15*
G04 #@! TO.C,F1*
X178577500Y-76175000D03*
X180452500Y-76175000D03*
G04 #@! TD*
D12*
G04 #@! TO.C,C13*
X177670000Y-102933000D03*
X179570000Y-102933000D03*
G04 #@! TD*
D11*
G04 #@! TO.C,R13*
X112845000Y-121275000D03*
X114495000Y-121275000D03*
G04 #@! TD*
G04 #@! TO.C,R2*
X109750000Y-95040000D03*
X111400000Y-95040000D03*
G04 #@! TD*
G04 #@! TO.C,R10*
X103095000Y-72470000D03*
X104745000Y-72470000D03*
G04 #@! TD*
D16*
G04 #@! TO.C,U3*
X182445000Y-64736000D03*
X183395000Y-64736000D03*
X184345000Y-64736000D03*
X184345000Y-62436000D03*
X183395000Y-62436000D03*
X182445000Y-62436000D03*
G04 #@! TD*
D11*
G04 #@! TO.C,R3*
X114600000Y-95040000D03*
X116250000Y-95040000D03*
G04 #@! TD*
D14*
G04 #@! TO.C,C10*
X108005000Y-125665000D03*
X109555000Y-125665000D03*
G04 #@! TD*
D17*
G04 #@! TO.C,J8*
X167900000Y-99825000D03*
X168900000Y-99825000D03*
X169900000Y-99825000D03*
X170900000Y-99825000D03*
D18*
X166600000Y-97300000D03*
X172200000Y-97300000D03*
G04 #@! TD*
D11*
G04 #@! TO.C,R11*
X171075000Y-106000000D03*
X172725000Y-106000000D03*
G04 #@! TD*
G04 #@! TO.C,R8*
X185570000Y-65586000D03*
X187220000Y-65586000D03*
G04 #@! TD*
G04 #@! TO.C,R7*
X185570000Y-67586000D03*
X187220000Y-67586000D03*
G04 #@! TD*
D19*
G04 #@! TO.C,C8*
X124800000Y-106500000D03*
X132200000Y-106500000D03*
G04 #@! TD*
D11*
G04 #@! TO.C,R14*
X117695000Y-121275000D03*
X119345000Y-121275000D03*
G04 #@! TD*
G04 #@! TO.C,R15*
X103105000Y-125665000D03*
X104755000Y-125665000D03*
G04 #@! TD*
G04 #@! TO.C,R6*
X123425000Y-59695000D03*
X125075000Y-59695000D03*
G04 #@! TD*
D12*
G04 #@! TO.C,C6*
X173295000Y-76205000D03*
X175195000Y-76205000D03*
G04 #@! TD*
G04 #@! TO.C,C2*
X123835000Y-86850000D03*
X125735000Y-86850000D03*
G04 #@! TD*
D14*
G04 #@! TO.C,C4*
X114650000Y-98390000D03*
X116200000Y-98390000D03*
G04 #@! TD*
D20*
G04 #@! TO.C,U6*
X137160000Y-100750000D03*
X137160000Y-100250000D03*
X137160000Y-99750000D03*
X137160000Y-99250000D03*
D21*
X136490000Y-99080000D03*
X135990000Y-99080000D03*
X135490000Y-99080000D03*
D20*
X134820000Y-99250000D03*
X134820000Y-99750000D03*
X134820000Y-100250000D03*
X134820000Y-100750000D03*
D21*
X135490000Y-100920000D03*
X135990000Y-100920000D03*
X136490000Y-100920000D03*
G04 #@! TD*
D11*
G04 #@! TO.C,R5*
X126425000Y-59695000D03*
X128075000Y-59695000D03*
G04 #@! TD*
D12*
G04 #@! TO.C,C3*
X109845000Y-91440000D03*
X111745000Y-91440000D03*
G04 #@! TD*
D14*
G04 #@! TO.C,C1*
X193705000Y-75241000D03*
X195255000Y-75241000D03*
G04 #@! TD*
G04 #@! TO.C,C15*
X103155000Y-129015000D03*
X104705000Y-129015000D03*
G04 #@! TD*
D15*
G04 #@! TO.C,D2*
X120377500Y-91410000D03*
X122252500Y-91410000D03*
G04 #@! TD*
D22*
G04 #@! TO.C,J2*
X129200000Y-57095000D03*
D23*
X128400000Y-57095000D03*
D24*
X127250000Y-57095000D03*
X126250000Y-57095000D03*
X125750000Y-57095000D03*
X124750000Y-57095000D03*
D25*
X122800000Y-57095000D03*
X123600000Y-57095000D03*
D24*
X124250000Y-57095000D03*
X125250000Y-57095000D03*
X126750000Y-57095000D03*
X127750000Y-57095000D03*
G04 #@! TD*
D12*
G04 #@! TO.C,C11*
X172380000Y-102933000D03*
X174280000Y-102933000D03*
G04 #@! TD*
D26*
G04 #@! TO.C,U5*
X162010000Y-109690000D03*
X162660000Y-109690000D03*
X163310000Y-109690000D03*
X163960000Y-109690000D03*
X164610000Y-109690000D03*
X165270000Y-109690000D03*
X165920000Y-109690000D03*
X166570000Y-109690000D03*
X167220000Y-109690000D03*
X167870000Y-109690000D03*
X168520000Y-109690000D03*
X169170000Y-109690000D03*
X169170000Y-102570000D03*
X168520000Y-102570000D03*
X167870000Y-102570000D03*
X167220000Y-102570000D03*
X166570000Y-102570000D03*
X165920000Y-102570000D03*
X165270000Y-102570000D03*
X164610000Y-102570000D03*
X163960000Y-102570000D03*
X163310000Y-102570000D03*
X162660000Y-102570000D03*
X162010000Y-102570000D03*
G04 #@! TD*
G04 #@! TO.C,U4*
X113880000Y-110152000D03*
X114530000Y-110152000D03*
X115180000Y-110152000D03*
X115830000Y-110152000D03*
X116480000Y-110152000D03*
X117140000Y-110152000D03*
X117790000Y-110152000D03*
X118440000Y-110152000D03*
X119090000Y-110152000D03*
X119740000Y-110152000D03*
X120390000Y-110152000D03*
X121040000Y-110152000D03*
X121040000Y-103032000D03*
X120390000Y-103032000D03*
X119740000Y-103032000D03*
X119090000Y-103032000D03*
X118440000Y-103032000D03*
X117790000Y-103032000D03*
X117140000Y-103032000D03*
X116480000Y-103032000D03*
X115830000Y-103032000D03*
X115180000Y-103032000D03*
X114530000Y-103032000D03*
X113880000Y-103032000D03*
G04 #@! TD*
D11*
G04 #@! TO.C,R1*
X188805000Y-75241000D03*
X190455000Y-75241000D03*
G04 #@! TD*
D15*
G04 #@! TO.C,D3*
X125627500Y-91410000D03*
X127502500Y-91410000D03*
G04 #@! TD*
D14*
G04 #@! TO.C,C14*
X117705000Y-125665000D03*
X119255000Y-125665000D03*
G04 #@! TD*
D13*
G04 #@! TO.C,L2*
X173695000Y-65345000D03*
X178895000Y-65345000D03*
G04 #@! TD*
D27*
G04 #@! TO.C,SW1*
X134820000Y-57500000D03*
X139180000Y-57500000D03*
G04 #@! TD*
D16*
G04 #@! TO.C,U1*
X188660000Y-72130000D03*
X189610000Y-72130000D03*
X190560000Y-72130000D03*
X190560000Y-69830000D03*
X189610000Y-69830000D03*
X188660000Y-69830000D03*
G04 #@! TD*
D28*
G04 #@! TO.C,U2*
X121295000Y-74315000D03*
X122575000Y-74315000D03*
X123845000Y-74315000D03*
X125115000Y-74315000D03*
X125115000Y-68495000D03*
X123845000Y-68495000D03*
X122575000Y-68495000D03*
X121295000Y-68495000D03*
D29*
X123205000Y-71405000D03*
G04 #@! TD*
D15*
G04 #@! TO.C,D1*
X115127500Y-91410000D03*
X117002500Y-91410000D03*
G04 #@! TD*
D30*
G04 #@! TO.C,D5*
X110100000Y-87220000D03*
X114900000Y-87220000D03*
G04 #@! TD*
D31*
G04 #@! TO.C,Q1*
X196165000Y-71739000D03*
X196165000Y-70789000D03*
X196165000Y-69839000D03*
X193465000Y-69839000D03*
X193465000Y-70789000D03*
X193465000Y-71739000D03*
G04 #@! TD*
D14*
G04 #@! TO.C,C9*
X103145000Y-75820000D03*
X104695000Y-75820000D03*
G04 #@! TD*
D30*
G04 #@! TO.C,D4*
X173550000Y-71985000D03*
X178350000Y-71985000D03*
G04 #@! TD*
D12*
G04 #@! TO.C,C5*
X118545000Y-86850000D03*
X120445000Y-86850000D03*
G04 #@! TD*
D11*
G04 #@! TO.C,R18*
X162100000Y-69765000D03*
X163750000Y-69765000D03*
G04 #@! TD*
G04 #@! TO.C,R19*
X166950000Y-69765000D03*
X168600000Y-69765000D03*
G04 #@! TD*
G04 #@! TO.C,R17*
X166945000Y-112927000D03*
X168595000Y-112927000D03*
G04 #@! TD*
G04 #@! TO.C,R4*
X119450000Y-95040000D03*
X121100000Y-95040000D03*
G04 #@! TD*
M02*
