%TF.GenerationSoftware,KiCad,Pcbnew,10.0.4*%
%TF.CreationDate,2026-06-22T15:15:04+09:00*%
%TF.ProjectId,NanoSoul,4e616e6f-536f-4756-9c2e-6b696361645f,rev?*%
%TF.SameCoordinates,Original*%
%TF.FileFunction,Legend,Top*%
%TF.FilePolarity,Positive*%
%FSLAX46Y46*%
G04 Gerber Fmt 4.6, Leading zero omitted, Abs format (unit mm)*
G04 Created by KiCad (PCBNEW 10.0.4) date 2026-06-22 15:15:04*
%MOMM*%
%LPD*%
G01*
G04 APERTURE LIST*
%ADD10C,0.100000*%
%ADD11C,0.150000*%
%ADD12C,0.120000*%
%ADD13C,0.250000*%
%ADD14C,0.060000*%
%ADD15C,0.300000*%
%ADD16C,0.000000*%
G04 APERTURE END LIST*
D10*
X132952378Y-59064895D02*
X133219045Y-59864895D01*
X133219045Y-59864895D02*
X133485711Y-59064895D01*
X133714282Y-59826800D02*
X133828568Y-59864895D01*
X133828568Y-59864895D02*
X134019044Y-59864895D01*
X134019044Y-59864895D02*
X134095235Y-59826800D01*
X134095235Y-59826800D02*
X134133330Y-59788704D01*
X134133330Y-59788704D02*
X134171425Y-59712514D01*
X134171425Y-59712514D02*
X134171425Y-59636323D01*
X134171425Y-59636323D02*
X134133330Y-59560133D01*
X134133330Y-59560133D02*
X134095235Y-59522038D01*
X134095235Y-59522038D02*
X134019044Y-59483942D01*
X134019044Y-59483942D02*
X133866663Y-59445847D01*
X133866663Y-59445847D02*
X133790473Y-59407752D01*
X133790473Y-59407752D02*
X133752378Y-59369657D01*
X133752378Y-59369657D02*
X133714282Y-59293466D01*
X133714282Y-59293466D02*
X133714282Y-59217276D01*
X133714282Y-59217276D02*
X133752378Y-59141085D01*
X133752378Y-59141085D02*
X133790473Y-59102990D01*
X133790473Y-59102990D02*
X133866663Y-59064895D01*
X133866663Y-59064895D02*
X134057140Y-59064895D01*
X134057140Y-59064895D02*
X134171425Y-59102990D01*
X134666664Y-59483942D02*
X134666664Y-59864895D01*
X134399997Y-59064895D02*
X134666664Y-59483942D01*
X134666664Y-59483942D02*
X134933330Y-59064895D01*
X135161901Y-59826800D02*
X135276187Y-59864895D01*
X135276187Y-59864895D02*
X135466663Y-59864895D01*
X135466663Y-59864895D02*
X135542854Y-59826800D01*
X135542854Y-59826800D02*
X135580949Y-59788704D01*
X135580949Y-59788704D02*
X135619044Y-59712514D01*
X135619044Y-59712514D02*
X135619044Y-59636323D01*
X135619044Y-59636323D02*
X135580949Y-59560133D01*
X135580949Y-59560133D02*
X135542854Y-59522038D01*
X135542854Y-59522038D02*
X135466663Y-59483942D01*
X135466663Y-59483942D02*
X135314282Y-59445847D01*
X135314282Y-59445847D02*
X135238092Y-59407752D01*
X135238092Y-59407752D02*
X135199997Y-59369657D01*
X135199997Y-59369657D02*
X135161901Y-59293466D01*
X135161901Y-59293466D02*
X135161901Y-59217276D01*
X135161901Y-59217276D02*
X135199997Y-59141085D01*
X135199997Y-59141085D02*
X135238092Y-59102990D01*
X135238092Y-59102990D02*
X135314282Y-59064895D01*
X135314282Y-59064895D02*
X135504759Y-59064895D01*
X135504759Y-59064895D02*
X135619044Y-59102990D01*
X136571426Y-59445847D02*
X137180950Y-59445847D01*
X137180950Y-59674419D02*
X136571426Y-59674419D01*
X138552378Y-59064895D02*
X138171426Y-59064895D01*
X138171426Y-59064895D02*
X138133330Y-59445847D01*
X138133330Y-59445847D02*
X138171426Y-59407752D01*
X138171426Y-59407752D02*
X138247616Y-59369657D01*
X138247616Y-59369657D02*
X138438092Y-59369657D01*
X138438092Y-59369657D02*
X138514283Y-59407752D01*
X138514283Y-59407752D02*
X138552378Y-59445847D01*
X138552378Y-59445847D02*
X138590473Y-59522038D01*
X138590473Y-59522038D02*
X138590473Y-59712514D01*
X138590473Y-59712514D02*
X138552378Y-59788704D01*
X138552378Y-59788704D02*
X138514283Y-59826800D01*
X138514283Y-59826800D02*
X138438092Y-59864895D01*
X138438092Y-59864895D02*
X138247616Y-59864895D01*
X138247616Y-59864895D02*
X138171426Y-59826800D01*
X138171426Y-59826800D02*
X138133330Y-59788704D01*
X138819045Y-59064895D02*
X139085712Y-59864895D01*
X139085712Y-59864895D02*
X139352378Y-59064895D01*
X140228569Y-59864895D02*
X140228569Y-59331561D01*
X140228569Y-59064895D02*
X140190473Y-59102990D01*
X140190473Y-59102990D02*
X140228569Y-59141085D01*
X140228569Y-59141085D02*
X140266664Y-59102990D01*
X140266664Y-59102990D02*
X140228569Y-59064895D01*
X140228569Y-59064895D02*
X140228569Y-59141085D01*
X140609521Y-59331561D02*
X140609521Y-59864895D01*
X140609521Y-59407752D02*
X140647616Y-59369657D01*
X140647616Y-59369657D02*
X140723806Y-59331561D01*
X140723806Y-59331561D02*
X140838092Y-59331561D01*
X140838092Y-59331561D02*
X140914283Y-59369657D01*
X140914283Y-59369657D02*
X140952378Y-59445847D01*
X140952378Y-59445847D02*
X140952378Y-59864895D01*
X142171426Y-60169657D02*
X142133331Y-60131561D01*
X142133331Y-60131561D02*
X142057140Y-60017276D01*
X142057140Y-60017276D02*
X142019045Y-59941085D01*
X142019045Y-59941085D02*
X141980950Y-59826800D01*
X141980950Y-59826800D02*
X141942855Y-59636323D01*
X141942855Y-59636323D02*
X141942855Y-59483942D01*
X141942855Y-59483942D02*
X141980950Y-59293466D01*
X141980950Y-59293466D02*
X142019045Y-59179180D01*
X142019045Y-59179180D02*
X142057140Y-59102990D01*
X142057140Y-59102990D02*
X142133331Y-58988704D01*
X142133331Y-58988704D02*
X142171426Y-58950609D01*
X142361902Y-59331561D02*
X142666664Y-59331561D01*
X142476188Y-59864895D02*
X142476188Y-59179180D01*
X142476188Y-59179180D02*
X142514283Y-59102990D01*
X142514283Y-59102990D02*
X142590473Y-59064895D01*
X142590473Y-59064895D02*
X142666664Y-59064895D01*
X142933331Y-59864895D02*
X142933331Y-59331561D01*
X142933331Y-59483942D02*
X142971426Y-59407752D01*
X142971426Y-59407752D02*
X143009521Y-59369657D01*
X143009521Y-59369657D02*
X143085712Y-59331561D01*
X143085712Y-59331561D02*
X143161902Y-59331561D01*
X143542854Y-59864895D02*
X143466664Y-59826800D01*
X143466664Y-59826800D02*
X143428569Y-59788704D01*
X143428569Y-59788704D02*
X143390473Y-59712514D01*
X143390473Y-59712514D02*
X143390473Y-59483942D01*
X143390473Y-59483942D02*
X143428569Y-59407752D01*
X143428569Y-59407752D02*
X143466664Y-59369657D01*
X143466664Y-59369657D02*
X143542854Y-59331561D01*
X143542854Y-59331561D02*
X143657140Y-59331561D01*
X143657140Y-59331561D02*
X143733331Y-59369657D01*
X143733331Y-59369657D02*
X143771426Y-59407752D01*
X143771426Y-59407752D02*
X143809521Y-59483942D01*
X143809521Y-59483942D02*
X143809521Y-59712514D01*
X143809521Y-59712514D02*
X143771426Y-59788704D01*
X143771426Y-59788704D02*
X143733331Y-59826800D01*
X143733331Y-59826800D02*
X143657140Y-59864895D01*
X143657140Y-59864895D02*
X143542854Y-59864895D01*
X144152379Y-59864895D02*
X144152379Y-59331561D01*
X144152379Y-59407752D02*
X144190474Y-59369657D01*
X144190474Y-59369657D02*
X144266664Y-59331561D01*
X144266664Y-59331561D02*
X144380950Y-59331561D01*
X144380950Y-59331561D02*
X144457141Y-59369657D01*
X144457141Y-59369657D02*
X144495236Y-59445847D01*
X144495236Y-59445847D02*
X144495236Y-59864895D01*
X144495236Y-59445847D02*
X144533331Y-59369657D01*
X144533331Y-59369657D02*
X144609522Y-59331561D01*
X144609522Y-59331561D02*
X144723807Y-59331561D01*
X144723807Y-59331561D02*
X144799998Y-59369657D01*
X144799998Y-59369657D02*
X144838093Y-59445847D01*
X144838093Y-59445847D02*
X144838093Y-59864895D01*
X146171427Y-59826800D02*
X146095236Y-59864895D01*
X146095236Y-59864895D02*
X145942855Y-59864895D01*
X145942855Y-59864895D02*
X145866665Y-59826800D01*
X145866665Y-59826800D02*
X145828570Y-59788704D01*
X145828570Y-59788704D02*
X145790474Y-59712514D01*
X145790474Y-59712514D02*
X145790474Y-59483942D01*
X145790474Y-59483942D02*
X145828570Y-59407752D01*
X145828570Y-59407752D02*
X145866665Y-59369657D01*
X145866665Y-59369657D02*
X145942855Y-59331561D01*
X145942855Y-59331561D02*
X146095236Y-59331561D01*
X146095236Y-59331561D02*
X146171427Y-59369657D01*
X146857141Y-59864895D02*
X146857141Y-59445847D01*
X146857141Y-59445847D02*
X146819046Y-59369657D01*
X146819046Y-59369657D02*
X146742855Y-59331561D01*
X146742855Y-59331561D02*
X146590474Y-59331561D01*
X146590474Y-59331561D02*
X146514284Y-59369657D01*
X146857141Y-59826800D02*
X146780950Y-59864895D01*
X146780950Y-59864895D02*
X146590474Y-59864895D01*
X146590474Y-59864895D02*
X146514284Y-59826800D01*
X146514284Y-59826800D02*
X146476188Y-59750609D01*
X146476188Y-59750609D02*
X146476188Y-59674419D01*
X146476188Y-59674419D02*
X146514284Y-59598228D01*
X146514284Y-59598228D02*
X146590474Y-59560133D01*
X146590474Y-59560133D02*
X146780950Y-59560133D01*
X146780950Y-59560133D02*
X146857141Y-59522038D01*
X147238094Y-59864895D02*
X147238094Y-59331561D01*
X147238094Y-59483942D02*
X147276189Y-59407752D01*
X147276189Y-59407752D02*
X147314284Y-59369657D01*
X147314284Y-59369657D02*
X147390475Y-59331561D01*
X147390475Y-59331561D02*
X147466665Y-59331561D01*
X147733332Y-59864895D02*
X147733332Y-59331561D01*
X147733332Y-59483942D02*
X147771427Y-59407752D01*
X147771427Y-59407752D02*
X147809522Y-59369657D01*
X147809522Y-59369657D02*
X147885713Y-59331561D01*
X147885713Y-59331561D02*
X147961903Y-59331561D01*
X148228570Y-59864895D02*
X148228570Y-59331561D01*
X148228570Y-59064895D02*
X148190474Y-59102990D01*
X148190474Y-59102990D02*
X148228570Y-59141085D01*
X148228570Y-59141085D02*
X148266665Y-59102990D01*
X148266665Y-59102990D02*
X148228570Y-59064895D01*
X148228570Y-59064895D02*
X148228570Y-59141085D01*
X148914284Y-59826800D02*
X148838093Y-59864895D01*
X148838093Y-59864895D02*
X148685712Y-59864895D01*
X148685712Y-59864895D02*
X148609522Y-59826800D01*
X148609522Y-59826800D02*
X148571426Y-59750609D01*
X148571426Y-59750609D02*
X148571426Y-59445847D01*
X148571426Y-59445847D02*
X148609522Y-59369657D01*
X148609522Y-59369657D02*
X148685712Y-59331561D01*
X148685712Y-59331561D02*
X148838093Y-59331561D01*
X148838093Y-59331561D02*
X148914284Y-59369657D01*
X148914284Y-59369657D02*
X148952379Y-59445847D01*
X148952379Y-59445847D02*
X148952379Y-59522038D01*
X148952379Y-59522038D02*
X148571426Y-59598228D01*
X149295236Y-59864895D02*
X149295236Y-59331561D01*
X149295236Y-59483942D02*
X149333331Y-59407752D01*
X149333331Y-59407752D02*
X149371426Y-59369657D01*
X149371426Y-59369657D02*
X149447617Y-59331561D01*
X149447617Y-59331561D02*
X149523807Y-59331561D01*
X149714283Y-60169657D02*
X149752378Y-60131561D01*
X149752378Y-60131561D02*
X149828569Y-60017276D01*
X149828569Y-60017276D02*
X149866664Y-59941085D01*
X149866664Y-59941085D02*
X149904759Y-59826800D01*
X149904759Y-59826800D02*
X149942855Y-59636323D01*
X149942855Y-59636323D02*
X149942855Y-59483942D01*
X149942855Y-59483942D02*
X149904759Y-59293466D01*
X149904759Y-59293466D02*
X149866664Y-59179180D01*
X149866664Y-59179180D02*
X149828569Y-59102990D01*
X149828569Y-59102990D02*
X149752378Y-58988704D01*
X149752378Y-58988704D02*
X149714283Y-58950609D01*
X151733331Y-60131561D02*
X151733331Y-58988704D01*
X153447617Y-59064895D02*
X153942855Y-59064895D01*
X153942855Y-59064895D02*
X153676189Y-59369657D01*
X153676189Y-59369657D02*
X153790474Y-59369657D01*
X153790474Y-59369657D02*
X153866665Y-59407752D01*
X153866665Y-59407752D02*
X153904760Y-59445847D01*
X153904760Y-59445847D02*
X153942855Y-59522038D01*
X153942855Y-59522038D02*
X153942855Y-59712514D01*
X153942855Y-59712514D02*
X153904760Y-59788704D01*
X153904760Y-59788704D02*
X153866665Y-59826800D01*
X153866665Y-59826800D02*
X153790474Y-59864895D01*
X153790474Y-59864895D02*
X153561903Y-59864895D01*
X153561903Y-59864895D02*
X153485712Y-59826800D01*
X153485712Y-59826800D02*
X153447617Y-59788704D01*
X154171427Y-59064895D02*
X154438094Y-59864895D01*
X154438094Y-59864895D02*
X154704760Y-59064895D01*
X154895236Y-59064895D02*
X155390474Y-59064895D01*
X155390474Y-59064895D02*
X155123808Y-59369657D01*
X155123808Y-59369657D02*
X155238093Y-59369657D01*
X155238093Y-59369657D02*
X155314284Y-59407752D01*
X155314284Y-59407752D02*
X155352379Y-59445847D01*
X155352379Y-59445847D02*
X155390474Y-59522038D01*
X155390474Y-59522038D02*
X155390474Y-59712514D01*
X155390474Y-59712514D02*
X155352379Y-59788704D01*
X155352379Y-59788704D02*
X155314284Y-59826800D01*
X155314284Y-59826800D02*
X155238093Y-59864895D01*
X155238093Y-59864895D02*
X155009522Y-59864895D01*
X155009522Y-59864895D02*
X154933331Y-59826800D01*
X154933331Y-59826800D02*
X154895236Y-59788704D01*
X156342856Y-59445847D02*
X156952380Y-59445847D01*
X156952380Y-59674419D02*
X156342856Y-59674419D01*
X157828570Y-59331561D02*
X158133332Y-59331561D01*
X157942856Y-59864895D02*
X157942856Y-59179180D01*
X157942856Y-59179180D02*
X157980951Y-59102990D01*
X157980951Y-59102990D02*
X158057141Y-59064895D01*
X158057141Y-59064895D02*
X158133332Y-59064895D01*
X158399999Y-59864895D02*
X158399999Y-59331561D01*
X158399999Y-59483942D02*
X158438094Y-59407752D01*
X158438094Y-59407752D02*
X158476189Y-59369657D01*
X158476189Y-59369657D02*
X158552380Y-59331561D01*
X158552380Y-59331561D02*
X158628570Y-59331561D01*
X159009522Y-59864895D02*
X158933332Y-59826800D01*
X158933332Y-59826800D02*
X158895237Y-59788704D01*
X158895237Y-59788704D02*
X158857141Y-59712514D01*
X158857141Y-59712514D02*
X158857141Y-59483942D01*
X158857141Y-59483942D02*
X158895237Y-59407752D01*
X158895237Y-59407752D02*
X158933332Y-59369657D01*
X158933332Y-59369657D02*
X159009522Y-59331561D01*
X159009522Y-59331561D02*
X159123808Y-59331561D01*
X159123808Y-59331561D02*
X159199999Y-59369657D01*
X159199999Y-59369657D02*
X159238094Y-59407752D01*
X159238094Y-59407752D02*
X159276189Y-59483942D01*
X159276189Y-59483942D02*
X159276189Y-59712514D01*
X159276189Y-59712514D02*
X159238094Y-59788704D01*
X159238094Y-59788704D02*
X159199999Y-59826800D01*
X159199999Y-59826800D02*
X159123808Y-59864895D01*
X159123808Y-59864895D02*
X159009522Y-59864895D01*
X159619047Y-59864895D02*
X159619047Y-59331561D01*
X159619047Y-59407752D02*
X159657142Y-59369657D01*
X159657142Y-59369657D02*
X159733332Y-59331561D01*
X159733332Y-59331561D02*
X159847618Y-59331561D01*
X159847618Y-59331561D02*
X159923809Y-59369657D01*
X159923809Y-59369657D02*
X159961904Y-59445847D01*
X159961904Y-59445847D02*
X159961904Y-59864895D01*
X159961904Y-59445847D02*
X159999999Y-59369657D01*
X159999999Y-59369657D02*
X160076190Y-59331561D01*
X160076190Y-59331561D02*
X160190475Y-59331561D01*
X160190475Y-59331561D02*
X160266666Y-59369657D01*
X160266666Y-59369657D02*
X160304761Y-59445847D01*
X160304761Y-59445847D02*
X160304761Y-59864895D01*
X161638095Y-59864895D02*
X161638095Y-59064895D01*
X161638095Y-59826800D02*
X161561904Y-59864895D01*
X161561904Y-59864895D02*
X161409523Y-59864895D01*
X161409523Y-59864895D02*
X161333333Y-59826800D01*
X161333333Y-59826800D02*
X161295238Y-59788704D01*
X161295238Y-59788704D02*
X161257142Y-59712514D01*
X161257142Y-59712514D02*
X161257142Y-59483942D01*
X161257142Y-59483942D02*
X161295238Y-59407752D01*
X161295238Y-59407752D02*
X161333333Y-59369657D01*
X161333333Y-59369657D02*
X161409523Y-59331561D01*
X161409523Y-59331561D02*
X161561904Y-59331561D01*
X161561904Y-59331561D02*
X161638095Y-59369657D01*
X162323810Y-59826800D02*
X162247619Y-59864895D01*
X162247619Y-59864895D02*
X162095238Y-59864895D01*
X162095238Y-59864895D02*
X162019048Y-59826800D01*
X162019048Y-59826800D02*
X161980952Y-59750609D01*
X161980952Y-59750609D02*
X161980952Y-59445847D01*
X161980952Y-59445847D02*
X162019048Y-59369657D01*
X162019048Y-59369657D02*
X162095238Y-59331561D01*
X162095238Y-59331561D02*
X162247619Y-59331561D01*
X162247619Y-59331561D02*
X162323810Y-59369657D01*
X162323810Y-59369657D02*
X162361905Y-59445847D01*
X162361905Y-59445847D02*
X162361905Y-59522038D01*
X162361905Y-59522038D02*
X161980952Y-59598228D01*
X162628571Y-59331561D02*
X162819047Y-59864895D01*
X162819047Y-59864895D02*
X163009524Y-59331561D01*
X163923810Y-59864895D02*
X163923810Y-59064895D01*
X163923810Y-59369657D02*
X164000000Y-59331561D01*
X164000000Y-59331561D02*
X164152381Y-59331561D01*
X164152381Y-59331561D02*
X164228572Y-59369657D01*
X164228572Y-59369657D02*
X164266667Y-59407752D01*
X164266667Y-59407752D02*
X164304762Y-59483942D01*
X164304762Y-59483942D02*
X164304762Y-59712514D01*
X164304762Y-59712514D02*
X164266667Y-59788704D01*
X164266667Y-59788704D02*
X164228572Y-59826800D01*
X164228572Y-59826800D02*
X164152381Y-59864895D01*
X164152381Y-59864895D02*
X164000000Y-59864895D01*
X164000000Y-59864895D02*
X163923810Y-59826800D01*
X164761905Y-59864895D02*
X164685715Y-59826800D01*
X164685715Y-59826800D02*
X164647620Y-59788704D01*
X164647620Y-59788704D02*
X164609524Y-59712514D01*
X164609524Y-59712514D02*
X164609524Y-59483942D01*
X164609524Y-59483942D02*
X164647620Y-59407752D01*
X164647620Y-59407752D02*
X164685715Y-59369657D01*
X164685715Y-59369657D02*
X164761905Y-59331561D01*
X164761905Y-59331561D02*
X164876191Y-59331561D01*
X164876191Y-59331561D02*
X164952382Y-59369657D01*
X164952382Y-59369657D02*
X164990477Y-59407752D01*
X164990477Y-59407752D02*
X165028572Y-59483942D01*
X165028572Y-59483942D02*
X165028572Y-59712514D01*
X165028572Y-59712514D02*
X164990477Y-59788704D01*
X164990477Y-59788704D02*
X164952382Y-59826800D01*
X164952382Y-59826800D02*
X164876191Y-59864895D01*
X164876191Y-59864895D02*
X164761905Y-59864895D01*
X165714287Y-59864895D02*
X165714287Y-59445847D01*
X165714287Y-59445847D02*
X165676192Y-59369657D01*
X165676192Y-59369657D02*
X165600001Y-59331561D01*
X165600001Y-59331561D02*
X165447620Y-59331561D01*
X165447620Y-59331561D02*
X165371430Y-59369657D01*
X165714287Y-59826800D02*
X165638096Y-59864895D01*
X165638096Y-59864895D02*
X165447620Y-59864895D01*
X165447620Y-59864895D02*
X165371430Y-59826800D01*
X165371430Y-59826800D02*
X165333334Y-59750609D01*
X165333334Y-59750609D02*
X165333334Y-59674419D01*
X165333334Y-59674419D02*
X165371430Y-59598228D01*
X165371430Y-59598228D02*
X165447620Y-59560133D01*
X165447620Y-59560133D02*
X165638096Y-59560133D01*
X165638096Y-59560133D02*
X165714287Y-59522038D01*
X166095240Y-59864895D02*
X166095240Y-59331561D01*
X166095240Y-59483942D02*
X166133335Y-59407752D01*
X166133335Y-59407752D02*
X166171430Y-59369657D01*
X166171430Y-59369657D02*
X166247621Y-59331561D01*
X166247621Y-59331561D02*
X166323811Y-59331561D01*
X166933335Y-59864895D02*
X166933335Y-59064895D01*
X166933335Y-59826800D02*
X166857144Y-59864895D01*
X166857144Y-59864895D02*
X166704763Y-59864895D01*
X166704763Y-59864895D02*
X166628573Y-59826800D01*
X166628573Y-59826800D02*
X166590478Y-59788704D01*
X166590478Y-59788704D02*
X166552382Y-59712514D01*
X166552382Y-59712514D02*
X166552382Y-59483942D01*
X166552382Y-59483942D02*
X166590478Y-59407752D01*
X166590478Y-59407752D02*
X166628573Y-59369657D01*
X166628573Y-59369657D02*
X166704763Y-59331561D01*
X166704763Y-59331561D02*
X166857144Y-59331561D01*
X166857144Y-59331561D02*
X166933335Y-59369657D01*
X135123809Y-132064895D02*
X135123809Y-132636323D01*
X135123809Y-132636323D02*
X135085714Y-132750609D01*
X135085714Y-132750609D02*
X135009523Y-132826800D01*
X135009523Y-132826800D02*
X134895238Y-132864895D01*
X134895238Y-132864895D02*
X134819047Y-132864895D01*
X135923809Y-132864895D02*
X135466666Y-132864895D01*
X135695238Y-132864895D02*
X135695238Y-132064895D01*
X135695238Y-132064895D02*
X135619047Y-132179180D01*
X135619047Y-132179180D02*
X135542857Y-132255371D01*
X135542857Y-132255371D02*
X135466666Y-132293466D01*
X137142857Y-132445847D02*
X137257143Y-132483942D01*
X137257143Y-132483942D02*
X137295238Y-132522038D01*
X137295238Y-132522038D02*
X137333334Y-132598228D01*
X137333334Y-132598228D02*
X137333334Y-132712514D01*
X137333334Y-132712514D02*
X137295238Y-132788704D01*
X137295238Y-132788704D02*
X137257143Y-132826800D01*
X137257143Y-132826800D02*
X137180953Y-132864895D01*
X137180953Y-132864895D02*
X136876191Y-132864895D01*
X136876191Y-132864895D02*
X136876191Y-132064895D01*
X136876191Y-132064895D02*
X137142857Y-132064895D01*
X137142857Y-132064895D02*
X137219048Y-132102990D01*
X137219048Y-132102990D02*
X137257143Y-132141085D01*
X137257143Y-132141085D02*
X137295238Y-132217276D01*
X137295238Y-132217276D02*
X137295238Y-132293466D01*
X137295238Y-132293466D02*
X137257143Y-132369657D01*
X137257143Y-132369657D02*
X137219048Y-132407752D01*
X137219048Y-132407752D02*
X137142857Y-132445847D01*
X137142857Y-132445847D02*
X136876191Y-132445847D01*
X137638095Y-132636323D02*
X138019048Y-132636323D01*
X137561905Y-132864895D02*
X137828572Y-132064895D01*
X137828572Y-132064895D02*
X138095238Y-132864895D01*
X138247619Y-132064895D02*
X138704762Y-132064895D01*
X138476190Y-132864895D02*
X138476190Y-132064895D01*
X138971429Y-132788704D02*
X139009524Y-132826800D01*
X139009524Y-132826800D02*
X138971429Y-132864895D01*
X138971429Y-132864895D02*
X138933333Y-132826800D01*
X138933333Y-132826800D02*
X138971429Y-132788704D01*
X138971429Y-132788704D02*
X138971429Y-132864895D01*
X138971429Y-132369657D02*
X139009524Y-132407752D01*
X139009524Y-132407752D02*
X138971429Y-132445847D01*
X138971429Y-132445847D02*
X138933333Y-132407752D01*
X138933333Y-132407752D02*
X138971429Y-132369657D01*
X138971429Y-132369657D02*
X138971429Y-132445847D01*
X140380952Y-132864895D02*
X139923809Y-132864895D01*
X140152381Y-132864895D02*
X140152381Y-132064895D01*
X140152381Y-132064895D02*
X140076190Y-132179180D01*
X140076190Y-132179180D02*
X140000000Y-132255371D01*
X140000000Y-132255371D02*
X139923809Y-132293466D01*
X140723810Y-132445847D02*
X141333334Y-132445847D01*
X141333334Y-132674419D02*
X140723810Y-132674419D01*
X141980952Y-132445847D02*
X142095238Y-132483942D01*
X142095238Y-132483942D02*
X142133333Y-132522038D01*
X142133333Y-132522038D02*
X142171429Y-132598228D01*
X142171429Y-132598228D02*
X142171429Y-132712514D01*
X142171429Y-132712514D02*
X142133333Y-132788704D01*
X142133333Y-132788704D02*
X142095238Y-132826800D01*
X142095238Y-132826800D02*
X142019048Y-132864895D01*
X142019048Y-132864895D02*
X141714286Y-132864895D01*
X141714286Y-132864895D02*
X141714286Y-132064895D01*
X141714286Y-132064895D02*
X141980952Y-132064895D01*
X141980952Y-132064895D02*
X142057143Y-132102990D01*
X142057143Y-132102990D02*
X142095238Y-132141085D01*
X142095238Y-132141085D02*
X142133333Y-132217276D01*
X142133333Y-132217276D02*
X142133333Y-132293466D01*
X142133333Y-132293466D02*
X142095238Y-132369657D01*
X142095238Y-132369657D02*
X142057143Y-132407752D01*
X142057143Y-132407752D02*
X141980952Y-132445847D01*
X141980952Y-132445847D02*
X141714286Y-132445847D01*
X142476190Y-132636323D02*
X142857143Y-132636323D01*
X142400000Y-132864895D02*
X142666667Y-132064895D01*
X142666667Y-132064895D02*
X142933333Y-132864895D01*
X143085714Y-132064895D02*
X143542857Y-132064895D01*
X143314285Y-132864895D02*
X143314285Y-132064895D01*
X143809524Y-132560133D02*
X144419048Y-132560133D01*
X144114286Y-132864895D02*
X144114286Y-132255371D01*
X145371428Y-132141085D02*
X145409524Y-132102990D01*
X145409524Y-132102990D02*
X145485714Y-132064895D01*
X145485714Y-132064895D02*
X145676190Y-132064895D01*
X145676190Y-132064895D02*
X145752381Y-132102990D01*
X145752381Y-132102990D02*
X145790476Y-132141085D01*
X145790476Y-132141085D02*
X145828571Y-132217276D01*
X145828571Y-132217276D02*
X145828571Y-132293466D01*
X145828571Y-132293466D02*
X145790476Y-132407752D01*
X145790476Y-132407752D02*
X145333333Y-132864895D01*
X145333333Y-132864895D02*
X145828571Y-132864895D01*
X146171429Y-132445847D02*
X146780953Y-132445847D01*
X146780953Y-132674419D02*
X146171429Y-132674419D01*
X147428571Y-132445847D02*
X147542857Y-132483942D01*
X147542857Y-132483942D02*
X147580952Y-132522038D01*
X147580952Y-132522038D02*
X147619048Y-132598228D01*
X147619048Y-132598228D02*
X147619048Y-132712514D01*
X147619048Y-132712514D02*
X147580952Y-132788704D01*
X147580952Y-132788704D02*
X147542857Y-132826800D01*
X147542857Y-132826800D02*
X147466667Y-132864895D01*
X147466667Y-132864895D02*
X147161905Y-132864895D01*
X147161905Y-132864895D02*
X147161905Y-132064895D01*
X147161905Y-132064895D02*
X147428571Y-132064895D01*
X147428571Y-132064895D02*
X147504762Y-132102990D01*
X147504762Y-132102990D02*
X147542857Y-132141085D01*
X147542857Y-132141085D02*
X147580952Y-132217276D01*
X147580952Y-132217276D02*
X147580952Y-132293466D01*
X147580952Y-132293466D02*
X147542857Y-132369657D01*
X147542857Y-132369657D02*
X147504762Y-132407752D01*
X147504762Y-132407752D02*
X147428571Y-132445847D01*
X147428571Y-132445847D02*
X147161905Y-132445847D01*
X147923809Y-132636323D02*
X148304762Y-132636323D01*
X147847619Y-132864895D02*
X148114286Y-132064895D01*
X148114286Y-132064895D02*
X148380952Y-132864895D01*
X148533333Y-132064895D02*
X148990476Y-132064895D01*
X148761904Y-132864895D02*
X148761904Y-132064895D01*
X149257143Y-132560133D02*
X149866667Y-132560133D01*
X152304762Y-132064895D02*
X152304762Y-132636323D01*
X152304762Y-132636323D02*
X152266667Y-132750609D01*
X152266667Y-132750609D02*
X152190476Y-132826800D01*
X152190476Y-132826800D02*
X152076191Y-132864895D01*
X152076191Y-132864895D02*
X152000000Y-132864895D01*
X152647619Y-132141085D02*
X152685715Y-132102990D01*
X152685715Y-132102990D02*
X152761905Y-132064895D01*
X152761905Y-132064895D02*
X152952381Y-132064895D01*
X152952381Y-132064895D02*
X153028572Y-132102990D01*
X153028572Y-132102990D02*
X153066667Y-132141085D01*
X153066667Y-132141085D02*
X153104762Y-132217276D01*
X153104762Y-132217276D02*
X153104762Y-132293466D01*
X153104762Y-132293466D02*
X153066667Y-132407752D01*
X153066667Y-132407752D02*
X152609524Y-132864895D01*
X152609524Y-132864895D02*
X153104762Y-132864895D01*
X154514287Y-132788704D02*
X154476191Y-132826800D01*
X154476191Y-132826800D02*
X154361906Y-132864895D01*
X154361906Y-132864895D02*
X154285715Y-132864895D01*
X154285715Y-132864895D02*
X154171429Y-132826800D01*
X154171429Y-132826800D02*
X154095239Y-132750609D01*
X154095239Y-132750609D02*
X154057144Y-132674419D01*
X154057144Y-132674419D02*
X154019048Y-132522038D01*
X154019048Y-132522038D02*
X154019048Y-132407752D01*
X154019048Y-132407752D02*
X154057144Y-132255371D01*
X154057144Y-132255371D02*
X154095239Y-132179180D01*
X154095239Y-132179180D02*
X154171429Y-132102990D01*
X154171429Y-132102990D02*
X154285715Y-132064895D01*
X154285715Y-132064895D02*
X154361906Y-132064895D01*
X154361906Y-132064895D02*
X154476191Y-132102990D01*
X154476191Y-132102990D02*
X154514287Y-132141085D01*
X154857144Y-132864895D02*
X154857144Y-132064895D01*
X154857144Y-132445847D02*
X155314287Y-132445847D01*
X155314287Y-132864895D02*
X155314287Y-132064895D01*
X156114286Y-132102990D02*
X156038096Y-132064895D01*
X156038096Y-132064895D02*
X155923810Y-132064895D01*
X155923810Y-132064895D02*
X155809524Y-132102990D01*
X155809524Y-132102990D02*
X155733334Y-132179180D01*
X155733334Y-132179180D02*
X155695239Y-132255371D01*
X155695239Y-132255371D02*
X155657143Y-132407752D01*
X155657143Y-132407752D02*
X155657143Y-132522038D01*
X155657143Y-132522038D02*
X155695239Y-132674419D01*
X155695239Y-132674419D02*
X155733334Y-132750609D01*
X155733334Y-132750609D02*
X155809524Y-132826800D01*
X155809524Y-132826800D02*
X155923810Y-132864895D01*
X155923810Y-132864895D02*
X156000001Y-132864895D01*
X156000001Y-132864895D02*
X156114286Y-132826800D01*
X156114286Y-132826800D02*
X156152382Y-132788704D01*
X156152382Y-132788704D02*
X156152382Y-132522038D01*
X156152382Y-132522038D02*
X156000001Y-132522038D01*
X156495239Y-132788704D02*
X156533334Y-132826800D01*
X156533334Y-132826800D02*
X156495239Y-132864895D01*
X156495239Y-132864895D02*
X156457143Y-132826800D01*
X156457143Y-132826800D02*
X156495239Y-132788704D01*
X156495239Y-132788704D02*
X156495239Y-132864895D01*
X156495239Y-132369657D02*
X156533334Y-132407752D01*
X156533334Y-132407752D02*
X156495239Y-132445847D01*
X156495239Y-132445847D02*
X156457143Y-132407752D01*
X156457143Y-132407752D02*
X156495239Y-132369657D01*
X156495239Y-132369657D02*
X156495239Y-132445847D01*
X157904762Y-132864895D02*
X157447619Y-132864895D01*
X157676191Y-132864895D02*
X157676191Y-132064895D01*
X157676191Y-132064895D02*
X157600000Y-132179180D01*
X157600000Y-132179180D02*
X157523810Y-132255371D01*
X157523810Y-132255371D02*
X157447619Y-132293466D01*
X158247620Y-132445847D02*
X158857144Y-132445847D01*
X158857144Y-132674419D02*
X158247620Y-132674419D01*
X159619048Y-132064895D02*
X159238096Y-132064895D01*
X159238096Y-132064895D02*
X159200000Y-132445847D01*
X159200000Y-132445847D02*
X159238096Y-132407752D01*
X159238096Y-132407752D02*
X159314286Y-132369657D01*
X159314286Y-132369657D02*
X159504762Y-132369657D01*
X159504762Y-132369657D02*
X159580953Y-132407752D01*
X159580953Y-132407752D02*
X159619048Y-132445847D01*
X159619048Y-132445847D02*
X159657143Y-132522038D01*
X159657143Y-132522038D02*
X159657143Y-132712514D01*
X159657143Y-132712514D02*
X159619048Y-132788704D01*
X159619048Y-132788704D02*
X159580953Y-132826800D01*
X159580953Y-132826800D02*
X159504762Y-132864895D01*
X159504762Y-132864895D02*
X159314286Y-132864895D01*
X159314286Y-132864895D02*
X159238096Y-132826800D01*
X159238096Y-132826800D02*
X159200000Y-132788704D01*
X159885715Y-132064895D02*
X160152382Y-132864895D01*
X160152382Y-132864895D02*
X160419048Y-132064895D01*
X161257143Y-132141085D02*
X161295239Y-132102990D01*
X161295239Y-132102990D02*
X161371429Y-132064895D01*
X161371429Y-132064895D02*
X161561905Y-132064895D01*
X161561905Y-132064895D02*
X161638096Y-132102990D01*
X161638096Y-132102990D02*
X161676191Y-132141085D01*
X161676191Y-132141085D02*
X161714286Y-132217276D01*
X161714286Y-132217276D02*
X161714286Y-132293466D01*
X161714286Y-132293466D02*
X161676191Y-132407752D01*
X161676191Y-132407752D02*
X161219048Y-132864895D01*
X161219048Y-132864895D02*
X161714286Y-132864895D01*
X162057144Y-132445847D02*
X162666668Y-132445847D01*
X162666668Y-132674419D02*
X162057144Y-132674419D01*
X163466667Y-132102990D02*
X163390477Y-132064895D01*
X163390477Y-132064895D02*
X163276191Y-132064895D01*
X163276191Y-132064895D02*
X163161905Y-132102990D01*
X163161905Y-132102990D02*
X163085715Y-132179180D01*
X163085715Y-132179180D02*
X163047620Y-132255371D01*
X163047620Y-132255371D02*
X163009524Y-132407752D01*
X163009524Y-132407752D02*
X163009524Y-132522038D01*
X163009524Y-132522038D02*
X163047620Y-132674419D01*
X163047620Y-132674419D02*
X163085715Y-132750609D01*
X163085715Y-132750609D02*
X163161905Y-132826800D01*
X163161905Y-132826800D02*
X163276191Y-132864895D01*
X163276191Y-132864895D02*
X163352382Y-132864895D01*
X163352382Y-132864895D02*
X163466667Y-132826800D01*
X163466667Y-132826800D02*
X163504763Y-132788704D01*
X163504763Y-132788704D02*
X163504763Y-132522038D01*
X163504763Y-132522038D02*
X163352382Y-132522038D01*
X163847620Y-132864895D02*
X163847620Y-132064895D01*
X163847620Y-132064895D02*
X164304763Y-132864895D01*
X164304763Y-132864895D02*
X164304763Y-132064895D01*
X164685715Y-132864895D02*
X164685715Y-132064895D01*
X164685715Y-132064895D02*
X164876191Y-132064895D01*
X164876191Y-132064895D02*
X164990477Y-132102990D01*
X164990477Y-132102990D02*
X165066667Y-132179180D01*
X165066667Y-132179180D02*
X165104762Y-132255371D01*
X165104762Y-132255371D02*
X165142858Y-132407752D01*
X165142858Y-132407752D02*
X165142858Y-132522038D01*
X165142858Y-132522038D02*
X165104762Y-132674419D01*
X165104762Y-132674419D02*
X165066667Y-132750609D01*
X165066667Y-132750609D02*
X164990477Y-132826800D01*
X164990477Y-132826800D02*
X164876191Y-132864895D01*
X164876191Y-132864895D02*
X164685715Y-132864895D01*
X138323809Y-134364895D02*
X138323809Y-134936323D01*
X138323809Y-134936323D02*
X138285714Y-135050609D01*
X138285714Y-135050609D02*
X138209523Y-135126800D01*
X138209523Y-135126800D02*
X138095238Y-135164895D01*
X138095238Y-135164895D02*
X138019047Y-135164895D01*
X138819047Y-134707752D02*
X138742857Y-134669657D01*
X138742857Y-134669657D02*
X138704762Y-134631561D01*
X138704762Y-134631561D02*
X138666666Y-134555371D01*
X138666666Y-134555371D02*
X138666666Y-134517276D01*
X138666666Y-134517276D02*
X138704762Y-134441085D01*
X138704762Y-134441085D02*
X138742857Y-134402990D01*
X138742857Y-134402990D02*
X138819047Y-134364895D01*
X138819047Y-134364895D02*
X138971428Y-134364895D01*
X138971428Y-134364895D02*
X139047619Y-134402990D01*
X139047619Y-134402990D02*
X139085714Y-134441085D01*
X139085714Y-134441085D02*
X139123809Y-134517276D01*
X139123809Y-134517276D02*
X139123809Y-134555371D01*
X139123809Y-134555371D02*
X139085714Y-134631561D01*
X139085714Y-134631561D02*
X139047619Y-134669657D01*
X139047619Y-134669657D02*
X138971428Y-134707752D01*
X138971428Y-134707752D02*
X138819047Y-134707752D01*
X138819047Y-134707752D02*
X138742857Y-134745847D01*
X138742857Y-134745847D02*
X138704762Y-134783942D01*
X138704762Y-134783942D02*
X138666666Y-134860133D01*
X138666666Y-134860133D02*
X138666666Y-135012514D01*
X138666666Y-135012514D02*
X138704762Y-135088704D01*
X138704762Y-135088704D02*
X138742857Y-135126800D01*
X138742857Y-135126800D02*
X138819047Y-135164895D01*
X138819047Y-135164895D02*
X138971428Y-135164895D01*
X138971428Y-135164895D02*
X139047619Y-135126800D01*
X139047619Y-135126800D02*
X139085714Y-135088704D01*
X139085714Y-135088704D02*
X139123809Y-135012514D01*
X139123809Y-135012514D02*
X139123809Y-134860133D01*
X139123809Y-134860133D02*
X139085714Y-134783942D01*
X139085714Y-134783942D02*
X139047619Y-134745847D01*
X139047619Y-134745847D02*
X138971428Y-134707752D01*
X140457143Y-135164895D02*
X140076191Y-135164895D01*
X140076191Y-135164895D02*
X140076191Y-134364895D01*
X140723810Y-135164895D02*
X140723810Y-134364895D01*
X141523809Y-134402990D02*
X141447619Y-134364895D01*
X141447619Y-134364895D02*
X141333333Y-134364895D01*
X141333333Y-134364895D02*
X141219047Y-134402990D01*
X141219047Y-134402990D02*
X141142857Y-134479180D01*
X141142857Y-134479180D02*
X141104762Y-134555371D01*
X141104762Y-134555371D02*
X141066666Y-134707752D01*
X141066666Y-134707752D02*
X141066666Y-134822038D01*
X141066666Y-134822038D02*
X141104762Y-134974419D01*
X141104762Y-134974419D02*
X141142857Y-135050609D01*
X141142857Y-135050609D02*
X141219047Y-135126800D01*
X141219047Y-135126800D02*
X141333333Y-135164895D01*
X141333333Y-135164895D02*
X141409524Y-135164895D01*
X141409524Y-135164895D02*
X141523809Y-135126800D01*
X141523809Y-135126800D02*
X141561905Y-135088704D01*
X141561905Y-135088704D02*
X141561905Y-134822038D01*
X141561905Y-134822038D02*
X141409524Y-134822038D01*
X141904762Y-135164895D02*
X141904762Y-134364895D01*
X141904762Y-134745847D02*
X142361905Y-134745847D01*
X142361905Y-135164895D02*
X142361905Y-134364895D01*
X142628571Y-134364895D02*
X143085714Y-134364895D01*
X142857142Y-135164895D02*
X142857142Y-134364895D01*
X143352381Y-135088704D02*
X143390476Y-135126800D01*
X143390476Y-135126800D02*
X143352381Y-135164895D01*
X143352381Y-135164895D02*
X143314285Y-135126800D01*
X143314285Y-135126800D02*
X143352381Y-135088704D01*
X143352381Y-135088704D02*
X143352381Y-135164895D01*
X143352381Y-134669657D02*
X143390476Y-134707752D01*
X143390476Y-134707752D02*
X143352381Y-134745847D01*
X143352381Y-134745847D02*
X143314285Y-134707752D01*
X143314285Y-134707752D02*
X143352381Y-134669657D01*
X143352381Y-134669657D02*
X143352381Y-134745847D01*
X144761904Y-135164895D02*
X144304761Y-135164895D01*
X144533333Y-135164895D02*
X144533333Y-134364895D01*
X144533333Y-134364895D02*
X144457142Y-134479180D01*
X144457142Y-134479180D02*
X144380952Y-134555371D01*
X144380952Y-134555371D02*
X144304761Y-134593466D01*
X145104762Y-134745847D02*
X145714286Y-134745847D01*
X145714286Y-134974419D02*
X145104762Y-134974419D01*
X146019047Y-134364895D02*
X146514285Y-134364895D01*
X146514285Y-134364895D02*
X146247619Y-134669657D01*
X146247619Y-134669657D02*
X146361904Y-134669657D01*
X146361904Y-134669657D02*
X146438095Y-134707752D01*
X146438095Y-134707752D02*
X146476190Y-134745847D01*
X146476190Y-134745847D02*
X146514285Y-134822038D01*
X146514285Y-134822038D02*
X146514285Y-135012514D01*
X146514285Y-135012514D02*
X146476190Y-135088704D01*
X146476190Y-135088704D02*
X146438095Y-135126800D01*
X146438095Y-135126800D02*
X146361904Y-135164895D01*
X146361904Y-135164895D02*
X146133333Y-135164895D01*
X146133333Y-135164895D02*
X146057142Y-135126800D01*
X146057142Y-135126800D02*
X146019047Y-135088704D01*
X146742857Y-134364895D02*
X147009524Y-135164895D01*
X147009524Y-135164895D02*
X147276190Y-134364895D01*
X147466666Y-134364895D02*
X147961904Y-134364895D01*
X147961904Y-134364895D02*
X147695238Y-134669657D01*
X147695238Y-134669657D02*
X147809523Y-134669657D01*
X147809523Y-134669657D02*
X147885714Y-134707752D01*
X147885714Y-134707752D02*
X147923809Y-134745847D01*
X147923809Y-134745847D02*
X147961904Y-134822038D01*
X147961904Y-134822038D02*
X147961904Y-135012514D01*
X147961904Y-135012514D02*
X147923809Y-135088704D01*
X147923809Y-135088704D02*
X147885714Y-135126800D01*
X147885714Y-135126800D02*
X147809523Y-135164895D01*
X147809523Y-135164895D02*
X147580952Y-135164895D01*
X147580952Y-135164895D02*
X147504761Y-135126800D01*
X147504761Y-135126800D02*
X147466666Y-135088704D01*
X148876190Y-134441085D02*
X148914286Y-134402990D01*
X148914286Y-134402990D02*
X148990476Y-134364895D01*
X148990476Y-134364895D02*
X149180952Y-134364895D01*
X149180952Y-134364895D02*
X149257143Y-134402990D01*
X149257143Y-134402990D02*
X149295238Y-134441085D01*
X149295238Y-134441085D02*
X149333333Y-134517276D01*
X149333333Y-134517276D02*
X149333333Y-134593466D01*
X149333333Y-134593466D02*
X149295238Y-134707752D01*
X149295238Y-134707752D02*
X148838095Y-135164895D01*
X148838095Y-135164895D02*
X149333333Y-135164895D01*
X149676191Y-134745847D02*
X150285715Y-134745847D01*
X150285715Y-134974419D02*
X149676191Y-134974419D01*
X151085714Y-134402990D02*
X151009524Y-134364895D01*
X151009524Y-134364895D02*
X150895238Y-134364895D01*
X150895238Y-134364895D02*
X150780952Y-134402990D01*
X150780952Y-134402990D02*
X150704762Y-134479180D01*
X150704762Y-134479180D02*
X150666667Y-134555371D01*
X150666667Y-134555371D02*
X150628571Y-134707752D01*
X150628571Y-134707752D02*
X150628571Y-134822038D01*
X150628571Y-134822038D02*
X150666667Y-134974419D01*
X150666667Y-134974419D02*
X150704762Y-135050609D01*
X150704762Y-135050609D02*
X150780952Y-135126800D01*
X150780952Y-135126800D02*
X150895238Y-135164895D01*
X150895238Y-135164895D02*
X150971429Y-135164895D01*
X150971429Y-135164895D02*
X151085714Y-135126800D01*
X151085714Y-135126800D02*
X151123810Y-135088704D01*
X151123810Y-135088704D02*
X151123810Y-134822038D01*
X151123810Y-134822038D02*
X150971429Y-134822038D01*
X151466667Y-135164895D02*
X151466667Y-134364895D01*
X151466667Y-134364895D02*
X151923810Y-135164895D01*
X151923810Y-135164895D02*
X151923810Y-134364895D01*
X152304762Y-135164895D02*
X152304762Y-134364895D01*
X152304762Y-134364895D02*
X152495238Y-134364895D01*
X152495238Y-134364895D02*
X152609524Y-134402990D01*
X152609524Y-134402990D02*
X152685714Y-134479180D01*
X152685714Y-134479180D02*
X152723809Y-134555371D01*
X152723809Y-134555371D02*
X152761905Y-134707752D01*
X152761905Y-134707752D02*
X152761905Y-134822038D01*
X152761905Y-134822038D02*
X152723809Y-134974419D01*
X152723809Y-134974419D02*
X152685714Y-135050609D01*
X152685714Y-135050609D02*
X152609524Y-135126800D01*
X152609524Y-135126800D02*
X152495238Y-135164895D01*
X152495238Y-135164895D02*
X152304762Y-135164895D01*
X153638095Y-134364895D02*
X154133333Y-134364895D01*
X154133333Y-134364895D02*
X153866667Y-134669657D01*
X153866667Y-134669657D02*
X153980952Y-134669657D01*
X153980952Y-134669657D02*
X154057143Y-134707752D01*
X154057143Y-134707752D02*
X154095238Y-134745847D01*
X154095238Y-134745847D02*
X154133333Y-134822038D01*
X154133333Y-134822038D02*
X154133333Y-135012514D01*
X154133333Y-135012514D02*
X154095238Y-135088704D01*
X154095238Y-135088704D02*
X154057143Y-135126800D01*
X154057143Y-135126800D02*
X153980952Y-135164895D01*
X153980952Y-135164895D02*
X153752381Y-135164895D01*
X153752381Y-135164895D02*
X153676190Y-135126800D01*
X153676190Y-135126800D02*
X153638095Y-135088704D01*
X154476191Y-134745847D02*
X155085715Y-134745847D01*
X155085715Y-134974419D02*
X154476191Y-134974419D01*
X155428571Y-135126800D02*
X155542857Y-135164895D01*
X155542857Y-135164895D02*
X155733333Y-135164895D01*
X155733333Y-135164895D02*
X155809524Y-135126800D01*
X155809524Y-135126800D02*
X155847619Y-135088704D01*
X155847619Y-135088704D02*
X155885714Y-135012514D01*
X155885714Y-135012514D02*
X155885714Y-134936323D01*
X155885714Y-134936323D02*
X155847619Y-134860133D01*
X155847619Y-134860133D02*
X155809524Y-134822038D01*
X155809524Y-134822038D02*
X155733333Y-134783942D01*
X155733333Y-134783942D02*
X155580952Y-134745847D01*
X155580952Y-134745847D02*
X155504762Y-134707752D01*
X155504762Y-134707752D02*
X155466667Y-134669657D01*
X155466667Y-134669657D02*
X155428571Y-134593466D01*
X155428571Y-134593466D02*
X155428571Y-134517276D01*
X155428571Y-134517276D02*
X155466667Y-134441085D01*
X155466667Y-134441085D02*
X155504762Y-134402990D01*
X155504762Y-134402990D02*
X155580952Y-134364895D01*
X155580952Y-134364895D02*
X155771429Y-134364895D01*
X155771429Y-134364895D02*
X155885714Y-134402990D01*
X156228572Y-135164895D02*
X156228572Y-134364895D01*
X156228572Y-134364895D02*
X156419048Y-134364895D01*
X156419048Y-134364895D02*
X156533334Y-134402990D01*
X156533334Y-134402990D02*
X156609524Y-134479180D01*
X156609524Y-134479180D02*
X156647619Y-134555371D01*
X156647619Y-134555371D02*
X156685715Y-134707752D01*
X156685715Y-134707752D02*
X156685715Y-134822038D01*
X156685715Y-134822038D02*
X156647619Y-134974419D01*
X156647619Y-134974419D02*
X156609524Y-135050609D01*
X156609524Y-135050609D02*
X156533334Y-135126800D01*
X156533334Y-135126800D02*
X156419048Y-135164895D01*
X156419048Y-135164895D02*
X156228572Y-135164895D01*
X156990476Y-134936323D02*
X157371429Y-134936323D01*
X156914286Y-135164895D02*
X157180953Y-134364895D01*
X157180953Y-134364895D02*
X157447619Y-135164895D01*
X158666667Y-134631561D02*
X158666667Y-135164895D01*
X158476191Y-134326800D02*
X158285714Y-134898228D01*
X158285714Y-134898228D02*
X158780953Y-134898228D01*
X159085715Y-134745847D02*
X159695239Y-134745847D01*
X159695239Y-134974419D02*
X159085715Y-134974419D01*
X160038095Y-135126800D02*
X160152381Y-135164895D01*
X160152381Y-135164895D02*
X160342857Y-135164895D01*
X160342857Y-135164895D02*
X160419048Y-135126800D01*
X160419048Y-135126800D02*
X160457143Y-135088704D01*
X160457143Y-135088704D02*
X160495238Y-135012514D01*
X160495238Y-135012514D02*
X160495238Y-134936323D01*
X160495238Y-134936323D02*
X160457143Y-134860133D01*
X160457143Y-134860133D02*
X160419048Y-134822038D01*
X160419048Y-134822038D02*
X160342857Y-134783942D01*
X160342857Y-134783942D02*
X160190476Y-134745847D01*
X160190476Y-134745847D02*
X160114286Y-134707752D01*
X160114286Y-134707752D02*
X160076191Y-134669657D01*
X160076191Y-134669657D02*
X160038095Y-134593466D01*
X160038095Y-134593466D02*
X160038095Y-134517276D01*
X160038095Y-134517276D02*
X160076191Y-134441085D01*
X160076191Y-134441085D02*
X160114286Y-134402990D01*
X160114286Y-134402990D02*
X160190476Y-134364895D01*
X160190476Y-134364895D02*
X160380953Y-134364895D01*
X160380953Y-134364895D02*
X160495238Y-134402990D01*
X161295239Y-135088704D02*
X161257143Y-135126800D01*
X161257143Y-135126800D02*
X161142858Y-135164895D01*
X161142858Y-135164895D02*
X161066667Y-135164895D01*
X161066667Y-135164895D02*
X160952381Y-135126800D01*
X160952381Y-135126800D02*
X160876191Y-135050609D01*
X160876191Y-135050609D02*
X160838096Y-134974419D01*
X160838096Y-134974419D02*
X160800000Y-134822038D01*
X160800000Y-134822038D02*
X160800000Y-134707752D01*
X160800000Y-134707752D02*
X160838096Y-134555371D01*
X160838096Y-134555371D02*
X160876191Y-134479180D01*
X160876191Y-134479180D02*
X160952381Y-134402990D01*
X160952381Y-134402990D02*
X161066667Y-134364895D01*
X161066667Y-134364895D02*
X161142858Y-134364895D01*
X161142858Y-134364895D02*
X161257143Y-134402990D01*
X161257143Y-134402990D02*
X161295239Y-134441085D01*
X162019048Y-135164895D02*
X161638096Y-135164895D01*
X161638096Y-135164895D02*
X161638096Y-134364895D01*
X128380950Y-136664895D02*
X128380950Y-137236323D01*
X128380950Y-137236323D02*
X128342855Y-137350609D01*
X128342855Y-137350609D02*
X128266664Y-137426800D01*
X128266664Y-137426800D02*
X128152379Y-137464895D01*
X128152379Y-137464895D02*
X128076188Y-137464895D01*
X129142855Y-136664895D02*
X128761903Y-136664895D01*
X128761903Y-136664895D02*
X128723807Y-137045847D01*
X128723807Y-137045847D02*
X128761903Y-137007752D01*
X128761903Y-137007752D02*
X128838093Y-136969657D01*
X128838093Y-136969657D02*
X129028569Y-136969657D01*
X129028569Y-136969657D02*
X129104760Y-137007752D01*
X129104760Y-137007752D02*
X129142855Y-137045847D01*
X129142855Y-137045847D02*
X129180950Y-137122038D01*
X129180950Y-137122038D02*
X129180950Y-137312514D01*
X129180950Y-137312514D02*
X129142855Y-137388704D01*
X129142855Y-137388704D02*
X129104760Y-137426800D01*
X129104760Y-137426800D02*
X129028569Y-137464895D01*
X129028569Y-137464895D02*
X128838093Y-137464895D01*
X128838093Y-137464895D02*
X128761903Y-137426800D01*
X128761903Y-137426800D02*
X128723807Y-137388704D01*
X130095236Y-136626800D02*
X129409522Y-137655371D01*
X130590474Y-136664895D02*
X130590474Y-137236323D01*
X130590474Y-137236323D02*
X130552379Y-137350609D01*
X130552379Y-137350609D02*
X130476188Y-137426800D01*
X130476188Y-137426800D02*
X130361903Y-137464895D01*
X130361903Y-137464895D02*
X130285712Y-137464895D01*
X131314284Y-136664895D02*
X131161903Y-136664895D01*
X131161903Y-136664895D02*
X131085712Y-136702990D01*
X131085712Y-136702990D02*
X131047617Y-136741085D01*
X131047617Y-136741085D02*
X130971427Y-136855371D01*
X130971427Y-136855371D02*
X130933331Y-137007752D01*
X130933331Y-137007752D02*
X130933331Y-137312514D01*
X130933331Y-137312514D02*
X130971427Y-137388704D01*
X130971427Y-137388704D02*
X131009522Y-137426800D01*
X131009522Y-137426800D02*
X131085712Y-137464895D01*
X131085712Y-137464895D02*
X131238093Y-137464895D01*
X131238093Y-137464895D02*
X131314284Y-137426800D01*
X131314284Y-137426800D02*
X131352379Y-137388704D01*
X131352379Y-137388704D02*
X131390474Y-137312514D01*
X131390474Y-137312514D02*
X131390474Y-137122038D01*
X131390474Y-137122038D02*
X131352379Y-137045847D01*
X131352379Y-137045847D02*
X131314284Y-137007752D01*
X131314284Y-137007752D02*
X131238093Y-136969657D01*
X131238093Y-136969657D02*
X131085712Y-136969657D01*
X131085712Y-136969657D02*
X131009522Y-137007752D01*
X131009522Y-137007752D02*
X130971427Y-137045847D01*
X130971427Y-137045847D02*
X130933331Y-137122038D01*
X132304760Y-136626800D02*
X131619046Y-137655371D01*
X132799998Y-136664895D02*
X132799998Y-137236323D01*
X132799998Y-137236323D02*
X132761903Y-137350609D01*
X132761903Y-137350609D02*
X132685712Y-137426800D01*
X132685712Y-137426800D02*
X132571427Y-137464895D01*
X132571427Y-137464895D02*
X132495236Y-137464895D01*
X133104760Y-136664895D02*
X133638094Y-136664895D01*
X133638094Y-136664895D02*
X133295236Y-137464895D01*
X134552380Y-137045847D02*
X135161904Y-137045847D01*
X135161904Y-137274419D02*
X134552380Y-137274419D01*
X136152380Y-137464895D02*
X136152380Y-136664895D01*
X136152380Y-136664895D02*
X136419046Y-137236323D01*
X136419046Y-137236323D02*
X136685713Y-136664895D01*
X136685713Y-136664895D02*
X136685713Y-137464895D01*
X137219047Y-136664895D02*
X137295237Y-136664895D01*
X137295237Y-136664895D02*
X137371428Y-136702990D01*
X137371428Y-136702990D02*
X137409523Y-136741085D01*
X137409523Y-136741085D02*
X137447618Y-136817276D01*
X137447618Y-136817276D02*
X137485713Y-136969657D01*
X137485713Y-136969657D02*
X137485713Y-137160133D01*
X137485713Y-137160133D02*
X137447618Y-137312514D01*
X137447618Y-137312514D02*
X137409523Y-137388704D01*
X137409523Y-137388704D02*
X137371428Y-137426800D01*
X137371428Y-137426800D02*
X137295237Y-137464895D01*
X137295237Y-137464895D02*
X137219047Y-137464895D01*
X137219047Y-137464895D02*
X137142856Y-137426800D01*
X137142856Y-137426800D02*
X137104761Y-137388704D01*
X137104761Y-137388704D02*
X137066666Y-137312514D01*
X137066666Y-137312514D02*
X137028570Y-137160133D01*
X137028570Y-137160133D02*
X137028570Y-136969657D01*
X137028570Y-136969657D02*
X137066666Y-136817276D01*
X137066666Y-136817276D02*
X137104761Y-136741085D01*
X137104761Y-136741085D02*
X137142856Y-136702990D01*
X137142856Y-136702990D02*
X137219047Y-136664895D01*
X138399999Y-136626800D02*
X137714285Y-137655371D01*
X138666666Y-137464895D02*
X138666666Y-136664895D01*
X138666666Y-136664895D02*
X138933332Y-137236323D01*
X138933332Y-137236323D02*
X139199999Y-136664895D01*
X139199999Y-136664895D02*
X139199999Y-137464895D01*
X139999999Y-137464895D02*
X139542856Y-137464895D01*
X139771428Y-137464895D02*
X139771428Y-136664895D01*
X139771428Y-136664895D02*
X139695237Y-136779180D01*
X139695237Y-136779180D02*
X139619047Y-136855371D01*
X139619047Y-136855371D02*
X139542856Y-136893466D01*
X140914285Y-136626800D02*
X140228571Y-137655371D01*
X141180952Y-137464895D02*
X141180952Y-136664895D01*
X141180952Y-136664895D02*
X141447618Y-137236323D01*
X141447618Y-137236323D02*
X141714285Y-136664895D01*
X141714285Y-136664895D02*
X141714285Y-137464895D01*
X142057142Y-136741085D02*
X142095238Y-136702990D01*
X142095238Y-136702990D02*
X142171428Y-136664895D01*
X142171428Y-136664895D02*
X142361904Y-136664895D01*
X142361904Y-136664895D02*
X142438095Y-136702990D01*
X142438095Y-136702990D02*
X142476190Y-136741085D01*
X142476190Y-136741085D02*
X142514285Y-136817276D01*
X142514285Y-136817276D02*
X142514285Y-136893466D01*
X142514285Y-136893466D02*
X142476190Y-137007752D01*
X142476190Y-137007752D02*
X142019047Y-137464895D01*
X142019047Y-137464895D02*
X142514285Y-137464895D01*
X142857143Y-137388704D02*
X142895238Y-137426800D01*
X142895238Y-137426800D02*
X142857143Y-137464895D01*
X142857143Y-137464895D02*
X142819047Y-137426800D01*
X142819047Y-137426800D02*
X142857143Y-137388704D01*
X142857143Y-137388704D02*
X142857143Y-137464895D01*
X142857143Y-136969657D02*
X142895238Y-137007752D01*
X142895238Y-137007752D02*
X142857143Y-137045847D01*
X142857143Y-137045847D02*
X142819047Y-137007752D01*
X142819047Y-137007752D02*
X142857143Y-136969657D01*
X142857143Y-136969657D02*
X142857143Y-137045847D01*
X144876190Y-137464895D02*
X144419047Y-137464895D01*
X144647619Y-137464895D02*
X144647619Y-136664895D01*
X144647619Y-136664895D02*
X144571428Y-136779180D01*
X144571428Y-136779180D02*
X144495238Y-136855371D01*
X144495238Y-136855371D02*
X144419047Y-136893466D01*
X145219048Y-137045847D02*
X145828572Y-137045847D01*
X145828572Y-137274419D02*
X145219048Y-137274419D01*
X146209524Y-137464895D02*
X146209524Y-136664895D01*
X146209524Y-136664895D02*
X146476190Y-137236323D01*
X146476190Y-137236323D02*
X146742857Y-136664895D01*
X146742857Y-136664895D02*
X146742857Y-137464895D01*
X147123810Y-137160133D02*
X147733334Y-137160133D01*
X147428572Y-137464895D02*
X147428572Y-136855371D01*
X148685714Y-136741085D02*
X148723810Y-136702990D01*
X148723810Y-136702990D02*
X148800000Y-136664895D01*
X148800000Y-136664895D02*
X148990476Y-136664895D01*
X148990476Y-136664895D02*
X149066667Y-136702990D01*
X149066667Y-136702990D02*
X149104762Y-136741085D01*
X149104762Y-136741085D02*
X149142857Y-136817276D01*
X149142857Y-136817276D02*
X149142857Y-136893466D01*
X149142857Y-136893466D02*
X149104762Y-137007752D01*
X149104762Y-137007752D02*
X148647619Y-137464895D01*
X148647619Y-137464895D02*
X149142857Y-137464895D01*
X149485715Y-137045847D02*
X150095239Y-137045847D01*
X150095239Y-137274419D02*
X149485715Y-137274419D01*
X150476191Y-137464895D02*
X150476191Y-136664895D01*
X150476191Y-136664895D02*
X150742857Y-137236323D01*
X150742857Y-137236323D02*
X151009524Y-136664895D01*
X151009524Y-136664895D02*
X151009524Y-137464895D01*
X151390477Y-137160133D02*
X152000001Y-137160133D01*
X152914286Y-136664895D02*
X153409524Y-136664895D01*
X153409524Y-136664895D02*
X153142858Y-136969657D01*
X153142858Y-136969657D02*
X153257143Y-136969657D01*
X153257143Y-136969657D02*
X153333334Y-137007752D01*
X153333334Y-137007752D02*
X153371429Y-137045847D01*
X153371429Y-137045847D02*
X153409524Y-137122038D01*
X153409524Y-137122038D02*
X153409524Y-137312514D01*
X153409524Y-137312514D02*
X153371429Y-137388704D01*
X153371429Y-137388704D02*
X153333334Y-137426800D01*
X153333334Y-137426800D02*
X153257143Y-137464895D01*
X153257143Y-137464895D02*
X153028572Y-137464895D01*
X153028572Y-137464895D02*
X152952381Y-137426800D01*
X152952381Y-137426800D02*
X152914286Y-137388704D01*
X153752382Y-137045847D02*
X154361906Y-137045847D01*
X154361906Y-137274419D02*
X153752382Y-137274419D01*
X154666667Y-136664895D02*
X155161905Y-136664895D01*
X155161905Y-136664895D02*
X154895239Y-136969657D01*
X154895239Y-136969657D02*
X155009524Y-136969657D01*
X155009524Y-136969657D02*
X155085715Y-137007752D01*
X155085715Y-137007752D02*
X155123810Y-137045847D01*
X155123810Y-137045847D02*
X155161905Y-137122038D01*
X155161905Y-137122038D02*
X155161905Y-137312514D01*
X155161905Y-137312514D02*
X155123810Y-137388704D01*
X155123810Y-137388704D02*
X155085715Y-137426800D01*
X155085715Y-137426800D02*
X155009524Y-137464895D01*
X155009524Y-137464895D02*
X154780953Y-137464895D01*
X154780953Y-137464895D02*
X154704762Y-137426800D01*
X154704762Y-137426800D02*
X154666667Y-137388704D01*
X155390477Y-136664895D02*
X155657144Y-137464895D01*
X155657144Y-137464895D02*
X155923810Y-136664895D01*
X156114286Y-136664895D02*
X156609524Y-136664895D01*
X156609524Y-136664895D02*
X156342858Y-136969657D01*
X156342858Y-136969657D02*
X156457143Y-136969657D01*
X156457143Y-136969657D02*
X156533334Y-137007752D01*
X156533334Y-137007752D02*
X156571429Y-137045847D01*
X156571429Y-137045847D02*
X156609524Y-137122038D01*
X156609524Y-137122038D02*
X156609524Y-137312514D01*
X156609524Y-137312514D02*
X156571429Y-137388704D01*
X156571429Y-137388704D02*
X156533334Y-137426800D01*
X156533334Y-137426800D02*
X156457143Y-137464895D01*
X156457143Y-137464895D02*
X156228572Y-137464895D01*
X156228572Y-137464895D02*
X156152381Y-137426800D01*
X156152381Y-137426800D02*
X156114286Y-137388704D01*
X157904763Y-136931561D02*
X157904763Y-137464895D01*
X157714287Y-136626800D02*
X157523810Y-137198228D01*
X157523810Y-137198228D02*
X158019049Y-137198228D01*
X158323811Y-137045847D02*
X158933335Y-137045847D01*
X158933335Y-137274419D02*
X158323811Y-137274419D01*
X159733334Y-136702990D02*
X159657144Y-136664895D01*
X159657144Y-136664895D02*
X159542858Y-136664895D01*
X159542858Y-136664895D02*
X159428572Y-136702990D01*
X159428572Y-136702990D02*
X159352382Y-136779180D01*
X159352382Y-136779180D02*
X159314287Y-136855371D01*
X159314287Y-136855371D02*
X159276191Y-137007752D01*
X159276191Y-137007752D02*
X159276191Y-137122038D01*
X159276191Y-137122038D02*
X159314287Y-137274419D01*
X159314287Y-137274419D02*
X159352382Y-137350609D01*
X159352382Y-137350609D02*
X159428572Y-137426800D01*
X159428572Y-137426800D02*
X159542858Y-137464895D01*
X159542858Y-137464895D02*
X159619049Y-137464895D01*
X159619049Y-137464895D02*
X159733334Y-137426800D01*
X159733334Y-137426800D02*
X159771430Y-137388704D01*
X159771430Y-137388704D02*
X159771430Y-137122038D01*
X159771430Y-137122038D02*
X159619049Y-137122038D01*
X160114287Y-137464895D02*
X160114287Y-136664895D01*
X160114287Y-136664895D02*
X160571430Y-137464895D01*
X160571430Y-137464895D02*
X160571430Y-136664895D01*
X160952382Y-137464895D02*
X160952382Y-136664895D01*
X160952382Y-136664895D02*
X161142858Y-136664895D01*
X161142858Y-136664895D02*
X161257144Y-136702990D01*
X161257144Y-136702990D02*
X161333334Y-136779180D01*
X161333334Y-136779180D02*
X161371429Y-136855371D01*
X161371429Y-136855371D02*
X161409525Y-137007752D01*
X161409525Y-137007752D02*
X161409525Y-137122038D01*
X161409525Y-137122038D02*
X161371429Y-137274419D01*
X161371429Y-137274419D02*
X161333334Y-137350609D01*
X161333334Y-137350609D02*
X161257144Y-137426800D01*
X161257144Y-137426800D02*
X161142858Y-137464895D01*
X161142858Y-137464895D02*
X160952382Y-137464895D01*
X162742858Y-136664895D02*
X162361906Y-136664895D01*
X162361906Y-136664895D02*
X162323810Y-137045847D01*
X162323810Y-137045847D02*
X162361906Y-137007752D01*
X162361906Y-137007752D02*
X162438096Y-136969657D01*
X162438096Y-136969657D02*
X162628572Y-136969657D01*
X162628572Y-136969657D02*
X162704763Y-137007752D01*
X162704763Y-137007752D02*
X162742858Y-137045847D01*
X162742858Y-137045847D02*
X162780953Y-137122038D01*
X162780953Y-137122038D02*
X162780953Y-137312514D01*
X162780953Y-137312514D02*
X162742858Y-137388704D01*
X162742858Y-137388704D02*
X162704763Y-137426800D01*
X162704763Y-137426800D02*
X162628572Y-137464895D01*
X162628572Y-137464895D02*
X162438096Y-137464895D01*
X162438096Y-137464895D02*
X162361906Y-137426800D01*
X162361906Y-137426800D02*
X162323810Y-137388704D01*
X163123811Y-137045847D02*
X163733335Y-137045847D01*
X163733335Y-137274419D02*
X163123811Y-137274419D01*
X164114287Y-137045847D02*
X164380953Y-137045847D01*
X164495239Y-137464895D02*
X164114287Y-137464895D01*
X164114287Y-137464895D02*
X164114287Y-136664895D01*
X164114287Y-136664895D02*
X164495239Y-136664895D01*
X164838097Y-136931561D02*
X164838097Y-137464895D01*
X164838097Y-137007752D02*
X164876192Y-136969657D01*
X164876192Y-136969657D02*
X164952382Y-136931561D01*
X164952382Y-136931561D02*
X165066668Y-136931561D01*
X165066668Y-136931561D02*
X165142859Y-136969657D01*
X165142859Y-136969657D02*
X165180954Y-137045847D01*
X165180954Y-137045847D02*
X165180954Y-137464895D01*
X165904764Y-137426800D02*
X165828573Y-137464895D01*
X165828573Y-137464895D02*
X165676192Y-137464895D01*
X165676192Y-137464895D02*
X165600002Y-137426800D01*
X165600002Y-137426800D02*
X165561907Y-137388704D01*
X165561907Y-137388704D02*
X165523811Y-137312514D01*
X165523811Y-137312514D02*
X165523811Y-137083942D01*
X165523811Y-137083942D02*
X165561907Y-137007752D01*
X165561907Y-137007752D02*
X165600002Y-136969657D01*
X165600002Y-136969657D02*
X165676192Y-136931561D01*
X165676192Y-136931561D02*
X165828573Y-136931561D01*
X165828573Y-136931561D02*
X165904764Y-136969657D01*
X166209525Y-137236323D02*
X166590478Y-137236323D01*
X166133335Y-137464895D02*
X166400002Y-136664895D01*
X166400002Y-136664895D02*
X166666668Y-137464895D01*
X167885716Y-136664895D02*
X167733335Y-136664895D01*
X167733335Y-136664895D02*
X167657144Y-136702990D01*
X167657144Y-136702990D02*
X167619049Y-136741085D01*
X167619049Y-136741085D02*
X167542859Y-136855371D01*
X167542859Y-136855371D02*
X167504763Y-137007752D01*
X167504763Y-137007752D02*
X167504763Y-137312514D01*
X167504763Y-137312514D02*
X167542859Y-137388704D01*
X167542859Y-137388704D02*
X167580954Y-137426800D01*
X167580954Y-137426800D02*
X167657144Y-137464895D01*
X167657144Y-137464895D02*
X167809525Y-137464895D01*
X167809525Y-137464895D02*
X167885716Y-137426800D01*
X167885716Y-137426800D02*
X167923811Y-137388704D01*
X167923811Y-137388704D02*
X167961906Y-137312514D01*
X167961906Y-137312514D02*
X167961906Y-137122038D01*
X167961906Y-137122038D02*
X167923811Y-137045847D01*
X167923811Y-137045847D02*
X167885716Y-137007752D01*
X167885716Y-137007752D02*
X167809525Y-136969657D01*
X167809525Y-136969657D02*
X167657144Y-136969657D01*
X167657144Y-136969657D02*
X167580954Y-137007752D01*
X167580954Y-137007752D02*
X167542859Y-137045847D01*
X167542859Y-137045847D02*
X167504763Y-137122038D01*
X168304764Y-137045847D02*
X168914288Y-137045847D01*
X168914288Y-137274419D02*
X168304764Y-137274419D01*
X169295240Y-137045847D02*
X169561906Y-137045847D01*
X169676192Y-137464895D02*
X169295240Y-137464895D01*
X169295240Y-137464895D02*
X169295240Y-136664895D01*
X169295240Y-136664895D02*
X169676192Y-136664895D01*
X170019050Y-136931561D02*
X170019050Y-137464895D01*
X170019050Y-137007752D02*
X170057145Y-136969657D01*
X170057145Y-136969657D02*
X170133335Y-136931561D01*
X170133335Y-136931561D02*
X170247621Y-136931561D01*
X170247621Y-136931561D02*
X170323812Y-136969657D01*
X170323812Y-136969657D02*
X170361907Y-137045847D01*
X170361907Y-137045847D02*
X170361907Y-137464895D01*
X171085717Y-137426800D02*
X171009526Y-137464895D01*
X171009526Y-137464895D02*
X170857145Y-137464895D01*
X170857145Y-137464895D02*
X170780955Y-137426800D01*
X170780955Y-137426800D02*
X170742860Y-137388704D01*
X170742860Y-137388704D02*
X170704764Y-137312514D01*
X170704764Y-137312514D02*
X170704764Y-137083942D01*
X170704764Y-137083942D02*
X170742860Y-137007752D01*
X170742860Y-137007752D02*
X170780955Y-136969657D01*
X170780955Y-136969657D02*
X170857145Y-136931561D01*
X170857145Y-136931561D02*
X171009526Y-136931561D01*
X171009526Y-136931561D02*
X171085717Y-136969657D01*
X171695240Y-137045847D02*
X171809526Y-137083942D01*
X171809526Y-137083942D02*
X171847621Y-137122038D01*
X171847621Y-137122038D02*
X171885717Y-137198228D01*
X171885717Y-137198228D02*
X171885717Y-137312514D01*
X171885717Y-137312514D02*
X171847621Y-137388704D01*
X171847621Y-137388704D02*
X171809526Y-137426800D01*
X171809526Y-137426800D02*
X171733336Y-137464895D01*
X171733336Y-137464895D02*
X171428574Y-137464895D01*
X171428574Y-137464895D02*
X171428574Y-136664895D01*
X171428574Y-136664895D02*
X171695240Y-136664895D01*
X171695240Y-136664895D02*
X171771431Y-136702990D01*
X171771431Y-136702990D02*
X171809526Y-136741085D01*
X171809526Y-136741085D02*
X171847621Y-136817276D01*
X171847621Y-136817276D02*
X171847621Y-136893466D01*
X171847621Y-136893466D02*
X171809526Y-136969657D01*
X171809526Y-136969657D02*
X171771431Y-137007752D01*
X171771431Y-137007752D02*
X171695240Y-137045847D01*
X171695240Y-137045847D02*
X171428574Y-137045847D01*
X138838095Y-138964895D02*
X138838095Y-139536323D01*
X138838095Y-139536323D02*
X138800000Y-139650609D01*
X138800000Y-139650609D02*
X138723809Y-139726800D01*
X138723809Y-139726800D02*
X138609524Y-139764895D01*
X138609524Y-139764895D02*
X138533333Y-139764895D01*
X139142857Y-138964895D02*
X139638095Y-138964895D01*
X139638095Y-138964895D02*
X139371429Y-139269657D01*
X139371429Y-139269657D02*
X139485714Y-139269657D01*
X139485714Y-139269657D02*
X139561905Y-139307752D01*
X139561905Y-139307752D02*
X139600000Y-139345847D01*
X139600000Y-139345847D02*
X139638095Y-139422038D01*
X139638095Y-139422038D02*
X139638095Y-139612514D01*
X139638095Y-139612514D02*
X139600000Y-139688704D01*
X139600000Y-139688704D02*
X139561905Y-139726800D01*
X139561905Y-139726800D02*
X139485714Y-139764895D01*
X139485714Y-139764895D02*
X139257143Y-139764895D01*
X139257143Y-139764895D02*
X139180952Y-139726800D01*
X139180952Y-139726800D02*
X139142857Y-139688704D01*
X140552381Y-138926800D02*
X139866667Y-139955371D01*
X141047619Y-138964895D02*
X141047619Y-139536323D01*
X141047619Y-139536323D02*
X141009524Y-139650609D01*
X141009524Y-139650609D02*
X140933333Y-139726800D01*
X140933333Y-139726800D02*
X140819048Y-139764895D01*
X140819048Y-139764895D02*
X140742857Y-139764895D01*
X141771429Y-139231561D02*
X141771429Y-139764895D01*
X141580953Y-138926800D02*
X141390476Y-139498228D01*
X141390476Y-139498228D02*
X141885715Y-139498228D01*
X142761905Y-139726800D02*
X142838096Y-139764895D01*
X142838096Y-139764895D02*
X142990477Y-139764895D01*
X142990477Y-139764895D02*
X143066667Y-139726800D01*
X143066667Y-139726800D02*
X143104763Y-139650609D01*
X143104763Y-139650609D02*
X143104763Y-139612514D01*
X143104763Y-139612514D02*
X143066667Y-139536323D01*
X143066667Y-139536323D02*
X142990477Y-139498228D01*
X142990477Y-139498228D02*
X142876191Y-139498228D01*
X142876191Y-139498228D02*
X142800001Y-139460133D01*
X142800001Y-139460133D02*
X142761905Y-139383942D01*
X142761905Y-139383942D02*
X142761905Y-139345847D01*
X142761905Y-139345847D02*
X142800001Y-139269657D01*
X142800001Y-139269657D02*
X142876191Y-139231561D01*
X142876191Y-139231561D02*
X142990477Y-139231561D01*
X142990477Y-139231561D02*
X143066667Y-139269657D01*
X143561905Y-139764895D02*
X143485715Y-139726800D01*
X143485715Y-139726800D02*
X143447620Y-139688704D01*
X143447620Y-139688704D02*
X143409524Y-139612514D01*
X143409524Y-139612514D02*
X143409524Y-139383942D01*
X143409524Y-139383942D02*
X143447620Y-139307752D01*
X143447620Y-139307752D02*
X143485715Y-139269657D01*
X143485715Y-139269657D02*
X143561905Y-139231561D01*
X143561905Y-139231561D02*
X143676191Y-139231561D01*
X143676191Y-139231561D02*
X143752382Y-139269657D01*
X143752382Y-139269657D02*
X143790477Y-139307752D01*
X143790477Y-139307752D02*
X143828572Y-139383942D01*
X143828572Y-139383942D02*
X143828572Y-139612514D01*
X143828572Y-139612514D02*
X143790477Y-139688704D01*
X143790477Y-139688704D02*
X143752382Y-139726800D01*
X143752382Y-139726800D02*
X143676191Y-139764895D01*
X143676191Y-139764895D02*
X143561905Y-139764895D01*
X144514287Y-139726800D02*
X144438096Y-139764895D01*
X144438096Y-139764895D02*
X144285715Y-139764895D01*
X144285715Y-139764895D02*
X144209525Y-139726800D01*
X144209525Y-139726800D02*
X144171430Y-139688704D01*
X144171430Y-139688704D02*
X144133334Y-139612514D01*
X144133334Y-139612514D02*
X144133334Y-139383942D01*
X144133334Y-139383942D02*
X144171430Y-139307752D01*
X144171430Y-139307752D02*
X144209525Y-139269657D01*
X144209525Y-139269657D02*
X144285715Y-139231561D01*
X144285715Y-139231561D02*
X144438096Y-139231561D01*
X144438096Y-139231561D02*
X144514287Y-139269657D01*
X144857144Y-139764895D02*
X144857144Y-138964895D01*
X144933334Y-139460133D02*
X145161906Y-139764895D01*
X145161906Y-139231561D02*
X144857144Y-139536323D01*
X145809525Y-139726800D02*
X145733334Y-139764895D01*
X145733334Y-139764895D02*
X145580953Y-139764895D01*
X145580953Y-139764895D02*
X145504763Y-139726800D01*
X145504763Y-139726800D02*
X145466667Y-139650609D01*
X145466667Y-139650609D02*
X145466667Y-139345847D01*
X145466667Y-139345847D02*
X145504763Y-139269657D01*
X145504763Y-139269657D02*
X145580953Y-139231561D01*
X145580953Y-139231561D02*
X145733334Y-139231561D01*
X145733334Y-139231561D02*
X145809525Y-139269657D01*
X145809525Y-139269657D02*
X145847620Y-139345847D01*
X145847620Y-139345847D02*
X145847620Y-139422038D01*
X145847620Y-139422038D02*
X145466667Y-139498228D01*
X146076191Y-139231561D02*
X146380953Y-139231561D01*
X146190477Y-138964895D02*
X146190477Y-139650609D01*
X146190477Y-139650609D02*
X146228572Y-139726800D01*
X146228572Y-139726800D02*
X146304762Y-139764895D01*
X146304762Y-139764895D02*
X146380953Y-139764895D01*
X147257144Y-139460133D02*
X147866668Y-139460133D01*
X148247620Y-139231561D02*
X148857144Y-139460133D01*
X148857144Y-139460133D02*
X148247620Y-139688704D01*
X150114286Y-139345847D02*
X150228572Y-139383942D01*
X150228572Y-139383942D02*
X150266667Y-139422038D01*
X150266667Y-139422038D02*
X150304763Y-139498228D01*
X150304763Y-139498228D02*
X150304763Y-139612514D01*
X150304763Y-139612514D02*
X150266667Y-139688704D01*
X150266667Y-139688704D02*
X150228572Y-139726800D01*
X150228572Y-139726800D02*
X150152382Y-139764895D01*
X150152382Y-139764895D02*
X149847620Y-139764895D01*
X149847620Y-139764895D02*
X149847620Y-138964895D01*
X149847620Y-138964895D02*
X150114286Y-138964895D01*
X150114286Y-138964895D02*
X150190477Y-139002990D01*
X150190477Y-139002990D02*
X150228572Y-139041085D01*
X150228572Y-139041085D02*
X150266667Y-139117276D01*
X150266667Y-139117276D02*
X150266667Y-139193466D01*
X150266667Y-139193466D02*
X150228572Y-139269657D01*
X150228572Y-139269657D02*
X150190477Y-139307752D01*
X150190477Y-139307752D02*
X150114286Y-139345847D01*
X150114286Y-139345847D02*
X149847620Y-139345847D01*
X150800001Y-138964895D02*
X150952382Y-138964895D01*
X150952382Y-138964895D02*
X151028572Y-139002990D01*
X151028572Y-139002990D02*
X151104763Y-139079180D01*
X151104763Y-139079180D02*
X151142858Y-139231561D01*
X151142858Y-139231561D02*
X151142858Y-139498228D01*
X151142858Y-139498228D02*
X151104763Y-139650609D01*
X151104763Y-139650609D02*
X151028572Y-139726800D01*
X151028572Y-139726800D02*
X150952382Y-139764895D01*
X150952382Y-139764895D02*
X150800001Y-139764895D01*
X150800001Y-139764895D02*
X150723810Y-139726800D01*
X150723810Y-139726800D02*
X150647620Y-139650609D01*
X150647620Y-139650609D02*
X150609524Y-139498228D01*
X150609524Y-139498228D02*
X150609524Y-139231561D01*
X150609524Y-139231561D02*
X150647620Y-139079180D01*
X150647620Y-139079180D02*
X150723810Y-139002990D01*
X150723810Y-139002990D02*
X150800001Y-138964895D01*
X151447619Y-139536323D02*
X151828572Y-139536323D01*
X151371429Y-139764895D02*
X151638096Y-138964895D01*
X151638096Y-138964895D02*
X151904762Y-139764895D01*
X152628572Y-139764895D02*
X152361905Y-139383942D01*
X152171429Y-139764895D02*
X152171429Y-138964895D01*
X152171429Y-138964895D02*
X152476191Y-138964895D01*
X152476191Y-138964895D02*
X152552381Y-139002990D01*
X152552381Y-139002990D02*
X152590476Y-139041085D01*
X152590476Y-139041085D02*
X152628572Y-139117276D01*
X152628572Y-139117276D02*
X152628572Y-139231561D01*
X152628572Y-139231561D02*
X152590476Y-139307752D01*
X152590476Y-139307752D02*
X152552381Y-139345847D01*
X152552381Y-139345847D02*
X152476191Y-139383942D01*
X152476191Y-139383942D02*
X152171429Y-139383942D01*
X152971429Y-139764895D02*
X152971429Y-138964895D01*
X152971429Y-138964895D02*
X153161905Y-138964895D01*
X153161905Y-138964895D02*
X153276191Y-139002990D01*
X153276191Y-139002990D02*
X153352381Y-139079180D01*
X153352381Y-139079180D02*
X153390476Y-139155371D01*
X153390476Y-139155371D02*
X153428572Y-139307752D01*
X153428572Y-139307752D02*
X153428572Y-139422038D01*
X153428572Y-139422038D02*
X153390476Y-139574419D01*
X153390476Y-139574419D02*
X153352381Y-139650609D01*
X153352381Y-139650609D02*
X153276191Y-139726800D01*
X153276191Y-139726800D02*
X153161905Y-139764895D01*
X153161905Y-139764895D02*
X152971429Y-139764895D01*
X153580953Y-139841085D02*
X154190476Y-139841085D01*
X154380953Y-139764895D02*
X154380953Y-138964895D01*
X154380953Y-138964895D02*
X154647619Y-139536323D01*
X154647619Y-139536323D02*
X154914286Y-138964895D01*
X154914286Y-138964895D02*
X154914286Y-139764895D01*
X155257143Y-139536323D02*
X155638096Y-139536323D01*
X155180953Y-139764895D02*
X155447620Y-138964895D01*
X155447620Y-138964895D02*
X155714286Y-139764895D01*
X155980953Y-139764895D02*
X155980953Y-138964895D01*
X155980953Y-138964895D02*
X156285715Y-138964895D01*
X156285715Y-138964895D02*
X156361905Y-139002990D01*
X156361905Y-139002990D02*
X156400000Y-139041085D01*
X156400000Y-139041085D02*
X156438096Y-139117276D01*
X156438096Y-139117276D02*
X156438096Y-139231561D01*
X156438096Y-139231561D02*
X156400000Y-139307752D01*
X156400000Y-139307752D02*
X156361905Y-139345847D01*
X156361905Y-139345847D02*
X156285715Y-139383942D01*
X156285715Y-139383942D02*
X155980953Y-139383942D01*
X156780953Y-139764895D02*
X156780953Y-138964895D01*
X156780953Y-138964895D02*
X157085715Y-138964895D01*
X157085715Y-138964895D02*
X157161905Y-139002990D01*
X157161905Y-139002990D02*
X157200000Y-139041085D01*
X157200000Y-139041085D02*
X157238096Y-139117276D01*
X157238096Y-139117276D02*
X157238096Y-139231561D01*
X157238096Y-139231561D02*
X157200000Y-139307752D01*
X157200000Y-139307752D02*
X157161905Y-139345847D01*
X157161905Y-139345847D02*
X157085715Y-139383942D01*
X157085715Y-139383942D02*
X156780953Y-139383942D01*
X157580953Y-139764895D02*
X157580953Y-138964895D01*
X157961905Y-139764895D02*
X157961905Y-138964895D01*
X157961905Y-138964895D02*
X158419048Y-139764895D01*
X158419048Y-139764895D02*
X158419048Y-138964895D01*
X159219047Y-139002990D02*
X159142857Y-138964895D01*
X159142857Y-138964895D02*
X159028571Y-138964895D01*
X159028571Y-138964895D02*
X158914285Y-139002990D01*
X158914285Y-139002990D02*
X158838095Y-139079180D01*
X158838095Y-139079180D02*
X158800000Y-139155371D01*
X158800000Y-139155371D02*
X158761904Y-139307752D01*
X158761904Y-139307752D02*
X158761904Y-139422038D01*
X158761904Y-139422038D02*
X158800000Y-139574419D01*
X158800000Y-139574419D02*
X158838095Y-139650609D01*
X158838095Y-139650609D02*
X158914285Y-139726800D01*
X158914285Y-139726800D02*
X159028571Y-139764895D01*
X159028571Y-139764895D02*
X159104762Y-139764895D01*
X159104762Y-139764895D02*
X159219047Y-139726800D01*
X159219047Y-139726800D02*
X159257143Y-139688704D01*
X159257143Y-139688704D02*
X159257143Y-139422038D01*
X159257143Y-139422038D02*
X159104762Y-139422038D01*
X159600000Y-139688704D02*
X159638095Y-139726800D01*
X159638095Y-139726800D02*
X159600000Y-139764895D01*
X159600000Y-139764895D02*
X159561904Y-139726800D01*
X159561904Y-139726800D02*
X159600000Y-139688704D01*
X159600000Y-139688704D02*
X159600000Y-139764895D01*
X159980952Y-139764895D02*
X159980952Y-139231561D01*
X159980952Y-139307752D02*
X160019047Y-139269657D01*
X160019047Y-139269657D02*
X160095237Y-139231561D01*
X160095237Y-139231561D02*
X160209523Y-139231561D01*
X160209523Y-139231561D02*
X160285714Y-139269657D01*
X160285714Y-139269657D02*
X160323809Y-139345847D01*
X160323809Y-139345847D02*
X160323809Y-139764895D01*
X160323809Y-139345847D02*
X160361904Y-139269657D01*
X160361904Y-139269657D02*
X160438095Y-139231561D01*
X160438095Y-139231561D02*
X160552380Y-139231561D01*
X160552380Y-139231561D02*
X160628571Y-139269657D01*
X160628571Y-139269657D02*
X160666666Y-139345847D01*
X160666666Y-139345847D02*
X160666666Y-139764895D01*
X161390476Y-139764895D02*
X161390476Y-138964895D01*
X161390476Y-139726800D02*
X161314285Y-139764895D01*
X161314285Y-139764895D02*
X161161904Y-139764895D01*
X161161904Y-139764895D02*
X161085714Y-139726800D01*
X161085714Y-139726800D02*
X161047619Y-139688704D01*
X161047619Y-139688704D02*
X161009523Y-139612514D01*
X161009523Y-139612514D02*
X161009523Y-139383942D01*
X161009523Y-139383942D02*
X161047619Y-139307752D01*
X161047619Y-139307752D02*
X161085714Y-139269657D01*
X161085714Y-139269657D02*
X161161904Y-139231561D01*
X161161904Y-139231561D02*
X161314285Y-139231561D01*
X161314285Y-139231561D02*
X161390476Y-139269657D01*
D11*
X185023333Y-100739580D02*
X184975714Y-100787200D01*
X184975714Y-100787200D02*
X184832857Y-100834819D01*
X184832857Y-100834819D02*
X184737619Y-100834819D01*
X184737619Y-100834819D02*
X184594762Y-100787200D01*
X184594762Y-100787200D02*
X184499524Y-100691961D01*
X184499524Y-100691961D02*
X184451905Y-100596723D01*
X184451905Y-100596723D02*
X184404286Y-100406247D01*
X184404286Y-100406247D02*
X184404286Y-100263390D01*
X184404286Y-100263390D02*
X184451905Y-100072914D01*
X184451905Y-100072914D02*
X184499524Y-99977676D01*
X184499524Y-99977676D02*
X184594762Y-99882438D01*
X184594762Y-99882438D02*
X184737619Y-99834819D01*
X184737619Y-99834819D02*
X184832857Y-99834819D01*
X184832857Y-99834819D02*
X184975714Y-99882438D01*
X184975714Y-99882438D02*
X185023333Y-99930057D01*
X185499524Y-100834819D02*
X185690000Y-100834819D01*
X185690000Y-100834819D02*
X185785238Y-100787200D01*
X185785238Y-100787200D02*
X185832857Y-100739580D01*
X185832857Y-100739580D02*
X185928095Y-100596723D01*
X185928095Y-100596723D02*
X185975714Y-100406247D01*
X185975714Y-100406247D02*
X185975714Y-100025295D01*
X185975714Y-100025295D02*
X185928095Y-99930057D01*
X185928095Y-99930057D02*
X185880476Y-99882438D01*
X185880476Y-99882438D02*
X185785238Y-99834819D01*
X185785238Y-99834819D02*
X185594762Y-99834819D01*
X185594762Y-99834819D02*
X185499524Y-99882438D01*
X185499524Y-99882438D02*
X185451905Y-99930057D01*
X185451905Y-99930057D02*
X185404286Y-100025295D01*
X185404286Y-100025295D02*
X185404286Y-100263390D01*
X185404286Y-100263390D02*
X185451905Y-100358628D01*
X185451905Y-100358628D02*
X185499524Y-100406247D01*
X185499524Y-100406247D02*
X185594762Y-100453866D01*
X185594762Y-100453866D02*
X185785238Y-100453866D01*
X185785238Y-100453866D02*
X185880476Y-100406247D01*
X185880476Y-100406247D02*
X185928095Y-100358628D01*
X185928095Y-100358628D02*
X185975714Y-100263390D01*
X172953333Y-93492580D02*
X172905714Y-93540200D01*
X172905714Y-93540200D02*
X172762857Y-93587819D01*
X172762857Y-93587819D02*
X172667619Y-93587819D01*
X172667619Y-93587819D02*
X172524762Y-93540200D01*
X172524762Y-93540200D02*
X172429524Y-93444961D01*
X172429524Y-93444961D02*
X172381905Y-93349723D01*
X172381905Y-93349723D02*
X172334286Y-93159247D01*
X172334286Y-93159247D02*
X172334286Y-93016390D01*
X172334286Y-93016390D02*
X172381905Y-92825914D01*
X172381905Y-92825914D02*
X172429524Y-92730676D01*
X172429524Y-92730676D02*
X172524762Y-92635438D01*
X172524762Y-92635438D02*
X172667619Y-92587819D01*
X172667619Y-92587819D02*
X172762857Y-92587819D01*
X172762857Y-92587819D02*
X172905714Y-92635438D01*
X172905714Y-92635438D02*
X172953333Y-92683057D01*
X173524762Y-93016390D02*
X173429524Y-92968771D01*
X173429524Y-92968771D02*
X173381905Y-92921152D01*
X173381905Y-92921152D02*
X173334286Y-92825914D01*
X173334286Y-92825914D02*
X173334286Y-92778295D01*
X173334286Y-92778295D02*
X173381905Y-92683057D01*
X173381905Y-92683057D02*
X173429524Y-92635438D01*
X173429524Y-92635438D02*
X173524762Y-92587819D01*
X173524762Y-92587819D02*
X173715238Y-92587819D01*
X173715238Y-92587819D02*
X173810476Y-92635438D01*
X173810476Y-92635438D02*
X173858095Y-92683057D01*
X173858095Y-92683057D02*
X173905714Y-92778295D01*
X173905714Y-92778295D02*
X173905714Y-92825914D01*
X173905714Y-92825914D02*
X173858095Y-92921152D01*
X173858095Y-92921152D02*
X173810476Y-92968771D01*
X173810476Y-92968771D02*
X173715238Y-93016390D01*
X173715238Y-93016390D02*
X173524762Y-93016390D01*
X173524762Y-93016390D02*
X173429524Y-93064009D01*
X173429524Y-93064009D02*
X173381905Y-93111628D01*
X173381905Y-93111628D02*
X173334286Y-93206866D01*
X173334286Y-93206866D02*
X173334286Y-93397342D01*
X173334286Y-93397342D02*
X173381905Y-93492580D01*
X173381905Y-93492580D02*
X173429524Y-93540200D01*
X173429524Y-93540200D02*
X173524762Y-93587819D01*
X173524762Y-93587819D02*
X173715238Y-93587819D01*
X173715238Y-93587819D02*
X173810476Y-93540200D01*
X173810476Y-93540200D02*
X173858095Y-93492580D01*
X173858095Y-93492580D02*
X173905714Y-93397342D01*
X173905714Y-93397342D02*
X173905714Y-93206866D01*
X173905714Y-93206866D02*
X173858095Y-93111628D01*
X173858095Y-93111628D02*
X173810476Y-93064009D01*
X173810476Y-93064009D02*
X173715238Y-93016390D01*
X125363333Y-118735819D02*
X125030000Y-118259628D01*
X124791905Y-118735819D02*
X124791905Y-117735819D01*
X124791905Y-117735819D02*
X125172857Y-117735819D01*
X125172857Y-117735819D02*
X125268095Y-117783438D01*
X125268095Y-117783438D02*
X125315714Y-117831057D01*
X125315714Y-117831057D02*
X125363333Y-117926295D01*
X125363333Y-117926295D02*
X125363333Y-118069152D01*
X125363333Y-118069152D02*
X125315714Y-118164390D01*
X125315714Y-118164390D02*
X125268095Y-118212009D01*
X125268095Y-118212009D02*
X125172857Y-118259628D01*
X125172857Y-118259628D02*
X124791905Y-118259628D01*
X126315714Y-118735819D02*
X125744286Y-118735819D01*
X126030000Y-118735819D02*
X126030000Y-117735819D01*
X126030000Y-117735819D02*
X125934762Y-117878676D01*
X125934762Y-117878676D02*
X125839524Y-117973914D01*
X125839524Y-117973914D02*
X125744286Y-118021533D01*
X189989642Y-70789819D02*
X189656309Y-70313628D01*
X189418214Y-70789819D02*
X189418214Y-69789819D01*
X189418214Y-69789819D02*
X189799166Y-69789819D01*
X189799166Y-69789819D02*
X189894404Y-69837438D01*
X189894404Y-69837438D02*
X189942023Y-69885057D01*
X189942023Y-69885057D02*
X189989642Y-69980295D01*
X189989642Y-69980295D02*
X189989642Y-70123152D01*
X189989642Y-70123152D02*
X189942023Y-70218390D01*
X189942023Y-70218390D02*
X189894404Y-70266009D01*
X189894404Y-70266009D02*
X189799166Y-70313628D01*
X189799166Y-70313628D02*
X189418214Y-70313628D01*
X190942023Y-70789819D02*
X190370595Y-70789819D01*
X190656309Y-70789819D02*
X190656309Y-69789819D01*
X190656309Y-69789819D02*
X190561071Y-69932676D01*
X190561071Y-69932676D02*
X190465833Y-70027914D01*
X190465833Y-70027914D02*
X190370595Y-70075533D01*
X191846785Y-69789819D02*
X191370595Y-69789819D01*
X191370595Y-69789819D02*
X191322976Y-70266009D01*
X191322976Y-70266009D02*
X191370595Y-70218390D01*
X191370595Y-70218390D02*
X191465833Y-70170771D01*
X191465833Y-70170771D02*
X191703928Y-70170771D01*
X191703928Y-70170771D02*
X191799166Y-70218390D01*
X191799166Y-70218390D02*
X191846785Y-70266009D01*
X191846785Y-70266009D02*
X191894404Y-70361247D01*
X191894404Y-70361247D02*
X191894404Y-70599342D01*
X191894404Y-70599342D02*
X191846785Y-70694580D01*
X191846785Y-70694580D02*
X191799166Y-70742200D01*
X191799166Y-70742200D02*
X191703928Y-70789819D01*
X191703928Y-70789819D02*
X191465833Y-70789819D01*
X191465833Y-70789819D02*
X191370595Y-70742200D01*
X191370595Y-70742200D02*
X191322976Y-70694580D01*
X172077142Y-121966580D02*
X172029523Y-122014200D01*
X172029523Y-122014200D02*
X171886666Y-122061819D01*
X171886666Y-122061819D02*
X171791428Y-122061819D01*
X171791428Y-122061819D02*
X171648571Y-122014200D01*
X171648571Y-122014200D02*
X171553333Y-121918961D01*
X171553333Y-121918961D02*
X171505714Y-121823723D01*
X171505714Y-121823723D02*
X171458095Y-121633247D01*
X171458095Y-121633247D02*
X171458095Y-121490390D01*
X171458095Y-121490390D02*
X171505714Y-121299914D01*
X171505714Y-121299914D02*
X171553333Y-121204676D01*
X171553333Y-121204676D02*
X171648571Y-121109438D01*
X171648571Y-121109438D02*
X171791428Y-121061819D01*
X171791428Y-121061819D02*
X171886666Y-121061819D01*
X171886666Y-121061819D02*
X172029523Y-121109438D01*
X172029523Y-121109438D02*
X172077142Y-121157057D01*
X173029523Y-122061819D02*
X172458095Y-122061819D01*
X172743809Y-122061819D02*
X172743809Y-121061819D01*
X172743809Y-121061819D02*
X172648571Y-121204676D01*
X172648571Y-121204676D02*
X172553333Y-121299914D01*
X172553333Y-121299914D02*
X172458095Y-121347533D01*
X173886666Y-121395152D02*
X173886666Y-122061819D01*
X173648571Y-121014200D02*
X173410476Y-121728485D01*
X173410476Y-121728485D02*
X174029523Y-121728485D01*
X162377142Y-122061819D02*
X162043809Y-121585628D01*
X161805714Y-122061819D02*
X161805714Y-121061819D01*
X161805714Y-121061819D02*
X162186666Y-121061819D01*
X162186666Y-121061819D02*
X162281904Y-121109438D01*
X162281904Y-121109438D02*
X162329523Y-121157057D01*
X162329523Y-121157057D02*
X162377142Y-121252295D01*
X162377142Y-121252295D02*
X162377142Y-121395152D01*
X162377142Y-121395152D02*
X162329523Y-121490390D01*
X162329523Y-121490390D02*
X162281904Y-121538009D01*
X162281904Y-121538009D02*
X162186666Y-121585628D01*
X162186666Y-121585628D02*
X161805714Y-121585628D01*
X163329523Y-122061819D02*
X162758095Y-122061819D01*
X163043809Y-122061819D02*
X163043809Y-121061819D01*
X163043809Y-121061819D02*
X162948571Y-121204676D01*
X162948571Y-121204676D02*
X162853333Y-121299914D01*
X162853333Y-121299914D02*
X162758095Y-121347533D01*
X163662857Y-121061819D02*
X164281904Y-121061819D01*
X164281904Y-121061819D02*
X163948571Y-121442771D01*
X163948571Y-121442771D02*
X164091428Y-121442771D01*
X164091428Y-121442771D02*
X164186666Y-121490390D01*
X164186666Y-121490390D02*
X164234285Y-121538009D01*
X164234285Y-121538009D02*
X164281904Y-121633247D01*
X164281904Y-121633247D02*
X164281904Y-121871342D01*
X164281904Y-121871342D02*
X164234285Y-121966580D01*
X164234285Y-121966580D02*
X164186666Y-122014200D01*
X164186666Y-122014200D02*
X164091428Y-122061819D01*
X164091428Y-122061819D02*
X163805714Y-122061819D01*
X163805714Y-122061819D02*
X163710476Y-122014200D01*
X163710476Y-122014200D02*
X163662857Y-121966580D01*
X172558333Y-88944819D02*
X172225000Y-88468628D01*
X171986905Y-88944819D02*
X171986905Y-87944819D01*
X171986905Y-87944819D02*
X172367857Y-87944819D01*
X172367857Y-87944819D02*
X172463095Y-87992438D01*
X172463095Y-87992438D02*
X172510714Y-88040057D01*
X172510714Y-88040057D02*
X172558333Y-88135295D01*
X172558333Y-88135295D02*
X172558333Y-88278152D01*
X172558333Y-88278152D02*
X172510714Y-88373390D01*
X172510714Y-88373390D02*
X172463095Y-88421009D01*
X172463095Y-88421009D02*
X172367857Y-88468628D01*
X172367857Y-88468628D02*
X171986905Y-88468628D01*
X173415476Y-88278152D02*
X173415476Y-88944819D01*
X173177381Y-87897200D02*
X172939286Y-88611485D01*
X172939286Y-88611485D02*
X173558333Y-88611485D01*
X158566666Y-71284819D02*
X158566666Y-71999104D01*
X158566666Y-71999104D02*
X158519047Y-72141961D01*
X158519047Y-72141961D02*
X158423809Y-72237200D01*
X158423809Y-72237200D02*
X158280952Y-72284819D01*
X158280952Y-72284819D02*
X158185714Y-72284819D01*
X159471428Y-71618152D02*
X159471428Y-72284819D01*
X159233333Y-71237200D02*
X158995238Y-71951485D01*
X158995238Y-71951485D02*
X159614285Y-71951485D01*
X130638809Y-115697485D02*
X130562619Y-115659390D01*
X130562619Y-115659390D02*
X130486428Y-115583200D01*
X130486428Y-115583200D02*
X130372142Y-115468914D01*
X130372142Y-115468914D02*
X130295952Y-115430819D01*
X130295952Y-115430819D02*
X130219761Y-115430819D01*
X130257857Y-115621295D02*
X130181666Y-115583200D01*
X130181666Y-115583200D02*
X130105476Y-115507009D01*
X130105476Y-115507009D02*
X130067380Y-115354628D01*
X130067380Y-115354628D02*
X130067380Y-115087961D01*
X130067380Y-115087961D02*
X130105476Y-114935580D01*
X130105476Y-114935580D02*
X130181666Y-114859390D01*
X130181666Y-114859390D02*
X130257857Y-114821295D01*
X130257857Y-114821295D02*
X130410238Y-114821295D01*
X130410238Y-114821295D02*
X130486428Y-114859390D01*
X130486428Y-114859390D02*
X130562619Y-114935580D01*
X130562619Y-114935580D02*
X130600714Y-115087961D01*
X130600714Y-115087961D02*
X130600714Y-115354628D01*
X130600714Y-115354628D02*
X130562619Y-115507009D01*
X130562619Y-115507009D02*
X130486428Y-115583200D01*
X130486428Y-115583200D02*
X130410238Y-115621295D01*
X130410238Y-115621295D02*
X130257857Y-115621295D01*
X131362618Y-115621295D02*
X130905475Y-115621295D01*
X131134047Y-115621295D02*
X131134047Y-114821295D01*
X131134047Y-114821295D02*
X131057856Y-114935580D01*
X131057856Y-114935580D02*
X130981666Y-115011771D01*
X130981666Y-115011771D02*
X130905475Y-115049866D01*
X189674642Y-74184580D02*
X189627023Y-74232200D01*
X189627023Y-74232200D02*
X189484166Y-74279819D01*
X189484166Y-74279819D02*
X189388928Y-74279819D01*
X189388928Y-74279819D02*
X189246071Y-74232200D01*
X189246071Y-74232200D02*
X189150833Y-74136961D01*
X189150833Y-74136961D02*
X189103214Y-74041723D01*
X189103214Y-74041723D02*
X189055595Y-73851247D01*
X189055595Y-73851247D02*
X189055595Y-73708390D01*
X189055595Y-73708390D02*
X189103214Y-73517914D01*
X189103214Y-73517914D02*
X189150833Y-73422676D01*
X189150833Y-73422676D02*
X189246071Y-73327438D01*
X189246071Y-73327438D02*
X189388928Y-73279819D01*
X189388928Y-73279819D02*
X189484166Y-73279819D01*
X189484166Y-73279819D02*
X189627023Y-73327438D01*
X189627023Y-73327438D02*
X189674642Y-73375057D01*
X190627023Y-74279819D02*
X190055595Y-74279819D01*
X190341309Y-74279819D02*
X190341309Y-73279819D01*
X190341309Y-73279819D02*
X190246071Y-73422676D01*
X190246071Y-73422676D02*
X190150833Y-73517914D01*
X190150833Y-73517914D02*
X190055595Y-73565533D01*
X191531785Y-73279819D02*
X191055595Y-73279819D01*
X191055595Y-73279819D02*
X191007976Y-73756009D01*
X191007976Y-73756009D02*
X191055595Y-73708390D01*
X191055595Y-73708390D02*
X191150833Y-73660771D01*
X191150833Y-73660771D02*
X191388928Y-73660771D01*
X191388928Y-73660771D02*
X191484166Y-73708390D01*
X191484166Y-73708390D02*
X191531785Y-73756009D01*
X191531785Y-73756009D02*
X191579404Y-73851247D01*
X191579404Y-73851247D02*
X191579404Y-74089342D01*
X191579404Y-74089342D02*
X191531785Y-74184580D01*
X191531785Y-74184580D02*
X191484166Y-74232200D01*
X191484166Y-74232200D02*
X191388928Y-74279819D01*
X191388928Y-74279819D02*
X191150833Y-74279819D01*
X191150833Y-74279819D02*
X191055595Y-74232200D01*
X191055595Y-74232200D02*
X191007976Y-74184580D01*
X118678333Y-114764580D02*
X118630714Y-114812200D01*
X118630714Y-114812200D02*
X118487857Y-114859819D01*
X118487857Y-114859819D02*
X118392619Y-114859819D01*
X118392619Y-114859819D02*
X118249762Y-114812200D01*
X118249762Y-114812200D02*
X118154524Y-114716961D01*
X118154524Y-114716961D02*
X118106905Y-114621723D01*
X118106905Y-114621723D02*
X118059286Y-114431247D01*
X118059286Y-114431247D02*
X118059286Y-114288390D01*
X118059286Y-114288390D02*
X118106905Y-114097914D01*
X118106905Y-114097914D02*
X118154524Y-114002676D01*
X118154524Y-114002676D02*
X118249762Y-113907438D01*
X118249762Y-113907438D02*
X118392619Y-113859819D01*
X118392619Y-113859819D02*
X118487857Y-113859819D01*
X118487857Y-113859819D02*
X118630714Y-113907438D01*
X118630714Y-113907438D02*
X118678333Y-113955057D01*
X119011667Y-113859819D02*
X119678333Y-113859819D01*
X119678333Y-113859819D02*
X119249762Y-114859819D01*
X177068333Y-80409580D02*
X177020714Y-80457200D01*
X177020714Y-80457200D02*
X176877857Y-80504819D01*
X176877857Y-80504819D02*
X176782619Y-80504819D01*
X176782619Y-80504819D02*
X176639762Y-80457200D01*
X176639762Y-80457200D02*
X176544524Y-80361961D01*
X176544524Y-80361961D02*
X176496905Y-80266723D01*
X176496905Y-80266723D02*
X176449286Y-80076247D01*
X176449286Y-80076247D02*
X176449286Y-79933390D01*
X176449286Y-79933390D02*
X176496905Y-79742914D01*
X176496905Y-79742914D02*
X176544524Y-79647676D01*
X176544524Y-79647676D02*
X176639762Y-79552438D01*
X176639762Y-79552438D02*
X176782619Y-79504819D01*
X176782619Y-79504819D02*
X176877857Y-79504819D01*
X176877857Y-79504819D02*
X177020714Y-79552438D01*
X177020714Y-79552438D02*
X177068333Y-79600057D01*
X177449286Y-79600057D02*
X177496905Y-79552438D01*
X177496905Y-79552438D02*
X177592143Y-79504819D01*
X177592143Y-79504819D02*
X177830238Y-79504819D01*
X177830238Y-79504819D02*
X177925476Y-79552438D01*
X177925476Y-79552438D02*
X177973095Y-79600057D01*
X177973095Y-79600057D02*
X178020714Y-79695295D01*
X178020714Y-79695295D02*
X178020714Y-79790533D01*
X178020714Y-79790533D02*
X177973095Y-79933390D01*
X177973095Y-79933390D02*
X177401667Y-80504819D01*
X177401667Y-80504819D02*
X178020714Y-80504819D01*
X163233095Y-59961819D02*
X163233095Y-60771342D01*
X163233095Y-60771342D02*
X163280714Y-60866580D01*
X163280714Y-60866580D02*
X163328333Y-60914200D01*
X163328333Y-60914200D02*
X163423571Y-60961819D01*
X163423571Y-60961819D02*
X163614047Y-60961819D01*
X163614047Y-60961819D02*
X163709285Y-60914200D01*
X163709285Y-60914200D02*
X163756904Y-60866580D01*
X163756904Y-60866580D02*
X163804523Y-60771342D01*
X163804523Y-60771342D02*
X163804523Y-59961819D01*
X164233095Y-60057057D02*
X164280714Y-60009438D01*
X164280714Y-60009438D02*
X164375952Y-59961819D01*
X164375952Y-59961819D02*
X164614047Y-59961819D01*
X164614047Y-59961819D02*
X164709285Y-60009438D01*
X164709285Y-60009438D02*
X164756904Y-60057057D01*
X164756904Y-60057057D02*
X164804523Y-60152295D01*
X164804523Y-60152295D02*
X164804523Y-60247533D01*
X164804523Y-60247533D02*
X164756904Y-60390390D01*
X164756904Y-60390390D02*
X164185476Y-60961819D01*
X164185476Y-60961819D02*
X164804523Y-60961819D01*
X124900476Y-115012295D02*
X124900476Y-115659914D01*
X124900476Y-115659914D02*
X124938571Y-115736104D01*
X124938571Y-115736104D02*
X124976666Y-115774200D01*
X124976666Y-115774200D02*
X125052857Y-115812295D01*
X125052857Y-115812295D02*
X125205238Y-115812295D01*
X125205238Y-115812295D02*
X125281428Y-115774200D01*
X125281428Y-115774200D02*
X125319523Y-115736104D01*
X125319523Y-115736104D02*
X125357619Y-115659914D01*
X125357619Y-115659914D02*
X125357619Y-115012295D01*
X126157618Y-115812295D02*
X125700475Y-115812295D01*
X125929047Y-115812295D02*
X125929047Y-115012295D01*
X125929047Y-115012295D02*
X125852856Y-115126580D01*
X125852856Y-115126580D02*
X125776666Y-115202771D01*
X125776666Y-115202771D02*
X125700475Y-115240866D01*
X185223333Y-93694819D02*
X184890000Y-93218628D01*
X184651905Y-93694819D02*
X184651905Y-92694819D01*
X184651905Y-92694819D02*
X185032857Y-92694819D01*
X185032857Y-92694819D02*
X185128095Y-92742438D01*
X185128095Y-92742438D02*
X185175714Y-92790057D01*
X185175714Y-92790057D02*
X185223333Y-92885295D01*
X185223333Y-92885295D02*
X185223333Y-93028152D01*
X185223333Y-93028152D02*
X185175714Y-93123390D01*
X185175714Y-93123390D02*
X185128095Y-93171009D01*
X185128095Y-93171009D02*
X185032857Y-93218628D01*
X185032857Y-93218628D02*
X184651905Y-93218628D01*
X185556667Y-92694819D02*
X186223333Y-92694819D01*
X186223333Y-92694819D02*
X185794762Y-93694819D01*
X177408333Y-88849580D02*
X177360714Y-88897200D01*
X177360714Y-88897200D02*
X177217857Y-88944819D01*
X177217857Y-88944819D02*
X177122619Y-88944819D01*
X177122619Y-88944819D02*
X176979762Y-88897200D01*
X176979762Y-88897200D02*
X176884524Y-88801961D01*
X176884524Y-88801961D02*
X176836905Y-88706723D01*
X176836905Y-88706723D02*
X176789286Y-88516247D01*
X176789286Y-88516247D02*
X176789286Y-88373390D01*
X176789286Y-88373390D02*
X176836905Y-88182914D01*
X176836905Y-88182914D02*
X176884524Y-88087676D01*
X176884524Y-88087676D02*
X176979762Y-87992438D01*
X176979762Y-87992438D02*
X177122619Y-87944819D01*
X177122619Y-87944819D02*
X177217857Y-87944819D01*
X177217857Y-87944819D02*
X177360714Y-87992438D01*
X177360714Y-87992438D02*
X177408333Y-88040057D01*
X178265476Y-88278152D02*
X178265476Y-88944819D01*
X178027381Y-87897200D02*
X177789286Y-88611485D01*
X177789286Y-88611485D02*
X178408333Y-88611485D01*
X123834642Y-97981580D02*
X123787023Y-98029200D01*
X123787023Y-98029200D02*
X123644166Y-98076819D01*
X123644166Y-98076819D02*
X123548928Y-98076819D01*
X123548928Y-98076819D02*
X123406071Y-98029200D01*
X123406071Y-98029200D02*
X123310833Y-97933961D01*
X123310833Y-97933961D02*
X123263214Y-97838723D01*
X123263214Y-97838723D02*
X123215595Y-97648247D01*
X123215595Y-97648247D02*
X123215595Y-97505390D01*
X123215595Y-97505390D02*
X123263214Y-97314914D01*
X123263214Y-97314914D02*
X123310833Y-97219676D01*
X123310833Y-97219676D02*
X123406071Y-97124438D01*
X123406071Y-97124438D02*
X123548928Y-97076819D01*
X123548928Y-97076819D02*
X123644166Y-97076819D01*
X123644166Y-97076819D02*
X123787023Y-97124438D01*
X123787023Y-97124438D02*
X123834642Y-97172057D01*
X124787023Y-98076819D02*
X124215595Y-98076819D01*
X124501309Y-98076819D02*
X124501309Y-97076819D01*
X124501309Y-97076819D02*
X124406071Y-97219676D01*
X124406071Y-97219676D02*
X124310833Y-97314914D01*
X124310833Y-97314914D02*
X124215595Y-97362533D01*
X125406071Y-97076819D02*
X125501309Y-97076819D01*
X125501309Y-97076819D02*
X125596547Y-97124438D01*
X125596547Y-97124438D02*
X125644166Y-97172057D01*
X125644166Y-97172057D02*
X125691785Y-97267295D01*
X125691785Y-97267295D02*
X125739404Y-97457771D01*
X125739404Y-97457771D02*
X125739404Y-97695866D01*
X125739404Y-97695866D02*
X125691785Y-97886342D01*
X125691785Y-97886342D02*
X125644166Y-97981580D01*
X125644166Y-97981580D02*
X125596547Y-98029200D01*
X125596547Y-98029200D02*
X125501309Y-98076819D01*
X125501309Y-98076819D02*
X125406071Y-98076819D01*
X125406071Y-98076819D02*
X125310833Y-98029200D01*
X125310833Y-98029200D02*
X125263214Y-97981580D01*
X125263214Y-97981580D02*
X125215595Y-97886342D01*
X125215595Y-97886342D02*
X125167976Y-97695866D01*
X125167976Y-97695866D02*
X125167976Y-97457771D01*
X125167976Y-97457771D02*
X125215595Y-97267295D01*
X125215595Y-97267295D02*
X125263214Y-97172057D01*
X125263214Y-97172057D02*
X125310833Y-97124438D01*
X125310833Y-97124438D02*
X125406071Y-97076819D01*
X178077142Y-111722580D02*
X178029523Y-111770200D01*
X178029523Y-111770200D02*
X177886666Y-111817819D01*
X177886666Y-111817819D02*
X177791428Y-111817819D01*
X177791428Y-111817819D02*
X177648571Y-111770200D01*
X177648571Y-111770200D02*
X177553333Y-111674961D01*
X177553333Y-111674961D02*
X177505714Y-111579723D01*
X177505714Y-111579723D02*
X177458095Y-111389247D01*
X177458095Y-111389247D02*
X177458095Y-111246390D01*
X177458095Y-111246390D02*
X177505714Y-111055914D01*
X177505714Y-111055914D02*
X177553333Y-110960676D01*
X177553333Y-110960676D02*
X177648571Y-110865438D01*
X177648571Y-110865438D02*
X177791428Y-110817819D01*
X177791428Y-110817819D02*
X177886666Y-110817819D01*
X177886666Y-110817819D02*
X178029523Y-110865438D01*
X178029523Y-110865438D02*
X178077142Y-110913057D01*
X179029523Y-111817819D02*
X178458095Y-111817819D01*
X178743809Y-111817819D02*
X178743809Y-110817819D01*
X178743809Y-110817819D02*
X178648571Y-110960676D01*
X178648571Y-110960676D02*
X178553333Y-111055914D01*
X178553333Y-111055914D02*
X178458095Y-111103533D01*
X179362857Y-110817819D02*
X179981904Y-110817819D01*
X179981904Y-110817819D02*
X179648571Y-111198771D01*
X179648571Y-111198771D02*
X179791428Y-111198771D01*
X179791428Y-111198771D02*
X179886666Y-111246390D01*
X179886666Y-111246390D02*
X179934285Y-111294009D01*
X179934285Y-111294009D02*
X179981904Y-111389247D01*
X179981904Y-111389247D02*
X179981904Y-111627342D01*
X179981904Y-111627342D02*
X179934285Y-111722580D01*
X179934285Y-111722580D02*
X179886666Y-111770200D01*
X179886666Y-111770200D02*
X179791428Y-111817819D01*
X179791428Y-111817819D02*
X179505714Y-111817819D01*
X179505714Y-111817819D02*
X179410476Y-111770200D01*
X179410476Y-111770200D02*
X179362857Y-111722580D01*
X140766666Y-71284819D02*
X140766666Y-71999104D01*
X140766666Y-71999104D02*
X140719047Y-72141961D01*
X140719047Y-72141961D02*
X140623809Y-72237200D01*
X140623809Y-72237200D02*
X140480952Y-72284819D01*
X140480952Y-72284819D02*
X140385714Y-72284819D01*
X141147619Y-71284819D02*
X141766666Y-71284819D01*
X141766666Y-71284819D02*
X141433333Y-71665771D01*
X141433333Y-71665771D02*
X141576190Y-71665771D01*
X141576190Y-71665771D02*
X141671428Y-71713390D01*
X141671428Y-71713390D02*
X141719047Y-71761009D01*
X141719047Y-71761009D02*
X141766666Y-71856247D01*
X141766666Y-71856247D02*
X141766666Y-72094342D01*
X141766666Y-72094342D02*
X141719047Y-72189580D01*
X141719047Y-72189580D02*
X141671428Y-72237200D01*
X141671428Y-72237200D02*
X141576190Y-72284819D01*
X141576190Y-72284819D02*
X141290476Y-72284819D01*
X141290476Y-72284819D02*
X141195238Y-72237200D01*
X141195238Y-72237200D02*
X141147619Y-72189580D01*
X109884166Y-68792819D02*
X109884166Y-69507104D01*
X109884166Y-69507104D02*
X109836547Y-69649961D01*
X109836547Y-69649961D02*
X109741309Y-69745200D01*
X109741309Y-69745200D02*
X109598452Y-69792819D01*
X109598452Y-69792819D02*
X109503214Y-69792819D01*
X110836547Y-68792819D02*
X110360357Y-68792819D01*
X110360357Y-68792819D02*
X110312738Y-69269009D01*
X110312738Y-69269009D02*
X110360357Y-69221390D01*
X110360357Y-69221390D02*
X110455595Y-69173771D01*
X110455595Y-69173771D02*
X110693690Y-69173771D01*
X110693690Y-69173771D02*
X110788928Y-69221390D01*
X110788928Y-69221390D02*
X110836547Y-69269009D01*
X110836547Y-69269009D02*
X110884166Y-69364247D01*
X110884166Y-69364247D02*
X110884166Y-69602342D01*
X110884166Y-69602342D02*
X110836547Y-69697580D01*
X110836547Y-69697580D02*
X110788928Y-69745200D01*
X110788928Y-69745200D02*
X110693690Y-69792819D01*
X110693690Y-69792819D02*
X110455595Y-69792819D01*
X110455595Y-69792819D02*
X110360357Y-69745200D01*
X110360357Y-69745200D02*
X110312738Y-69697580D01*
X109284642Y-101331580D02*
X109237023Y-101379200D01*
X109237023Y-101379200D02*
X109094166Y-101426819D01*
X109094166Y-101426819D02*
X108998928Y-101426819D01*
X108998928Y-101426819D02*
X108856071Y-101379200D01*
X108856071Y-101379200D02*
X108760833Y-101283961D01*
X108760833Y-101283961D02*
X108713214Y-101188723D01*
X108713214Y-101188723D02*
X108665595Y-100998247D01*
X108665595Y-100998247D02*
X108665595Y-100855390D01*
X108665595Y-100855390D02*
X108713214Y-100664914D01*
X108713214Y-100664914D02*
X108760833Y-100569676D01*
X108760833Y-100569676D02*
X108856071Y-100474438D01*
X108856071Y-100474438D02*
X108998928Y-100426819D01*
X108998928Y-100426819D02*
X109094166Y-100426819D01*
X109094166Y-100426819D02*
X109237023Y-100474438D01*
X109237023Y-100474438D02*
X109284642Y-100522057D01*
X110237023Y-101426819D02*
X109665595Y-101426819D01*
X109951309Y-101426819D02*
X109951309Y-100426819D01*
X109951309Y-100426819D02*
X109856071Y-100569676D01*
X109856071Y-100569676D02*
X109760833Y-100664914D01*
X109760833Y-100664914D02*
X109665595Y-100712533D01*
X110617976Y-100522057D02*
X110665595Y-100474438D01*
X110665595Y-100474438D02*
X110760833Y-100426819D01*
X110760833Y-100426819D02*
X110998928Y-100426819D01*
X110998928Y-100426819D02*
X111094166Y-100474438D01*
X111094166Y-100474438D02*
X111141785Y-100522057D01*
X111141785Y-100522057D02*
X111189404Y-100617295D01*
X111189404Y-100617295D02*
X111189404Y-100712533D01*
X111189404Y-100712533D02*
X111141785Y-100855390D01*
X111141785Y-100855390D02*
X110570357Y-101426819D01*
X110570357Y-101426819D02*
X111189404Y-101426819D01*
X162981666Y-71619819D02*
X162981666Y-72334104D01*
X162981666Y-72334104D02*
X162934047Y-72476961D01*
X162934047Y-72476961D02*
X162838809Y-72572200D01*
X162838809Y-72572200D02*
X162695952Y-72619819D01*
X162695952Y-72619819D02*
X162600714Y-72619819D01*
X163410238Y-71715057D02*
X163457857Y-71667438D01*
X163457857Y-71667438D02*
X163553095Y-71619819D01*
X163553095Y-71619819D02*
X163791190Y-71619819D01*
X163791190Y-71619819D02*
X163886428Y-71667438D01*
X163886428Y-71667438D02*
X163934047Y-71715057D01*
X163934047Y-71715057D02*
X163981666Y-71810295D01*
X163981666Y-71810295D02*
X163981666Y-71905533D01*
X163981666Y-71905533D02*
X163934047Y-72048390D01*
X163934047Y-72048390D02*
X163362619Y-72619819D01*
X163362619Y-72619819D02*
X163981666Y-72619819D01*
X109284642Y-98076819D02*
X108951309Y-97600628D01*
X108713214Y-98076819D02*
X108713214Y-97076819D01*
X108713214Y-97076819D02*
X109094166Y-97076819D01*
X109094166Y-97076819D02*
X109189404Y-97124438D01*
X109189404Y-97124438D02*
X109237023Y-97172057D01*
X109237023Y-97172057D02*
X109284642Y-97267295D01*
X109284642Y-97267295D02*
X109284642Y-97410152D01*
X109284642Y-97410152D02*
X109237023Y-97505390D01*
X109237023Y-97505390D02*
X109189404Y-97553009D01*
X109189404Y-97553009D02*
X109094166Y-97600628D01*
X109094166Y-97600628D02*
X108713214Y-97600628D01*
X110237023Y-98076819D02*
X109665595Y-98076819D01*
X109951309Y-98076819D02*
X109951309Y-97076819D01*
X109951309Y-97076819D02*
X109856071Y-97219676D01*
X109856071Y-97219676D02*
X109760833Y-97314914D01*
X109760833Y-97314914D02*
X109665595Y-97362533D01*
X110856071Y-97076819D02*
X110951309Y-97076819D01*
X110951309Y-97076819D02*
X111046547Y-97124438D01*
X111046547Y-97124438D02*
X111094166Y-97172057D01*
X111094166Y-97172057D02*
X111141785Y-97267295D01*
X111141785Y-97267295D02*
X111189404Y-97457771D01*
X111189404Y-97457771D02*
X111189404Y-97695866D01*
X111189404Y-97695866D02*
X111141785Y-97886342D01*
X111141785Y-97886342D02*
X111094166Y-97981580D01*
X111094166Y-97981580D02*
X111046547Y-98029200D01*
X111046547Y-98029200D02*
X110951309Y-98076819D01*
X110951309Y-98076819D02*
X110856071Y-98076819D01*
X110856071Y-98076819D02*
X110760833Y-98029200D01*
X110760833Y-98029200D02*
X110713214Y-97981580D01*
X110713214Y-97981580D02*
X110665595Y-97886342D01*
X110665595Y-97886342D02*
X110617976Y-97695866D01*
X110617976Y-97695866D02*
X110617976Y-97457771D01*
X110617976Y-97457771D02*
X110665595Y-97267295D01*
X110665595Y-97267295D02*
X110713214Y-97172057D01*
X110713214Y-97172057D02*
X110760833Y-97124438D01*
X110760833Y-97124438D02*
X110856071Y-97076819D01*
X119428095Y-83823319D02*
X119428095Y-84632842D01*
X119428095Y-84632842D02*
X119475714Y-84728080D01*
X119475714Y-84728080D02*
X119523333Y-84775700D01*
X119523333Y-84775700D02*
X119618571Y-84823319D01*
X119618571Y-84823319D02*
X119809047Y-84823319D01*
X119809047Y-84823319D02*
X119904285Y-84775700D01*
X119904285Y-84775700D02*
X119951904Y-84728080D01*
X119951904Y-84728080D02*
X119999523Y-84632842D01*
X119999523Y-84632842D02*
X119999523Y-83823319D01*
X120904285Y-83823319D02*
X120713809Y-83823319D01*
X120713809Y-83823319D02*
X120618571Y-83870938D01*
X120618571Y-83870938D02*
X120570952Y-83918557D01*
X120570952Y-83918557D02*
X120475714Y-84061414D01*
X120475714Y-84061414D02*
X120428095Y-84251890D01*
X120428095Y-84251890D02*
X120428095Y-84632842D01*
X120428095Y-84632842D02*
X120475714Y-84728080D01*
X120475714Y-84728080D02*
X120523333Y-84775700D01*
X120523333Y-84775700D02*
X120618571Y-84823319D01*
X120618571Y-84823319D02*
X120809047Y-84823319D01*
X120809047Y-84823319D02*
X120904285Y-84775700D01*
X120904285Y-84775700D02*
X120951904Y-84728080D01*
X120951904Y-84728080D02*
X120999523Y-84632842D01*
X120999523Y-84632842D02*
X120999523Y-84394747D01*
X120999523Y-84394747D02*
X120951904Y-84299509D01*
X120951904Y-84299509D02*
X120904285Y-84251890D01*
X120904285Y-84251890D02*
X120809047Y-84204271D01*
X120809047Y-84204271D02*
X120618571Y-84204271D01*
X120618571Y-84204271D02*
X120523333Y-84251890D01*
X120523333Y-84251890D02*
X120475714Y-84299509D01*
X120475714Y-84299509D02*
X120428095Y-84394747D01*
X118984642Y-98076819D02*
X118651309Y-97600628D01*
X118413214Y-98076819D02*
X118413214Y-97076819D01*
X118413214Y-97076819D02*
X118794166Y-97076819D01*
X118794166Y-97076819D02*
X118889404Y-97124438D01*
X118889404Y-97124438D02*
X118937023Y-97172057D01*
X118937023Y-97172057D02*
X118984642Y-97267295D01*
X118984642Y-97267295D02*
X118984642Y-97410152D01*
X118984642Y-97410152D02*
X118937023Y-97505390D01*
X118937023Y-97505390D02*
X118889404Y-97553009D01*
X118889404Y-97553009D02*
X118794166Y-97600628D01*
X118794166Y-97600628D02*
X118413214Y-97600628D01*
X119937023Y-98076819D02*
X119365595Y-98076819D01*
X119651309Y-98076819D02*
X119651309Y-97076819D01*
X119651309Y-97076819D02*
X119556071Y-97219676D01*
X119556071Y-97219676D02*
X119460833Y-97314914D01*
X119460833Y-97314914D02*
X119365595Y-97362533D01*
X120317976Y-97172057D02*
X120365595Y-97124438D01*
X120365595Y-97124438D02*
X120460833Y-97076819D01*
X120460833Y-97076819D02*
X120698928Y-97076819D01*
X120698928Y-97076819D02*
X120794166Y-97124438D01*
X120794166Y-97124438D02*
X120841785Y-97172057D01*
X120841785Y-97172057D02*
X120889404Y-97267295D01*
X120889404Y-97267295D02*
X120889404Y-97362533D01*
X120889404Y-97362533D02*
X120841785Y-97505390D01*
X120841785Y-97505390D02*
X120270357Y-98076819D01*
X120270357Y-98076819D02*
X120889404Y-98076819D01*
X118533095Y-102361819D02*
X118533095Y-103171342D01*
X118533095Y-103171342D02*
X118580714Y-103266580D01*
X118580714Y-103266580D02*
X118628333Y-103314200D01*
X118628333Y-103314200D02*
X118723571Y-103361819D01*
X118723571Y-103361819D02*
X118914047Y-103361819D01*
X118914047Y-103361819D02*
X119009285Y-103314200D01*
X119009285Y-103314200D02*
X119056904Y-103266580D01*
X119056904Y-103266580D02*
X119104523Y-103171342D01*
X119104523Y-103171342D02*
X119104523Y-102361819D01*
X119485476Y-102361819D02*
X120104523Y-102361819D01*
X120104523Y-102361819D02*
X119771190Y-102742771D01*
X119771190Y-102742771D02*
X119914047Y-102742771D01*
X119914047Y-102742771D02*
X120009285Y-102790390D01*
X120009285Y-102790390D02*
X120056904Y-102838009D01*
X120056904Y-102838009D02*
X120104523Y-102933247D01*
X120104523Y-102933247D02*
X120104523Y-103171342D01*
X120104523Y-103171342D02*
X120056904Y-103266580D01*
X120056904Y-103266580D02*
X120009285Y-103314200D01*
X120009285Y-103314200D02*
X119914047Y-103361819D01*
X119914047Y-103361819D02*
X119628333Y-103361819D01*
X119628333Y-103361819D02*
X119533095Y-103314200D01*
X119533095Y-103314200D02*
X119485476Y-103266580D01*
X171918333Y-63354819D02*
X171442143Y-63354819D01*
X171442143Y-63354819D02*
X171442143Y-62354819D01*
X172775476Y-63354819D02*
X172204048Y-63354819D01*
X172489762Y-63354819D02*
X172489762Y-62354819D01*
X172489762Y-62354819D02*
X172394524Y-62497676D01*
X172394524Y-62497676D02*
X172299286Y-62592914D01*
X172299286Y-62592914D02*
X172204048Y-62640533D01*
X167708333Y-88944819D02*
X167375000Y-88468628D01*
X167136905Y-88944819D02*
X167136905Y-87944819D01*
X167136905Y-87944819D02*
X167517857Y-87944819D01*
X167517857Y-87944819D02*
X167613095Y-87992438D01*
X167613095Y-87992438D02*
X167660714Y-88040057D01*
X167660714Y-88040057D02*
X167708333Y-88135295D01*
X167708333Y-88135295D02*
X167708333Y-88278152D01*
X167708333Y-88278152D02*
X167660714Y-88373390D01*
X167660714Y-88373390D02*
X167613095Y-88421009D01*
X167613095Y-88421009D02*
X167517857Y-88468628D01*
X167517857Y-88468628D02*
X167136905Y-88468628D01*
X168041667Y-87944819D02*
X168660714Y-87944819D01*
X168660714Y-87944819D02*
X168327381Y-88325771D01*
X168327381Y-88325771D02*
X168470238Y-88325771D01*
X168470238Y-88325771D02*
X168565476Y-88373390D01*
X168565476Y-88373390D02*
X168613095Y-88421009D01*
X168613095Y-88421009D02*
X168660714Y-88516247D01*
X168660714Y-88516247D02*
X168660714Y-88754342D01*
X168660714Y-88754342D02*
X168613095Y-88849580D01*
X168613095Y-88849580D02*
X168565476Y-88897200D01*
X168565476Y-88897200D02*
X168470238Y-88944819D01*
X168470238Y-88944819D02*
X168184524Y-88944819D01*
X168184524Y-88944819D02*
X168089286Y-88897200D01*
X168089286Y-88897200D02*
X168041667Y-88849580D01*
X164359524Y-82462295D02*
X164359524Y-81662295D01*
X164359524Y-81662295D02*
X164550000Y-81662295D01*
X164550000Y-81662295D02*
X164664286Y-81700390D01*
X164664286Y-81700390D02*
X164740476Y-81776580D01*
X164740476Y-81776580D02*
X164778571Y-81852771D01*
X164778571Y-81852771D02*
X164816667Y-82005152D01*
X164816667Y-82005152D02*
X164816667Y-82119438D01*
X164816667Y-82119438D02*
X164778571Y-82271819D01*
X164778571Y-82271819D02*
X164740476Y-82348009D01*
X164740476Y-82348009D02*
X164664286Y-82424200D01*
X164664286Y-82424200D02*
X164550000Y-82462295D01*
X164550000Y-82462295D02*
X164359524Y-82462295D01*
X165540476Y-81662295D02*
X165159524Y-81662295D01*
X165159524Y-81662295D02*
X165121428Y-82043247D01*
X165121428Y-82043247D02*
X165159524Y-82005152D01*
X165159524Y-82005152D02*
X165235714Y-81967057D01*
X165235714Y-81967057D02*
X165426190Y-81967057D01*
X165426190Y-81967057D02*
X165502381Y-82005152D01*
X165502381Y-82005152D02*
X165540476Y-82043247D01*
X165540476Y-82043247D02*
X165578571Y-82119438D01*
X165578571Y-82119438D02*
X165578571Y-82309914D01*
X165578571Y-82309914D02*
X165540476Y-82386104D01*
X165540476Y-82386104D02*
X165502381Y-82424200D01*
X165502381Y-82424200D02*
X165426190Y-82462295D01*
X165426190Y-82462295D02*
X165235714Y-82462295D01*
X165235714Y-82462295D02*
X165159524Y-82424200D01*
X165159524Y-82424200D02*
X165121428Y-82386104D01*
X163078333Y-84999580D02*
X163030714Y-85047200D01*
X163030714Y-85047200D02*
X162887857Y-85094819D01*
X162887857Y-85094819D02*
X162792619Y-85094819D01*
X162792619Y-85094819D02*
X162649762Y-85047200D01*
X162649762Y-85047200D02*
X162554524Y-84951961D01*
X162554524Y-84951961D02*
X162506905Y-84856723D01*
X162506905Y-84856723D02*
X162459286Y-84666247D01*
X162459286Y-84666247D02*
X162459286Y-84523390D01*
X162459286Y-84523390D02*
X162506905Y-84332914D01*
X162506905Y-84332914D02*
X162554524Y-84237676D01*
X162554524Y-84237676D02*
X162649762Y-84142438D01*
X162649762Y-84142438D02*
X162792619Y-84094819D01*
X162792619Y-84094819D02*
X162887857Y-84094819D01*
X162887857Y-84094819D02*
X163030714Y-84142438D01*
X163030714Y-84142438D02*
X163078333Y-84190057D01*
X163411667Y-84094819D02*
X164030714Y-84094819D01*
X164030714Y-84094819D02*
X163697381Y-84475771D01*
X163697381Y-84475771D02*
X163840238Y-84475771D01*
X163840238Y-84475771D02*
X163935476Y-84523390D01*
X163935476Y-84523390D02*
X163983095Y-84571009D01*
X163983095Y-84571009D02*
X164030714Y-84666247D01*
X164030714Y-84666247D02*
X164030714Y-84904342D01*
X164030714Y-84904342D02*
X163983095Y-84999580D01*
X163983095Y-84999580D02*
X163935476Y-85047200D01*
X163935476Y-85047200D02*
X163840238Y-85094819D01*
X163840238Y-85094819D02*
X163554524Y-85094819D01*
X163554524Y-85094819D02*
X163459286Y-85047200D01*
X163459286Y-85047200D02*
X163411667Y-84999580D01*
X164928095Y-108132819D02*
X164928095Y-108942342D01*
X164928095Y-108942342D02*
X164975714Y-109037580D01*
X164975714Y-109037580D02*
X165023333Y-109085200D01*
X165023333Y-109085200D02*
X165118571Y-109132819D01*
X165118571Y-109132819D02*
X165309047Y-109132819D01*
X165309047Y-109132819D02*
X165404285Y-109085200D01*
X165404285Y-109085200D02*
X165451904Y-109037580D01*
X165451904Y-109037580D02*
X165499523Y-108942342D01*
X165499523Y-108942342D02*
X165499523Y-108132819D01*
X166451904Y-108132819D02*
X165975714Y-108132819D01*
X165975714Y-108132819D02*
X165928095Y-108609009D01*
X165928095Y-108609009D02*
X165975714Y-108561390D01*
X165975714Y-108561390D02*
X166070952Y-108513771D01*
X166070952Y-108513771D02*
X166309047Y-108513771D01*
X166309047Y-108513771D02*
X166404285Y-108561390D01*
X166404285Y-108561390D02*
X166451904Y-108609009D01*
X166451904Y-108609009D02*
X166499523Y-108704247D01*
X166499523Y-108704247D02*
X166499523Y-108942342D01*
X166499523Y-108942342D02*
X166451904Y-109037580D01*
X166451904Y-109037580D02*
X166404285Y-109085200D01*
X166404285Y-109085200D02*
X166309047Y-109132819D01*
X166309047Y-109132819D02*
X166070952Y-109132819D01*
X166070952Y-109132819D02*
X165975714Y-109085200D01*
X165975714Y-109085200D02*
X165928095Y-109037580D01*
X167227142Y-122061819D02*
X166893809Y-121585628D01*
X166655714Y-122061819D02*
X166655714Y-121061819D01*
X166655714Y-121061819D02*
X167036666Y-121061819D01*
X167036666Y-121061819D02*
X167131904Y-121109438D01*
X167131904Y-121109438D02*
X167179523Y-121157057D01*
X167179523Y-121157057D02*
X167227142Y-121252295D01*
X167227142Y-121252295D02*
X167227142Y-121395152D01*
X167227142Y-121395152D02*
X167179523Y-121490390D01*
X167179523Y-121490390D02*
X167131904Y-121538009D01*
X167131904Y-121538009D02*
X167036666Y-121585628D01*
X167036666Y-121585628D02*
X166655714Y-121585628D01*
X168179523Y-122061819D02*
X167608095Y-122061819D01*
X167893809Y-122061819D02*
X167893809Y-121061819D01*
X167893809Y-121061819D02*
X167798571Y-121204676D01*
X167798571Y-121204676D02*
X167703333Y-121299914D01*
X167703333Y-121299914D02*
X167608095Y-121347533D01*
X169036666Y-121395152D02*
X169036666Y-122061819D01*
X168798571Y-121014200D02*
X168560476Y-121728485D01*
X168560476Y-121728485D02*
X169179523Y-121728485D01*
X173026905Y-85094819D02*
X173026905Y-84094819D01*
X173026905Y-84094819D02*
X173265000Y-84094819D01*
X173265000Y-84094819D02*
X173407857Y-84142438D01*
X173407857Y-84142438D02*
X173503095Y-84237676D01*
X173503095Y-84237676D02*
X173550714Y-84332914D01*
X173550714Y-84332914D02*
X173598333Y-84523390D01*
X173598333Y-84523390D02*
X173598333Y-84666247D01*
X173598333Y-84666247D02*
X173550714Y-84856723D01*
X173550714Y-84856723D02*
X173503095Y-84951961D01*
X173503095Y-84951961D02*
X173407857Y-85047200D01*
X173407857Y-85047200D02*
X173265000Y-85094819D01*
X173265000Y-85094819D02*
X173026905Y-85094819D01*
X173979286Y-84190057D02*
X174026905Y-84142438D01*
X174026905Y-84142438D02*
X174122143Y-84094819D01*
X174122143Y-84094819D02*
X174360238Y-84094819D01*
X174360238Y-84094819D02*
X174455476Y-84142438D01*
X174455476Y-84142438D02*
X174503095Y-84190057D01*
X174503095Y-84190057D02*
X174550714Y-84285295D01*
X174550714Y-84285295D02*
X174550714Y-84380533D01*
X174550714Y-84380533D02*
X174503095Y-84523390D01*
X174503095Y-84523390D02*
X173931667Y-85094819D01*
X173931667Y-85094819D02*
X174550714Y-85094819D01*
X162976666Y-92777819D02*
X162976666Y-93492104D01*
X162976666Y-93492104D02*
X162929047Y-93634961D01*
X162929047Y-93634961D02*
X162833809Y-93730200D01*
X162833809Y-93730200D02*
X162690952Y-93777819D01*
X162690952Y-93777819D02*
X162595714Y-93777819D01*
X163357619Y-92777819D02*
X164024285Y-92777819D01*
X164024285Y-92777819D02*
X163595714Y-93777819D01*
X167776905Y-85094819D02*
X167776905Y-84094819D01*
X167776905Y-84094819D02*
X168015000Y-84094819D01*
X168015000Y-84094819D02*
X168157857Y-84142438D01*
X168157857Y-84142438D02*
X168253095Y-84237676D01*
X168253095Y-84237676D02*
X168300714Y-84332914D01*
X168300714Y-84332914D02*
X168348333Y-84523390D01*
X168348333Y-84523390D02*
X168348333Y-84666247D01*
X168348333Y-84666247D02*
X168300714Y-84856723D01*
X168300714Y-84856723D02*
X168253095Y-84951961D01*
X168253095Y-84951961D02*
X168157857Y-85047200D01*
X168157857Y-85047200D02*
X168015000Y-85094819D01*
X168015000Y-85094819D02*
X167776905Y-85094819D01*
X169300714Y-85094819D02*
X168729286Y-85094819D01*
X169015000Y-85094819D02*
X169015000Y-84094819D01*
X169015000Y-84094819D02*
X168919762Y-84237676D01*
X168919762Y-84237676D02*
X168824524Y-84332914D01*
X168824524Y-84332914D02*
X168729286Y-84380533D01*
X109978333Y-119354580D02*
X109930714Y-119402200D01*
X109930714Y-119402200D02*
X109787857Y-119449819D01*
X109787857Y-119449819D02*
X109692619Y-119449819D01*
X109692619Y-119449819D02*
X109549762Y-119402200D01*
X109549762Y-119402200D02*
X109454524Y-119306961D01*
X109454524Y-119306961D02*
X109406905Y-119211723D01*
X109406905Y-119211723D02*
X109359286Y-119021247D01*
X109359286Y-119021247D02*
X109359286Y-118878390D01*
X109359286Y-118878390D02*
X109406905Y-118687914D01*
X109406905Y-118687914D02*
X109454524Y-118592676D01*
X109454524Y-118592676D02*
X109549762Y-118497438D01*
X109549762Y-118497438D02*
X109692619Y-118449819D01*
X109692619Y-118449819D02*
X109787857Y-118449819D01*
X109787857Y-118449819D02*
X109930714Y-118497438D01*
X109930714Y-118497438D02*
X109978333Y-118545057D01*
X110835476Y-118449819D02*
X110645000Y-118449819D01*
X110645000Y-118449819D02*
X110549762Y-118497438D01*
X110549762Y-118497438D02*
X110502143Y-118545057D01*
X110502143Y-118545057D02*
X110406905Y-118687914D01*
X110406905Y-118687914D02*
X110359286Y-118878390D01*
X110359286Y-118878390D02*
X110359286Y-119259342D01*
X110359286Y-119259342D02*
X110406905Y-119354580D01*
X110406905Y-119354580D02*
X110454524Y-119402200D01*
X110454524Y-119402200D02*
X110549762Y-119449819D01*
X110549762Y-119449819D02*
X110740238Y-119449819D01*
X110740238Y-119449819D02*
X110835476Y-119402200D01*
X110835476Y-119402200D02*
X110883095Y-119354580D01*
X110883095Y-119354580D02*
X110930714Y-119259342D01*
X110930714Y-119259342D02*
X110930714Y-119021247D01*
X110930714Y-119021247D02*
X110883095Y-118926009D01*
X110883095Y-118926009D02*
X110835476Y-118878390D01*
X110835476Y-118878390D02*
X110740238Y-118830771D01*
X110740238Y-118830771D02*
X110549762Y-118830771D01*
X110549762Y-118830771D02*
X110454524Y-118878390D01*
X110454524Y-118878390D02*
X110406905Y-118926009D01*
X110406905Y-118926009D02*
X110359286Y-119021247D01*
X109758333Y-123299819D02*
X109425000Y-122823628D01*
X109186905Y-123299819D02*
X109186905Y-122299819D01*
X109186905Y-122299819D02*
X109567857Y-122299819D01*
X109567857Y-122299819D02*
X109663095Y-122347438D01*
X109663095Y-122347438D02*
X109710714Y-122395057D01*
X109710714Y-122395057D02*
X109758333Y-122490295D01*
X109758333Y-122490295D02*
X109758333Y-122633152D01*
X109758333Y-122633152D02*
X109710714Y-122728390D01*
X109710714Y-122728390D02*
X109663095Y-122776009D01*
X109663095Y-122776009D02*
X109567857Y-122823628D01*
X109567857Y-122823628D02*
X109186905Y-122823628D01*
X110663095Y-122299819D02*
X110186905Y-122299819D01*
X110186905Y-122299819D02*
X110139286Y-122776009D01*
X110139286Y-122776009D02*
X110186905Y-122728390D01*
X110186905Y-122728390D02*
X110282143Y-122680771D01*
X110282143Y-122680771D02*
X110520238Y-122680771D01*
X110520238Y-122680771D02*
X110615476Y-122728390D01*
X110615476Y-122728390D02*
X110663095Y-122776009D01*
X110663095Y-122776009D02*
X110710714Y-122871247D01*
X110710714Y-122871247D02*
X110710714Y-123109342D01*
X110710714Y-123109342D02*
X110663095Y-123204580D01*
X110663095Y-123204580D02*
X110615476Y-123252200D01*
X110615476Y-123252200D02*
X110520238Y-123299819D01*
X110520238Y-123299819D02*
X110282143Y-123299819D01*
X110282143Y-123299819D02*
X110186905Y-123252200D01*
X110186905Y-123252200D02*
X110139286Y-123204580D01*
X111259524Y-116817295D02*
X111259524Y-116017295D01*
X111259524Y-116017295D02*
X111450000Y-116017295D01*
X111450000Y-116017295D02*
X111564286Y-116055390D01*
X111564286Y-116055390D02*
X111640476Y-116131580D01*
X111640476Y-116131580D02*
X111678571Y-116207771D01*
X111678571Y-116207771D02*
X111716667Y-116360152D01*
X111716667Y-116360152D02*
X111716667Y-116474438D01*
X111716667Y-116474438D02*
X111678571Y-116626819D01*
X111678571Y-116626819D02*
X111640476Y-116703009D01*
X111640476Y-116703009D02*
X111564286Y-116779200D01*
X111564286Y-116779200D02*
X111450000Y-116817295D01*
X111450000Y-116817295D02*
X111259524Y-116817295D01*
X112402381Y-116283961D02*
X112402381Y-116817295D01*
X112211905Y-115979200D02*
X112021428Y-116550628D01*
X112021428Y-116550628D02*
X112516667Y-116550628D01*
X162858333Y-88944819D02*
X162525000Y-88468628D01*
X162286905Y-88944819D02*
X162286905Y-87944819D01*
X162286905Y-87944819D02*
X162667857Y-87944819D01*
X162667857Y-87944819D02*
X162763095Y-87992438D01*
X162763095Y-87992438D02*
X162810714Y-88040057D01*
X162810714Y-88040057D02*
X162858333Y-88135295D01*
X162858333Y-88135295D02*
X162858333Y-88278152D01*
X162858333Y-88278152D02*
X162810714Y-88373390D01*
X162810714Y-88373390D02*
X162763095Y-88421009D01*
X162763095Y-88421009D02*
X162667857Y-88468628D01*
X162667857Y-88468628D02*
X162286905Y-88468628D01*
X163239286Y-88040057D02*
X163286905Y-87992438D01*
X163286905Y-87992438D02*
X163382143Y-87944819D01*
X163382143Y-87944819D02*
X163620238Y-87944819D01*
X163620238Y-87944819D02*
X163715476Y-87992438D01*
X163715476Y-87992438D02*
X163763095Y-88040057D01*
X163763095Y-88040057D02*
X163810714Y-88135295D01*
X163810714Y-88135295D02*
X163810714Y-88230533D01*
X163810714Y-88230533D02*
X163763095Y-88373390D01*
X163763095Y-88373390D02*
X163191667Y-88944819D01*
X163191667Y-88944819D02*
X163810714Y-88944819D01*
X112028333Y-105819819D02*
X111552143Y-105819819D01*
X111552143Y-105819819D02*
X111552143Y-104819819D01*
X112314048Y-104915057D02*
X112361667Y-104867438D01*
X112361667Y-104867438D02*
X112456905Y-104819819D01*
X112456905Y-104819819D02*
X112695000Y-104819819D01*
X112695000Y-104819819D02*
X112790238Y-104867438D01*
X112790238Y-104867438D02*
X112837857Y-104915057D01*
X112837857Y-104915057D02*
X112885476Y-105010295D01*
X112885476Y-105010295D02*
X112885476Y-105105533D01*
X112885476Y-105105533D02*
X112837857Y-105248390D01*
X112837857Y-105248390D02*
X112266429Y-105819819D01*
X112266429Y-105819819D02*
X112885476Y-105819819D01*
X182554166Y-62699819D02*
X182554166Y-63414104D01*
X182554166Y-63414104D02*
X182506547Y-63556961D01*
X182506547Y-63556961D02*
X182411309Y-63652200D01*
X182411309Y-63652200D02*
X182268452Y-63699819D01*
X182268452Y-63699819D02*
X182173214Y-63699819D01*
X183173214Y-63128390D02*
X183077976Y-63080771D01*
X183077976Y-63080771D02*
X183030357Y-63033152D01*
X183030357Y-63033152D02*
X182982738Y-62937914D01*
X182982738Y-62937914D02*
X182982738Y-62890295D01*
X182982738Y-62890295D02*
X183030357Y-62795057D01*
X183030357Y-62795057D02*
X183077976Y-62747438D01*
X183077976Y-62747438D02*
X183173214Y-62699819D01*
X183173214Y-62699819D02*
X183363690Y-62699819D01*
X183363690Y-62699819D02*
X183458928Y-62747438D01*
X183458928Y-62747438D02*
X183506547Y-62795057D01*
X183506547Y-62795057D02*
X183554166Y-62890295D01*
X183554166Y-62890295D02*
X183554166Y-62937914D01*
X183554166Y-62937914D02*
X183506547Y-63033152D01*
X183506547Y-63033152D02*
X183458928Y-63080771D01*
X183458928Y-63080771D02*
X183363690Y-63128390D01*
X183363690Y-63128390D02*
X183173214Y-63128390D01*
X183173214Y-63128390D02*
X183077976Y-63176009D01*
X183077976Y-63176009D02*
X183030357Y-63223628D01*
X183030357Y-63223628D02*
X182982738Y-63318866D01*
X182982738Y-63318866D02*
X182982738Y-63509342D01*
X182982738Y-63509342D02*
X183030357Y-63604580D01*
X183030357Y-63604580D02*
X183077976Y-63652200D01*
X183077976Y-63652200D02*
X183173214Y-63699819D01*
X183173214Y-63699819D02*
X183363690Y-63699819D01*
X183363690Y-63699819D02*
X183458928Y-63652200D01*
X183458928Y-63652200D02*
X183506547Y-63604580D01*
X183506547Y-63604580D02*
X183554166Y-63509342D01*
X183554166Y-63509342D02*
X183554166Y-63318866D01*
X183554166Y-63318866D02*
X183506547Y-63223628D01*
X183506547Y-63223628D02*
X183458928Y-63176009D01*
X183458928Y-63176009D02*
X183363690Y-63128390D01*
X130213333Y-118640580D02*
X130165714Y-118688200D01*
X130165714Y-118688200D02*
X130022857Y-118735819D01*
X130022857Y-118735819D02*
X129927619Y-118735819D01*
X129927619Y-118735819D02*
X129784762Y-118688200D01*
X129784762Y-118688200D02*
X129689524Y-118592961D01*
X129689524Y-118592961D02*
X129641905Y-118497723D01*
X129641905Y-118497723D02*
X129594286Y-118307247D01*
X129594286Y-118307247D02*
X129594286Y-118164390D01*
X129594286Y-118164390D02*
X129641905Y-117973914D01*
X129641905Y-117973914D02*
X129689524Y-117878676D01*
X129689524Y-117878676D02*
X129784762Y-117783438D01*
X129784762Y-117783438D02*
X129927619Y-117735819D01*
X129927619Y-117735819D02*
X130022857Y-117735819D01*
X130022857Y-117735819D02*
X130165714Y-117783438D01*
X130165714Y-117783438D02*
X130213333Y-117831057D01*
X131165714Y-118735819D02*
X130594286Y-118735819D01*
X130880000Y-118735819D02*
X130880000Y-117735819D01*
X130880000Y-117735819D02*
X130784762Y-117878676D01*
X130784762Y-117878676D02*
X130689524Y-117973914D01*
X130689524Y-117973914D02*
X130594286Y-118021533D01*
X172787142Y-111722580D02*
X172739523Y-111770200D01*
X172739523Y-111770200D02*
X172596666Y-111817819D01*
X172596666Y-111817819D02*
X172501428Y-111817819D01*
X172501428Y-111817819D02*
X172358571Y-111770200D01*
X172358571Y-111770200D02*
X172263333Y-111674961D01*
X172263333Y-111674961D02*
X172215714Y-111579723D01*
X172215714Y-111579723D02*
X172168095Y-111389247D01*
X172168095Y-111389247D02*
X172168095Y-111246390D01*
X172168095Y-111246390D02*
X172215714Y-111055914D01*
X172215714Y-111055914D02*
X172263333Y-110960676D01*
X172263333Y-110960676D02*
X172358571Y-110865438D01*
X172358571Y-110865438D02*
X172501428Y-110817819D01*
X172501428Y-110817819D02*
X172596666Y-110817819D01*
X172596666Y-110817819D02*
X172739523Y-110865438D01*
X172739523Y-110865438D02*
X172787142Y-110913057D01*
X173739523Y-111817819D02*
X173168095Y-111817819D01*
X173453809Y-111817819D02*
X173453809Y-110817819D01*
X173453809Y-110817819D02*
X173358571Y-110960676D01*
X173358571Y-110960676D02*
X173263333Y-111055914D01*
X173263333Y-111055914D02*
X173168095Y-111103533D01*
X174691904Y-111817819D02*
X174120476Y-111817819D01*
X174406190Y-111817819D02*
X174406190Y-110817819D01*
X174406190Y-110817819D02*
X174310952Y-110960676D01*
X174310952Y-110960676D02*
X174215714Y-111055914D01*
X174215714Y-111055914D02*
X174120476Y-111103533D01*
X115314166Y-68792819D02*
X115314166Y-69507104D01*
X115314166Y-69507104D02*
X115266547Y-69649961D01*
X115266547Y-69649961D02*
X115171309Y-69745200D01*
X115171309Y-69745200D02*
X115028452Y-69792819D01*
X115028452Y-69792819D02*
X114933214Y-69792819D01*
X116218928Y-68792819D02*
X116028452Y-68792819D01*
X116028452Y-68792819D02*
X115933214Y-68840438D01*
X115933214Y-68840438D02*
X115885595Y-68888057D01*
X115885595Y-68888057D02*
X115790357Y-69030914D01*
X115790357Y-69030914D02*
X115742738Y-69221390D01*
X115742738Y-69221390D02*
X115742738Y-69602342D01*
X115742738Y-69602342D02*
X115790357Y-69697580D01*
X115790357Y-69697580D02*
X115837976Y-69745200D01*
X115837976Y-69745200D02*
X115933214Y-69792819D01*
X115933214Y-69792819D02*
X116123690Y-69792819D01*
X116123690Y-69792819D02*
X116218928Y-69745200D01*
X116218928Y-69745200D02*
X116266547Y-69697580D01*
X116266547Y-69697580D02*
X116314166Y-69602342D01*
X116314166Y-69602342D02*
X116314166Y-69364247D01*
X116314166Y-69364247D02*
X116266547Y-69269009D01*
X116266547Y-69269009D02*
X116218928Y-69221390D01*
X116218928Y-69221390D02*
X116123690Y-69173771D01*
X116123690Y-69173771D02*
X115933214Y-69173771D01*
X115933214Y-69173771D02*
X115837976Y-69221390D01*
X115837976Y-69221390D02*
X115790357Y-69269009D01*
X115790357Y-69269009D02*
X115742738Y-69364247D01*
X124945833Y-87832819D02*
X124612500Y-87356628D01*
X124374405Y-87832819D02*
X124374405Y-86832819D01*
X124374405Y-86832819D02*
X124755357Y-86832819D01*
X124755357Y-86832819D02*
X124850595Y-86880438D01*
X124850595Y-86880438D02*
X124898214Y-86928057D01*
X124898214Y-86928057D02*
X124945833Y-87023295D01*
X124945833Y-87023295D02*
X124945833Y-87166152D01*
X124945833Y-87166152D02*
X124898214Y-87261390D01*
X124898214Y-87261390D02*
X124850595Y-87309009D01*
X124850595Y-87309009D02*
X124755357Y-87356628D01*
X124755357Y-87356628D02*
X124374405Y-87356628D01*
X125422024Y-87832819D02*
X125612500Y-87832819D01*
X125612500Y-87832819D02*
X125707738Y-87785200D01*
X125707738Y-87785200D02*
X125755357Y-87737580D01*
X125755357Y-87737580D02*
X125850595Y-87594723D01*
X125850595Y-87594723D02*
X125898214Y-87404247D01*
X125898214Y-87404247D02*
X125898214Y-87023295D01*
X125898214Y-87023295D02*
X125850595Y-86928057D01*
X125850595Y-86928057D02*
X125802976Y-86880438D01*
X125802976Y-86880438D02*
X125707738Y-86832819D01*
X125707738Y-86832819D02*
X125517262Y-86832819D01*
X125517262Y-86832819D02*
X125422024Y-86880438D01*
X125422024Y-86880438D02*
X125374405Y-86928057D01*
X125374405Y-86928057D02*
X125326786Y-87023295D01*
X125326786Y-87023295D02*
X125326786Y-87261390D01*
X125326786Y-87261390D02*
X125374405Y-87356628D01*
X125374405Y-87356628D02*
X125422024Y-87404247D01*
X125422024Y-87404247D02*
X125517262Y-87451866D01*
X125517262Y-87451866D02*
X125707738Y-87451866D01*
X125707738Y-87451866D02*
X125802976Y-87404247D01*
X125802976Y-87404247D02*
X125850595Y-87356628D01*
X125850595Y-87356628D02*
X125898214Y-87261390D01*
X114134642Y-98076819D02*
X113801309Y-97600628D01*
X113563214Y-98076819D02*
X113563214Y-97076819D01*
X113563214Y-97076819D02*
X113944166Y-97076819D01*
X113944166Y-97076819D02*
X114039404Y-97124438D01*
X114039404Y-97124438D02*
X114087023Y-97172057D01*
X114087023Y-97172057D02*
X114134642Y-97267295D01*
X114134642Y-97267295D02*
X114134642Y-97410152D01*
X114134642Y-97410152D02*
X114087023Y-97505390D01*
X114087023Y-97505390D02*
X114039404Y-97553009D01*
X114039404Y-97553009D02*
X113944166Y-97600628D01*
X113944166Y-97600628D02*
X113563214Y-97600628D01*
X115087023Y-98076819D02*
X114515595Y-98076819D01*
X114801309Y-98076819D02*
X114801309Y-97076819D01*
X114801309Y-97076819D02*
X114706071Y-97219676D01*
X114706071Y-97219676D02*
X114610833Y-97314914D01*
X114610833Y-97314914D02*
X114515595Y-97362533D01*
X116039404Y-98076819D02*
X115467976Y-98076819D01*
X115753690Y-98076819D02*
X115753690Y-97076819D01*
X115753690Y-97076819D02*
X115658452Y-97219676D01*
X115658452Y-97219676D02*
X115563214Y-97314914D01*
X115563214Y-97314914D02*
X115467976Y-97362533D01*
X171778333Y-80409580D02*
X171730714Y-80457200D01*
X171730714Y-80457200D02*
X171587857Y-80504819D01*
X171587857Y-80504819D02*
X171492619Y-80504819D01*
X171492619Y-80504819D02*
X171349762Y-80457200D01*
X171349762Y-80457200D02*
X171254524Y-80361961D01*
X171254524Y-80361961D02*
X171206905Y-80266723D01*
X171206905Y-80266723D02*
X171159286Y-80076247D01*
X171159286Y-80076247D02*
X171159286Y-79933390D01*
X171159286Y-79933390D02*
X171206905Y-79742914D01*
X171206905Y-79742914D02*
X171254524Y-79647676D01*
X171254524Y-79647676D02*
X171349762Y-79552438D01*
X171349762Y-79552438D02*
X171492619Y-79504819D01*
X171492619Y-79504819D02*
X171587857Y-79504819D01*
X171587857Y-79504819D02*
X171730714Y-79552438D01*
X171730714Y-79552438D02*
X171778333Y-79600057D01*
X172683095Y-79504819D02*
X172206905Y-79504819D01*
X172206905Y-79504819D02*
X172159286Y-79981009D01*
X172159286Y-79981009D02*
X172206905Y-79933390D01*
X172206905Y-79933390D02*
X172302143Y-79885771D01*
X172302143Y-79885771D02*
X172540238Y-79885771D01*
X172540238Y-79885771D02*
X172635476Y-79933390D01*
X172635476Y-79933390D02*
X172683095Y-79981009D01*
X172683095Y-79981009D02*
X172730714Y-80076247D01*
X172730714Y-80076247D02*
X172730714Y-80314342D01*
X172730714Y-80314342D02*
X172683095Y-80409580D01*
X172683095Y-80409580D02*
X172635476Y-80457200D01*
X172635476Y-80457200D02*
X172540238Y-80504819D01*
X172540238Y-80504819D02*
X172302143Y-80504819D01*
X172302143Y-80504819D02*
X172206905Y-80457200D01*
X172206905Y-80457200D02*
X172159286Y-80409580D01*
X185023333Y-97484819D02*
X184690000Y-97008628D01*
X184451905Y-97484819D02*
X184451905Y-96484819D01*
X184451905Y-96484819D02*
X184832857Y-96484819D01*
X184832857Y-96484819D02*
X184928095Y-96532438D01*
X184928095Y-96532438D02*
X184975714Y-96580057D01*
X184975714Y-96580057D02*
X185023333Y-96675295D01*
X185023333Y-96675295D02*
X185023333Y-96818152D01*
X185023333Y-96818152D02*
X184975714Y-96913390D01*
X184975714Y-96913390D02*
X184928095Y-96961009D01*
X184928095Y-96961009D02*
X184832857Y-97008628D01*
X184832857Y-97008628D02*
X184451905Y-97008628D01*
X185594762Y-96913390D02*
X185499524Y-96865771D01*
X185499524Y-96865771D02*
X185451905Y-96818152D01*
X185451905Y-96818152D02*
X185404286Y-96722914D01*
X185404286Y-96722914D02*
X185404286Y-96675295D01*
X185404286Y-96675295D02*
X185451905Y-96580057D01*
X185451905Y-96580057D02*
X185499524Y-96532438D01*
X185499524Y-96532438D02*
X185594762Y-96484819D01*
X185594762Y-96484819D02*
X185785238Y-96484819D01*
X185785238Y-96484819D02*
X185880476Y-96532438D01*
X185880476Y-96532438D02*
X185928095Y-96580057D01*
X185928095Y-96580057D02*
X185975714Y-96675295D01*
X185975714Y-96675295D02*
X185975714Y-96722914D01*
X185975714Y-96722914D02*
X185928095Y-96818152D01*
X185928095Y-96818152D02*
X185880476Y-96865771D01*
X185880476Y-96865771D02*
X185785238Y-96913390D01*
X185785238Y-96913390D02*
X185594762Y-96913390D01*
X185594762Y-96913390D02*
X185499524Y-96961009D01*
X185499524Y-96961009D02*
X185451905Y-97008628D01*
X185451905Y-97008628D02*
X185404286Y-97103866D01*
X185404286Y-97103866D02*
X185404286Y-97294342D01*
X185404286Y-97294342D02*
X185451905Y-97389580D01*
X185451905Y-97389580D02*
X185499524Y-97437200D01*
X185499524Y-97437200D02*
X185594762Y-97484819D01*
X185594762Y-97484819D02*
X185785238Y-97484819D01*
X185785238Y-97484819D02*
X185880476Y-97437200D01*
X185880476Y-97437200D02*
X185928095Y-97389580D01*
X185928095Y-97389580D02*
X185975714Y-97294342D01*
X185975714Y-97294342D02*
X185975714Y-97103866D01*
X185975714Y-97103866D02*
X185928095Y-97008628D01*
X185928095Y-97008628D02*
X185880476Y-96961009D01*
X185880476Y-96961009D02*
X185785238Y-96913390D01*
X115081666Y-118926009D02*
X114748333Y-118926009D01*
X114748333Y-119449819D02*
X114748333Y-118449819D01*
X114748333Y-118449819D02*
X115224523Y-118449819D01*
X116129285Y-119449819D02*
X115557857Y-119449819D01*
X115843571Y-119449819D02*
X115843571Y-118449819D01*
X115843571Y-118449819D02*
X115748333Y-118592676D01*
X115748333Y-118592676D02*
X115653095Y-118687914D01*
X115653095Y-118687914D02*
X115557857Y-118735533D01*
X184824642Y-74279819D02*
X184491309Y-73803628D01*
X184253214Y-74279819D02*
X184253214Y-73279819D01*
X184253214Y-73279819D02*
X184634166Y-73279819D01*
X184634166Y-73279819D02*
X184729404Y-73327438D01*
X184729404Y-73327438D02*
X184777023Y-73375057D01*
X184777023Y-73375057D02*
X184824642Y-73470295D01*
X184824642Y-73470295D02*
X184824642Y-73613152D01*
X184824642Y-73613152D02*
X184777023Y-73708390D01*
X184777023Y-73708390D02*
X184729404Y-73756009D01*
X184729404Y-73756009D02*
X184634166Y-73803628D01*
X184634166Y-73803628D02*
X184253214Y-73803628D01*
X185777023Y-74279819D02*
X185205595Y-74279819D01*
X185491309Y-74279819D02*
X185491309Y-73279819D01*
X185491309Y-73279819D02*
X185396071Y-73422676D01*
X185396071Y-73422676D02*
X185300833Y-73517914D01*
X185300833Y-73517914D02*
X185205595Y-73565533D01*
X186634166Y-73279819D02*
X186443690Y-73279819D01*
X186443690Y-73279819D02*
X186348452Y-73327438D01*
X186348452Y-73327438D02*
X186300833Y-73375057D01*
X186300833Y-73375057D02*
X186205595Y-73517914D01*
X186205595Y-73517914D02*
X186157976Y-73708390D01*
X186157976Y-73708390D02*
X186157976Y-74089342D01*
X186157976Y-74089342D02*
X186205595Y-74184580D01*
X186205595Y-74184580D02*
X186253214Y-74232200D01*
X186253214Y-74232200D02*
X186348452Y-74279819D01*
X186348452Y-74279819D02*
X186538928Y-74279819D01*
X186538928Y-74279819D02*
X186634166Y-74232200D01*
X186634166Y-74232200D02*
X186681785Y-74184580D01*
X186681785Y-74184580D02*
X186729404Y-74089342D01*
X186729404Y-74089342D02*
X186729404Y-73851247D01*
X186729404Y-73851247D02*
X186681785Y-73756009D01*
X186681785Y-73756009D02*
X186634166Y-73708390D01*
X186634166Y-73708390D02*
X186538928Y-73660771D01*
X186538928Y-73660771D02*
X186348452Y-73660771D01*
X186348452Y-73660771D02*
X186253214Y-73708390D01*
X186253214Y-73708390D02*
X186205595Y-73756009D01*
X186205595Y-73756009D02*
X186157976Y-73851247D01*
X184824642Y-77534580D02*
X184777023Y-77582200D01*
X184777023Y-77582200D02*
X184634166Y-77629819D01*
X184634166Y-77629819D02*
X184538928Y-77629819D01*
X184538928Y-77629819D02*
X184396071Y-77582200D01*
X184396071Y-77582200D02*
X184300833Y-77486961D01*
X184300833Y-77486961D02*
X184253214Y-77391723D01*
X184253214Y-77391723D02*
X184205595Y-77201247D01*
X184205595Y-77201247D02*
X184205595Y-77058390D01*
X184205595Y-77058390D02*
X184253214Y-76867914D01*
X184253214Y-76867914D02*
X184300833Y-76772676D01*
X184300833Y-76772676D02*
X184396071Y-76677438D01*
X184396071Y-76677438D02*
X184538928Y-76629819D01*
X184538928Y-76629819D02*
X184634166Y-76629819D01*
X184634166Y-76629819D02*
X184777023Y-76677438D01*
X184777023Y-76677438D02*
X184824642Y-76725057D01*
X185777023Y-77629819D02*
X185205595Y-77629819D01*
X185491309Y-77629819D02*
X185491309Y-76629819D01*
X185491309Y-76629819D02*
X185396071Y-76772676D01*
X185396071Y-76772676D02*
X185300833Y-76867914D01*
X185300833Y-76867914D02*
X185205595Y-76915533D01*
X186634166Y-76629819D02*
X186443690Y-76629819D01*
X186443690Y-76629819D02*
X186348452Y-76677438D01*
X186348452Y-76677438D02*
X186300833Y-76725057D01*
X186300833Y-76725057D02*
X186205595Y-76867914D01*
X186205595Y-76867914D02*
X186157976Y-77058390D01*
X186157976Y-77058390D02*
X186157976Y-77439342D01*
X186157976Y-77439342D02*
X186205595Y-77534580D01*
X186205595Y-77534580D02*
X186253214Y-77582200D01*
X186253214Y-77582200D02*
X186348452Y-77629819D01*
X186348452Y-77629819D02*
X186538928Y-77629819D01*
X186538928Y-77629819D02*
X186634166Y-77582200D01*
X186634166Y-77582200D02*
X186681785Y-77534580D01*
X186681785Y-77534580D02*
X186729404Y-77439342D01*
X186729404Y-77439342D02*
X186729404Y-77201247D01*
X186729404Y-77201247D02*
X186681785Y-77106009D01*
X186681785Y-77106009D02*
X186634166Y-77058390D01*
X186634166Y-77058390D02*
X186538928Y-77010771D01*
X186538928Y-77010771D02*
X186348452Y-77010771D01*
X186348452Y-77010771D02*
X186253214Y-77058390D01*
X186253214Y-77058390D02*
X186205595Y-77106009D01*
X186205595Y-77106009D02*
X186157976Y-77201247D01*
X127166666Y-105723819D02*
X127166666Y-106438104D01*
X127166666Y-106438104D02*
X127119047Y-106580961D01*
X127119047Y-106580961D02*
X127023809Y-106676200D01*
X127023809Y-106676200D02*
X126880952Y-106723819D01*
X126880952Y-106723819D02*
X126785714Y-106723819D01*
X128166666Y-106723819D02*
X127595238Y-106723819D01*
X127880952Y-106723819D02*
X127880952Y-105723819D01*
X127880952Y-105723819D02*
X127785714Y-105866676D01*
X127785714Y-105866676D02*
X127690476Y-105961914D01*
X127690476Y-105961914D02*
X127595238Y-106009533D01*
X178276905Y-85094819D02*
X178276905Y-84094819D01*
X178276905Y-84094819D02*
X178515000Y-84094819D01*
X178515000Y-84094819D02*
X178657857Y-84142438D01*
X178657857Y-84142438D02*
X178753095Y-84237676D01*
X178753095Y-84237676D02*
X178800714Y-84332914D01*
X178800714Y-84332914D02*
X178848333Y-84523390D01*
X178848333Y-84523390D02*
X178848333Y-84666247D01*
X178848333Y-84666247D02*
X178800714Y-84856723D01*
X178800714Y-84856723D02*
X178753095Y-84951961D01*
X178753095Y-84951961D02*
X178657857Y-85047200D01*
X178657857Y-85047200D02*
X178515000Y-85094819D01*
X178515000Y-85094819D02*
X178276905Y-85094819D01*
X179181667Y-84094819D02*
X179800714Y-84094819D01*
X179800714Y-84094819D02*
X179467381Y-84475771D01*
X179467381Y-84475771D02*
X179610238Y-84475771D01*
X179610238Y-84475771D02*
X179705476Y-84523390D01*
X179705476Y-84523390D02*
X179753095Y-84571009D01*
X179753095Y-84571009D02*
X179800714Y-84666247D01*
X179800714Y-84666247D02*
X179800714Y-84904342D01*
X179800714Y-84904342D02*
X179753095Y-84999580D01*
X179753095Y-84999580D02*
X179705476Y-85047200D01*
X179705476Y-85047200D02*
X179610238Y-85094819D01*
X179610238Y-85094819D02*
X179324524Y-85094819D01*
X179324524Y-85094819D02*
X179229286Y-85047200D01*
X179229286Y-85047200D02*
X179181667Y-84999580D01*
X111835595Y-84147819D02*
X111835595Y-84957342D01*
X111835595Y-84957342D02*
X111883214Y-85052580D01*
X111883214Y-85052580D02*
X111930833Y-85100200D01*
X111930833Y-85100200D02*
X112026071Y-85147819D01*
X112026071Y-85147819D02*
X112216547Y-85147819D01*
X112216547Y-85147819D02*
X112311785Y-85100200D01*
X112311785Y-85100200D02*
X112359404Y-85052580D01*
X112359404Y-85052580D02*
X112407023Y-84957342D01*
X112407023Y-84957342D02*
X112407023Y-84147819D01*
X113311785Y-84481152D02*
X113311785Y-85147819D01*
X113073690Y-84100200D02*
X112835595Y-84814485D01*
X112835595Y-84814485D02*
X113454642Y-84814485D01*
X114608333Y-123299819D02*
X114275000Y-122823628D01*
X114036905Y-123299819D02*
X114036905Y-122299819D01*
X114036905Y-122299819D02*
X114417857Y-122299819D01*
X114417857Y-122299819D02*
X114513095Y-122347438D01*
X114513095Y-122347438D02*
X114560714Y-122395057D01*
X114560714Y-122395057D02*
X114608333Y-122490295D01*
X114608333Y-122490295D02*
X114608333Y-122633152D01*
X114608333Y-122633152D02*
X114560714Y-122728390D01*
X114560714Y-122728390D02*
X114513095Y-122776009D01*
X114513095Y-122776009D02*
X114417857Y-122823628D01*
X114417857Y-122823628D02*
X114036905Y-122823628D01*
X115465476Y-122299819D02*
X115275000Y-122299819D01*
X115275000Y-122299819D02*
X115179762Y-122347438D01*
X115179762Y-122347438D02*
X115132143Y-122395057D01*
X115132143Y-122395057D02*
X115036905Y-122537914D01*
X115036905Y-122537914D02*
X114989286Y-122728390D01*
X114989286Y-122728390D02*
X114989286Y-123109342D01*
X114989286Y-123109342D02*
X115036905Y-123204580D01*
X115036905Y-123204580D02*
X115084524Y-123252200D01*
X115084524Y-123252200D02*
X115179762Y-123299819D01*
X115179762Y-123299819D02*
X115370238Y-123299819D01*
X115370238Y-123299819D02*
X115465476Y-123252200D01*
X115465476Y-123252200D02*
X115513095Y-123204580D01*
X115513095Y-123204580D02*
X115560714Y-123109342D01*
X115560714Y-123109342D02*
X115560714Y-122871247D01*
X115560714Y-122871247D02*
X115513095Y-122776009D01*
X115513095Y-122776009D02*
X115465476Y-122728390D01*
X115465476Y-122728390D02*
X115370238Y-122680771D01*
X115370238Y-122680771D02*
X115179762Y-122680771D01*
X115179762Y-122680771D02*
X115084524Y-122728390D01*
X115084524Y-122728390D02*
X115036905Y-122776009D01*
X115036905Y-122776009D02*
X114989286Y-122871247D01*
%TO.C,C9*%
D12*
X185049420Y-101300000D02*
X185330580Y-101300000D01*
X185049420Y-102320000D02*
X185330580Y-102320000D01*
%TO.C,C8*%
X167520000Y-95923000D02*
X168520000Y-95923000D01*
X168020000Y-95423000D02*
X168020000Y-96423000D01*
X168760000Y-95137437D02*
X168760000Y-96923000D01*
X168760000Y-95137437D02*
X169824437Y-94073000D01*
X168760000Y-101728563D02*
X168760000Y-99943000D01*
X168760000Y-101728563D02*
X169824437Y-102793000D01*
X169824437Y-94073000D02*
X177480000Y-94073000D01*
X169824437Y-102793000D02*
X177480000Y-102793000D01*
X177480000Y-94073000D02*
X177480000Y-96923000D01*
X177480000Y-102793000D02*
X177480000Y-99943000D01*
%TO.C,R1*%
X125292742Y-119188500D02*
X125767258Y-119188500D01*
X125292742Y-120233500D02*
X125767258Y-120233500D01*
%TO.C,R15*%
X190395242Y-71242500D02*
X190869758Y-71242500D01*
X190395242Y-72287500D02*
X190869758Y-72287500D01*
%TO.C,C14*%
X172579420Y-122527000D02*
X172860580Y-122527000D01*
X172579420Y-123547000D02*
X172860580Y-123547000D01*
%TO.C,R13*%
X162782742Y-122514500D02*
X163257258Y-122514500D01*
X162782742Y-123559500D02*
X163257258Y-123559500D01*
%TO.C,R4*%
X172487742Y-89397500D02*
X172962258Y-89397500D01*
X172487742Y-90442500D02*
X172962258Y-90442500D01*
%TO.C,J4*%
X158900000Y-73270000D02*
X160230000Y-73270000D01*
X160230000Y-73270000D02*
X160230000Y-74600000D01*
X160230000Y-75870000D02*
X160230000Y-124190000D01*
%TO.C,Q1*%
D13*
X129815000Y-113709000D02*
X131615000Y-113709000D01*
X129815000Y-116809000D02*
X131615000Y-116809000D01*
D14*
X132145000Y-116709000D02*
G75*
G02*
X132085000Y-116709000I-30000J0D01*
G01*
X132085000Y-116709000D02*
G75*
G02*
X132145000Y-116709000I30000J0D01*
G01*
D13*
X132235000Y-116909000D02*
G75*
G02*
X131995000Y-116909000I-120000J0D01*
G01*
X131995000Y-116909000D02*
G75*
G02*
X132235000Y-116909000I120000J0D01*
G01*
%TO.C,C15*%
D12*
X190176920Y-74745000D02*
X190458080Y-74745000D01*
X190176920Y-75765000D02*
X190458080Y-75765000D01*
%TO.C,C7*%
X118583748Y-115350000D02*
X119106252Y-115350000D01*
X118583748Y-116820000D02*
X119106252Y-116820000D01*
%TO.C,C2*%
X176973748Y-80995000D02*
X177496252Y-80995000D01*
X176973748Y-82465000D02*
X177496252Y-82465000D01*
%TO.C,U2*%
D13*
X161445000Y-65365000D02*
X166545000Y-65365000D01*
X161445000Y-66615000D02*
X161445000Y-65365000D01*
X161445000Y-68215000D02*
X161445000Y-69465000D01*
X166545000Y-65365000D02*
X166545000Y-69465000D01*
X166545000Y-69465000D02*
X161445000Y-69465000D01*
X161487227Y-66611354D02*
G75*
G02*
X161495000Y-68215000I-372227J-803646D01*
G01*
X161135000Y-69915000D02*
G75*
G02*
X160795000Y-69915000I-170000J0D01*
G01*
X160795000Y-69915000D02*
G75*
G02*
X161135000Y-69915000I170000J0D01*
G01*
D14*
X161575000Y-70365000D02*
G75*
G02*
X161515000Y-70365000I-30000J0D01*
G01*
X161515000Y-70365000D02*
G75*
G02*
X161575000Y-70365000I30000J0D01*
G01*
%TO.C,U1*%
D11*
X123970000Y-116340000D02*
X123970000Y-114560000D01*
X127050000Y-116340000D02*
X127050000Y-114560000D01*
D15*
X123990000Y-116750000D02*
G75*
G02*
X123690000Y-116750000I-150000J0D01*
G01*
X123690000Y-116750000D02*
G75*
G02*
X123990000Y-116750000I150000J0D01*
G01*
D14*
X124080000Y-116850000D02*
G75*
G02*
X124020000Y-116850000I-30000J0D01*
G01*
X124020000Y-116850000D02*
G75*
G02*
X124080000Y-116850000I30000J0D01*
G01*
%TO.C,R7*%
D12*
X185162936Y-94155000D02*
X185617064Y-94155000D01*
X185162936Y-95625000D02*
X185617064Y-95625000D01*
%TO.C,C4*%
X177434420Y-89410000D02*
X177715580Y-89410000D01*
X177434420Y-90430000D02*
X177715580Y-90430000D01*
%TO.C,C10*%
X124336920Y-98542000D02*
X124618080Y-98542000D01*
X124336920Y-99562000D02*
X124618080Y-99562000D01*
%TO.C,C13*%
X178458748Y-112308000D02*
X178981252Y-112308000D01*
X178458748Y-113778000D02*
X178981252Y-113778000D01*
%TO.C,J3*%
X139770000Y-75870000D02*
X139770000Y-124190000D01*
%TO.C,J5*%
X108837500Y-70338000D02*
X110217500Y-70338000D01*
X108837500Y-71718000D02*
X108837500Y-70338000D01*
X108837500Y-72988000D02*
X108837500Y-85798000D01*
X108837500Y-72988000D02*
X111597500Y-72988000D01*
X108837500Y-85798000D02*
X111597500Y-85798000D01*
X111597500Y-72988000D02*
X111597500Y-85798000D01*
%TO.C,C12*%
X109786920Y-101892000D02*
X110068080Y-101892000D01*
X109786920Y-102912000D02*
X110068080Y-102912000D01*
%TO.C,U7*%
D11*
X184045000Y-70955000D02*
X187205000Y-70955000D01*
X184045000Y-72715000D02*
X187205000Y-72715000D01*
X183725000Y-71335000D02*
G75*
G02*
X183565000Y-71335000I-80000J0D01*
G01*
X183565000Y-71335000D02*
G75*
G02*
X183725000Y-71335000I80000J0D01*
G01*
D14*
X184155000Y-71035000D02*
G75*
G02*
X184095000Y-71035000I-30000J0D01*
G01*
X184095000Y-71035000D02*
G75*
G02*
X184155000Y-71035000I30000J0D01*
G01*
%TO.C,J2*%
D12*
X161935000Y-73165000D02*
X163315000Y-73165000D01*
X161935000Y-74545000D02*
X161935000Y-73165000D01*
X161935000Y-75815000D02*
X161935000Y-78465000D01*
X161935000Y-75815000D02*
X164695000Y-75815000D01*
X161935000Y-78465000D02*
X164695000Y-78465000D01*
X164695000Y-75815000D02*
X164695000Y-78465000D01*
%TO.C,R10*%
X109690242Y-98529500D02*
X110164758Y-98529500D01*
X109690242Y-99574500D02*
X110164758Y-99574500D01*
%TO.C,U6*%
D11*
X118610000Y-88050500D02*
X118610000Y-88300500D01*
X118610000Y-90710500D02*
X118610000Y-90460500D01*
X119360000Y-88050500D02*
X118610000Y-88050500D01*
X119360000Y-90710500D02*
X118610000Y-90710500D01*
X121020000Y-88050500D02*
X121770000Y-88050500D01*
X121020000Y-90710500D02*
X121770000Y-90710500D01*
X121770000Y-88050500D02*
X121770000Y-88300500D01*
X121770000Y-90710500D02*
X121770000Y-90460500D01*
X118360000Y-88620500D02*
G75*
G02*
X118200000Y-88620500I-80000J0D01*
G01*
X118200000Y-88620500D02*
G75*
G02*
X118360000Y-88620500I80000J0D01*
G01*
D14*
X118720000Y-88130500D02*
G75*
G02*
X118660000Y-88130500I-30000J0D01*
G01*
X118660000Y-88130500D02*
G75*
G02*
X118720000Y-88130500I30000J0D01*
G01*
%TO.C,R12*%
D12*
X119390242Y-98529500D02*
X119864758Y-98529500D01*
X119390242Y-99574500D02*
X119864758Y-99574500D01*
%TO.C,U3*%
D11*
X117755000Y-108946000D02*
X117755000Y-107166000D01*
X120835000Y-108946000D02*
X120835000Y-107166000D01*
D15*
X117775000Y-109356000D02*
G75*
G02*
X117475000Y-109356000I-150000J0D01*
G01*
X117475000Y-109356000D02*
G75*
G02*
X117775000Y-109356000I150000J0D01*
G01*
D14*
X117865000Y-109456000D02*
G75*
G02*
X117805000Y-109456000I-30000J0D01*
G01*
X117805000Y-109456000D02*
G75*
G02*
X117865000Y-109456000I30000J0D01*
G01*
%TO.C,L1*%
D12*
X168785000Y-64150000D02*
X175385000Y-64150000D01*
X168785000Y-65850000D02*
X168785000Y-64150000D01*
X168785000Y-70550000D02*
X168785000Y-68850000D01*
X175385000Y-64150000D02*
X175385000Y-65850000D01*
X175385000Y-68850000D02*
X175385000Y-70550000D01*
X175385000Y-70550000D02*
X168785000Y-70550000D01*
%TO.C,R3*%
X167637742Y-89397500D02*
X168112258Y-89397500D01*
X167637742Y-90442500D02*
X168112258Y-90442500D01*
%TO.C,D5*%
D11*
X162250000Y-80640000D02*
X167650000Y-80640000D01*
X162250000Y-83560000D02*
X167650000Y-83560000D01*
X163910000Y-80740000D02*
X163910000Y-83460000D01*
X167650000Y-80640000D02*
X167650000Y-80990000D01*
X167650000Y-83560000D02*
X167650000Y-83210000D01*
D14*
X162430000Y-80750000D02*
G75*
G02*
X162370000Y-80750000I-30000J0D01*
G01*
X162370000Y-80750000D02*
G75*
G02*
X162430000Y-80750000I30000J0D01*
G01*
D16*
G36*
X162325012Y-81037594D02*
G01*
X161867812Y-81037594D01*
X161867812Y-80560100D01*
X162325012Y-80560100D01*
X162325012Y-81037594D01*
G37*
G36*
X162325012Y-83639900D02*
G01*
X161867812Y-83639900D01*
X161867812Y-83162406D01*
X162325012Y-83162406D01*
X162325012Y-83639900D01*
G37*
%TO.C,C3*%
D12*
X162983748Y-85585000D02*
X163506252Y-85585000D01*
X162983748Y-87055000D02*
X163506252Y-87055000D01*
%TO.C,U5*%
D13*
X161630000Y-113570000D02*
X161630000Y-118910000D01*
X161630000Y-118910000D02*
X169630000Y-118910000D01*
X169630000Y-113570000D02*
X161630000Y-113570000D01*
X169630000Y-118910000D02*
X169630000Y-113570000D01*
D15*
X161660000Y-119800000D02*
G75*
G02*
X161360000Y-119800000I-150000J0D01*
G01*
X161360000Y-119800000D02*
G75*
G02*
X161660000Y-119800000I150000J0D01*
G01*
D14*
X161820000Y-120040000D02*
G75*
G02*
X161760000Y-120040000I-30000J0D01*
G01*
X161760000Y-120040000D02*
G75*
G02*
X161820000Y-120040000I30000J0D01*
G01*
D15*
X162270000Y-118060000D02*
G75*
G02*
X161950000Y-118060000I-160000J0D01*
G01*
X161950000Y-118060000D02*
G75*
G02*
X162270000Y-118060000I160000J0D01*
G01*
%TO.C,R14*%
D12*
X167632742Y-122514500D02*
X168107258Y-122514500D01*
X167632742Y-123559500D02*
X168107258Y-123559500D01*
%TO.C,D2*%
X172080000Y-85330000D02*
X172080000Y-87250000D01*
X172080000Y-87250000D02*
X174765000Y-87250000D01*
X174765000Y-85330000D02*
X172080000Y-85330000D01*
%TO.C,J7*%
X161930000Y-94323000D02*
X163310000Y-94323000D01*
X161930000Y-95703000D02*
X161930000Y-94323000D01*
X161930000Y-96973000D02*
X161930000Y-109783000D01*
X161930000Y-96973000D02*
X164690000Y-96973000D01*
X161930000Y-109783000D02*
X164690000Y-109783000D01*
X164690000Y-96973000D02*
X164690000Y-109783000D01*
%TO.C,D1*%
X166830000Y-85330000D02*
X166830000Y-87250000D01*
X166830000Y-87250000D02*
X169515000Y-87250000D01*
X169515000Y-85330000D02*
X166830000Y-85330000D01*
%TO.C,C6*%
X109883748Y-119940000D02*
X110406252Y-119940000D01*
X109883748Y-121410000D02*
X110406252Y-121410000D01*
%TO.C,R5*%
X109687742Y-123752500D02*
X110162258Y-123752500D01*
X109687742Y-124797500D02*
X110162258Y-124797500D01*
%TO.C,D4*%
D11*
X109150000Y-114995000D02*
X114550000Y-114995000D01*
X109150000Y-117915000D02*
X114550000Y-117915000D01*
X110810000Y-115095000D02*
X110810000Y-117815000D01*
X114550000Y-114995000D02*
X114550000Y-115345000D01*
X114550000Y-117915000D02*
X114550000Y-117565000D01*
D14*
X109330000Y-115105000D02*
G75*
G02*
X109270000Y-115105000I-30000J0D01*
G01*
X109270000Y-115105000D02*
G75*
G02*
X109330000Y-115105000I30000J0D01*
G01*
D16*
G36*
X109225012Y-115392594D02*
G01*
X108767812Y-115392594D01*
X108767812Y-114915100D01*
X109225012Y-114915100D01*
X109225012Y-115392594D01*
G37*
G36*
X109225012Y-117994900D02*
G01*
X108767812Y-117994900D01*
X108767812Y-117517406D01*
X109225012Y-117517406D01*
X109225012Y-117994900D01*
G37*
%TO.C,R2*%
D12*
X162787742Y-89397500D02*
X163262258Y-89397500D01*
X162787742Y-90442500D02*
X163262258Y-90442500D01*
%TO.C,L2*%
X108895000Y-106615000D02*
X115495000Y-106615000D01*
X108895000Y-108315000D02*
X108895000Y-106615000D01*
X108895000Y-113015000D02*
X108895000Y-111315000D01*
X115495000Y-106615000D02*
X115495000Y-108315000D01*
X115495000Y-111315000D02*
X115495000Y-113015000D01*
X115495000Y-113015000D02*
X108895000Y-113015000D01*
%TO.C,J8*%
X179777500Y-66505000D02*
X179777500Y-67655000D01*
X179777500Y-67655000D02*
X180827500Y-67655000D01*
X180827500Y-67655000D02*
X180827500Y-68645000D01*
X180947500Y-64535000D02*
X184827500Y-64535000D01*
X185997500Y-66505000D02*
X185997500Y-67655000D01*
X185997500Y-67655000D02*
X184947500Y-67655000D01*
%TO.C,C1*%
X130239420Y-119201000D02*
X130520580Y-119201000D01*
X130239420Y-120221000D02*
X130520580Y-120221000D01*
%TO.C,C11*%
X173168748Y-112308000D02*
X173691252Y-112308000D01*
X173168748Y-113778000D02*
X173691252Y-113778000D01*
%TO.C,J6*%
X114267500Y-70338000D02*
X115647500Y-70338000D01*
X114267500Y-71718000D02*
X114267500Y-70338000D01*
X114267500Y-72988000D02*
X114267500Y-85798000D01*
X114267500Y-72988000D02*
X117027500Y-72988000D01*
X114267500Y-85798000D02*
X117027500Y-85798000D01*
X117027500Y-72988000D02*
X117027500Y-85798000D01*
%TO.C,SW1*%
D11*
X170645000Y-72280000D02*
X170645000Y-72710000D01*
X170645000Y-75360000D02*
X170645000Y-74930000D01*
X174705000Y-72280000D02*
X170645000Y-72280000D01*
X174705000Y-72280000D02*
X174705000Y-72710000D01*
X174705000Y-74930000D02*
X174705000Y-75360000D01*
X174705000Y-75360000D02*
X170645000Y-75360000D01*
D13*
X173575000Y-73820000D02*
G75*
G02*
X171775000Y-73820000I-900000J0D01*
G01*
X171775000Y-73820000D02*
G75*
G02*
X173575000Y-73820000I900000J0D01*
G01*
D14*
X175205000Y-72350000D02*
G75*
G02*
X175145000Y-72350000I-30000J0D01*
G01*
X175145000Y-72350000D02*
G75*
G02*
X175205000Y-72350000I30000J0D01*
G01*
%TO.C,R9*%
D12*
X124875242Y-88285500D02*
X125349758Y-88285500D01*
X124875242Y-89330500D02*
X125349758Y-89330500D01*
%TO.C,R11*%
X114540242Y-98529500D02*
X115014758Y-98529500D01*
X114540242Y-99574500D02*
X115014758Y-99574500D01*
%TO.C,C5*%
X171683748Y-80995000D02*
X172206252Y-80995000D01*
X171683748Y-82465000D02*
X172206252Y-82465000D01*
%TO.C,R8*%
X184952742Y-97937500D02*
X185427258Y-97937500D01*
X184952742Y-98982500D02*
X185427258Y-98982500D01*
%TO.C,F1*%
X115156422Y-119935000D02*
X115673578Y-119935000D01*
X115156422Y-121355000D02*
X115673578Y-121355000D01*
%TO.C,R16*%
X185230242Y-74732500D02*
X185704758Y-74732500D01*
X185230242Y-75777500D02*
X185704758Y-75777500D01*
%TO.C,C16*%
X185326920Y-78095000D02*
X185608080Y-78095000D01*
X185326920Y-79115000D02*
X185608080Y-79115000D01*
%TO.C,J1*%
X124140000Y-107059000D02*
X124140000Y-108309000D01*
X124440000Y-108669000D02*
X125050000Y-108669000D01*
X124440000Y-109969000D02*
X125050000Y-109969000D01*
X125050000Y-107969000D02*
X125050000Y-111469000D01*
X125050000Y-111469000D02*
X129950000Y-111469000D01*
X125390000Y-107059000D02*
X124140000Y-107059000D01*
X125900000Y-107159000D02*
X125900000Y-107359000D01*
X126200000Y-107159000D02*
X125900000Y-107159000D01*
X126200000Y-107259000D02*
X125900000Y-107259000D01*
X126200000Y-107359000D02*
X126200000Y-107159000D01*
X127000000Y-107359000D02*
X127000000Y-107969000D01*
X127000000Y-107969000D02*
X125050000Y-107969000D01*
X127400000Y-110969000D02*
X127600000Y-110969000D01*
X127400000Y-111469000D02*
X127400000Y-110969000D01*
X127500000Y-111469000D02*
X127500000Y-110969000D01*
X127600000Y-110969000D02*
X127600000Y-111469000D01*
X128000000Y-107969000D02*
X128000000Y-107359000D01*
X129950000Y-107969000D02*
X128000000Y-107969000D01*
X129950000Y-111469000D02*
X129950000Y-107969000D01*
X130560000Y-108669000D02*
X129950000Y-108669000D01*
X130560000Y-109969000D02*
X129950000Y-109969000D01*
X124440000Y-107359000D02*
X130560000Y-107359000D01*
X130560000Y-112079000D01*
X124440000Y-112079000D01*
X124440000Y-107359000D01*
%TO.C,D3*%
X177330000Y-85330000D02*
X177330000Y-87250000D01*
X177330000Y-87250000D02*
X180015000Y-87250000D01*
X180015000Y-85330000D02*
X177330000Y-85330000D01*
%TO.C,U4*%
D13*
X108537500Y-89585000D02*
X108537500Y-94925000D01*
X108537500Y-94925000D02*
X116537500Y-94925000D01*
X116537500Y-89585000D02*
X108537500Y-89585000D01*
X116537500Y-94925000D02*
X116537500Y-89585000D01*
D15*
X108567500Y-95815000D02*
G75*
G02*
X108267500Y-95815000I-150000J0D01*
G01*
X108267500Y-95815000D02*
G75*
G02*
X108567500Y-95815000I150000J0D01*
G01*
D14*
X108727500Y-96055000D02*
G75*
G02*
X108667500Y-96055000I-30000J0D01*
G01*
X108667500Y-96055000D02*
G75*
G02*
X108727500Y-96055000I30000J0D01*
G01*
D15*
X109177500Y-94075000D02*
G75*
G02*
X108857500Y-94075000I-160000J0D01*
G01*
X108857500Y-94075000D02*
G75*
G02*
X109177500Y-94075000I160000J0D01*
G01*
%TO.C,R6*%
D12*
X114537742Y-123752500D02*
X115012258Y-123752500D01*
X114537742Y-124797500D02*
X115012258Y-124797500D01*
%TD*%
M02*
