M48
; DRILL file KiCad 10.0.4 date 2026-06-22T15:15:04
; FORMAT={-:-/ absolute / metric / decimal}
; #@! TF.CreationDate,2026-06-22T15:15:04+09:00
; #@! TF.GenerationSoftware,Kicad,Pcbnew,10.0.4
; #@! TF.FileFunction,MixedPlating,1,2
FMAT,2
METRIC
; #@! TA.AperFunction,Plated,PTH,ViaDrill
T1C0.300
; #@! TA.AperFunction,Plated,PTH,ComponentDrill
T2C0.750
; #@! TA.AperFunction,Plated,PTH,ComponentDrill
T3C1.000
; #@! TA.AperFunction,NonPlated,NPTH,ComponentDrill
T4C2.200
; #@! TA.AperFunction,NonPlated,NPTH,ComponentDrill
T5C3.200
%
G90
G05
T1
X109.088Y-87.081
X110.889Y-97.948
X112.726Y-79.995
X114.227Y-96.75
X115.143Y-97.026
X115.418Y-121.49
X116.147Y-92.33
X116.535Y-99.052
X116.677Y-108.445
X116.684Y-89.716
X117.241Y-94.644
X117.416Y-102.402
X117.802Y-130.252
X117.908Y-87.271
X118.035Y-69.744
X118.035Y-86.225
X118.524Y-95.276
X118.637Y-68.941
X118.647Y-97.775
X119.068Y-91.199
X119.111Y-87.755
X119.938Y-81.34
X119.938Y-87.508
X120.792Y-91.245
X121.095Y-92.902
X124.209Y-87.794
X124.448Y-91.299
X127.172Y-82.22
X130.353Y-97.579
X131.73Y-97.026
X133.124Y-116.416
X133.453Y-94.929
X137.75Y-129.5
X138.856Y-63.603
X160.25Y-121.0
X160.411Y-84.157
X160.588Y-111.716
X160.701Y-85.693
X161.347Y-79.355
X163.71Y-121.248
X164.892Y-117.699
X165.238Y-86.742
X165.238Y-94.775
X165.427Y-124.028
X165.695Y-120.937
X165.874Y-93.71
X165.876Y-86.226
X166.0Y-64.5
X166.718Y-113.904
X166.718Y-130.252
X167.32Y-119.75
X167.43Y-111.009
X167.669Y-77.768
X167.759Y-79.207
X170.0Y-73.75
X170.195Y-84.088
X176.167Y-73.09
X182.276Y-66.455
X184.289Y-69.563
X185.862Y-73.404
T2
X126.5Y-109.169
X128.5Y-109.169
T3
X110.218Y-71.718
X110.218Y-74.258
X110.218Y-76.798
X110.218Y-79.338
X110.218Y-81.878
X110.218Y-84.418
X115.647Y-71.718
X115.647Y-74.258
X115.647Y-76.798
X115.647Y-79.338
X115.647Y-81.878
X115.647Y-84.418
X141.1Y-74.6
X141.1Y-77.14
X141.1Y-79.68
X141.1Y-82.22
X141.1Y-84.76
X141.1Y-87.3
X141.1Y-89.84
X141.1Y-92.38
X141.1Y-94.92
X141.1Y-97.46
X141.1Y-100.0
X141.1Y-102.54
X141.1Y-105.08
X141.1Y-107.62
X141.1Y-110.16
X141.1Y-112.7
X141.1Y-115.24
X141.1Y-117.78
X141.1Y-120.32
X141.1Y-122.86
X158.9Y-74.6
X158.9Y-77.14
X158.9Y-79.68
X158.9Y-82.22
X158.9Y-84.76
X158.9Y-87.3
X158.9Y-89.84
X158.9Y-92.38
X158.9Y-94.92
X158.9Y-97.46
X158.9Y-100.0
X158.9Y-102.54
X158.9Y-105.08
X158.9Y-107.62
X158.9Y-110.16
X158.9Y-112.7
X158.9Y-115.24
X158.9Y-117.78
X158.9Y-120.32
X158.9Y-122.86
X163.31Y-95.703
X163.31Y-98.243
X163.31Y-100.783
X163.31Y-103.323
X163.31Y-105.863
X163.31Y-108.403
X163.315Y-74.545
X163.315Y-77.085
T4
X130.0Y-60.5
X170.0Y-139.5
T5
X123.0Y-59.0
X123.0Y-141.0
X177.0Y-59.0
X177.0Y-141.0
M30
