%TF.GenerationSoftware,KiCad,Pcbnew,10.0.4*%
%TF.CreationDate,2026-06-30T18:59:33+09:00*%
%TF.ProjectId,NanoSoul,4e616e6f-536f-4756-9c2e-6b696361645f,rev?*%
%TF.SameCoordinates,Original*%
%TF.FileFunction,Copper,L1,Top*%
%TF.FilePolarity,Positive*%
%FSLAX46Y46*%
G04 Gerber Fmt 4.6, Leading zero omitted, Abs format (unit mm)*
G04 Created by KiCad (PCBNEW 10.0.4) date 2026-06-30 18:59:33*
%MOMM*%
%LPD*%
G01*
G04 APERTURE LIST*
G04 Aperture macros list*
%AMRoundRect*
0 Rectangle with rounded corners*
0 $1 Rounding radius*
0 $2 $3 $4 $5 $6 $7 $8 $9 X,Y pos of 4 corners*
0 Add a 4 corners polygon primitive as box body*
4,1,4,$2,$3,$4,$5,$6,$7,$8,$9,$2,$3,0*
0 Add four circle primitives for the rounded corners*
1,1,$1+$1,$2,$3*
1,1,$1+$1,$4,$5*
1,1,$1+$1,$6,$7*
1,1,$1+$1,$8,$9*
0 Add four rect primitives between the rounded corners*
20,1,$1+$1,$2,$3,$4,$5,0*
20,1,$1+$1,$4,$5,$6,$7,0*
20,1,$1+$1,$6,$7,$8,$9,0*
20,1,$1+$1,$8,$9,$2,$3,0*%
%AMFreePoly0*
4,1,17,0.335278,0.685443,0.349923,0.650088,0.349923,-0.649935,0.335278,-0.685290,0.299923,-0.699935,0.000318,-0.699935,-0.000051,-0.700088,-0.300050,-0.700088,-0.335405,-0.685443,-0.350050,-0.650088,-0.350050,0.649935,-0.335405,0.685290,-0.300050,0.699935,-0.000445,0.699935,-0.000076,0.700088,0.299923,0.700088,0.335278,0.685443,0.335278,0.685443,$1*%
%AMFreePoly1*
4,1,17,0.335431,0.685290,0.350076,0.649935,0.350076,-0.650037,0.335431,-0.685392,0.300076,-0.700037,0.000187,-0.700037,0.000127,-0.700062,-0.299898,-0.700062,-0.335253,-0.685417,-0.349898,-0.650062,-0.349898,0.649910,-0.335253,0.685265,-0.299898,0.699910,-0.000009,0.699910,0.000051,0.699935,0.300076,0.699935,0.335431,0.685290,0.335431,0.685290,$1*%
%AMFreePoly2*
4,1,13,0.335227,0.685443,0.349872,0.650088,0.349872,-0.649884,0.335227,-0.685239,0.299872,-0.699884,-0.300152,-0.699884,-0.335507,-0.685239,-0.350152,-0.649884,-0.350152,0.650088,-0.335507,0.685443,-0.300152,0.700088,0.299872,0.700088,0.335227,0.685443,0.335227,0.685443,$1*%
G04 Aperture macros list end*
%TA.AperFunction,SMDPad,CuDef*%
%ADD10RoundRect,0.250000X-0.312500X-0.625000X0.312500X-0.625000X0.312500X0.625000X-0.312500X0.625000X0*%
%TD*%
%TA.AperFunction,ComponentPad*%
%ADD11R,1.700000X1.700000*%
%TD*%
%TA.AperFunction,ComponentPad*%
%ADD12C,1.700000*%
%TD*%
%TA.AperFunction,SMDPad,CuDef*%
%ADD13RoundRect,0.200000X-0.200000X-0.275000X0.200000X-0.275000X0.200000X0.275000X-0.200000X0.275000X0*%
%TD*%
%TA.AperFunction,SMDPad,CuDef*%
%ADD14RoundRect,0.250000X-0.250000X-0.475000X0.250000X-0.475000X0.250000X0.475000X-0.250000X0.475000X0*%
%TD*%
%TA.AperFunction,SMDPad,CuDef*%
%ADD15R,1.500000X2.400000*%
%TD*%
%TA.AperFunction,SMDPad,CuDef*%
%ADD16RoundRect,0.225000X-0.225000X-0.250000X0.225000X-0.250000X0.225000X0.250000X-0.225000X0.250000X0*%
%TD*%
%TA.AperFunction,SMDPad,CuDef*%
%ADD17RoundRect,0.243750X-0.243750X-0.456250X0.243750X-0.456250X0.243750X0.456250X-0.243750X0.456250X0*%
%TD*%
%TA.AperFunction,SMDPad,CuDef*%
%ADD18R,0.532000X1.072000*%
%TD*%
%TA.AperFunction,SMDPad,CuDef*%
%ADD19RoundRect,0.150000X-0.150000X-0.625000X0.150000X-0.625000X0.150000X0.625000X-0.150000X0.625000X0*%
%TD*%
%TA.AperFunction,SMDPad,CuDef*%
%ADD20RoundRect,0.250000X-0.350000X-0.650000X0.350000X-0.650000X0.350000X0.650000X-0.350000X0.650000X0*%
%TD*%
%TA.AperFunction,SMDPad,CuDef*%
%ADD21RoundRect,0.250000X-1.950000X-1.000000X1.950000X-1.000000X1.950000X1.000000X-1.950000X1.000000X0*%
%TD*%
%TA.AperFunction,SMDPad,CuDef*%
%ADD22R,0.600000X0.270000*%
%TD*%
%TA.AperFunction,SMDPad,CuDef*%
%ADD23R,0.270000X0.600000*%
%TD*%
%TA.AperFunction,ComponentPad*%
%ADD24O,1.200000X2.000000*%
%TD*%
%TA.AperFunction,ComponentPad*%
%ADD25O,1.200000X1.800000*%
%TD*%
%TA.AperFunction,SMDPad,CuDef*%
%ADD26FreePoly0,180.000000*%
%TD*%
%TA.AperFunction,SMDPad,CuDef*%
%ADD27FreePoly1,180.000000*%
%TD*%
%TA.AperFunction,SMDPad,CuDef*%
%ADD28R,0.300000X1.300000*%
%TD*%
%TA.AperFunction,SMDPad,CuDef*%
%ADD29FreePoly2,180.000000*%
%TD*%
%TA.AperFunction,SMDPad,CuDef*%
%ADD30O,0.308000X1.324000*%
%TD*%
%TA.AperFunction,SMDPad,CuDef*%
%ADD31R,1.500000X1.500000*%
%TD*%
%TA.AperFunction,SMDPad,CuDef*%
%ADD32R,0.600000X1.200000*%
%TD*%
%TA.AperFunction,SMDPad,CuDef*%
%ADD33R,2.000000X2.000000*%
%TD*%
%TA.AperFunction,SMDPad,CuDef*%
%ADD34R,2.100000X1.800000*%
%TD*%
%TA.AperFunction,SMDPad,CuDef*%
%ADD35R,1.100000X0.600000*%
%TD*%
%TA.AperFunction,ComponentPad*%
%ADD36RoundRect,0.250000X-0.350000X-0.625000X0.350000X-0.625000X0.350000X0.625000X-0.350000X0.625000X0*%
%TD*%
%TA.AperFunction,ComponentPad*%
%ADD37O,1.200000X1.750000*%
%TD*%
%TA.AperFunction,ViaPad*%
%ADD38C,0.700000*%
%TD*%
%TA.AperFunction,ViaPad*%
%ADD39C,0.600000*%
%TD*%
%TA.AperFunction,Conductor*%
%ADD40C,0.350000*%
%TD*%
%TA.AperFunction,Conductor*%
%ADD41C,0.200000*%
%TD*%
G04 APERTURE END LIST*
D10*
%TO.P,R9,1*%
%TO.N,MOT_RTN*%
X106467500Y-71140000D03*
%TO.P,R9,2*%
%TO.N,GND*%
X109392500Y-71140000D03*
%TD*%
D11*
%TO.P,J4,1*%
%TO.N,P4_VBUS*%
X158900000Y-74600000D03*
D12*
%TO.P,J4,2*%
%TO.N,VSYS*%
X158900000Y-77140000D03*
%TO.P,J4,3*%
%TO.N,GND*%
X158900000Y-79680000D03*
%TO.P,J4,4*%
%TO.N,P4_EN*%
X158900000Y-82220000D03*
%TO.P,J4,5*%
%TO.N,V3V3*%
X158900000Y-84760000D03*
%TO.P,J4,6*%
%TO.N,I2C1_SDA*%
X158900000Y-87300000D03*
%TO.P,J4,7*%
%TO.N,I2C1_SCL*%
X158900000Y-89840000D03*
%TO.P,J4,8*%
%TO.N,GND*%
X158900000Y-92380000D03*
%TO.P,J4,9*%
%TO.N,IMU_CS*%
X158900000Y-94920000D03*
%TO.P,J4,10*%
%TO.N,IMU_INT*%
X158900000Y-97460000D03*
%TO.P,J4,11*%
%TO.N,P4_RUN*%
X158900000Y-100000000D03*
%TO.P,J4,12*%
%TO.N,M2_PWM*%
X158900000Y-102540000D03*
%TO.P,J4,13*%
%TO.N,GND*%
X158900000Y-105080000D03*
%TO.P,J4,14*%
%TO.N,M2_IN1*%
X158900000Y-107620000D03*
%TO.P,J4,15*%
%TO.N,M2_IN2*%
X158900000Y-110160000D03*
%TO.P,J4,16*%
%TO.N,MOTOR_STBY*%
X158900000Y-112700000D03*
%TO.P,J4,17*%
%TO.N,M2_ENC_A*%
X158900000Y-115240000D03*
%TO.P,J4,18*%
%TO.N,GND*%
X158900000Y-117780000D03*
%TO.P,J4,19*%
%TO.N,M2_ENC_B*%
X158900000Y-120320000D03*
%TO.P,J4,20*%
%TO.N,P4_GPIO23*%
X158900000Y-122860000D03*
%TD*%
D13*
%TO.P,R16,1*%
%TO.N,V3V3*%
X162095000Y-112927000D03*
%TO.P,R16,2*%
%TO.N,M2_ENC_A*%
X163745000Y-112927000D03*
%TD*%
D14*
%TO.P,C7,1*%
%TO.N,VMOT*%
X181995000Y-71615000D03*
%TO.P,C7,2*%
%TO.N,GND*%
X183895000Y-71615000D03*
%TD*%
D15*
%TO.P,L1,1*%
%TO.N,VBAT*%
X110095000Y-80580000D03*
%TO.P,L1,2*%
%TO.N,IP5306_SW*%
X115595000Y-80580000D03*
%TD*%
D11*
%TO.P,J5,1*%
%TO.N,M0_OUT_A*%
X104220000Y-104185000D03*
D12*
%TO.P,J5,2*%
%TO.N,M0_OUT_B*%
X104220000Y-106725000D03*
%TO.P,J5,3*%
%TO.N,V3V3*%
X104220000Y-109265000D03*
%TO.P,J5,4*%
%TO.N,GND*%
X104220000Y-111805000D03*
%TO.P,J5,5*%
%TO.N,M0_ENC_A*%
X104220000Y-114345000D03*
%TO.P,J5,6*%
%TO.N,M0_ENC_B*%
X104220000Y-116885000D03*
%TD*%
D13*
%TO.P,R12,1*%
%TO.N,V3V3*%
X107995000Y-121275000D03*
%TO.P,R12,2*%
%TO.N,M0_ENC_A*%
X109645000Y-121275000D03*
%TD*%
D16*
%TO.P,C12,1*%
%TO.N,V3V3*%
X112855000Y-125665000D03*
%TO.P,C12,2*%
%TO.N,GND*%
X114405000Y-125665000D03*
%TD*%
D17*
%TO.P,F1,1*%
%TO.N,VMOT*%
X178577500Y-76175000D03*
%TO.P,F1,2*%
%TO.N,VMOT_F*%
X180452500Y-76175000D03*
%TD*%
D11*
%TO.P,J3,1*%
%TO.N,MOT_ISENSE*%
X141100000Y-74600000D03*
D12*
%TO.P,J3,2*%
%TO.N,IMU_SCLK*%
X141100000Y-77140000D03*
%TO.P,J3,3*%
%TO.N,GND*%
X141100000Y-79680000D03*
%TO.P,J3,4*%
%TO.N,M0_ENC_B*%
X141100000Y-82220000D03*
%TO.P,J3,5*%
%TO.N,M0_ENC_A*%
X141100000Y-84760000D03*
%TO.P,J3,6*%
%TO.N,M1_ENC_B*%
X141100000Y-87300000D03*
%TO.P,J3,7*%
%TO.N,M1_ENC_A*%
X141100000Y-89840000D03*
%TO.P,J3,8*%
%TO.N,GND*%
X141100000Y-92380000D03*
%TO.P,J3,9*%
%TO.N,IMU_MOSI*%
X141100000Y-94920000D03*
%TO.P,J3,10*%
%TO.N,IMU_MISO*%
X141100000Y-97460000D03*
%TO.P,J3,11*%
%TO.N,M1_PWM*%
X141100000Y-100000000D03*
%TO.P,J3,12*%
%TO.N,M0_IN2*%
X141100000Y-102540000D03*
%TO.P,J3,13*%
%TO.N,GND*%
X141100000Y-105080000D03*
%TO.P,J3,14*%
%TO.N,M0_IN1*%
X141100000Y-107620000D03*
%TO.P,J3,15*%
%TO.N,M0_PWM*%
X141100000Y-110160000D03*
%TO.P,J3,16*%
%TO.N,P4_SCL0*%
X141100000Y-112700000D03*
%TO.P,J3,17*%
%TO.N,P4_SDA0*%
X141100000Y-115240000D03*
%TO.P,J3,18*%
%TO.N,GND*%
X141100000Y-117780000D03*
%TO.P,J3,19*%
%TO.N,M1_IN1*%
X141100000Y-120320000D03*
%TO.P,J3,20*%
%TO.N,M1_IN2*%
X141100000Y-122860000D03*
%TD*%
D14*
%TO.P,C13,1*%
%TO.N,VMOT_F*%
X177670000Y-102933000D03*
%TO.P,C13,2*%
%TO.N,GND*%
X179570000Y-102933000D03*
%TD*%
D13*
%TO.P,R13,1*%
%TO.N,V3V3*%
X112845000Y-121275000D03*
%TO.P,R13,2*%
%TO.N,M0_ENC_B*%
X114495000Y-121275000D03*
%TD*%
%TO.P,R2,1*%
%TO.N,V5*%
X109750000Y-95040000D03*
%TO.P,R2,2*%
%TO.N,LED_A1*%
X111400000Y-95040000D03*
%TD*%
%TO.P,R10,1*%
%TO.N,MOT_RTN*%
X103095000Y-72470000D03*
%TO.P,R10,2*%
%TO.N,MOT_ISENSE*%
X104745000Y-72470000D03*
%TD*%
D18*
%TO.P,U3,1*%
%TO.N,MT_SW*%
X182445000Y-64736000D03*
%TO.P,U3,2*%
%TO.N,GND*%
X183395000Y-64736000D03*
%TO.P,U3,3*%
%TO.N,MT_FB*%
X184345000Y-64736000D03*
%TO.P,U3,4*%
%TO.N,VBAT*%
X184345000Y-62436000D03*
%TO.P,U3,5*%
X183395000Y-62436000D03*
%TO.P,U3,6*%
%TO.N,unconnected-(U3-NC-Pad6)*%
X182445000Y-62436000D03*
%TD*%
D13*
%TO.P,R3,1*%
%TO.N,V5*%
X114600000Y-95040000D03*
%TO.P,R3,2*%
%TO.N,LED_A2*%
X116250000Y-95040000D03*
%TD*%
D16*
%TO.P,C10,1*%
%TO.N,V3V3*%
X108005000Y-125665000D03*
%TO.P,C10,2*%
%TO.N,GND*%
X109555000Y-125665000D03*
%TD*%
D19*
%TO.P,J8,1*%
%TO.N,V3V3*%
X167900000Y-99825000D03*
%TO.P,J8,2*%
%TO.N,GND*%
X168900000Y-99825000D03*
%TO.P,J8,3*%
%TO.N,I2C1_SDA*%
X169900000Y-99825000D03*
%TO.P,J8,4*%
%TO.N,I2C1_SCL*%
X170900000Y-99825000D03*
D20*
%TO.P,J8,MP*%
%TO.N,N/C*%
X166600000Y-97300000D03*
X172200000Y-97300000D03*
%TD*%
D13*
%TO.P,R11,1*%
%TO.N,MOTOR_STBY*%
X171075000Y-106000000D03*
%TO.P,R11,2*%
%TO.N,GND*%
X172725000Y-106000000D03*
%TD*%
%TO.P,R8,1*%
%TO.N,MT_FB*%
X185570000Y-65586000D03*
%TO.P,R8,2*%
%TO.N,GND*%
X187220000Y-65586000D03*
%TD*%
%TO.P,R7,1*%
%TO.N,VMOT*%
X185570000Y-67586000D03*
%TO.P,R7,2*%
%TO.N,MT_FB*%
X187220000Y-67586000D03*
%TD*%
D21*
%TO.P,C8,1*%
%TO.N,VMOT_F*%
X124800000Y-106500000D03*
%TO.P,C8,2*%
%TO.N,GND*%
X132200000Y-106500000D03*
%TD*%
D13*
%TO.P,R14,1*%
%TO.N,V3V3*%
X117695000Y-121275000D03*
%TO.P,R14,2*%
%TO.N,M1_ENC_A*%
X119345000Y-121275000D03*
%TD*%
%TO.P,R15,1*%
%TO.N,V3V3*%
X103105000Y-125665000D03*
%TO.P,R15,2*%
%TO.N,M1_ENC_B*%
X104755000Y-125665000D03*
%TD*%
%TO.P,R6,1*%
%TO.N,USB_CC2*%
X123425000Y-59695000D03*
%TO.P,R6,2*%
%TO.N,GND*%
X125075000Y-59695000D03*
%TD*%
D11*
%TO.P,J6,1*%
%TO.N,M1_OUT_A*%
X109650000Y-104185000D03*
D12*
%TO.P,J6,2*%
%TO.N,M1_OUT_B*%
X109650000Y-106725000D03*
%TO.P,J6,3*%
%TO.N,V3V3*%
X109650000Y-109265000D03*
%TO.P,J6,4*%
%TO.N,GND*%
X109650000Y-111805000D03*
%TO.P,J6,5*%
%TO.N,M1_ENC_A*%
X109650000Y-114345000D03*
%TO.P,J6,6*%
%TO.N,M1_ENC_B*%
X109650000Y-116885000D03*
%TD*%
D14*
%TO.P,C6,1*%
%TO.N,VBAT*%
X173295000Y-76205000D03*
%TO.P,C6,2*%
%TO.N,GND*%
X175195000Y-76205000D03*
%TD*%
%TO.P,C2,1*%
%TO.N,VBAT*%
X123835000Y-86850000D03*
%TO.P,C2,2*%
%TO.N,GND*%
X125735000Y-86850000D03*
%TD*%
D16*
%TO.P,C4,1*%
%TO.N,V5*%
X114650000Y-98390000D03*
%TO.P,C4,2*%
%TO.N,GND*%
X116200000Y-98390000D03*
%TD*%
D22*
%TO.P,U6,1*%
%TO.N,IMU_MISO*%
X137160000Y-100750000D03*
%TO.P,U6,2*%
%TO.N,unconnected-(U6-SDX-Pad2)*%
X137160000Y-100250000D03*
%TO.P,U6,3*%
%TO.N,unconnected-(U6-SCX-Pad3)*%
X137160000Y-99750000D03*
%TO.P,U6,4*%
%TO.N,IMU_INT*%
X137160000Y-99250000D03*
D23*
%TO.P,U6,5*%
%TO.N,V3V3*%
X136490000Y-99080000D03*
%TO.P,U6,6*%
%TO.N,GND*%
X135990000Y-99080000D03*
%TO.P,U6,7*%
X135490000Y-99080000D03*
D22*
%TO.P,U6,8*%
%TO.N,V3V3*%
X134820000Y-99250000D03*
%TO.P,U6,9*%
%TO.N,unconnected-(U6-INT2-Pad9)*%
X134820000Y-99750000D03*
%TO.P,U6,10*%
%TO.N,unconnected-(U6-CS-AUX-Pad10)*%
X134820000Y-100250000D03*
%TO.P,U6,11*%
%TO.N,unconnected-(U6-SDO-SUX-Pad11)*%
X134820000Y-100750000D03*
D23*
%TO.P,U6,12*%
%TO.N,IMU_CS*%
X135490000Y-100920000D03*
%TO.P,U6,13*%
%TO.N,IMU_SCLK*%
X135990000Y-100920000D03*
%TO.P,U6,14*%
%TO.N,IMU_MOSI*%
X136490000Y-100920000D03*
%TD*%
D13*
%TO.P,R5,1*%
%TO.N,USB_CC1*%
X126425000Y-59695000D03*
%TO.P,R5,2*%
%TO.N,GND*%
X128075000Y-59695000D03*
%TD*%
D14*
%TO.P,C3,1*%
%TO.N,V5*%
X109845000Y-91440000D03*
%TO.P,C3,2*%
%TO.N,GND*%
X111745000Y-91440000D03*
%TD*%
D16*
%TO.P,C1,1*%
%TO.N,DW_VCC*%
X193705000Y-75241000D03*
%TO.P,C1,2*%
%TO.N,CELL_MINUS*%
X195255000Y-75241000D03*
%TD*%
%TO.P,C15,1*%
%TO.N,V3V3*%
X103155000Y-129015000D03*
%TO.P,C15,2*%
%TO.N,GND*%
X104705000Y-129015000D03*
%TD*%
D17*
%TO.P,D2,1*%
%TO.N,IP_LED2*%
X120377500Y-91410000D03*
%TO.P,D2,2*%
%TO.N,LED_A2*%
X122252500Y-91410000D03*
%TD*%
D24*
%TO.P,J2,1*%
%TO.N,GND*%
X121670000Y-56335000D03*
D25*
%TO.P,J2,2*%
X121670000Y-52155000D03*
%TO.P,J2,3*%
X130330000Y-52155000D03*
D24*
%TO.P,J2,4*%
X130330000Y-56335000D03*
D26*
%TO.P,J2,A1B12*%
X129200000Y-57095000D03*
D27*
%TO.P,J2,A4B9*%
%TO.N,CHG_IN*%
X128400000Y-57095000D03*
D28*
%TO.P,J2,A5*%
%TO.N,USB_CC1*%
X127250000Y-57095000D03*
%TO.P,J2,A6*%
%TO.N,unconnected-(J2-DP1-PadA6)*%
X126250000Y-57095000D03*
%TO.P,J2,A7*%
%TO.N,unconnected-(J2-DN1-PadA7)*%
X125750000Y-57095000D03*
%TO.P,J2,A8*%
%TO.N,unconnected-(J2-SBU1-PadA8)*%
X124750000Y-57095000D03*
D29*
%TO.P,J2,B1A12*%
%TO.N,GND*%
X122800000Y-57095000D03*
%TO.P,J2,B4A9*%
%TO.N,CHG_IN*%
X123600000Y-57095000D03*
D28*
%TO.P,J2,B5*%
%TO.N,USB_CC2*%
X124250000Y-57095000D03*
%TO.P,J2,B6*%
%TO.N,unconnected-(J2-DP2-PadB6)*%
X125250000Y-57095000D03*
%TO.P,J2,B7*%
%TO.N,unconnected-(J2-DN2-PadB7)*%
X126750000Y-57095000D03*
%TO.P,J2,B8*%
%TO.N,unconnected-(J2-SBU2-PadB8)*%
X127750000Y-57095000D03*
%TD*%
D14*
%TO.P,C11,1*%
%TO.N,VMOT_F*%
X172380000Y-102933000D03*
%TO.P,C11,2*%
%TO.N,GND*%
X174280000Y-102933000D03*
%TD*%
D30*
%TO.P,U5,1*%
%TO.N,M2_OUT_A*%
X162010000Y-109690000D03*
%TO.P,U5,2*%
X162660000Y-109690000D03*
%TO.P,U5,3*%
%TO.N,MOT_RTN*%
X163310000Y-109690000D03*
%TO.P,U5,4*%
X163960000Y-109690000D03*
%TO.P,U5,5*%
%TO.N,M2_OUT_B*%
X164610000Y-109690000D03*
%TO.P,U5,6*%
X165270000Y-109690000D03*
%TO.P,U5,7*%
%TO.N,unconnected-(U5-BO2-Pad7)*%
X165920000Y-109690000D03*
%TO.P,U5,8*%
%TO.N,unconnected-(U5-BO2-Pad8)*%
X166570000Y-109690000D03*
%TO.P,U5,9*%
%TO.N,MOT_RTN*%
X167220000Y-109690000D03*
%TO.P,U5,10*%
X167870000Y-109690000D03*
%TO.P,U5,11*%
%TO.N,unconnected-(U5-BO1-Pad11)*%
X168520000Y-109690000D03*
%TO.P,U5,12*%
%TO.N,unconnected-(U5-BO1-Pad12)*%
X169170000Y-109690000D03*
%TO.P,U5,13*%
%TO.N,VMOT_F*%
X169170000Y-102570000D03*
%TO.P,U5,14*%
X168520000Y-102570000D03*
%TO.P,U5,15*%
%TO.N,GND*%
X167870000Y-102570000D03*
%TO.P,U5,16*%
X167220000Y-102570000D03*
%TO.P,U5,17*%
X166570000Y-102570000D03*
%TO.P,U5,18*%
X165920000Y-102570000D03*
%TO.P,U5,19*%
%TO.N,MOTOR_STBY*%
X165270000Y-102570000D03*
%TO.P,U5,20*%
%TO.N,V3V3*%
X164610000Y-102570000D03*
%TO.P,U5,21*%
%TO.N,M2_IN1*%
X163960000Y-102570000D03*
%TO.P,U5,22*%
%TO.N,M2_IN2*%
X163310000Y-102570000D03*
%TO.P,U5,23*%
%TO.N,M2_PWM*%
X162660000Y-102570000D03*
%TO.P,U5,24*%
%TO.N,VMOT_F*%
X162010000Y-102570000D03*
%TD*%
%TO.P,U4,1*%
%TO.N,M0_OUT_A*%
X113880000Y-110152000D03*
%TO.P,U4,2*%
X114530000Y-110152000D03*
%TO.P,U4,3*%
%TO.N,MOT_RTN*%
X115180000Y-110152000D03*
%TO.P,U4,4*%
X115830000Y-110152000D03*
%TO.P,U4,5*%
%TO.N,M0_OUT_B*%
X116480000Y-110152000D03*
%TO.P,U4,6*%
X117140000Y-110152000D03*
%TO.P,U4,7*%
%TO.N,M1_OUT_B*%
X117790000Y-110152000D03*
%TO.P,U4,8*%
X118440000Y-110152000D03*
%TO.P,U4,9*%
%TO.N,MOT_RTN*%
X119090000Y-110152000D03*
%TO.P,U4,10*%
X119740000Y-110152000D03*
%TO.P,U4,11*%
%TO.N,M1_OUT_A*%
X120390000Y-110152000D03*
%TO.P,U4,12*%
X121040000Y-110152000D03*
%TO.P,U4,13*%
%TO.N,VMOT_F*%
X121040000Y-103032000D03*
%TO.P,U4,14*%
X120390000Y-103032000D03*
%TO.P,U4,15*%
%TO.N,M1_PWM*%
X119740000Y-103032000D03*
%TO.P,U4,16*%
%TO.N,M1_IN2*%
X119090000Y-103032000D03*
%TO.P,U4,17*%
%TO.N,M1_IN1*%
X118440000Y-103032000D03*
%TO.P,U4,18*%
%TO.N,GND*%
X117790000Y-103032000D03*
%TO.P,U4,19*%
%TO.N,MOTOR_STBY*%
X117140000Y-103032000D03*
%TO.P,U4,20*%
%TO.N,V3V3*%
X116480000Y-103032000D03*
%TO.P,U4,21*%
%TO.N,M0_IN1*%
X115830000Y-103032000D03*
%TO.P,U4,22*%
%TO.N,M0_IN2*%
X115180000Y-103032000D03*
%TO.P,U4,23*%
%TO.N,M0_PWM*%
X114530000Y-103032000D03*
%TO.P,U4,24*%
%TO.N,VMOT_F*%
X113880000Y-103032000D03*
%TD*%
D13*
%TO.P,R1,1*%
%TO.N,VBAT*%
X188805000Y-75241000D03*
%TO.P,R1,2*%
%TO.N,DW_VCC*%
X190455000Y-75241000D03*
%TD*%
D17*
%TO.P,D3,1*%
%TO.N,IP_LED3*%
X125627500Y-91410000D03*
%TO.P,D3,2*%
%TO.N,LED_A3*%
X127502500Y-91410000D03*
%TD*%
D16*
%TO.P,C14,1*%
%TO.N,V3V3*%
X117705000Y-125665000D03*
%TO.P,C14,2*%
%TO.N,GND*%
X119255000Y-125665000D03*
%TD*%
D15*
%TO.P,L2,1*%
%TO.N,VBAT*%
X173545000Y-65345000D03*
%TO.P,L2,2*%
%TO.N,MT_SW*%
X179045000Y-65345000D03*
%TD*%
D31*
%TO.P,SW1,1*%
%TO.N,KEY_BTN*%
X133100000Y-57500000D03*
%TO.P,SW1,2*%
%TO.N,GND*%
X140900000Y-57500000D03*
%TD*%
D18*
%TO.P,U1,1*%
%TO.N,DW_OD*%
X188660000Y-72130000D03*
%TO.P,U1,2*%
%TO.N,GND*%
X189610000Y-72130000D03*
%TO.P,U1,3*%
%TO.N,DW_OC*%
X190560000Y-72130000D03*
%TO.P,U1,4*%
%TO.N,unconnected-(U1-TD-Pad4)*%
X190560000Y-69830000D03*
%TO.P,U1,5*%
%TO.N,DW_VCC*%
X189610000Y-69830000D03*
%TO.P,U1,6*%
%TO.N,CELL_MINUS*%
X188660000Y-69830000D03*
%TD*%
D32*
%TO.P,U2,1*%
%TO.N,CHG_IN*%
X121295000Y-74315000D03*
%TO.P,U2,2*%
%TO.N,IP_LED1*%
X122575000Y-74315000D03*
%TO.P,U2,3*%
%TO.N,IP_LED2*%
X123845000Y-74315000D03*
%TO.P,U2,4*%
%TO.N,IP_LED3*%
X125115000Y-74315000D03*
%TO.P,U2,5*%
%TO.N,KEY_BTN*%
X125115000Y-68495000D03*
%TO.P,U2,6*%
%TO.N,VBAT*%
X123845000Y-68495000D03*
%TO.P,U2,7*%
%TO.N,IP5306_SW*%
X122575000Y-68495000D03*
%TO.P,U2,8*%
%TO.N,V5*%
X121295000Y-68495000D03*
D33*
%TO.P,U2,9*%
%TO.N,GND*%
X123205000Y-71405000D03*
%TD*%
D11*
%TO.P,J7,1*%
%TO.N,M2_OUT_A*%
X163210000Y-85593000D03*
D12*
%TO.P,J7,2*%
%TO.N,M2_OUT_B*%
X163210000Y-88133000D03*
%TO.P,J7,3*%
%TO.N,V3V3*%
X163210000Y-90673000D03*
%TO.P,J7,4*%
%TO.N,GND*%
X163210000Y-93213000D03*
%TO.P,J7,5*%
%TO.N,M2_ENC_A*%
X163210000Y-95753000D03*
%TO.P,J7,6*%
%TO.N,M2_ENC_B*%
X163210000Y-98293000D03*
%TD*%
D17*
%TO.P,D1,1*%
%TO.N,IP_LED1*%
X115127500Y-91410000D03*
%TO.P,D1,2*%
%TO.N,LED_A1*%
X117002500Y-91410000D03*
%TD*%
D34*
%TO.P,D5,1*%
%TO.N,VSYS*%
X110100000Y-87220000D03*
%TO.P,D5,2*%
%TO.N,V5*%
X114900000Y-87220000D03*
%TD*%
D35*
%TO.P,Q1,1*%
%TO.N,CELL_MINUS*%
X196165000Y-71739000D03*
%TO.P,Q1,2*%
%TO.N,DRAIN_COM*%
X196165000Y-70789000D03*
%TO.P,Q1,3*%
%TO.N,GND*%
X196165000Y-69839000D03*
%TO.P,Q1,4*%
%TO.N,DW_OC*%
X193465000Y-69839000D03*
%TO.P,Q1,5*%
%TO.N,DRAIN_COM*%
X193465000Y-70789000D03*
%TO.P,Q1,6*%
%TO.N,DW_OD*%
X193465000Y-71739000D03*
%TD*%
D16*
%TO.P,C9,1*%
%TO.N,MOT_ISENSE*%
X103145000Y-75820000D03*
%TO.P,C9,2*%
%TO.N,GND*%
X104695000Y-75820000D03*
%TD*%
D34*
%TO.P,D4,1*%
%TO.N,VMOT*%
X173550000Y-71985000D03*
%TO.P,D4,2*%
%TO.N,MT_SW*%
X178350000Y-71985000D03*
%TD*%
D14*
%TO.P,C5,1*%
%TO.N,CHG_IN*%
X118545000Y-86850000D03*
%TO.P,C5,2*%
%TO.N,GND*%
X120445000Y-86850000D03*
%TD*%
D13*
%TO.P,R18,1*%
%TO.N,V3V3*%
X162100000Y-69765000D03*
%TO.P,R18,2*%
%TO.N,I2C1_SDA*%
X163750000Y-69765000D03*
%TD*%
%TO.P,R19,1*%
%TO.N,V3V3*%
X166950000Y-69765000D03*
%TO.P,R19,2*%
%TO.N,I2C1_SCL*%
X168600000Y-69765000D03*
%TD*%
%TO.P,R17,1*%
%TO.N,V3V3*%
X166945000Y-112927000D03*
%TO.P,R17,2*%
%TO.N,M2_ENC_B*%
X168595000Y-112927000D03*
%TD*%
D36*
%TO.P,J1,1*%
%TO.N,VBAT*%
X190600000Y-64699000D03*
D37*
%TO.P,J1,2*%
%TO.N,CELL_MINUS*%
X192600000Y-64699000D03*
%TD*%
D13*
%TO.P,R4,1*%
%TO.N,V5*%
X119450000Y-95040000D03*
%TO.P,R4,2*%
%TO.N,LED_A3*%
X121100000Y-95040000D03*
%TD*%
D38*
%TO.N,MOT_RTN*%
X134542000Y-111205900D03*
X163988000Y-110906700D03*
D39*
%TO.N,GND*%
X121425300Y-72446200D03*
X118013300Y-98278900D03*
X160187800Y-86380000D03*
X117790000Y-104210000D03*
X161785500Y-105080000D03*
D38*
%TO.N,VSYS*%
X161057600Y-68861300D03*
X111807900Y-87132000D03*
X127675800Y-69209200D03*
D39*
%TO.N,V3V3*%
X113828800Y-101868300D03*
X164485800Y-103754000D03*
X134011600Y-99250000D03*
X125521900Y-70494000D03*
X106935000Y-99247000D03*
X161142900Y-83712300D03*
X137299500Y-98478300D03*
X164489700Y-112147000D03*
%TO.N,I2C1_SCL*%
X160677300Y-89531900D03*
X168196700Y-70985000D03*
%TO.N,IMU_CS*%
X159551600Y-125721200D03*
X126894700Y-130282700D03*
X127170800Y-100009600D03*
%TO.N,IMU_INT*%
X138999900Y-111717900D03*
X137032500Y-113476400D03*
X138090300Y-99250000D03*
X163040400Y-99669600D03*
X161516600Y-122341600D03*
X140758100Y-128405100D03*
%TO.N,M2_IN2*%
X160846500Y-103438000D03*
%TO.N,MOTOR_STBY*%
X127252300Y-131078000D03*
X120140700Y-107073900D03*
D38*
%TO.N,VBAT*%
X123690700Y-85455400D03*
X187842300Y-75241000D03*
X126548600Y-69471700D03*
D39*
%TO.N,M0_OUT_A*%
X108034500Y-111303700D03*
%TO.N,M0_ENC_A*%
X108931900Y-120070600D03*
D38*
%TO.N,VMOT_F*%
X127564600Y-105938900D03*
X166016100Y-85362800D03*
X166016100Y-100393000D03*
D39*
%TO.N,MOT_ISENSE*%
X135121700Y-66560400D03*
%TO.N,IMU_SCLK*%
X134606900Y-87923000D03*
X138944900Y-92261000D03*
X136240000Y-99983400D03*
%TO.N,M1_ENC_A*%
X128515600Y-118224100D03*
%TO.N,IMU_MOSI*%
X139923500Y-101039800D03*
%TO.N,M0_IN2*%
X137278100Y-101939300D03*
X138369300Y-103122500D03*
%TO.N,M0_PWM*%
X136250500Y-102844500D03*
X136250700Y-109405500D03*
%TO.N,M1_IN1*%
X129455100Y-106554900D03*
%TO.N,M1_IN2*%
X129581900Y-103118000D03*
D38*
%TO.N,CELL_MINUS*%
X194815000Y-71939000D03*
%TO.N,CHG_IN*%
X128246600Y-58472900D03*
X132145900Y-73338300D03*
X123377200Y-58358000D03*
D39*
%TO.N,M2_OUT_A*%
X166667800Y-107848900D03*
%TO.N,M2_OUT_B*%
X165282800Y-108525100D03*
%TO.N,KEY_BTN*%
X132977400Y-68495000D03*
X132977400Y-58821800D03*
%TD*%
%TO.N,MOT_RTN*%
D40*
X115830000Y-110152000D02*
X115830000Y-111190700D01*
X163960000Y-110728700D02*
X163960000Y-110878700D01*
X167220000Y-109690000D02*
X167220000Y-110590300D01*
X102286400Y-73278600D02*
X102286400Y-99112400D01*
X103095000Y-72470000D02*
X102286400Y-73278600D01*
X102286400Y-99112400D02*
X108629000Y-105455000D01*
X167220000Y-110590300D02*
X167220000Y-110727200D01*
X118944500Y-111190700D02*
X115830000Y-111190700D01*
X119090000Y-110152000D02*
X119090000Y-110979600D01*
X163960000Y-109690000D02*
X163310000Y-109690000D01*
X115830000Y-110152000D02*
X115180000Y-110152000D01*
X167870000Y-109690000D02*
X167220000Y-109690000D01*
X163960000Y-110534400D02*
X163960000Y-110728700D01*
X119740000Y-110152000D02*
X119090000Y-110152000D01*
X119090000Y-111045200D02*
X118944500Y-111190700D01*
X163960000Y-110878700D02*
X163988000Y-110906700D01*
X119090000Y-110979600D02*
X119090000Y-111045200D01*
X108629000Y-105455000D02*
X115431700Y-105455000D01*
X115431700Y-105455000D02*
X119090000Y-109113300D01*
X163960000Y-109690000D02*
X163960000Y-110209300D01*
X167220000Y-110728700D02*
X163960000Y-110728700D01*
X163960000Y-110209300D02*
X163960000Y-110534400D01*
X119090000Y-110152000D02*
X119090000Y-109113300D01*
X167220000Y-110727200D02*
X167220000Y-110728700D01*
X119250700Y-111205900D02*
X134542000Y-111205900D01*
X119090000Y-111045200D02*
X119250700Y-111205900D01*
X104425000Y-71140000D02*
X107017500Y-71140000D01*
X103095000Y-72470000D02*
X104425000Y-71140000D01*
%TO.N,GND*%
D41*
X173034700Y-105217800D02*
X174280000Y-103972500D01*
X186397900Y-66408100D02*
X187220000Y-65586000D01*
X139883900Y-86850000D02*
X139883900Y-91163900D01*
X117713900Y-87646100D02*
X117713900Y-76157600D01*
X130330000Y-57636700D02*
X128271700Y-59695000D01*
X132200000Y-106500000D02*
X133620000Y-105080000D01*
X113669600Y-89515400D02*
X111745000Y-91440000D01*
X168900000Y-100732600D02*
X168900000Y-99825000D01*
X128653400Y-53356700D02*
X130330000Y-55033300D01*
X191517000Y-70052500D02*
X191617100Y-70152600D01*
X160116100Y-78463900D02*
X158900000Y-79680000D01*
X160116100Y-71631000D02*
X160116100Y-78463900D01*
X125880500Y-60500500D02*
X125075000Y-59695000D01*
X121932500Y-125665000D02*
X129146000Y-118451500D01*
X121670000Y-57636700D02*
X121670000Y-58312500D01*
X104320400Y-111905400D02*
X109549600Y-111905400D01*
X123205000Y-71405000D02*
X139720800Y-71405000D01*
X167870000Y-101762600D02*
X168900000Y-100732600D01*
X129146000Y-117934300D02*
X140945700Y-117934300D01*
X115222400Y-126482400D02*
X114405000Y-125665000D01*
X133620000Y-105080000D02*
X141100000Y-105080000D01*
X119255000Y-125665000D02*
X118437600Y-126482400D01*
X140945700Y-117934300D02*
X141100000Y-117780000D01*
X172725000Y-105217800D02*
X173034700Y-105217800D01*
X128075000Y-59695000D02*
X127269500Y-60500500D01*
X139720800Y-71405000D02*
X139720800Y-78300800D01*
X158224800Y-69739700D02*
X160116100Y-71631000D01*
X135990000Y-97490000D02*
X135990000Y-98478300D01*
X191617100Y-70152600D02*
X191617100Y-70235200D01*
X188578800Y-70978400D02*
X179570000Y-79987200D01*
X191517000Y-69769400D02*
X191517000Y-70052500D01*
X140900000Y-57500000D02*
X139848300Y-57500000D01*
X135490000Y-99080000D02*
X135490000Y-98746600D01*
X158900000Y-105080000D02*
X161785500Y-105080000D01*
X130703500Y-57636700D02*
X130330000Y-57636700D01*
X183895000Y-71615000D02*
X183895000Y-66742500D01*
X160187800Y-86380000D02*
X169118900Y-77448900D01*
X113607600Y-126462400D02*
X114405000Y-125665000D01*
X128271700Y-59695000D02*
X128075000Y-59695000D01*
X167220000Y-102570000D02*
X167220000Y-101606300D01*
X167220000Y-102570000D02*
X167220000Y-103533700D01*
X165920000Y-102570000D02*
X165920000Y-101606300D01*
X130330000Y-56335000D02*
X130330000Y-57095000D01*
X168900000Y-97818500D02*
X164294500Y-93213000D01*
X191014600Y-70837700D02*
X190064600Y-70837700D01*
X173951100Y-77448900D02*
X175195000Y-76205000D01*
X186397900Y-68797600D02*
X188578800Y-70978400D01*
X178530500Y-103972500D02*
X174280000Y-103972500D01*
X159733000Y-93213000D02*
X158900000Y-92380000D01*
X108842500Y-71672500D02*
X108842500Y-71140000D01*
X135133400Y-98390000D02*
X118013300Y-98390000D01*
X104220000Y-111805000D02*
X104320400Y-111905400D01*
X117713900Y-87646100D02*
X115844600Y-89515400D01*
X167870000Y-102570000D02*
X167870000Y-102088100D01*
X141386100Y-69739700D02*
X158224800Y-69739700D01*
X121425300Y-71883000D02*
X121903300Y-71405000D01*
X139883900Y-91163900D02*
X141100000Y-92380000D01*
X141100000Y-92380000D02*
X135990000Y-97490000D01*
X104695000Y-75820000D02*
X108842500Y-71672500D01*
X167870000Y-101762600D02*
X167870000Y-101606300D01*
X174280000Y-102933000D02*
X174280000Y-103972500D01*
X168900000Y-99825000D02*
X168900000Y-97818500D01*
X195313300Y-69839000D02*
X194711500Y-69237200D01*
X123016700Y-111805000D02*
X109650000Y-111805000D01*
X164294500Y-93213000D02*
X163210000Y-93213000D01*
X188578800Y-70978400D02*
X188892600Y-71292300D01*
X121670000Y-52155000D02*
X121670000Y-53356700D01*
X167220000Y-101606300D02*
X167870000Y-101606300D01*
X191617100Y-70235200D02*
X191014600Y-70837700D01*
X121670000Y-58312500D02*
X108842500Y-71140000D01*
X172725000Y-105217800D02*
X172725000Y-106000000D01*
X119360500Y-87934500D02*
X118002300Y-87934500D01*
X166570000Y-101606300D02*
X167220000Y-101606300D01*
X115844600Y-89515400D02*
X113669600Y-89515400D01*
X166570000Y-102570000D02*
X166570000Y-101606300D01*
X130330000Y-56335000D02*
X130330000Y-55033300D01*
X104705000Y-129015000D02*
X107002400Y-129015000D01*
X118437600Y-126482400D02*
X115222400Y-126482400D01*
X194711500Y-69237200D02*
X192049200Y-69237200D01*
X167220000Y-103533700D02*
X171040900Y-103533700D01*
X135490000Y-98478300D02*
X135990000Y-98478300D01*
X141100000Y-79680000D02*
X139883900Y-80896100D01*
X135490000Y-98746600D02*
X135490000Y-98478300D01*
X183395000Y-65573700D02*
X184229400Y-66408100D01*
X129200000Y-57095000D02*
X130330000Y-57095000D01*
X139883900Y-86850000D02*
X125735000Y-86850000D01*
X118013300Y-98390000D02*
X116200000Y-98390000D01*
X118013300Y-98390000D02*
X118013300Y-98278900D01*
X169118900Y-77448900D02*
X173951100Y-77448900D01*
X184229400Y-66408100D02*
X186397900Y-66408100D01*
X107002400Y-129015000D02*
X109555000Y-126462400D01*
X139720800Y-71405000D02*
X141386100Y-69739700D01*
X167870000Y-102088100D02*
X167870000Y-101762600D01*
X119255000Y-125665000D02*
X121932500Y-125665000D01*
X165920000Y-101606300D02*
X166570000Y-101606300D01*
X118002300Y-87934500D02*
X117713900Y-87646100D01*
X139720800Y-78300800D02*
X141100000Y-79680000D01*
X139883900Y-80896100D02*
X139883900Y-86850000D01*
X129146000Y-118451500D02*
X129146000Y-117934300D01*
X135990000Y-99080000D02*
X135990000Y-98478300D01*
X121670000Y-56335000D02*
X121670000Y-57636700D01*
X171040900Y-103533700D02*
X172725000Y-105217800D01*
X179570000Y-79987200D02*
X179570000Y-102933000D01*
X138780100Y-56431800D02*
X131908400Y-56431800D01*
X117790000Y-104210000D02*
X117790000Y-103032000D01*
X123205000Y-71405000D02*
X121903300Y-71405000D01*
X186397900Y-66408100D02*
X186397900Y-68797600D01*
X109555000Y-126462400D02*
X109555000Y-125665000D01*
X190064600Y-70837700D02*
X189610000Y-71292300D01*
X109555000Y-126462400D02*
X113607600Y-126462400D01*
X121670000Y-53356700D02*
X128653400Y-53356700D01*
X179570000Y-102933000D02*
X178530500Y-103972500D01*
X183395000Y-64736000D02*
X183395000Y-65573700D01*
X117713900Y-76157600D02*
X121425300Y-72446200D01*
X109549600Y-111905400D02*
X109650000Y-111805000D01*
X192049200Y-69237200D02*
X191517000Y-69769400D01*
X122258300Y-57636700D02*
X121670000Y-57636700D01*
X196165000Y-69839000D02*
X195313300Y-69839000D01*
X122800000Y-57095000D02*
X122258300Y-57636700D01*
X129146000Y-117934300D02*
X123016700Y-111805000D01*
X139848300Y-57500000D02*
X138780100Y-56431800D01*
X135490000Y-98746600D02*
X135133400Y-98390000D01*
X121425300Y-72446200D02*
X121425300Y-71883000D01*
X120445000Y-86850000D02*
X119360500Y-87934500D01*
X127269500Y-60500500D02*
X125880500Y-60500500D01*
X163210000Y-93213000D02*
X159733000Y-93213000D01*
X130330000Y-57095000D02*
X130330000Y-57636700D01*
X183895000Y-66742500D02*
X184229400Y-66408100D01*
X188892600Y-71292300D02*
X189610000Y-71292300D01*
X131908400Y-56431800D02*
X130703500Y-57636700D01*
X189610000Y-72130000D02*
X189610000Y-71292300D01*
%TO.N,VSYS*%
D40*
X111614700Y-87132000D02*
X111807900Y-87132000D01*
X140674500Y-69209200D02*
X141022400Y-68861300D01*
X127675800Y-69209200D02*
X140674500Y-69209200D01*
X141022400Y-68861300D02*
X161057600Y-68861300D01*
X110100000Y-87220000D02*
X111526700Y-87220000D01*
X111526700Y-87220000D02*
X111614700Y-87132000D01*
%TO.N,V3V3*%
D41*
X117705000Y-125665000D02*
X116911600Y-124871600D01*
X164610000Y-102570000D02*
X164610000Y-103629800D01*
X136490000Y-99080000D02*
X136490000Y-98478300D01*
X162095000Y-112927000D02*
X162875000Y-112147000D01*
X103105000Y-125665000D02*
X103036300Y-125596300D01*
X103036300Y-125596300D02*
X103036300Y-110448700D01*
X164610000Y-102570000D02*
X164610000Y-101606300D01*
X108681700Y-124887400D02*
X108681700Y-121961700D01*
X103105000Y-125665000D02*
X103105000Y-126400100D01*
X164610000Y-101606300D02*
X165011700Y-101204600D01*
X140465500Y-70092300D02*
X137260900Y-70092300D01*
X117695000Y-121275000D02*
X117695000Y-121285900D01*
X108681700Y-124887400D02*
X112077400Y-124887400D01*
X134820000Y-99250000D02*
X134011600Y-99250000D01*
X166156900Y-68971900D02*
X166950000Y-69765000D01*
X112077400Y-124887400D02*
X112855000Y-125665000D01*
X159039500Y-69765000D02*
X158612500Y-69338000D01*
X108681700Y-124988300D02*
X108681700Y-124887400D01*
X116911600Y-124871600D02*
X116911600Y-122069300D01*
X158612500Y-69338000D02*
X141219800Y-69338000D01*
X162100000Y-69765000D02*
X162893100Y-68971900D01*
X162875000Y-112147000D02*
X164489700Y-112147000D01*
X164610000Y-103629800D02*
X164485800Y-103754000D01*
X136490000Y-98478300D02*
X137299500Y-98478300D01*
X164489700Y-112147000D02*
X166165000Y-112147000D01*
X141219800Y-69338000D02*
X140465500Y-70092300D01*
X137260900Y-70092300D02*
X136859200Y-70494000D01*
X116911600Y-122069300D02*
X113639300Y-122069300D01*
X136859200Y-70494000D02*
X125521900Y-70494000D01*
X109650000Y-109265000D02*
X104220000Y-109265000D01*
X162893100Y-68971900D02*
X166156900Y-68971900D01*
X166165000Y-112147000D02*
X166945000Y-112927000D01*
X113639300Y-122069300D02*
X112845000Y-121275000D01*
X166520400Y-101204600D02*
X167900000Y-99825000D01*
X162100000Y-69765000D02*
X162100000Y-82755200D01*
X103036300Y-110448700D02*
X104220000Y-109265000D01*
X103105000Y-126400100D02*
X103155000Y-126450100D01*
X108005000Y-125665000D02*
X108681700Y-124988300D01*
X107219900Y-126450100D02*
X108005000Y-125665000D01*
X103155000Y-126450100D02*
X107219900Y-126450100D01*
X162100000Y-82755200D02*
X161142900Y-83712300D01*
X103155000Y-129015000D02*
X103155000Y-126450100D01*
X160095200Y-84760000D02*
X158900000Y-84760000D01*
X113648400Y-124871600D02*
X112855000Y-125665000D01*
X161142900Y-83712300D02*
X160095200Y-84760000D01*
X116480000Y-103032000D02*
X116480000Y-102068300D01*
X134011600Y-99250000D02*
X134008600Y-99247000D01*
X114028800Y-102068300D02*
X113828800Y-101868300D01*
X116911600Y-124871600D02*
X113648400Y-124871600D01*
X108681700Y-121961700D02*
X107995000Y-121275000D01*
X165011700Y-101204600D02*
X166520400Y-101204600D01*
X117695000Y-121285900D02*
X116911600Y-122069300D01*
X162100000Y-69765000D02*
X159039500Y-69765000D01*
X116480000Y-102068300D02*
X114028800Y-102068300D01*
X134008600Y-99247000D02*
X106935000Y-99247000D01*
%TO.N,I2C1_SDA*%
X165716700Y-92983400D02*
X165716700Y-91465500D01*
X170568200Y-100955200D02*
X171192600Y-100955200D01*
X163772500Y-89521300D02*
X161517600Y-89521300D01*
X165716700Y-91465500D02*
X163772500Y-89521300D01*
X171567100Y-98833800D02*
X165716700Y-92983400D01*
X171192600Y-100955200D02*
X171567100Y-100580700D01*
X163750000Y-69765000D02*
X163750000Y-81956300D01*
X158900000Y-86806300D02*
X158900000Y-87300000D01*
X159296300Y-87300000D02*
X158900000Y-87300000D01*
X163750000Y-81956300D02*
X158900000Y-86806300D01*
X169900000Y-100287000D02*
X170568200Y-100955200D01*
X161517600Y-89521300D02*
X159296300Y-87300000D01*
X171567100Y-100580700D02*
X171567100Y-98833800D01*
X169900000Y-99825000D02*
X169900000Y-100287000D01*
%TO.N,I2C1_SCL*%
X168600000Y-70581700D02*
X168600000Y-69765000D01*
X170900000Y-99247100D02*
X170900000Y-99825000D01*
X163595900Y-91943000D02*
X170900000Y-99247100D01*
X159208100Y-89531900D02*
X160677300Y-89531900D01*
X158900000Y-89840000D02*
X159208100Y-89531900D01*
X161003000Y-91943000D02*
X163595900Y-91943000D01*
X158900000Y-89840000D02*
X161003000Y-91943000D01*
X168196700Y-70985000D02*
X168600000Y-70581700D01*
%TO.N,IMU_CS*%
X135490000Y-100920000D02*
X135490000Y-101521700D01*
X129319800Y-130282700D02*
X126894700Y-130282700D01*
X159551600Y-129546500D02*
X158476900Y-130621200D01*
X135490000Y-101521700D02*
X134556300Y-101521700D01*
X158476900Y-130621200D02*
X129658300Y-130621200D01*
X129658300Y-130621200D02*
X129319800Y-130282700D01*
X134556300Y-101521700D02*
X133044200Y-100009600D01*
X133044200Y-100009600D02*
X127170800Y-100009600D01*
X159551600Y-125721200D02*
X159551600Y-129546500D01*
%TO.N,IMU_INT*%
X163040400Y-99669600D02*
X161109600Y-99669600D01*
X158798300Y-125059900D02*
X158798300Y-129731700D01*
X158798300Y-129731700D02*
X158310500Y-130219500D01*
X161109600Y-99669600D02*
X158900000Y-97460000D01*
X141674900Y-130219500D02*
X140758100Y-129302700D01*
X140758100Y-129302700D02*
X140758100Y-128405100D01*
X161516600Y-122341600D02*
X158798300Y-125059900D01*
X138791000Y-111717900D02*
X138999900Y-111717900D01*
X137160000Y-99250000D02*
X138090300Y-99250000D01*
X137032500Y-113476400D02*
X138791000Y-111717900D01*
X158310500Y-130219500D02*
X141674900Y-130219500D01*
%TO.N,M2_PWM*%
X162660000Y-103533700D02*
X161821200Y-103533700D01*
X160827500Y-102540000D02*
X158900000Y-102540000D01*
X162660000Y-102570000D02*
X162660000Y-103533700D01*
X161821200Y-103533700D02*
X160827500Y-102540000D01*
%TO.N,M2_IN1*%
X163960000Y-102570000D02*
X163876100Y-102653900D01*
X160126300Y-107620000D02*
X158900000Y-107620000D01*
X163876100Y-103870200D02*
X160126300Y-107620000D01*
X163876100Y-102653900D02*
X163876100Y-103870200D01*
%TO.N,M2_IN2*%
X162908300Y-103935400D02*
X163310000Y-103533700D01*
X161343900Y-103935400D02*
X162908300Y-103935400D01*
X163310000Y-102570000D02*
X163310000Y-103533700D01*
X160846500Y-103438000D02*
X161343900Y-103935400D01*
%TO.N,MOTOR_STBY*%
X160265100Y-111334900D02*
X158900000Y-112700000D01*
X117140000Y-104463600D02*
X119750300Y-107073900D01*
X158647900Y-131078000D02*
X127252300Y-131078000D01*
X165270000Y-106000000D02*
X164155400Y-106000000D01*
X119750300Y-107073900D02*
X120140700Y-107073900D01*
X117140000Y-103032000D02*
X117140000Y-104463600D01*
X171075000Y-106000000D02*
X165270000Y-106000000D01*
X160265100Y-109890300D02*
X160265100Y-111334900D01*
X165270000Y-106000000D02*
X165270000Y-102570000D01*
X164155400Y-106000000D02*
X160265100Y-109890300D01*
X171075000Y-118650900D02*
X158647900Y-131078000D01*
X171075000Y-106000000D02*
X171075000Y-118650900D01*
%TO.N,M2_ENC_A*%
X161432000Y-115240000D02*
X158900000Y-115240000D01*
X163745000Y-112927000D02*
X161432000Y-115240000D01*
%TO.N,M2_ENC_B*%
X161202000Y-120320000D02*
X158900000Y-120320000D01*
X168595000Y-112927000D02*
X161202000Y-120320000D01*
%TO.N,VMOT*%
D40*
X175664200Y-73261700D02*
X178006300Y-75603700D01*
X178006300Y-75603700D02*
X178577500Y-76175000D01*
X181995000Y-71615000D02*
X178006300Y-75603700D01*
X173550000Y-71985000D02*
X173550000Y-73261700D01*
X173550000Y-73261700D02*
X175664200Y-73261700D01*
X185570000Y-71597100D02*
X184434400Y-72732700D01*
X184434400Y-72732700D02*
X183112700Y-72732700D01*
X185570000Y-67586000D02*
X185570000Y-71597100D01*
X183112700Y-72732700D02*
X181995000Y-71615000D01*
%TO.N,VBAT*%
X173545000Y-65345000D02*
X172418300Y-65345000D01*
X110095000Y-78246000D02*
X120822700Y-67518300D01*
X184345000Y-62436000D02*
X184345000Y-61523300D01*
X172122000Y-65641300D02*
X172418300Y-65345000D01*
X172122000Y-67518300D02*
X172122000Y-65641300D01*
X123835000Y-85599700D02*
X123690700Y-85455400D01*
X189249700Y-63348700D02*
X184345000Y-63348700D01*
X188805000Y-75241000D02*
X187842300Y-75241000D01*
X190600000Y-64699000D02*
X189249700Y-63348700D01*
X123845000Y-68495000D02*
X123845000Y-69471700D01*
X184345000Y-63348700D02*
X176668000Y-63348700D01*
X173295000Y-76205000D02*
X172122000Y-75032000D01*
X173545000Y-65345000D02*
X174671700Y-65345000D01*
X123845000Y-68495000D02*
X123845000Y-67518300D01*
X172122000Y-75032000D02*
X172122000Y-67518300D01*
X184345000Y-62436000D02*
X184345000Y-63348700D01*
X120822700Y-67518300D02*
X123845000Y-67518300D01*
X123845000Y-69471700D02*
X126548600Y-69471700D01*
X183395000Y-62436000D02*
X183395000Y-61523300D01*
X123835000Y-86850000D02*
X123835000Y-85599700D01*
X176668000Y-63348700D02*
X174671700Y-65345000D01*
X110095000Y-80580000D02*
X110095000Y-78246000D01*
X183395000Y-61523300D02*
X184345000Y-61523300D01*
X172122000Y-67518300D02*
X123845000Y-67518300D01*
%TO.N,IP5306_SW*%
D41*
X122575000Y-68495000D02*
X122575000Y-69396700D01*
X115595000Y-76376700D02*
X115595000Y-80580000D01*
X122575000Y-69396700D02*
X115595000Y-76376700D01*
%TO.N,M0_OUT_A*%
X113691200Y-111115700D02*
X113880000Y-111115700D01*
X114530000Y-110152000D02*
X114530000Y-109188300D01*
X108034500Y-111303700D02*
X108724700Y-110613500D01*
X113880000Y-110152000D02*
X113880000Y-110014800D01*
X113189000Y-110613500D02*
X113691200Y-111115700D01*
X113880000Y-110014800D02*
X113880000Y-109188300D01*
X108724700Y-110613500D02*
X113189000Y-110613500D01*
X113880000Y-110152000D02*
X113880000Y-111115700D01*
X113880000Y-109188300D02*
X114530000Y-109188300D01*
%TO.N,M0_OUT_B*%
X117140000Y-110152000D02*
X117140000Y-109188300D01*
X116480000Y-109289200D02*
X116480000Y-109189800D01*
X117140000Y-109188300D02*
X116480200Y-109188300D01*
X115286500Y-107995000D02*
X105490000Y-107995000D01*
X116480200Y-109188300D02*
X116480000Y-109188500D01*
X116480000Y-109188500D02*
X115286500Y-107995000D01*
X105490000Y-107995000D02*
X104220000Y-106725000D01*
X116480000Y-109189800D02*
X116480000Y-109188500D01*
X116480000Y-110152000D02*
X116480000Y-109289200D01*
%TO.N,M0_ENC_A*%
X108931900Y-120070600D02*
X109645000Y-120783700D01*
X109645000Y-120783700D02*
X109645000Y-121275000D01*
%TO.N,M0_ENC_B*%
X114495000Y-120062600D02*
X114495000Y-121275000D01*
X104220000Y-116885000D02*
X105410600Y-115694400D01*
X105410600Y-115694400D02*
X110126800Y-115694400D01*
X110126800Y-115694400D02*
X114495000Y-120062600D01*
%TO.N,VMOT_F*%
D40*
X113571300Y-101140800D02*
X113151800Y-101560300D01*
X177670000Y-85362800D02*
X177670000Y-78957500D01*
X163148300Y-100393000D02*
X166016100Y-100393000D01*
X120390000Y-103032000D02*
X121040000Y-103032000D01*
X113151800Y-102303800D02*
X113880000Y-103032000D01*
X124800000Y-106500000D02*
X121332000Y-103032000D01*
X172017000Y-102570000D02*
X172380000Y-102933000D01*
X173499700Y-101813300D02*
X176550300Y-101813300D01*
X127845100Y-105938900D02*
X130259300Y-103524700D01*
X172380000Y-102933000D02*
X173499700Y-101813300D01*
X127003500Y-106500000D02*
X127564600Y-105938900D01*
X177670000Y-85362800D02*
X166016100Y-85362800D01*
X130259300Y-103524700D02*
X130259300Y-102825900D01*
X113151800Y-101560300D02*
X113151800Y-102303800D01*
X162010000Y-101531300D02*
X163148300Y-100393000D01*
X130259300Y-102825900D02*
X128923100Y-101489700D01*
X121332000Y-103032000D02*
X121040000Y-103032000D01*
X125215200Y-101140800D02*
X113571300Y-101140800D01*
X177670000Y-78957500D02*
X180452500Y-76175000D01*
X124800000Y-106500000D02*
X127003500Y-106500000D01*
X169170000Y-102570000D02*
X172017000Y-102570000D01*
X162010000Y-102570000D02*
X162010000Y-101531300D01*
X128923100Y-101489700D02*
X125564100Y-101489700D01*
X168520000Y-102570000D02*
X169170000Y-102570000D01*
X127564600Y-105938900D02*
X127845100Y-105938900D01*
X176550300Y-101813300D02*
X177670000Y-102933000D01*
X125564100Y-101489700D02*
X125215200Y-101140800D01*
X177670000Y-102933000D02*
X177670000Y-85362800D01*
%TO.N,MOT_ISENSE*%
D41*
X110262800Y-76599000D02*
X103924000Y-76599000D01*
X103145000Y-74070000D02*
X104745000Y-72470000D01*
X103924000Y-76599000D02*
X103145000Y-75820000D01*
X135121700Y-66560400D02*
X120301400Y-66560400D01*
X120301400Y-66560400D02*
X110262800Y-76599000D01*
X103145000Y-75820000D02*
X103145000Y-74070000D01*
%TO.N,IMU_SCLK*%
X134606900Y-87923000D02*
X138944900Y-92261000D01*
X135990000Y-100920000D02*
X135990000Y-100233400D01*
X135990000Y-100233400D02*
X136240000Y-99983400D01*
%TO.N,M1_ENC_B*%
X109650000Y-116885000D02*
X104755000Y-121780000D01*
X104755000Y-121780000D02*
X104755000Y-125665000D01*
%TO.N,M1_ENC_A*%
X119345000Y-118224100D02*
X128515600Y-118224100D01*
X115465900Y-114345000D02*
X119345000Y-118224100D01*
X119345000Y-118224100D02*
X119345000Y-121275000D01*
X109650000Y-114345000D02*
X115465900Y-114345000D01*
%TO.N,IMU_MOSI*%
X136490000Y-100920000D02*
X136490000Y-101521700D01*
X136844900Y-101521700D02*
X137105200Y-101261400D01*
X136490000Y-101521700D02*
X136844900Y-101521700D01*
X137105200Y-101261400D02*
X139701900Y-101261400D01*
X139701900Y-101261400D02*
X139923500Y-101039800D01*
%TO.N,IMU_MISO*%
X137160000Y-100750000D02*
X137810000Y-100750000D01*
X137810000Y-100750000D02*
X141100000Y-97460000D01*
%TO.N,M1_PWM*%
X141100000Y-100714200D02*
X141100000Y-100000000D01*
X136622100Y-103446200D02*
X137711300Y-102357000D01*
X119740000Y-105181400D02*
X122654800Y-108096200D01*
X119740000Y-103032000D02*
X119740000Y-105181400D01*
X139457200Y-102357000D02*
X141100000Y-100714200D01*
X131496400Y-103446200D02*
X136622100Y-103446200D01*
X126935400Y-108096200D02*
X127780500Y-107251100D01*
X127780500Y-107162100D02*
X131496400Y-103446200D01*
X127780500Y-107251100D02*
X127780500Y-107162100D01*
X137711300Y-102357000D02*
X139457200Y-102357000D01*
X122654800Y-108096200D02*
X126935400Y-108096200D01*
%TO.N,M0_IN2*%
X115180000Y-103032000D02*
X115180000Y-103995700D01*
X137278100Y-101939300D02*
X131063800Y-101939300D01*
X126921700Y-100611300D02*
X126569100Y-100258700D01*
X129735800Y-100611300D02*
X126921700Y-100611300D01*
X112247500Y-101196900D02*
X112247500Y-103139800D01*
X113237100Y-100207300D02*
X112247500Y-101196900D01*
X140517500Y-103122500D02*
X138369300Y-103122500D01*
X131063800Y-101939300D02*
X129735800Y-100611300D01*
X113505100Y-104397400D02*
X114778300Y-104397400D01*
X126569100Y-100258600D02*
X126517800Y-100207300D01*
X114778300Y-104397400D02*
X115180000Y-103995700D01*
X126569100Y-100258700D02*
X126569100Y-100258600D01*
X141100000Y-102540000D02*
X140517500Y-103122500D01*
X112247500Y-103139800D02*
X113505100Y-104397400D01*
X126517800Y-100207300D02*
X113237100Y-100207300D01*
%TO.N,M0_IN1*%
X135858800Y-108946600D02*
X137185400Y-107620000D01*
X119732700Y-107898400D02*
X121266100Y-107898400D01*
X115830000Y-103032000D02*
X115830000Y-103995700D01*
X122314300Y-108946600D02*
X135858800Y-108946600D01*
X137185400Y-107620000D02*
X141100000Y-107620000D01*
X121266100Y-107898400D02*
X122314300Y-108946600D01*
X115830000Y-103995700D02*
X119732700Y-107898400D01*
%TO.N,M0_PWM*%
X113362700Y-100649700D02*
X112649200Y-101363200D01*
X126755400Y-101013000D02*
X126392100Y-100649700D01*
X126392100Y-100649700D02*
X113362700Y-100649700D01*
X131068400Y-102844500D02*
X129236900Y-101013000D01*
X141100000Y-110160000D02*
X140345500Y-109405500D01*
X140345500Y-109405500D02*
X136250700Y-109405500D01*
X112649200Y-102973500D02*
X113671400Y-103995700D01*
X112649200Y-101363200D02*
X112649200Y-102973500D01*
X113671400Y-103995700D02*
X114530000Y-103995700D01*
X136250500Y-102844500D02*
X131068400Y-102844500D01*
X129236900Y-101013000D02*
X126755400Y-101013000D01*
X114530000Y-103032000D02*
X114530000Y-103995700D01*
%TO.N,M1_IN1*%
X122454800Y-108497900D02*
X118615000Y-104658100D01*
X118440000Y-103032000D02*
X118440000Y-103995700D01*
X118615000Y-104658100D02*
X118615000Y-104170700D01*
X127512100Y-108497900D02*
X122454800Y-108497900D01*
X118615000Y-104170700D02*
X118440000Y-103995700D01*
X129455100Y-106554900D02*
X127512100Y-108497900D01*
%TO.N,M1_IN2*%
X119090000Y-103032000D02*
X119090000Y-102068300D01*
X128532200Y-102068300D02*
X129581900Y-103118000D01*
X119090000Y-102068300D02*
X128532200Y-102068300D01*
%TO.N,V5*%
D40*
X114650000Y-98390000D02*
X114650000Y-96548000D01*
X119450000Y-95040000D02*
X117942000Y-96548000D01*
X113478600Y-87110200D02*
X113904300Y-86684500D01*
X113777500Y-76989200D02*
X121295000Y-69471700D01*
X110633600Y-95923600D02*
X109750000Y-95040000D01*
X114600000Y-96498000D02*
X114600000Y-95923600D01*
X114650000Y-96548000D02*
X114600000Y-96498000D01*
X113478500Y-87110200D02*
X113478600Y-87110200D01*
X113473300Y-87811700D02*
X113473300Y-87220000D01*
X109845000Y-91440000D02*
X109750000Y-91535000D01*
X114600000Y-95923600D02*
X110633600Y-95923600D01*
X109845000Y-91440000D02*
X113473300Y-87811700D01*
X113904300Y-86684500D02*
X113904300Y-86082500D01*
X109750000Y-91535000D02*
X109750000Y-95040000D01*
X113904300Y-86082500D02*
X113777500Y-85955700D01*
X113473300Y-87220000D02*
X113473300Y-87115400D01*
X121295000Y-68495000D02*
X121295000Y-69471700D01*
X114600000Y-95923600D02*
X114600000Y-95040000D01*
X114900000Y-87220000D02*
X113473300Y-87220000D01*
X113777500Y-85955700D02*
X113777500Y-76989200D01*
X117942000Y-96548000D02*
X114650000Y-96548000D01*
X113473300Y-87115400D02*
X113478500Y-87110200D01*
%TO.N,LED_A1*%
D41*
X113372500Y-95040000D02*
X111400000Y-95040000D01*
X117002500Y-91410000D02*
X113372500Y-95040000D01*
%TO.N,MT_SW*%
X180325400Y-65573700D02*
X180096700Y-65345000D01*
X179045000Y-65345000D02*
X180096700Y-65345000D01*
X179045000Y-65345000D02*
X179045000Y-66846700D01*
X178350000Y-71985000D02*
X178350000Y-67541700D01*
X182445000Y-65573700D02*
X180325400Y-65573700D01*
X178350000Y-67541700D02*
X179045000Y-66846700D01*
X182445000Y-64736000D02*
X182445000Y-65573700D01*
%TO.N,MT_FB*%
X187958100Y-66847900D02*
X187958100Y-65064600D01*
X187220000Y-67586000D02*
X187958100Y-66847900D01*
X187629500Y-64736000D02*
X185570000Y-64736000D01*
X184837100Y-63898300D02*
X184345000Y-63898300D01*
X187958100Y-65064600D02*
X187629500Y-64736000D01*
X184345000Y-64736000D02*
X184345000Y-63898300D01*
X185570000Y-64736000D02*
X185570000Y-64631200D01*
X185570000Y-64736000D02*
X185570000Y-65586000D01*
X185570000Y-64631200D02*
X184837100Y-63898300D01*
%TO.N,LED_A2*%
X120079200Y-93583300D02*
X117706700Y-93583300D01*
X117706700Y-93583300D02*
X116250000Y-95040000D01*
X122252500Y-91410000D02*
X120079200Y-93583300D01*
%TO.N,USB_CC2*%
X124250000Y-57095000D02*
X124250000Y-58200000D01*
X124250000Y-58200000D02*
X123425000Y-59695000D01*
X124250000Y-58200000D02*
X123425000Y-59695000D01*
%TO.N,M1_OUT_A*%
X110801700Y-104185000D02*
X111415800Y-104799100D01*
X109650000Y-104185000D02*
X110801700Y-104185000D01*
X116000800Y-104799100D02*
X120390000Y-109188300D01*
X121040000Y-109188300D02*
X120390000Y-109188300D01*
X120390000Y-110152000D02*
X120390000Y-109188300D01*
X121040000Y-110152000D02*
X121040000Y-109188300D01*
X111415800Y-104799100D02*
X116000800Y-104799100D01*
%TO.N,M1_OUT_B*%
X117790000Y-110152000D02*
X117790000Y-109188300D01*
X115326700Y-106725000D02*
X117790000Y-109188300D01*
X117790000Y-110152000D02*
X117790000Y-109188300D01*
X118440000Y-110152000D02*
X118440000Y-109188300D01*
X118440000Y-109188300D02*
X117790000Y-109188300D01*
X109650000Y-106725000D02*
X115326700Y-106725000D01*
%TO.N,USB_CC1*%
X127250000Y-57095000D02*
X127250000Y-58870000D01*
X127250000Y-58870000D02*
X126425000Y-59695000D01*
%TO.N,DW_VCC*%
X189808900Y-68793400D02*
X196462500Y-68793400D01*
X197052400Y-69383300D02*
X197052400Y-74693000D01*
X193705000Y-75241000D02*
X190455000Y-75241000D01*
X196462500Y-68793400D02*
X197052400Y-69383300D01*
X189610000Y-69830000D02*
X189610000Y-68992300D01*
X189610000Y-68992300D02*
X189808900Y-68793400D01*
X194518800Y-76054800D02*
X193705000Y-75241000D01*
X195690600Y-76054800D02*
X194518800Y-76054800D01*
X197052400Y-74693000D02*
X195690600Y-76054800D01*
%TO.N,CELL_MINUS*%
D40*
X191623300Y-65675700D02*
X188660000Y-68639000D01*
X192600000Y-64699000D02*
X191623300Y-64699000D01*
X195238300Y-75224300D02*
X195255000Y-75241000D01*
X195238300Y-71739000D02*
X195238300Y-75224300D01*
X188660000Y-68639000D02*
X188660000Y-69830000D01*
X196165000Y-71739000D02*
X195238300Y-71739000D01*
X195038300Y-71939000D02*
X195238300Y-71739000D01*
X194815000Y-71939000D02*
X195038300Y-71939000D01*
X191623300Y-64699000D02*
X191623300Y-65675700D01*
%TO.N,IP_LED2*%
D41*
X123845000Y-83234800D02*
X122575000Y-84504800D01*
X122575000Y-89212500D02*
X120377500Y-91410000D01*
X122575000Y-84504800D02*
X122575000Y-89212500D01*
X123845000Y-74315000D02*
X123845000Y-83234800D01*
%TO.N,CHG_IN*%
D40*
X123600000Y-58135200D02*
X123377200Y-58358000D01*
X121295000Y-73338300D02*
X132145900Y-73338300D01*
X128246600Y-58472900D02*
X128400000Y-58319500D01*
X128400000Y-58319500D02*
X128400000Y-57095000D01*
X121295000Y-74315000D02*
X121295000Y-84100000D01*
X121295000Y-74315000D02*
X121295000Y-73338300D01*
X123600000Y-57095000D02*
X123600000Y-58135200D01*
X121295000Y-84100000D02*
X118545000Y-86850000D01*
%TO.N,M2_OUT_A*%
D41*
X162010000Y-109690000D02*
X162010000Y-108726300D01*
X162660000Y-108827100D02*
X162660000Y-108727800D01*
X163538900Y-107848900D02*
X166667800Y-107848900D01*
X162660000Y-108727800D02*
X162660000Y-108726300D01*
X162660000Y-108726300D02*
X162010000Y-108726300D01*
X162660000Y-108727800D02*
X163538900Y-107848900D01*
X162660000Y-109690000D02*
X162660000Y-108827100D01*
%TO.N,M2_OUT_B*%
X164610000Y-109690000D02*
X164610000Y-108726300D01*
X165270000Y-108727800D02*
X165270000Y-108726300D01*
X165270000Y-108537900D02*
X165282800Y-108525100D01*
X165270000Y-109690000D02*
X165270000Y-108827100D01*
X165270000Y-108726300D02*
X165270000Y-108537900D01*
X165270000Y-108827100D02*
X165270000Y-108727800D01*
X164610000Y-108726300D02*
X165270000Y-108726300D01*
%TO.N,IP_LED3*%
X125115000Y-75216700D02*
X124881600Y-75450100D01*
X125115000Y-74315000D02*
X125115000Y-75216700D01*
X124881600Y-90664100D02*
X125627500Y-91410000D01*
X124881600Y-75450100D02*
X124881600Y-90664100D01*
%TO.N,LED_A3*%
X123872500Y-95040000D02*
X121100000Y-95040000D01*
X127502500Y-91410000D02*
X123872500Y-95040000D01*
%TO.N,KEY_BTN*%
X125115000Y-68495000D02*
X132977400Y-68495000D01*
X133100000Y-58699200D02*
X132977400Y-58821800D01*
X133100000Y-57500000D02*
X133100000Y-58699200D01*
%TO.N,DW_OD*%
X188660000Y-72130000D02*
X188660000Y-72967700D01*
X191384600Y-72967700D02*
X192613300Y-71739000D01*
X188660000Y-72967700D02*
X191384600Y-72967700D01*
X193465000Y-71739000D02*
X192613300Y-71739000D01*
%TO.N,DW_OC*%
X190560000Y-71292300D02*
X191128000Y-71292300D01*
X191943500Y-69911000D02*
X191943500Y-69910900D01*
X192060100Y-70360200D02*
X192060100Y-70027600D01*
X190560000Y-72130000D02*
X190560000Y-71292300D01*
X193465000Y-69839000D02*
X192613300Y-69839000D01*
X191943500Y-69910900D02*
X192015400Y-69839000D01*
X191128000Y-71292300D02*
X192060100Y-70360200D01*
X192060100Y-70027600D02*
X191943500Y-69911000D01*
X192015400Y-69839000D02*
X192613300Y-69839000D01*
%TO.N,IP_LED1*%
X120479100Y-88336200D02*
X118201300Y-88336200D01*
X118201300Y-88336200D02*
X115127500Y-91410000D01*
X122575000Y-83736900D02*
X121887600Y-84424300D01*
X121887600Y-86927700D02*
X120479100Y-88336200D01*
X121887600Y-84424300D02*
X121887600Y-86927700D01*
X122575000Y-74315000D02*
X122575000Y-83736900D01*
%TO.N,DRAIN_COM*%
D40*
X193465000Y-70789000D02*
X196165000Y-70789000D01*
%TD*%
M02*
