%TF.GenerationSoftware,KiCad,Pcbnew,10.0.4*%
%TF.CreationDate,2026-06-22T15:15:04+09:00*%
%TF.ProjectId,NanoSoul,4e616e6f-536f-4756-9c2e-6b696361645f,rev?*%
%TF.SameCoordinates,Original*%
%TF.FileFunction,Paste,Top*%
%TF.FilePolarity,Positive*%
%FSLAX46Y46*%
G04 Gerber Fmt 4.6, Leading zero omitted, Abs format (unit mm)*
G04 Created by KiCad (PCBNEW 10.0.4) date 2026-06-22 15:15:04*
%MOMM*%
%LPD*%
G01*
G04 APERTURE LIST*
G04 Aperture macros list*
%AMRoundRect*
0 Rectangle with rounded corners*
0 $1 Rounding radius*
0 $2 $3 $4 $5 $6 $7 $8 $9 X,Y pos of 4 corners*
0 Add a 4 corners polygon primitive as box body*
4,1,4,$2,$3,$4,$5,$6,$7,$8,$9,$2,$3,0*
0 Add four circle primitives for the rounded corners*
1,1,$1+$1,$2,$3*
1,1,$1+$1,$4,$5*
1,1,$1+$1,$6,$7*
1,1,$1+$1,$8,$9*
0 Add four rect primitives between the rounded corners*
20,1,$1+$1,$2,$3,$4,$5,0*
20,1,$1+$1,$4,$5,$6,$7,0*
20,1,$1+$1,$6,$7,$8,$9,0*
20,1,$1+$1,$8,$9,$2,$3,0*%
G04 Aperture macros list end*
%ADD10RoundRect,0.225000X-0.225000X-0.250000X0.225000X-0.250000X0.225000X0.250000X-0.225000X0.250000X0*%
%ADD11RoundRect,0.250000X-1.950000X-1.000000X1.950000X-1.000000X1.950000X1.000000X-1.950000X1.000000X0*%
%ADD12RoundRect,0.200000X-0.200000X-0.275000X0.200000X-0.275000X0.200000X0.275000X-0.200000X0.275000X0*%
%ADD13R,1.100000X0.600000*%
%ADD14RoundRect,0.250000X-0.250000X-0.475000X0.250000X-0.475000X0.250000X0.475000X-0.250000X0.475000X0*%
%ADD15R,0.600000X1.200000*%
%ADD16R,2.000000X2.000000*%
%ADD17R,0.532000X1.072000*%
%ADD18RoundRect,0.250000X-0.262500X-0.450000X0.262500X-0.450000X0.262500X0.450000X-0.262500X0.450000X0*%
%ADD19R,0.505000X0.280000*%
%ADD20R,1.500000X1.200000*%
%ADD21R,0.675000X0.280000*%
%ADD22R,0.280000X0.675000*%
%ADD23R,1.500000X2.400000*%
%ADD24R,2.100000X1.800000*%
%ADD25O,0.308000X1.324000*%
%ADD26RoundRect,0.243750X-0.243750X-0.456250X0.243750X-0.456250X0.243750X0.456250X-0.243750X0.456250X0*%
%ADD27RoundRect,0.150000X-0.150000X-0.625000X0.150000X-0.625000X0.150000X0.625000X-0.150000X0.625000X0*%
%ADD28RoundRect,0.250000X-0.350000X-0.650000X0.350000X-0.650000X0.350000X0.650000X-0.350000X0.650000X0*%
%ADD29R,1.230000X1.860000*%
G04 APERTURE END LIST*
D10*
%TO.C,C9*%
X184415000Y-101810000D03*
X185965000Y-101810000D03*
%TD*%
D11*
%TO.C,C8*%
X169420000Y-98433000D03*
X176820000Y-98433000D03*
%TD*%
D12*
%TO.C,R1*%
X124705000Y-119711000D03*
X126355000Y-119711000D03*
%TD*%
%TO.C,R15*%
X189807500Y-71765000D03*
X191457500Y-71765000D03*
%TD*%
D10*
%TO.C,C14*%
X171945000Y-123037000D03*
X173495000Y-123037000D03*
%TD*%
D12*
%TO.C,R13*%
X162195000Y-123037000D03*
X163845000Y-123037000D03*
%TD*%
%TO.C,R4*%
X171900000Y-89920000D03*
X173550000Y-89920000D03*
%TD*%
D13*
%TO.C,Q1*%
X132065000Y-116209000D03*
X132065000Y-115259000D03*
X132065000Y-114309000D03*
X129365000Y-114309000D03*
X129365000Y-115259000D03*
X129365000Y-116209000D03*
%TD*%
D10*
%TO.C,C15*%
X189542500Y-75255000D03*
X191092500Y-75255000D03*
%TD*%
D14*
%TO.C,C7*%
X117895000Y-116085000D03*
X119795000Y-116085000D03*
%TD*%
%TO.C,C2*%
X176285000Y-81730000D03*
X178185000Y-81730000D03*
%TD*%
D15*
%TO.C,U2*%
X162085000Y-70325000D03*
X163365000Y-70325000D03*
X164635000Y-70325000D03*
X165905000Y-70325000D03*
X165905000Y-64505000D03*
X164635000Y-64505000D03*
X163365000Y-64505000D03*
X162085000Y-64505000D03*
D16*
X163995000Y-67415000D03*
%TD*%
D17*
%TO.C,U1*%
X124560000Y-116600000D03*
X125510000Y-116600000D03*
X126460000Y-116600000D03*
X126460000Y-114300000D03*
X125510000Y-114300000D03*
X124560000Y-114300000D03*
%TD*%
D18*
%TO.C,R7*%
X184477500Y-94890000D03*
X186302500Y-94890000D03*
%TD*%
D10*
%TO.C,C4*%
X176800000Y-89920000D03*
X178350000Y-89920000D03*
%TD*%
%TO.C,C10*%
X123702500Y-99052000D03*
X125252500Y-99052000D03*
%TD*%
D14*
%TO.C,C13*%
X177770000Y-113043000D03*
X179670000Y-113043000D03*
%TD*%
D10*
%TO.C,C12*%
X109152500Y-102402000D03*
X110702500Y-102402000D03*
%TD*%
D19*
%TO.C,U7*%
X184195000Y-71335000D03*
X184195000Y-71835000D03*
X184195000Y-72335000D03*
X187055000Y-72335000D03*
X187055000Y-71835000D03*
X187055000Y-71335000D03*
D20*
X185625000Y-71835000D03*
%TD*%
D12*
%TO.C,R10*%
X109102500Y-99052000D03*
X110752500Y-99052000D03*
%TD*%
D21*
%TO.C,U6*%
X118930000Y-88630500D03*
X118930000Y-89130500D03*
X118930000Y-89630500D03*
X118930000Y-90130500D03*
D22*
X119690000Y-90390500D03*
X120190000Y-90390500D03*
X120690000Y-90390500D03*
D21*
X121450000Y-90130500D03*
X121450000Y-89630500D03*
X121450000Y-89130500D03*
X121450000Y-88630500D03*
D22*
X120690000Y-88370500D03*
X120190000Y-88370500D03*
X119690000Y-88370500D03*
%TD*%
D12*
%TO.C,R12*%
X118802500Y-99052000D03*
X120452500Y-99052000D03*
%TD*%
D17*
%TO.C,U3*%
X118345000Y-109206000D03*
X119295000Y-109206000D03*
X120245000Y-109206000D03*
X120245000Y-106906000D03*
X119295000Y-106906000D03*
X118345000Y-106906000D03*
%TD*%
D23*
%TO.C,L1*%
X169335000Y-67350000D03*
X174835000Y-67350000D03*
%TD*%
D12*
%TO.C,R3*%
X167050000Y-89920000D03*
X168700000Y-89920000D03*
%TD*%
D24*
%TO.C,D5*%
X162550000Y-82100000D03*
X167350000Y-82100000D03*
%TD*%
D14*
%TO.C,C3*%
X162295000Y-86320000D03*
X164195000Y-86320000D03*
%TD*%
D25*
%TO.C,U5*%
X162110000Y-119800000D03*
X162760000Y-119800000D03*
X163410000Y-119800000D03*
X164060000Y-119800000D03*
X164710000Y-119800000D03*
X165370000Y-119800000D03*
X166020000Y-119800000D03*
X166670000Y-119800000D03*
X167320000Y-119800000D03*
X167970000Y-119800000D03*
X168620000Y-119800000D03*
X169270000Y-119800000D03*
X169270000Y-112680000D03*
X168620000Y-112680000D03*
X167970000Y-112680000D03*
X167320000Y-112680000D03*
X166670000Y-112680000D03*
X166020000Y-112680000D03*
X165370000Y-112680000D03*
X164710000Y-112680000D03*
X164060000Y-112680000D03*
X163410000Y-112680000D03*
X162760000Y-112680000D03*
X162110000Y-112680000D03*
%TD*%
D12*
%TO.C,R14*%
X167045000Y-123037000D03*
X168695000Y-123037000D03*
%TD*%
D26*
%TO.C,D2*%
X172827500Y-86290000D03*
X174702500Y-86290000D03*
%TD*%
%TO.C,D1*%
X167577500Y-86290000D03*
X169452500Y-86290000D03*
%TD*%
D14*
%TO.C,C6*%
X109195000Y-120675000D03*
X111095000Y-120675000D03*
%TD*%
D12*
%TO.C,R5*%
X109100000Y-124275000D03*
X110750000Y-124275000D03*
%TD*%
D24*
%TO.C,D4*%
X109450000Y-116455000D03*
X114250000Y-116455000D03*
%TD*%
D12*
%TO.C,R2*%
X162200000Y-89920000D03*
X163850000Y-89920000D03*
%TD*%
D23*
%TO.C,L2*%
X109445000Y-109815000D03*
X114945000Y-109815000D03*
%TD*%
D27*
%TO.C,J8*%
X181387500Y-67870000D03*
X182387500Y-67870000D03*
X183387500Y-67870000D03*
X184387500Y-67870000D03*
D28*
X180087500Y-65345000D03*
X185687500Y-65345000D03*
%TD*%
D10*
%TO.C,C1*%
X129605000Y-119711000D03*
X131155000Y-119711000D03*
%TD*%
D14*
%TO.C,C11*%
X172480000Y-113043000D03*
X174380000Y-113043000D03*
%TD*%
D29*
%TO.C,SW1*%
X170495000Y-73820000D03*
X174855000Y-73820000D03*
%TD*%
D12*
%TO.C,R9*%
X124287500Y-88808000D03*
X125937500Y-88808000D03*
%TD*%
%TO.C,R11*%
X113952500Y-99052000D03*
X115602500Y-99052000D03*
%TD*%
D14*
%TO.C,C5*%
X170995000Y-81730000D03*
X172895000Y-81730000D03*
%TD*%
D12*
%TO.C,R8*%
X184365000Y-98460000D03*
X186015000Y-98460000D03*
%TD*%
D26*
%TO.C,F1*%
X114477500Y-120645000D03*
X116352500Y-120645000D03*
%TD*%
D12*
%TO.C,R16*%
X184642500Y-75255000D03*
X186292500Y-75255000D03*
%TD*%
D10*
%TO.C,C16*%
X184692500Y-78605000D03*
X186242500Y-78605000D03*
%TD*%
D26*
%TO.C,D3*%
X178077500Y-86290000D03*
X179952500Y-86290000D03*
%TD*%
D25*
%TO.C,U4*%
X109017500Y-95815000D03*
X109667500Y-95815000D03*
X110317500Y-95815000D03*
X110967500Y-95815000D03*
X111617500Y-95815000D03*
X112277500Y-95815000D03*
X112927500Y-95815000D03*
X113577500Y-95815000D03*
X114227500Y-95815000D03*
X114877500Y-95815000D03*
X115527500Y-95815000D03*
X116177500Y-95815000D03*
X116177500Y-88695000D03*
X115527500Y-88695000D03*
X114877500Y-88695000D03*
X114227500Y-88695000D03*
X113577500Y-88695000D03*
X112927500Y-88695000D03*
X112277500Y-88695000D03*
X111617500Y-88695000D03*
X110967500Y-88695000D03*
X110317500Y-88695000D03*
X109667500Y-88695000D03*
X109017500Y-88695000D03*
%TD*%
D12*
%TO.C,R6*%
X113950000Y-124275000D03*
X115600000Y-124275000D03*
%TD*%
M02*
