%TF.GenerationSoftware,KiCad,Pcbnew,10.0.4*%
%TF.CreationDate,2026-06-22T15:15:04+09:00*%
%TF.ProjectId,NanoSoul,4e616e6f-536f-4756-9c2e-6b696361645f,rev?*%
%TF.SameCoordinates,Original*%
%TF.FileFunction,Copper,L2,Bot*%
%TF.FilePolarity,Positive*%
%FSLAX46Y46*%
G04 Gerber Fmt 4.6, Leading zero omitted, Abs format (unit mm)*
G04 Created by KiCad (PCBNEW 10.0.4) date 2026-06-22 15:15:04*
%MOMM*%
%LPD*%
G01*
G04 APERTURE LIST*
G04 Aperture macros list*
%AMRoundRect*
0 Rectangle with rounded corners*
0 $1 Rounding radius*
0 $2 $3 $4 $5 $6 $7 $8 $9 X,Y pos of 4 corners*
0 Add a 4 corners polygon primitive as box body*
4,1,4,$2,$3,$4,$5,$6,$7,$8,$9,$2,$3,0*
0 Add four circle primitives for the rounded corners*
1,1,$1+$1,$2,$3*
1,1,$1+$1,$4,$5*
1,1,$1+$1,$6,$7*
1,1,$1+$1,$8,$9*
0 Add four rect primitives between the rounded corners*
20,1,$1+$1,$2,$3,$4,$5,0*
20,1,$1+$1,$4,$5,$6,$7,0*
20,1,$1+$1,$6,$7,$8,$9,0*
20,1,$1+$1,$8,$9,$2,$3,0*%
G04 Aperture macros list end*
%TA.AperFunction,ComponentPad*%
%ADD10R,1.700000X1.700000*%
%TD*%
%TA.AperFunction,ComponentPad*%
%ADD11C,1.700000*%
%TD*%
%TA.AperFunction,ComponentPad*%
%ADD12RoundRect,0.250000X-0.350000X-0.625000X0.350000X-0.625000X0.350000X0.625000X-0.350000X0.625000X0*%
%TD*%
%TA.AperFunction,ComponentPad*%
%ADD13O,1.200000X1.750000*%
%TD*%
%TA.AperFunction,ViaPad*%
%ADD14C,0.600000*%
%TD*%
%TA.AperFunction,ViaPad*%
%ADD15C,0.550000*%
%TD*%
%TA.AperFunction,Conductor*%
%ADD16C,0.200000*%
%TD*%
%TA.AperFunction,Conductor*%
%ADD17C,0.500000*%
%TD*%
G04 APERTURE END LIST*
D10*
%TO.P,J4,1*%
%TO.N,P4_VBUS*%
X158900000Y-74600000D03*
D11*
%TO.P,J4,2*%
%TO.N,VSYS*%
X158900000Y-77140000D03*
%TO.P,J4,3*%
%TO.N,GND*%
X158900000Y-79680000D03*
%TO.P,J4,4*%
%TO.N,P4_EN*%
X158900000Y-82220000D03*
%TO.P,J4,5*%
%TO.N,V3V3*%
X158900000Y-84760000D03*
%TO.P,J4,6*%
%TO.N,I2C1_SDA*%
X158900000Y-87300000D03*
%TO.P,J4,7*%
%TO.N,I2C1_SCL*%
X158900000Y-89840000D03*
%TO.P,J4,8*%
%TO.N,GND*%
X158900000Y-92380000D03*
%TO.P,J4,9*%
%TO.N,IMU_CS*%
X158900000Y-94920000D03*
%TO.P,J4,10*%
%TO.N,IMU_INT*%
X158900000Y-97460000D03*
%TO.P,J4,11*%
%TO.N,P4_RUN*%
X158900000Y-100000000D03*
%TO.P,J4,12*%
%TO.N,M2_PWM*%
X158900000Y-102540000D03*
%TO.P,J4,13*%
%TO.N,GND*%
X158900000Y-105080000D03*
%TO.P,J4,14*%
%TO.N,M2_IN1*%
X158900000Y-107620000D03*
%TO.P,J4,15*%
%TO.N,M2_IN2*%
X158900000Y-110160000D03*
%TO.P,J4,16*%
%TO.N,MOT_ISENSE*%
X158900000Y-112700000D03*
%TO.P,J4,17*%
%TO.N,M2_ENC_A*%
X158900000Y-115240000D03*
%TO.P,J4,18*%
%TO.N,GND*%
X158900000Y-117780000D03*
%TO.P,J4,19*%
%TO.N,M2_ENC_B*%
X158900000Y-120320000D03*
%TO.P,J4,20*%
%TO.N,P4_GPIO23*%
X158900000Y-122860000D03*
%TD*%
D10*
%TO.P,J3,1*%
%TO.N,MOTOR_STBY*%
X141100000Y-74600000D03*
D11*
%TO.P,J3,2*%
%TO.N,IMU_SCLK*%
X141100000Y-77140000D03*
%TO.P,J3,3*%
%TO.N,GND*%
X141100000Y-79680000D03*
%TO.P,J3,4*%
%TO.N,M0_ENC_B*%
X141100000Y-82220000D03*
%TO.P,J3,5*%
%TO.N,M0_ENC_A*%
X141100000Y-84760000D03*
%TO.P,J3,6*%
%TO.N,M1_ENC_B*%
X141100000Y-87300000D03*
%TO.P,J3,7*%
%TO.N,M1_ENC_A*%
X141100000Y-89840000D03*
%TO.P,J3,8*%
%TO.N,GND*%
X141100000Y-92380000D03*
%TO.P,J3,9*%
%TO.N,IMU_MOSI*%
X141100000Y-94920000D03*
%TO.P,J3,10*%
%TO.N,IMU_MISO*%
X141100000Y-97460000D03*
%TO.P,J3,11*%
%TO.N,M1_PWM*%
X141100000Y-100000000D03*
%TO.P,J3,12*%
%TO.N,M0_IN2*%
X141100000Y-102540000D03*
%TO.P,J3,13*%
%TO.N,GND*%
X141100000Y-105080000D03*
%TO.P,J3,14*%
%TO.N,M0_IN1*%
X141100000Y-107620000D03*
%TO.P,J3,15*%
%TO.N,M0_PWM*%
X141100000Y-110160000D03*
%TO.P,J3,16*%
%TO.N,P4_SCL0*%
X141100000Y-112700000D03*
%TO.P,J3,17*%
%TO.N,P4_SDA0*%
X141100000Y-115240000D03*
%TO.P,J3,18*%
%TO.N,GND*%
X141100000Y-117780000D03*
%TO.P,J3,19*%
%TO.N,M1_IN1*%
X141100000Y-120320000D03*
%TO.P,J3,20*%
%TO.N,M1_IN2*%
X141100000Y-122860000D03*
%TD*%
D10*
%TO.P,J5,1*%
%TO.N,M0_OUT_A*%
X110217500Y-71718000D03*
D11*
%TO.P,J5,2*%
%TO.N,M0_OUT_B*%
X110217500Y-74258000D03*
%TO.P,J5,3*%
%TO.N,V3V3*%
X110217500Y-76798000D03*
%TO.P,J5,4*%
%TO.N,GND*%
X110217500Y-79338000D03*
%TO.P,J5,5*%
%TO.N,M0_ENC_A*%
X110217500Y-81878000D03*
%TO.P,J5,6*%
%TO.N,M0_ENC_B*%
X110217500Y-84418000D03*
%TD*%
D10*
%TO.P,J2,1*%
%TO.N,CHG_IN*%
X163315000Y-74545000D03*
D11*
%TO.P,J2,2*%
%TO.N,GND*%
X163315000Y-77085000D03*
%TD*%
D10*
%TO.P,J7,1*%
%TO.N,M2_OUT_A*%
X163310000Y-95703000D03*
D11*
%TO.P,J7,2*%
%TO.N,M2_OUT_B*%
X163310000Y-98243000D03*
%TO.P,J7,3*%
%TO.N,V3V3*%
X163310000Y-100783000D03*
%TO.P,J7,4*%
%TO.N,GND*%
X163310000Y-103323000D03*
%TO.P,J7,5*%
%TO.N,M2_ENC_A*%
X163310000Y-105863000D03*
%TO.P,J7,6*%
%TO.N,M2_ENC_B*%
X163310000Y-108403000D03*
%TD*%
D10*
%TO.P,J6,1*%
%TO.N,M1_OUT_A*%
X115647500Y-71718000D03*
D11*
%TO.P,J6,2*%
%TO.N,M1_OUT_B*%
X115647500Y-74258000D03*
%TO.P,J6,3*%
%TO.N,V3V3*%
X115647500Y-76798000D03*
%TO.P,J6,4*%
%TO.N,GND*%
X115647500Y-79338000D03*
%TO.P,J6,5*%
%TO.N,M1_ENC_A*%
X115647500Y-81878000D03*
%TO.P,J6,6*%
%TO.N,M1_ENC_B*%
X115647500Y-84418000D03*
%TD*%
D12*
%TO.P,J1,1*%
%TO.N,VBAT*%
X126500000Y-109169000D03*
D13*
%TO.P,J1,2*%
%TO.N,CELL_MINUS*%
X128500000Y-109169000D03*
%TD*%
D14*
%TO.N,GND*%
X137750000Y-129500000D03*
X116677500Y-108445000D03*
X117416100Y-102402000D03*
X160250000Y-121000000D03*
%TO.N,VMOT_F*%
X116684100Y-89716200D03*
X115417600Y-121490200D03*
X116146600Y-92330200D03*
X166717700Y-113903700D03*
X117801900Y-130252100D03*
X166717700Y-130252100D03*
%TO.N,VBAT*%
X138855500Y-63603300D03*
%TO.N,V3V3*%
X121094800Y-92902300D03*
X118524100Y-95275700D03*
X161347300Y-79354600D03*
X109088200Y-87081300D03*
X163710200Y-121248300D03*
X120791800Y-91245300D03*
X124208600Y-87794500D03*
X176167500Y-73090500D03*
%TO.N,I2C1_SDA*%
X182275900Y-66454700D03*
X185861600Y-73404100D03*
X160411400Y-84157400D03*
%TO.N,I2C1_SCL*%
X184289100Y-69563000D03*
X160701500Y-85692600D03*
%TO.N,IMU_CS*%
X118034900Y-86225400D03*
X165237900Y-94775100D03*
X165237900Y-86742100D03*
X118034900Y-69743900D03*
%TO.N,IMU_INT*%
X165875800Y-86226300D03*
X118636600Y-68940500D03*
X165874200Y-93710200D03*
X119067800Y-91198600D03*
%TO.N,M2_PWM*%
X160588200Y-111716300D03*
%TO.N,M2_ENC_B*%
X165427300Y-124028200D03*
%TO.N,CELL_MINUS*%
X133123900Y-116416200D03*
%TO.N,CHG_IN*%
X167669400Y-77768400D03*
%TO.N,KEY_BTN*%
X170000000Y-73750000D03*
X166000000Y-64500000D03*
D15*
%TO.N,MOT_RTN*%
X114227500Y-96750000D03*
X167320000Y-119750000D03*
D14*
%TO.N,MOTOR_STBY*%
X170194800Y-84087600D03*
X167758800Y-79206800D03*
X167430000Y-111009400D03*
%TO.N,IMU_SCLK*%
X119937700Y-81339800D03*
X119937700Y-87508200D03*
%TO.N,M0_ENC_B*%
X110889500Y-97947600D03*
X118647000Y-97774900D03*
X127172100Y-82220000D03*
%TO.N,M0_ENC_A*%
X112725700Y-79995400D03*
%TO.N,M1_ENC_B*%
X115143200Y-97026400D03*
%TO.N,M1_ENC_A*%
X116535500Y-99052000D03*
%TO.N,IMU_MOSI*%
X124448000Y-91299500D03*
X119111400Y-87755100D03*
%TO.N,M0_IN2*%
X131729900Y-97026200D03*
X130353400Y-97579100D03*
%TO.N,M1_IN1*%
X133452600Y-94928600D03*
%TO.N,M1_IN2*%
X117907800Y-87270700D03*
%TO.N,M2_OUT_A*%
X164891900Y-117698600D03*
%TO.N,M2_OUT_B*%
X165695300Y-120936800D03*
%TO.N,M1_OUT_A*%
X117241100Y-94643900D03*
%TD*%
%TO.N,GND*%
D16*
X160686600Y-79105500D02*
X160686600Y-79603700D01*
X141100000Y-92380000D02*
X139948300Y-93531700D01*
X141100000Y-79680000D02*
X139883900Y-80896100D01*
X160720000Y-79680000D02*
X158900000Y-79680000D01*
D17*
X160250000Y-123750000D02*
X160250000Y-121000000D01*
D16*
X161647100Y-78752900D02*
X161039200Y-78752900D01*
X139948300Y-103928300D02*
X141100000Y-105080000D01*
X164490200Y-104503200D02*
X163310000Y-103323000D01*
X160741500Y-79658500D02*
X160720000Y-79680000D01*
X139883900Y-80896100D02*
X139883900Y-91163900D01*
X160148500Y-93628500D02*
X158900000Y-92380000D01*
X163310000Y-103323000D02*
X160148500Y-100161500D01*
X158900000Y-117780000D02*
X161591600Y-115088400D01*
X163719300Y-107133000D02*
X164490200Y-106362100D01*
X116677500Y-103140600D02*
X116677500Y-108445000D01*
D17*
X160000000Y-124000000D02*
X160000000Y-123750000D01*
D16*
X163315000Y-77085000D02*
X161647100Y-78752900D01*
D17*
X158500000Y-130250000D02*
X158500000Y-124250000D01*
X158500000Y-124250000D02*
X159750000Y-124250000D01*
D16*
X164490200Y-106362100D02*
X164490200Y-104503200D01*
X115647500Y-79338000D02*
X110217500Y-79338000D01*
X161591600Y-108491600D02*
X162950200Y-107133000D01*
X139883900Y-116563900D02*
X139883900Y-106296100D01*
D17*
X160000000Y-123750000D02*
X160250000Y-123750000D01*
D16*
X162950200Y-107133000D02*
X163719300Y-107133000D01*
D17*
X159750000Y-124250000D02*
X159750000Y-124000000D01*
D16*
X160686600Y-79603700D02*
X160741500Y-79658500D01*
D17*
X159750000Y-124000000D02*
X160000000Y-124000000D01*
D16*
X161591600Y-115088400D02*
X161591600Y-108491600D01*
X141100000Y-117780000D02*
X139883900Y-116563900D01*
X139883900Y-91163900D02*
X141100000Y-92380000D01*
X160148500Y-100161500D02*
X160148500Y-93628500D01*
X139883900Y-106296100D02*
X141100000Y-105080000D01*
D17*
X137750000Y-129500000D02*
X137750000Y-130250000D01*
D16*
X139948300Y-93531700D02*
X139948300Y-103928300D01*
X161039200Y-78752900D02*
X160686600Y-79105500D01*
X117416100Y-102402000D02*
X116677500Y-103140600D01*
D17*
X137750000Y-130250000D02*
X158500000Y-130250000D01*
%TO.N,VMOT_F*%
D16*
X117801900Y-123874500D02*
X117801900Y-130252100D01*
X115417600Y-121490200D02*
X117801900Y-123874500D01*
X116639400Y-92330200D02*
X116639400Y-95096000D01*
X117192400Y-95649000D02*
X117192400Y-99305700D01*
X117192400Y-99305700D02*
X115417600Y-101080500D01*
X116684100Y-89716200D02*
X116639400Y-89760900D01*
X116639400Y-89760900D02*
X116639400Y-92330200D01*
X116639400Y-92330200D02*
X116146600Y-92330200D01*
X116639400Y-95096000D02*
X117192400Y-95649000D01*
X115417600Y-101080500D02*
X115417600Y-121490200D01*
X166717700Y-113903700D02*
X166717700Y-130252100D01*
%TO.N,VBAT*%
X126500000Y-99474900D02*
X138855500Y-87119400D01*
X126500000Y-109169000D02*
X126500000Y-99474900D01*
X138855500Y-87119400D02*
X138855500Y-63603300D01*
%TO.N,V3V3*%
X118524100Y-93513000D02*
X118524100Y-95275700D01*
X121094800Y-91548300D02*
X121094800Y-92902300D01*
X160043300Y-85026300D02*
X160025600Y-85026300D01*
X120791800Y-91245300D02*
X121094800Y-91548300D01*
X164231700Y-85026300D02*
X176167500Y-73090500D01*
X159759300Y-84760000D02*
X159759300Y-83639700D01*
X109023100Y-77992400D02*
X110217500Y-76798000D01*
X160043300Y-85903300D02*
X161557500Y-87417500D01*
X109088200Y-87081300D02*
X109023100Y-87016200D01*
X160043300Y-85026300D02*
X160043300Y-85903300D01*
X120791800Y-91211300D02*
X124208600Y-87794500D01*
X164891900Y-111248200D02*
X163710200Y-112429900D01*
X163710200Y-112429900D02*
X163710200Y-121248300D01*
X161557500Y-87417500D02*
X161557500Y-99030500D01*
X161557500Y-99030500D02*
X163310000Y-100783000D01*
X161347300Y-82051700D02*
X161347300Y-79354600D01*
X159759300Y-84760000D02*
X158900000Y-84760000D01*
X120791800Y-91245300D02*
X118524100Y-93513000D01*
X160043300Y-85026300D02*
X164231700Y-85026300D01*
X109023100Y-87016200D02*
X109023100Y-77992400D01*
X115647500Y-76798000D02*
X110217500Y-76798000D01*
X120791800Y-91245300D02*
X120791800Y-91211300D01*
X164891900Y-102364900D02*
X164891900Y-111248200D01*
X160025600Y-85026300D02*
X159759300Y-84760000D01*
X163310000Y-100783000D02*
X164891900Y-102364900D01*
X159759300Y-83639700D02*
X161347300Y-82051700D01*
%TO.N,I2C1_SDA*%
X185861600Y-70040400D02*
X182275900Y-66454700D01*
X181361800Y-66454700D02*
X182275900Y-66454700D01*
X163659100Y-84157400D02*
X181361800Y-66454700D01*
X185861600Y-73404100D02*
X185861600Y-70040400D01*
X160411400Y-84157400D02*
X163659100Y-84157400D01*
%TO.N,M2_ENC_A*%
X161189900Y-112950100D02*
X161189900Y-107983100D01*
X161189900Y-107983100D02*
X163310000Y-105863000D01*
X158900000Y-115240000D02*
X161189900Y-112950100D01*
%TO.N,I2C1_SCL*%
X170366200Y-83485900D02*
X169945700Y-83485900D01*
X160769500Y-85624600D02*
X160701500Y-85692600D01*
X184289100Y-69563000D02*
X170366200Y-83485900D01*
X168227500Y-85624600D02*
X160769500Y-85624600D01*
X169593100Y-84259000D02*
X168227500Y-85624600D01*
X169945700Y-83485900D02*
X169593100Y-83838500D01*
X169593100Y-83838500D02*
X169593100Y-84259000D01*
%TO.N,IMU_CS*%
X118034900Y-86225400D02*
X118034900Y-69743900D01*
X165237900Y-86742100D02*
X165237900Y-94775100D01*
%TO.N,IMU_INT*%
X118509700Y-90640500D02*
X118509700Y-86601500D01*
X165875800Y-93708600D02*
X165874200Y-93710200D01*
X119067800Y-91198600D02*
X118509700Y-90640500D01*
X118636600Y-86474600D02*
X118636600Y-68940500D01*
X118509700Y-86601500D02*
X118636600Y-86474600D01*
X165875800Y-86226300D02*
X165875800Y-93708600D01*
%TO.N,M2_PWM*%
X160588200Y-104228200D02*
X160588200Y-111716300D01*
X158900000Y-102540000D02*
X160588200Y-104228200D01*
%TO.N,M2_ENC_B*%
X163027400Y-108685600D02*
X163027400Y-120320000D01*
X163310000Y-108403000D02*
X163027400Y-108685600D01*
X163027400Y-121628300D02*
X165427300Y-124028200D01*
X163027400Y-120320000D02*
X163027400Y-121628300D01*
X163027400Y-120320000D02*
X158900000Y-120320000D01*
%TO.N,CELL_MINUS*%
X129401700Y-109169000D02*
X129401700Y-112694000D01*
X129401700Y-112694000D02*
X133123900Y-116416200D01*
X128500000Y-109169000D02*
X129401700Y-109169000D01*
%TO.N,CHG_IN*%
X163315000Y-75696700D02*
X165597700Y-75696700D01*
X165597700Y-75696700D02*
X167669400Y-77768400D01*
X163315000Y-74545000D02*
X163315000Y-75696700D01*
%TO.N,KEY_BTN*%
X170000000Y-73750000D02*
X166000000Y-73750000D01*
X166000000Y-73750000D02*
X166000000Y-64500000D01*
%TO.N,MOT_RTN*%
D17*
X114227500Y-96750000D02*
X114250000Y-97000000D01*
X114250000Y-97000000D02*
X114250000Y-131250000D01*
X167500000Y-119750000D02*
X167320000Y-119750000D01*
X167000000Y-131000000D02*
X167500000Y-131000000D01*
X167500000Y-131000000D02*
X167500000Y-119750000D01*
X114250000Y-131250000D02*
X167000000Y-131250000D01*
X167000000Y-131250000D02*
X167000000Y-131000000D01*
%TO.N,MOTOR_STBY*%
D16*
X160668400Y-69761000D02*
X141753900Y-69761000D01*
X168287600Y-77380200D02*
X160668400Y-69761000D01*
X167758800Y-79206800D02*
X168287600Y-78678000D01*
X141753900Y-69761000D02*
X141100000Y-70414900D01*
X167430000Y-111009400D02*
X170194800Y-108244600D01*
X170194800Y-108244600D02*
X170194800Y-84087600D01*
X168287600Y-78678000D02*
X168287600Y-77380200D01*
X141100000Y-70414900D02*
X141100000Y-74600000D01*
%TO.N,IMU_SCLK*%
X119937700Y-87508200D02*
X119937700Y-81339800D01*
%TO.N,M0_ENC_B*%
X127172100Y-89426300D02*
X118823500Y-97774900D01*
X110217500Y-84418000D02*
X110889500Y-85090000D01*
X127172100Y-82220000D02*
X127172100Y-89426300D01*
X118823500Y-97774900D02*
X118647000Y-97774900D01*
X110889500Y-85090000D02*
X110889500Y-97947600D01*
%TO.N,M0_ENC_A*%
X112100100Y-79995400D02*
X112725700Y-79995400D01*
X110217500Y-81878000D02*
X112100100Y-79995400D01*
%TO.N,M1_ENC_B*%
X115143200Y-84922300D02*
X115143200Y-97026400D01*
X115647500Y-84418000D02*
X115143200Y-84922300D01*
%TO.N,M1_ENC_A*%
X115647500Y-81878000D02*
X116831700Y-83062200D01*
X115544900Y-92579300D02*
X116082400Y-93116800D01*
X116831700Y-88717800D02*
X115544900Y-90004600D01*
X115544900Y-90004600D02*
X115544900Y-92579300D01*
X116831700Y-83062200D02*
X116831700Y-88717800D01*
X116082400Y-93116800D02*
X116082400Y-98598900D01*
X116082400Y-98598900D02*
X116535500Y-99052000D01*
%TO.N,IMU_MOSI*%
X124498200Y-87176600D02*
X123460800Y-87176600D01*
X122527400Y-88110000D02*
X119466300Y-88110000D01*
X119466300Y-88110000D02*
X119111400Y-87755100D01*
X124816300Y-87494700D02*
X124498200Y-87176600D01*
X124816300Y-90931200D02*
X124816300Y-87494700D01*
X123460800Y-87176600D02*
X122527400Y-88110000D01*
X124448000Y-91299500D02*
X124816300Y-90931200D01*
%TO.N,M0_IN2*%
X131177000Y-97579100D02*
X131729900Y-97026200D01*
X130353400Y-97579100D02*
X131177000Y-97579100D01*
%TO.N,M1_IN1*%
X133452600Y-112672600D02*
X133452600Y-94928600D01*
X141100000Y-120320000D02*
X133452600Y-112672600D01*
%TO.N,M1_IN2*%
X117907800Y-95510200D02*
X117907800Y-87270700D01*
X141100000Y-122860000D02*
X138429900Y-122860000D01*
X118030500Y-95632900D02*
X117907800Y-95510200D01*
X138429900Y-122860000D02*
X118030500Y-102460600D01*
X118030500Y-102460600D02*
X118030500Y-95632900D01*
%TO.N,M2_OUT_A*%
X165293600Y-101087900D02*
X163837000Y-99631300D01*
X162134100Y-97742700D02*
X163022100Y-96854700D01*
X163837000Y-99631300D02*
X162984900Y-99631300D01*
X163310000Y-95703000D02*
X163310000Y-96854700D01*
X162984900Y-99631300D02*
X162134100Y-98780500D01*
X165293600Y-117296900D02*
X165293600Y-101087900D01*
X162134100Y-98780500D02*
X162134100Y-97742700D01*
X163022100Y-96854700D02*
X163310000Y-96854700D01*
X164891900Y-117698600D02*
X165293600Y-117296900D01*
%TO.N,M2_OUT_B*%
X165695300Y-100628300D02*
X165695300Y-120936800D01*
X163310000Y-98243000D02*
X165695300Y-100628300D01*
%TO.N,M1_OUT_A*%
X117305700Y-94579300D02*
X117241100Y-94643900D01*
X117305700Y-74240000D02*
X117305700Y-94579300D01*
X115935400Y-72869700D02*
X117305700Y-74240000D01*
X115647500Y-72869700D02*
X115935400Y-72869700D01*
X115647500Y-71718000D02*
X115647500Y-72869700D01*
%TD*%
M02*
